<svg width="232" height="144" viewBox="0 0 232 144" fill="none" xmlns="http://www.w3.org/2000/svg">
<path d="M22.6097 3.08008C22.6097 3.08008 33.1009 31.8866 44.8702 47.1873C58.9019 65.4293 69.2818 75.3814 90.3327 84.7318C101.261 89.5859 107.876 94.2502 119.778 93.135C125.575 92.5918 129.288 92.3536 134.136 89.1421C139.632 85.5012 142.582 81.9103 144.041 75.4885C145.976 66.9662 143.212 60.3151 136.878 54.2676C130.518 48.1941 115.211 48.0842 115.211 48.0842C115.211 48.0842 103.477 49.4249 98.9515 54.5307C94.6204 59.4171 94.7716 64.0865 94.3654 70.601C93.5515 83.6538 97.9667 92.0579 106.814 101.72C114.569 110.19 121.22 113.914 131.785 118.435C143.815 123.583 150.73 126.059 163.73 127.552C173.305 128.651 180.343 128.759 189.317 125.265C197.823 121.953 202.507 117.345 208.305 110.308C214.347 102.976 216.669 97.9955 218.956 88.7775C221.849 77.1162 215.673 58.1762 215.673 58.1762M215.673 58.1762L208.623 70.2474M215.673 58.1762L228.38 70.4922" stroke="#00090E" stroke-width="1.54" stroke-linejoin="round" stroke-dasharray="6.16 6.16"/>
<circle cx="22.33" cy="3.07953" r="2.31" fill="#00090E"/>
</svg>
