<svg width="236" height="19" viewBox="0 0 236 19" fill="none" xmlns="http://www.w3.org/2000/svg">
<path opacity="0.7" d="M43.7201 15.7793C38.2701 14.4193 2.84011 18.2693 0.810113 18.0693C-1.33989 17.6293 1.25011 7.0693 3.11011 5.3693C4.25011 4.3693 4.17012 5.0893 14.0001 4.3693C14.0001 4.3693 28.8301 3.2893 47.0001 2.0293C47.0001 2.0293 76.2801 0.399297 116.58 0.0292969C119.74 0.0292969 117.23 0.619297 120.96 0.409297C128.91 -0.040703 146.21 0.809297 152.23 0.409297C155.72 0.0666471 159.239 0.147232 162.71 0.649297C165.88 1.0193 192.47 1.9693 195.43 1.3893C196.14 1.2493 196.67 1.3393 196.66 1.5693C196.87 1.5693 214.3 2.9693 214.38 3.1693C214.46 3.3693 215.02 3.5593 215.53 3.4393C216.47 3.2093 235.32 3.9193 235.53 4.6193C236.25 6.6193 232.96 14.5193 230.65 16.3493C228.34 18.1793 216.65 14.9193 206.43 15.4893C158.67 12.4893 159.03 13.2793 151.06 13.6693C149.96 12.9393 145.61 14.5193 143.06 13.2693C141.98 12.7393 134.22 12.5393 132.48 12.9893C132.11 13.0793 129.34 13.0593 125.34 12.9893L118.56 12.8693C115.26 12.8193 90.2901 12.5493 87.1701 13.6993C78.8201 12.5793 51.7301 15.0893 43.7201 15.7793Z" fill="#FFB35B"/>
</svg>
