<svg width="192" height="43" viewBox="0 0 192 43" fill="none" xmlns="http://www.w3.org/2000/svg">
<path d="M191.498 30.5653C191.117 30.3387 190.669 30.1732 190.289 29.9379C190.199 29.8665 190.149 29.7772 190.149 29.6852C190.149 29.5932 190.199 29.5039 190.289 29.4325C190.466 29.2408 190.792 29.023 190.181 28.9533C189.76 28.9314 189.338 28.9314 188.918 28.9533C188.743 28.954 188.571 28.9293 188.413 28.881C188.255 28.8327 188.117 28.7621 188.008 28.6745C187.574 28.371 187.037 28.1349 186.44 27.9839C185.842 27.833 185.199 27.7711 184.559 27.8031C183.921 27.8031 184.288 27.5417 184.451 27.35C184.534 27.2768 184.58 27.1882 184.58 27.0973C184.58 27.0064 184.534 26.9179 184.451 26.8446C184.451 26.8446 184.179 26.9056 184.043 26.9231C183.907 26.9405 183.419 27.0102 183.106 27.0538C183.038 26.9492 182.971 26.8011 182.889 26.7924C182.398 26.7258 181.896 26.7024 181.395 26.7227C180.825 26.7227 180.513 26.348 180.038 26.3567C179.963 26.3386 179.881 26.3386 179.807 26.3567C179.535 26.4874 179.318 26.6442 178.979 26.3567C178.639 26.0676 178.194 25.8368 177.683 25.6848C177.171 25.5328 176.609 25.4643 176.046 25.4853C175.83 25.4905 175.614 25.4669 175.413 25.4159C175.212 25.3649 175.03 25.2877 174.878 25.1891C174.785 25.1321 174.661 25.1003 174.532 25.1003C174.403 25.1003 174.279 25.1321 174.186 25.1891C173.737 25.3634 173.317 25.5551 172.828 25.738C172.339 25.921 172.054 25.8252 171.891 25.4418C171.646 24.8493 170.845 25.2501 170.37 24.9538C170.087 24.7797 169.71 24.6825 169.318 24.6825C168.926 24.6825 168.549 24.7797 168.265 24.9538C168.073 25.0528 167.833 25.1067 167.587 25.1067C167.34 25.1067 167.1 25.0528 166.908 24.9538C166.405 24.7186 166.419 25.0235 166.378 25.2588C166.414 25.3856 166.414 25.5154 166.378 25.6422C166.291 25.7311 166.155 25.7963 165.998 25.8252C165.686 25.8862 165.509 25.7293 165.468 25.5376C165.428 25.2856 165.428 25.0316 165.468 24.7796C165.468 24.6663 165.563 24.492 165.672 24.4659C166.283 24.2916 166.745 23.8385 167.505 23.9344C168.429 23.9284 169.348 24.0257 170.221 24.2219C170.865 24.3398 171.54 24.3694 172.203 24.309C173.086 23.7252 174.131 24.0128 175.109 23.9954C175.625 23.9954 176.195 24.0825 176.616 23.9431C177.276 23.6983 178.014 23.5523 178.775 23.5161C178.897 23.5161 179.087 23.246 179.114 23.0804C179.114 22.7406 179.25 22.4705 179.82 22.4444C180.051 22.4444 180.391 22.4444 180.513 22.305C180.825 22 181.681 22.183 181.626 21.695C181.545 20.9805 180.703 21.3813 180.268 21.2942C179.857 21.2414 179.439 21.2151 179.019 21.2158C179.019 21.2158 178.884 21.1374 178.816 21.1025C178.748 21.0677 178.911 20.998 178.965 20.9892C179.549 20.9479 180.095 20.7863 180.524 20.5287C180.952 20.2711 181.239 19.9313 181.341 19.5603C181.341 19.4383 181.762 19.4121 181.979 19.3424C182.197 19.2727 182.251 19.1681 182.074 19.0636C181.721 18.8283 181.939 18.6454 182.074 18.4449C182.074 18.4449 181.911 18.262 181.803 18.2533C181.738 18.2445 181.67 18.2443 181.605 18.2529C181.539 18.2615 181.478 18.2785 181.423 18.303C181.368 18.3275 181.322 18.3589 181.287 18.3953C181.252 18.4317 181.229 18.4723 181.219 18.5146C181.137 18.7499 181.11 19.02 180.649 18.7499C180.187 18.4798 180.187 18.4885 179.291 18.5756C178.965 18.5756 178.612 18.6628 178.327 18.4711C178.125 18.3208 177.85 18.219 177.547 18.1825C177.243 18.1461 176.929 18.1772 176.657 18.2707C175.896 18.5931 175.299 18.3927 174.593 18.2707C173.694 18.1872 172.783 18.1668 171.877 18.2097C171.13 18.2097 170.343 18.3055 169.705 17.8699C168.958 18.0616 168.496 17.4429 167.831 17.4603C166.473 17.4603 164.98 17.1641 163.635 17.7827C163.337 17.9221 163.038 17.5475 162.753 17.5387C162.468 17.53 162.182 17.7653 161.87 17.835C161.106 17.9696 160.299 17.9696 159.535 17.835C159.445 17.8275 159.359 17.8087 159.281 17.7796C159.203 17.7504 159.135 17.7116 159.08 17.6653C159.026 17.6191 158.986 17.5664 158.964 17.5102C158.942 17.4541 158.937 17.3956 158.951 17.3383V16.3886C158.951 15.9529 159.29 15.7438 159.711 15.9616C160.104 16.1484 160.58 16.2492 161.069 16.2492C161.626 16.2492 161.707 16.2492 161.884 15.7438C162.182 14.9422 162.44 14.7592 163.377 14.7418C164.314 14.7243 165.577 14.6895 166.663 14.7418C167.396 14.7418 168.021 14.7417 168.225 14.1057C168.293 13.9575 168.646 13.9924 168.876 14.1057C169.583 14.4716 169.583 14.4542 170.777 14.3932C171.28 14.3932 171.918 14.2364 172.271 14.3932C172.685 14.5827 173.181 14.6846 173.69 14.6846C174.199 14.6846 174.695 14.5827 175.109 14.3932C175.557 14.2538 176.141 14.3148 176.222 14.8637C176.222 14.916 176.317 14.977 176.385 15.0031C176.453 15.0293 176.521 14.9509 176.548 14.8986C176.674 14.7482 176.751 14.583 176.776 14.413C176.8 14.243 176.771 14.0716 176.69 13.9089C176.609 13.7463 176.477 13.5958 176.304 13.4665C176.13 13.3371 175.918 13.2315 175.679 13.1559C175.112 12.9159 174.474 12.7528 173.805 12.6767C173.737 12.6767 173.683 12.4937 173.629 12.3804C174.281 12.1364 174.892 11.8053 175.679 12.1887C175.962 12.305 176.294 12.3628 176.63 12.3543C178.055 12.3543 179.495 12.3543 180.92 12.3543C180.988 12.3543 181.11 12.2497 181.097 12.241C181.083 12.2323 180.947 12.0145 180.852 12.0057C179.949 11.9597 179.041 11.9597 178.137 12.0057C177.308 12.0842 176.779 11.7182 176.019 11.5701C175.774 11.5178 175.815 11.4394 175.91 11.3174C176.005 11.1954 175.842 11.3697 176.141 11.2477C176.439 11.1257 176.426 11.1344 176.562 11.0821C176.467 11.0124 176.358 10.8817 176.249 10.8817C175.435 10.8207 174.593 10.934 173.832 10.5158C173.646 10.4451 173.428 10.4187 173.214 10.441C173.001 10.4633 172.806 10.5329 172.665 10.6377C172.203 10.9078 172.176 10.6377 172.122 10.3676C172.122 10.2892 171.85 10.1847 171.823 10.1934C171.239 10.5593 170.547 10.4286 169.895 10.4722C169.243 10.5158 168.754 9.91453 168.143 10.4286C168.143 10.4722 167.804 10.4286 167.695 10.3328C167.247 10.0452 166.826 9.73156 166.337 9.46145C166.279 9.42187 166.206 9.39292 166.125 9.37761C166.044 9.36229 165.958 9.36115 165.876 9.37431C165.645 9.4353 165.455 9.63571 165.238 9.64442C165.02 9.65314 164.817 9.31332 164.423 9.53987C164.299 9.61378 164.147 9.66495 163.982 9.68795C163.818 9.71096 163.646 9.70494 163.486 9.67056C162.639 9.4133 161.707 9.29076 160.77 9.31331C160.675 9.31331 160.58 9.17389 160.512 9.08675C160.527 9.05975 160.551 9.03498 160.581 9.014C160.611 8.99302 160.648 8.97627 160.689 8.96478C161.816 8.84279 163.038 9.12161 164.097 8.57267C164.679 8.56581 165.26 8.61276 165.821 8.71208C165.949 8.76906 166.101 8.79959 166.256 8.79959C166.411 8.79959 166.563 8.76906 166.69 8.71208C166.857 8.62506 167.066 8.57756 167.281 8.57756C167.496 8.57756 167.705 8.62506 167.872 8.71208C168.199 8.89245 168.622 8.98594 169.053 8.9735C169.881 8.9735 170.696 8.9735 171.524 8.9735C171.527 9.05276 171.486 9.1301 171.409 9.19216C171.332 9.25422 171.224 9.29707 171.103 9.31331C170.791 9.3743 170.18 9.31331 170.207 9.47887C170.207 9.87968 170.845 9.69669 171.198 9.71412C171.791 9.74022 172.385 9.74022 172.977 9.71412C173.126 9.71412 173.398 9.62699 173.398 9.58342C173.398 9.35687 173.086 9.39173 172.909 9.31331C172.393 9.08676 172.57 8.80793 172.909 8.54653C173.249 8.28513 173.086 8.28512 172.909 8.26769C172.244 8.2067 171.551 8.18928 170.913 8.137C170.87 8.13136 170.83 8.11881 170.797 8.10051C170.764 8.08222 170.738 8.05879 170.723 8.03244C170.723 8.03244 170.723 7.91918 170.818 7.88433L171.592 7.42252C171.728 7.35281 171.891 7.31795 172.027 7.24824C172.162 7.17853 172.094 6.79515 171.932 6.76029C171.388 6.64702 170.777 6.69929 170.329 6.36818C169.691 7.00426 169.148 6.32462 168.578 6.3159C168.293 6.3159 167.858 6.62087 167.749 6.55988C167.057 6.14163 166.297 6.29847 165.55 6.2549C165.225 6.2383 164.906 6.19436 164.599 6.12421C163.439 5.8123 162.138 5.79672 160.96 6.08065C160.797 6.08065 160.675 6.22878 160.553 6.13293C160.146 5.79311 159.616 5.92381 159.127 5.88896C158.922 5.84968 158.704 5.84508 158.494 5.87561C158.285 5.90613 158.092 5.97074 157.933 6.06321C157.539 6.33332 157.091 5.79311 156.643 6.15907C156.487 6.25804 156.278 6.31359 156.059 6.31359C155.84 6.31359 155.63 6.25804 155.475 6.15907C155.213 6.0206 154.895 5.9331 154.558 5.90685C154.221 5.8806 153.88 5.9167 153.574 6.01093C153.357 6.0545 153.044 6.22877 152.949 6.17649C152.284 5.74953 151.592 5.96737 150.804 5.94123C150.716 6.14057 150.741 6.35357 150.875 6.54201C151.01 6.73044 151.244 6.88197 151.537 6.96941C152.575 7.18281 153.69 7.18281 154.728 6.96941C155.719 6.769 155.719 6.7603 156.357 7.4748C156.217 7.51534 156.092 7.57476 155.991 7.64905C155.855 7.79718 155.814 8.09343 155.665 8.11086C155.516 8.12828 155.407 7.91045 155.326 7.75361C155.244 7.59676 155.013 7.5532 154.864 7.75361L154.687 8.08472L152.352 8.44197C152.04 8.18057 151.184 8.7818 151.171 8.01502C151.171 7.96274 150.899 7.8756 150.75 7.86688C149.826 7.86688 148.903 7.82332 147.966 7.86688C147.437 7.86688 147.301 7.6839 147.151 7.34408C147.002 7.00425 146.486 7.08269 146.255 7.46608C146.024 7.84946 145.862 7.91917 145.536 7.82333C145.21 7.72748 144.965 7.54449 144.477 7.76233C143.485 8.198 142.399 8.63366 141.272 7.89302C140.607 8.21542 140.037 7.26565 139.249 7.83202C138.964 8.04114 138.543 7.62293 138.231 7.42252C137.918 7.22211 137.932 7.22211 137.443 7.42252C137.304 7.48453 137.132 7.50921 136.965 7.49131C136.797 7.47341 136.648 7.41434 136.547 7.32666C136.248 7.13496 136.099 7.28309 136.072 7.46608C136.004 7.84946 135.787 7.86689 135.447 7.65777C135.108 7.44865 135.203 7.57934 135.04 7.70133C134.877 7.82331 134.7 7.79719 134.673 7.77105C134.646 7.74491 134.524 7.37894 134.361 7.27438C134.198 7.16982 133.926 7.63162 133.573 7.37894C133.22 7.12625 133.044 7.09139 132.677 7.23952C132.3 7.36811 131.937 7.51369 131.591 7.67519C131.061 7.99758 130.478 7.87561 129.907 7.88433C129.337 7.89304 129.337 7.43123 128.835 7.74491C128.332 8.05859 128.183 7.45735 127.735 7.50963C127.315 7.53586 126.892 7.53586 126.472 7.50963C126.051 7.50963 125.63 7.50963 125.209 7.50963C125.038 7.51639 124.866 7.49882 124.707 7.45815C124.547 7.41749 124.403 7.35475 124.286 7.27438C123.906 7.03912 123.919 7.34408 123.865 7.48349C123.811 7.62291 123.865 7.7362 123.865 7.85819C123.824 7.97336 123.76 8.08463 123.675 8.18927L123.268 7.95402C123.105 7.83653 122.984 7.69769 122.914 7.54721C122.844 7.39672 122.825 7.23819 122.86 7.08268C122.86 6.98684 122.697 6.8997 122.602 6.80385C122.506 6.90221 122.429 7.00751 122.371 7.11755C122.141 7.79719 122.154 7.80589 121.326 7.86688C121.177 7.86688 121.014 7.86688 120.851 7.86688C120.851 7.72747 120.851 7.56193 120.538 7.60549C120.226 7.64906 120.43 7.77105 120.389 7.87561L119.411 7.49221C119.411 7.43122 119.411 7.35281 119.344 7.33538C118.488 6.97813 117.497 6.87357 116.628 6.46404C116.397 6.35077 116.397 6.69058 116.288 6.81257C116.22 6.88353 116.13 6.9446 116.022 6.99188C115.915 7.03915 115.794 7.07161 115.666 7.08718C115.539 7.10275 115.407 7.10109 115.281 7.08231C115.154 7.06354 115.035 7.02806 114.931 6.97813C114.659 6.84743 114.836 6.40303 114.442 6.47274C114.048 6.54244 113.939 6.69929 113.6 6.47274C113.261 6.24619 112.935 6.84741 112.568 6.47274C112.568 6.47274 112.283 6.47274 112.174 6.55988C111.699 6.85613 111.007 6.55988 110.518 6.94327C110.26 7.12625 110.205 6.81258 110.151 6.65574C110.142 6.59754 110.11 6.54169 110.059 6.49313C110.008 6.44458 109.94 6.40478 109.859 6.37725C109.779 6.34971 109.689 6.3353 109.598 6.33523C109.507 6.33517 109.417 6.34948 109.336 6.3769C108.014 6.71336 106.58 6.83023 105.168 6.71671C104.34 6.71671 103.511 6.60344 102.737 7.04782C102.559 7.12462 102.348 7.16562 102.133 7.16562C101.918 7.16562 101.708 7.12462 101.529 7.04782C100.619 6.43789 99.8182 7.12626 98.9899 7.09141C98.0123 7.6055 96.8853 7.42252 95.8127 7.44866C95.3917 7.1524 95.0115 7.29182 94.4548 7.44866C93.7844 7.51457 93.1022 7.51457 92.4317 7.44866C91.7528 7.44866 91.0739 7.44866 90.395 7.44866C89.7161 7.44866 88.8742 7.44866 88.1139 7.44866C87.5843 7.94532 86.9597 7.71004 86.3487 7.56191C85.8327 7.98015 85.4526 7.23952 84.9909 7.45735C84.5235 7.68919 83.9632 7.83119 83.3751 7.86688C83.2257 7.86688 83.1035 8.03244 82.9542 8.08472C82.8048 8.137 82.4925 7.69263 82.1395 7.96274C81.7865 8.23286 81.4063 8.20672 81.0397 7.96274C80.985 7.91911 80.9157 7.88389 80.837 7.8597C80.7582 7.83551 80.6721 7.82296 80.5848 7.82296C80.4975 7.82296 80.4114 7.83551 80.3326 7.8597C80.2539 7.88389 80.1847 7.91911 80.1299 7.96274C79.8584 8.14573 79.5053 8.11958 79.2066 8.20672C78.5685 8.37227 78.0118 8.64238 77.5501 8.0063C77.3872 7.78847 77.1292 7.91044 76.9527 8.04986C76.8377 8.14104 76.7153 8.22831 76.5861 8.31128C76.2059 8.56396 76.0429 8.44197 75.9886 8.11086C75.9886 8.03244 75.7306 7.90174 75.7035 7.91916C74.9431 8.32869 74.0741 8.11087 73.2458 8.18058C71.4399 8.31999 69.5526 7.84074 67.8146 8.54653C67.777 8.55949 67.735 8.56628 67.6924 8.56628C67.6497 8.56628 67.6078 8.55949 67.5702 8.54653C67.19 8.43325 66.8234 8.21541 66.4432 8.21541C66.063 8.21541 65.71 8.46813 65.3162 8.51169C64.9225 8.55526 64.9089 8.20672 64.8003 7.98888C64.6916 7.77105 64.5287 7.78848 64.4744 7.93661C64.4201 8.08473 64.3793 8.42454 64.2979 8.65981C64.2164 8.89507 63.7004 8.99964 63.4968 8.80794C63.2931 8.61625 63.2116 8.30256 62.9672 8.22414C62.5056 8.07601 62.2476 8.43326 61.9353 8.63367L61.5415 8.86892C61.2292 8.22413 60.0072 8.86892 59.6813 8.11086C59.4912 7.63162 59.2197 7.67519 58.758 8.11086C58.2285 8.11086 57.8347 7.43993 57.2101 7.92788C56.9385 8.12829 56.762 7.98017 56.7349 7.79719C56.7009 7.48098 56.7009 7.16364 56.7349 6.84743C56.7547 6.79033 56.8082 6.74037 56.8842 6.70802C56.9928 6.70802 57.1422 6.80385 57.1829 6.88227C57.2237 6.96069 57.1829 7.24825 57.5224 7.23082C57.5224 7.23082 57.6582 7.02168 57.6989 6.90841C57.8754 6.28976 57.8754 6.30718 58.5407 6.22876C59.2061 6.15034 59.6134 6.06323 60.1565 5.97609C60.7947 6.3682 61.3378 6.16779 61.9896 5.92382C62.6413 5.67984 63.4153 5.14831 64.2164 5.80182C65.6693 5.95866 66.932 5.42714 68.3577 5.26159C68.4748 5.21938 68.5735 5.15893 68.6447 5.08585C68.7158 5.01277 68.7572 4.92938 68.7651 4.84334C68.6836 4.66036 68.2219 4.63421 68.1269 4.7562C67.7196 5.28772 67.1357 4.55581 66.6061 4.9392C66.0766 5.32259 65.4927 5.11347 64.936 4.9392C64.7867 4.88692 64.6102 4.77365 64.5151 4.8085C62.7907 5.31388 61.012 4.99147 59.2604 5.06989C59.016 5.06989 58.6494 5.0089 58.5407 5.06989C58.0519 5.50556 57.6853 5.14832 57.1829 5.06989C56.6805 4.99147 56.246 5.0699 56.2868 4.91306C56.3818 4.5471 56.9521 4.73878 57.3187 4.6865C57.889 4.6168 58.5272 4.84335 59.0296 4.55581C59.2309 4.45401 59.462 4.37917 59.7093 4.33577C59.9565 4.29236 60.2148 4.28126 60.4688 4.30311C61.1477 4.30311 61.8267 4.30311 62.492 4.30311C63.1573 4.30311 63.2116 4.06787 63.3338 3.74547C63.3338 3.7019 63.4832 3.64961 63.4832 3.64961C63.8634 3.91101 64.1892 3.90231 64.5015 3.57991C64.8138 3.25752 65.0854 3.22264 65.5199 3.47533C65.6234 3.52179 65.7429 3.55161 65.8681 3.56223C65.9934 3.57285 66.1207 3.56395 66.2395 3.53633C66.7691 3.3882 67.2579 3.22265 67.7739 3.53633C68.9144 3.47534 70.1229 3.76288 71.1955 3.1878C71.3177 3.12681 71.6708 3.24881 71.8609 3.33594C72.404 3.57991 72.2818 3.23136 72.404 3.03966C72.5262 2.84797 72.757 2.89155 72.8792 3.08324C73.0014 3.27494 72.9743 3.38821 73.0557 3.40564C73.3816 3.46663 73.3545 3.24009 73.4359 3.08324C73.4488 3.02784 73.4839 2.97553 73.5378 2.93149C73.5918 2.88744 73.6627 2.85317 73.7435 2.83206C73.8244 2.81096 73.9124 2.80374 73.999 2.81111C74.0855 2.81848 74.1676 2.84021 74.237 2.87413C74.3864 2.92641 74.5629 3.10938 74.6308 3.08324C76.1515 2.50816 77.7809 2.90898 79.3424 2.76085C79.6683 2.76085 80.0756 2.76086 80.32 2.6563C80.8215 2.44641 81.4242 2.35977 82.0173 2.41232C83.2936 2.41232 84.5564 2.41232 85.8192 2.41232C86.4166 2.41232 86.7561 2.15092 87.0548 1.83724C87.1906 1.69782 87.1634 1.45383 87.3128 1.33185C87.8151 0.904889 87.1498 0.652196 87.0276 0.373368C86.9054 0.0945393 86.5388 0.451801 86.2808 0.495368C85.5612 0.626069 84.923 1.00074 84.1355 0.896176C83.701 0.835182 83.6059 1.1053 83.5245 1.36671C83.443 1.62811 83.3072 1.61068 83.2257 1.50612C82.5197 0.721919 81.4742 0.887463 80.5101 0.896176C79.9942 0.896176 79.4918 0.896176 78.9758 0.896176C78.4598 0.896176 77.618 0.782916 77.2514 0.992037C76.8848 1.20116 76.3824 0.92231 75.8936 1.05301C75.4048 1.18371 74.8888 1.05302 74.3728 1.22729C73.8569 1.40156 73.5717 1.3057 73.2051 1.51482C72.8385 1.72394 72.3361 1.26213 71.8473 1.27085C71.3585 1.27956 71.1141 1.20114 70.8425 1.27085C70.0414 1.58453 69.3082 1.75008 68.5071 1.27085C68.4392 1.24087 68.3587 1.22484 68.2762 1.22484C68.1938 1.22484 68.1133 1.24087 68.0454 1.27085C67.8103 1.39046 67.54 1.47838 67.2507 1.52928C66.9614 1.58019 66.659 1.59307 66.3617 1.56712C65.8458 1.56712 65.3434 1.56712 64.8274 1.56712C64.2374 1.5257 63.6415 1.59852 63.1166 1.77624C62.7092 1.96793 62.329 1.44513 61.7588 1.5584C61.1885 1.67168 60.5775 1.49741 60.0615 1.80238C59.5455 2.10734 59.4369 1.92437 59.1382 1.75882C58.8395 1.59326 58.5679 1.49741 58.242 1.69782C57.9889 1.84788 57.6627 1.93713 57.3187 1.95049C55.2548 2.08119 53.1638 1.68909 51.1407 2.22932C51.0773 2.14867 50.9803 2.08091 50.8604 2.03356C50.7405 1.98621 50.6025 1.96112 50.4618 1.96112C50.321 1.96112 50.183 1.98621 50.0631 2.03356C49.9433 2.08091 49.8463 2.14867 49.7829 2.22932C49.3348 2.0202 48.9546 2.12478 48.5065 2.29904C48.3491 2.33579 48.1801 2.34706 48.0143 2.33186C47.8485 2.31666 47.6911 2.27546 47.5561 2.21191C47.5038 2.17166 47.4384 2.13927 47.3645 2.11706C47.2906 2.09484 47.21 2.08334 47.1283 2.08334C47.0467 2.08334 46.9661 2.09484 46.8922 2.11706C46.8183 2.13927 46.7529 2.17166 46.7006 2.21191C46.3883 2.4036 46.0625 2.25548 45.8045 2.08121C45.5465 1.90694 45.5193 1.9505 45.4514 2.12477C45.3986 2.24706 45.3667 2.3727 45.3564 2.49944C45.3564 3.02224 45.6687 3.22266 46.2661 2.91769C46.8636 2.61272 46.9722 3.14424 47.3117 2.91769C47.6511 2.69114 47.8684 2.71727 47.9362 3.10066C47.9362 3.23136 48.1399 3.56247 48.33 3.23136C48.5201 2.90025 48.6287 2.66501 49.1447 2.68244C49.6607 2.69986 50.3396 2.68244 50.9234 2.68244C51.0728 2.68244 51.3443 2.80441 51.3308 2.83055C51.2493 3.03096 51.0049 3.0484 50.7741 3.06583C50.5432 3.08325 50.584 3.17909 50.5976 3.1878C50.6111 3.19651 50.7469 3.38821 50.8555 3.40564C51.1088 3.41454 51.3626 3.41454 51.6159 3.40564C51.6159 3.40564 51.806 3.50149 51.7924 3.51891C51.7788 3.53634 51.6974 3.74546 51.6159 3.76289C51.0592 3.86745 50.421 3.63219 49.9186 3.98944C49.7557 4.10272 49.6607 4.13756 49.5249 4.033C49.0361 3.6409 48.4115 3.83258 47.8412 3.7803C47.4882 3.73674 47.2438 3.28365 46.7957 3.64961C46.3476 4.01557 45.7637 3.6496 45.4379 3.972C45.1922 4.20225 44.8456 4.38061 44.442 4.48452C44.0384 4.58843 43.5959 4.61324 43.1703 4.55581C41.9076 4.55581 40.6312 4.55581 39.3685 4.55581C38.9874 4.54031 38.606 4.58363 38.2564 4.68217C37.9067 4.78071 37.599 4.9316 37.3589 5.12217C37.2203 5.18174 37.0573 5.21354 36.8904 5.21354C36.7236 5.21354 36.5606 5.18174 36.422 5.12217C35.8925 4.71264 35.5666 5.16573 35.1592 5.21801C35.0642 5.68853 34.3717 5.54913 34.0458 5.80182C33.72 6.0545 33.5163 5.6537 33.2311 5.5927C32.7383 5.51061 32.2764 5.36536 31.8733 5.16573C31.3031 4.82591 31.113 4.88691 30.9636 5.41842C30.9102 5.52978 30.8174 5.63173 30.6926 5.71635C30.5678 5.80098 30.4143 5.866 30.244 5.90637C29.3885 6.04579 28.4652 5.90637 27.6505 6.2549C27.1074 5.75824 26.6593 6.1155 26.157 6.32462C25.6546 6.53375 25.2472 6.24619 24.9621 5.93251C24.6769 5.61883 24.6362 5.62754 24.4733 5.98479C24.3103 6.34204 24.0795 6.35947 23.7401 6.34204C23.5012 6.31844 23.2683 6.27449 23.0476 6.21135C23.1426 6.05451 23.3734 5.79311 23.3191 5.75826C23.1724 5.69183 23.0065 5.64474 22.8312 5.61972C22.6559 5.5947 22.4746 5.59225 22.2978 5.61251C22.121 5.63277 21.9522 5.67535 21.8012 5.73776C21.6503 5.80017 21.5201 5.88117 21.4182 5.97609C21.0516 6.38562 20.9701 6.41176 20.4949 6.22007L19.8974 5.97609C19.8974 5.68855 19.5716 5.58399 19.205 5.61884C18.8384 5.6537 18.5668 5.6624 18.5396 5.74082C18.3903 6.24619 17.8064 6.34206 17.3448 6.55118C17.1411 6.63831 16.856 6.73416 16.6794 6.68188C16.5029 6.6296 16.435 6.41174 16.3128 6.2549C16.1906 6.09806 16.0005 6.03707 15.8512 6.2549C15.7018 6.47274 15.7018 6.58602 15.6882 6.58602C15.2537 6.49888 14.8464 6.38561 14.4526 6.69929C14.4526 6.75157 14.1268 6.6993 14.0045 6.64702C13.8823 6.59474 13.8552 6.47275 13.7873 6.3769H12.2801C11.7506 6.3769 11.2754 6.37691 11.1803 6.92585C11.1803 7.11754 11.0174 7.07398 10.8137 6.98685C9.61882 6.50761 8.34248 6.84743 7.09329 6.82129C6.87604 6.82129 6.65879 6.96941 6.68595 7.21338C6.71989 7.34025 6.71989 7.4699 6.68595 7.59677C6.61802 7.69274 6.52631 7.78104 6.41438 7.85819C6.31031 7.76277 6.23226 7.65669 6.18356 7.54449C6.18356 7.30923 5.99346 7.17854 5.73548 7.16982C5.15162 7.16982 4.55419 7.16982 3.97033 7.16982C3.97033 7.16982 3.76666 7.25695 3.78023 7.27438C3.80324 7.38348 3.87384 7.48618 3.9839 7.57063C4.2592 7.69839 4.54977 7.81203 4.85291 7.91047C5.07016 7.98889 5.11089 8.06729 5.00226 8.18927C4.56776 8.73822 5.50465 9.20004 5.19236 9.7577C5.12447 9.87097 5.32814 10.0975 5.46392 10.2369C5.5997 10.3763 5.78979 10.5506 6.0342 10.4373C6.27861 10.3241 6.14282 10.2195 6.19714 10.0975C6.37365 9.67055 5.73548 9.44401 5.7219 9.06934C5.74984 8.95039 5.80956 8.83544 5.89842 8.72953C5.97549 8.7599 6.04429 8.79814 6.10209 8.84278C6.33826 9.01879 6.52647 9.21912 6.65879 9.43531C6.71378 9.68677 6.71378 9.94191 6.65879 10.1934C6.6472 10.2808 6.68879 10.3677 6.77485 10.436C6.8609 10.5042 6.98475 10.5484 7.12045 10.5593C7.44632 10.5593 7.79935 10.5593 8.12523 10.5593C8.77698 10.6465 9.21147 10.2456 9.78176 10.2108C10.352 10.1759 11.2482 10.3328 11.7913 10.1324C12.9561 9.81632 14.2273 9.69635 15.4846 9.78384C15.824 9.78384 16.2178 9.85355 16.4893 9.78384C16.869 9.57405 17.3468 9.45142 17.8472 9.43531C18.2545 9.43531 18.8384 9.53986 19.0556 9.37431C19.5987 8.96478 19.9518 9.45273 20.4134 9.37431C20.8751 9.29589 20.8479 9.14776 21.0652 9.15647C21.2824 9.16519 21.4589 9.3133 21.649 9.41787C21.8391 9.52243 21.8799 9.6357 21.649 9.71412C21.4182 9.79254 21.3639 10.1411 20.8886 10.0365C20.1826 9.89712 19.8974 10.1498 20.1011 10.6029C20.1897 10.7765 20.2578 10.9542 20.3048 11.1344C20.3863 11.4307 20.169 11.7095 19.8567 11.6834C18.1595 11.5439 16.6115 12.1713 14.9414 12.1974C14.86 12.1974 14.7921 12.363 14.7242 12.4676C14.3128 12.485 13.9 12.485 13.4886 12.4676C13.1433 12.4285 12.7877 12.4595 12.4713 12.5564C12.1548 12.6532 11.8934 12.811 11.7234 13.0078C11.6304 13.1021 11.4948 13.176 11.3347 13.2195C11.1746 13.2631 10.9976 13.2744 10.8273 13.2517C10.3249 13.2517 9.82249 13.2517 9.3201 13.2517C8.28816 13.2517 8.31532 13.2518 8.11165 14.2277C8.04075 14.4643 7.91729 14.6932 7.74504 14.9073C7.74504 15.0206 7.74504 15.1513 7.92156 15.16C8.42395 15.16 8.92634 15.16 9.42873 15.16C9.93112 15.16 10.4471 14.855 10.6508 14.4106C10.8678 14.4875 11.0725 14.578 11.2618 14.6808C11.6691 14.9509 11.6691 15.0729 11.2618 15.2558C10.4878 15.6044 9.76818 16.0488 8.7634 15.9703C8.50917 15.974 8.26656 16.0394 8.08449 16.1533C7.84009 16.2927 7.54137 16.4757 7.88082 16.7458C8.22028 17.0159 8.05734 16.9811 7.88082 17.0247C7.63957 17.0584 7.39427 17.0788 7.1476 17.0857C6.86246 17.0857 6.7131 17.2076 6.68595 17.4255C6.67203 17.4824 6.67928 17.5407 6.70711 17.5955C6.73494 17.6503 6.78256 17.7002 6.84609 17.7409C6.90963 17.7817 6.98728 17.8123 7.07271 17.8301C7.15814 17.848 7.24893 17.8527 7.3377 17.8437C7.51421 17.8437 7.74504 17.8437 7.82651 17.8437C8.31532 17.4865 8.69551 17.6172 9.03496 17.9657C9.17413 18.0723 9.35875 18.1505 9.56617 18.1907C9.77359 18.231 9.9948 18.2315 10.2027 18.1923C10.4148 18.1651 10.6342 18.1742 10.8391 18.2185C11.044 18.2628 11.2272 18.3409 11.3704 18.4449C11.7098 18.6889 11.737 18.7412 11.3704 19.0549C11.0038 19.3685 10.8952 19.3337 10.5829 19.0984C10.2706 18.8632 9.98543 19.0026 9.70029 19.1594C9.35967 19.3679 9.13945 19.6444 9.07569 19.9436C8.62762 19.8652 8.17954 19.7868 7.71788 19.7171C7.25623 19.6474 6.67237 19.9349 6.12925 20.1092C6.12925 20.0134 6.12925 19.8739 5.99347 19.8565C5.7219 19.8042 5.70832 19.9698 5.68117 20.1092V20.1528C5.11089 20.2138 5.15162 20.5449 5.19236 20.8498C5.23309 21.1548 5.77621 21.5643 5.76264 22.061C5.74906 22.5577 6.72668 22.5925 7.12045 22.2614C7.21549 22.1743 7.18834 22.0087 7.28338 21.9129C7.56852 21.5905 7.92156 21.6166 8.19312 21.9739C8.27459 22.0784 8.28816 22.2701 8.38321 22.2962C8.72266 22.3747 8.66835 22.1394 8.74982 22C8.84688 21.8314 8.98936 21.6751 9.17074 21.5382C9.28702 21.4718 9.42021 21.4188 9.56451 21.3814C9.64138 21.4904 9.70053 21.6043 9.74102 21.7212C9.74102 21.9738 9.74102 22.2265 9.74102 22.4879C9.74102 23.1676 9.53735 23.4203 8.65477 23.5423C7.7722 23.6643 7.29696 24.0564 6.63163 24.2045C6.32852 24.2585 6.02004 24.2993 5.70832 24.3265C5.70832 24.0477 5.81695 23.6817 5.24667 23.6033C4.67639 23.5248 4.43198 23.185 4.03822 22.9498C3.91601 22.8713 3.82096 22.9498 3.64445 23.0108C3.43466 23.14 3.27969 23.3014 3.19416 23.4798C3.10863 23.6582 3.09537 23.8476 3.15564 24.0302C3.15564 24.2219 3.38647 24.3526 3.65803 24.1609C3.92959 23.9692 4.10611 24.0476 4.16042 24.2568C4.30978 24.8057 4.16042 24.9713 3.33215 25.1281C3.10133 25.1717 2.72114 25.2588 2.70756 25.3459C2.70756 25.8862 2.17802 25.9123 1.64847 25.9123H1.1325C0.847361 25.9123 0.698004 26.0169 0.65727 26.2347C0.642639 26.2914 0.649519 26.3495 0.677325 26.4041C0.705132 26.4587 0.753042 26.5082 0.816999 26.5484C0.880957 26.5885 0.959077 26.6182 1.04473 26.6349C1.13038 26.6516 1.22104 26.6548 1.30902 26.6442C1.55317 26.6234 1.79112 26.5793 2.01508 26.5135C2.21875 26.4525 2.35453 26.2783 2.63967 26.4525C2.92481 26.6268 3.53583 26.7401 3.71234 26.1737C3.79381 25.9385 4.62208 25.7642 4.75786 25.9123C5.1652 26.3567 5.80337 26.7139 5.69475 27.3587C5.69475 27.6288 5.38245 27.838 5.02942 27.7596C4.67639 27.6811 4.47272 27.472 4.41841 27.5069C3.76666 27.9687 2.91123 27.6463 2.24591 27.8554C1.50761 28.1252 0.811864 28.4404 0.168457 28.7965C0.168457 28.7965 0.168457 28.9184 0.168457 28.9794C0.168457 29.3018 0.765894 29.5981 0.168457 29.9292C0.440019 30.1644 0.643692 30.513 1.11893 30.4868C1.6786 30.4623 2.23881 30.5294 2.74704 30.6818C3.25527 30.8342 3.69487 31.0669 4.02464 31.3582C4.21473 31.5063 4.24189 31.4889 4.82575 31.3582C4.90722 31.3582 4.97511 31.271 5.043 31.2623C6.04778 31.2013 7.06614 31.0881 7.75862 31.8374C8.00303 32.0814 8.16596 31.7677 8.35605 31.7067C8.54615 31.6457 8.87203 31.5586 9.02138 31.7067C9.17074 31.8548 8.91276 32.0204 8.7634 32.1337C8.54897 32.3246 8.2929 32.4948 8.00303 32.639C7.88082 32.639 7.60926 32.5083 7.39201 32.4299C7.22907 32.9092 6.64522 33.249 6.64522 33.7892C6.65992 34.0331 6.82037 34.264 7.09329 34.434C7.88453 34.7216 8.74139 34.9274 9.6324 35.0439C10.3684 34.7956 11.1692 34.6361 11.995 34.5734C11.995 34.5734 12.09 34.495 12.1308 34.4602C12.1715 34.4253 12.0086 34.3469 11.9407 34.3382C11.4519 34.2859 10.9631 34.251 10.4742 34.1987C10.4742 34.1987 10.3656 34.1203 10.3113 34.0855C10.257 34.0506 10.4335 33.9722 10.515 33.9722C12.6196 33.8502 12.4974 33.6672 13.8009 35.0788C13.8009 35.1311 13.8009 35.2008 13.8823 35.253C14.0996 35.4883 14.439 35.4099 14.7378 35.4186C14.7378 35.6277 14.9007 35.7497 15.1858 35.7584C15.1858 35.985 15.0772 36.2115 14.9957 36.4381C14.9143 36.6646 14.6291 36.7169 14.9957 36.8563C15.075 36.8736 15.1609 36.8736 15.2402 36.8563C15.5253 36.8563 15.6475 36.6821 15.6475 36.4729V35.7584C15.9191 35.7584 16.082 35.6364 16.0956 35.4186C16.2966 35.4443 16.5048 35.4335 16.6968 35.3873C16.8887 35.3411 17.0567 35.2614 17.1818 35.1572C17.3855 34.9917 17.6571 35.0527 17.8607 35.1572C17.9708 35.2165 18.0447 35.2988 18.0695 35.3897C18.0944 35.4805 18.0685 35.5741 17.9965 35.6539C17.8472 35.8543 17.5077 36.0024 17.8607 36.2725C18.2138 36.5426 18.9741 36.9522 18.2138 37.5098C18.4722 37.8213 18.6118 38.1677 18.6211 38.5206C19.0828 38.6426 19.2185 38.8604 18.9606 39.2177C18.8791 39.3484 18.5261 39.5923 18.9606 39.6185C19.6508 39.6865 20.3128 39.8426 20.9075 40.0776C21.5022 40.3125 22.0175 40.6216 22.423 40.9865C22.7217 41.1956 22.8167 41.1433 22.9389 40.6728C22.9389 40.4288 22.9389 40.1761 23.3599 40.0629C23.9845 39.8886 24.514 39.5749 25.2608 39.6446C26.0151 39.6882 26.774 39.6882 27.5283 39.6446C27.7999 39.6446 27.9628 39.5226 28.0172 39.2787C28.0172 39.1392 28.0172 38.8255 28.4517 39.0695C28.6852 39.2532 28.8814 39.4553 29.0355 39.6707C29.375 40.0367 29.823 40.1674 30.2847 40.0106C30.7464 39.8537 31.0043 39.7143 31.3845 39.5836C31.7647 39.4529 31.7376 39.2264 31.982 39.4268C32.4436 39.8014 33.2176 39.4268 33.6113 39.8537C33.8218 40.0662 34.1234 40.2351 34.4799 40.3403C34.8364 40.4454 35.2326 40.4822 35.6209 40.4462C36.0961 40.4462 36.3541 40.7425 36.5578 41.0126C36.6311 41.1268 36.647 41.2529 36.6032 41.3732C36.5594 41.4935 36.458 41.602 36.3134 41.6835C36.2284 41.7581 36.1826 41.8482 36.1826 41.9406C36.1826 42.033 36.2284 42.123 36.3134 42.1976C36.5758 42.4411 36.8615 42.6739 37.1688 42.8947C37.3861 43.0603 37.5761 42.9644 37.807 42.8947C38.9689 42.5856 40.187 42.3718 41.4323 42.2586C43.1301 42.1013 44.7124 41.6148 45.9674 40.8645C46.1566 40.7306 46.2918 40.5691 46.3612 40.394C46.4426 40.1848 46.6056 40.0628 46.8772 40.0541C47.7869 40.0541 48.5473 39.4355 49.5928 39.6533C50.1495 39.7753 50.4889 39.3309 50.9506 39.3222C51.4122 39.3135 51.8332 39.7405 52.3084 39.3222C53.9649 39.1654 55.5671 38.7036 57.2644 38.8691C57.4273 38.8691 57.6853 38.9388 57.7668 38.8691C58.3642 38.416 58.9209 38.3986 59.4776 38.8691C60.8354 38.7994 62.1933 39.0957 63.4289 38.538C63.5399 38.4934 63.6733 38.4776 63.8019 38.4937C63.9306 38.5099 64.0448 38.5569 64.1213 38.6251C64.2251 38.7148 64.3638 38.7854 64.5235 38.8297C64.6831 38.8741 64.8582 38.8906 65.0311 38.8778C66.1037 38.7994 67.2443 39.0608 68.1948 38.4857H70.4895C71.3177 38.4857 72.0102 38.0588 72.9064 38.111C74.0869 38.1503 75.2698 38.1503 76.4503 38.111C77.0341 38.111 77.6316 38.1982 78.134 37.8409C78.134 37.8409 78.4191 37.9019 78.5141 37.9716C78.8672 38.233 79.1659 37.5708 79.5461 37.9716C79.7633 38.1895 80.1571 38.1372 80.483 38.1285C80.8088 38.1198 81.3384 38.1285 81.7593 38.1285C82.7777 38.1285 83.796 38.1285 84.8008 38.1285C85.1935 38.1728 85.5735 38.2551 85.9278 38.3725C86.8104 37.7625 88.1546 38.4509 88.9964 37.7538C89.4988 37.7538 90.0284 37.6144 90.49 37.8496C90.7418 38.0016 91.0745 38.0862 91.4201 38.0862C91.7658 38.0862 92.0984 38.0016 92.3502 37.8496C92.7263 37.7349 93.1448 37.6896 93.5587 37.7189C94.9165 37.7189 96.2743 37.7189 97.6321 37.7189C98.053 37.7189 98.5962 37.8235 98.8813 37.7189C99.8861 37.1613 100.999 37.4227 102.059 37.3617C102.565 37.3561 103.062 37.2756 103.511 37.1264C103.805 37.0104 104.147 36.9563 104.491 36.972C104.834 36.9876 105.161 37.0721 105.426 37.2136C105.616 37.3007 105.698 37.3268 105.86 37.2136C105.929 37.159 106.016 37.115 106.115 37.0847C106.213 37.0545 106.321 37.0388 106.431 37.0388C106.54 37.0388 106.648 37.0545 106.747 37.0847C106.845 37.115 106.932 37.159 107.001 37.2136C107.171 37.297 107.374 37.3492 107.586 37.3646C107.799 37.3799 108.015 37.3578 108.209 37.3007C108.732 37.1384 109.304 37.0498 109.884 37.0407C110.465 37.0317 111.042 37.1025 111.577 37.2484C111.731 37.291 111.89 37.326 112.052 37.353C112.811 37.3049 113.575 37.3049 114.333 37.353C115.053 37.4662 115.691 36.8563 116.397 37.2571C116.397 37.2571 116.519 37.1874 116.601 37.1526C116.802 37.0664 117.038 37.0204 117.28 37.0204C117.521 37.0204 117.758 37.0664 117.959 37.1526C119.216 37.4668 120.598 37.5097 121.896 37.2746C122.214 37.0796 122.638 36.9708 123.078 36.9708C123.517 36.9708 123.941 37.0796 124.259 37.2746C124.425 37.3631 124.634 37.4117 124.849 37.4117C125.065 37.4117 125.274 37.3631 125.44 37.2746C125.636 37.1665 125.866 37.0865 126.114 37.0399C126.363 36.9933 126.623 36.9813 126.879 37.0044C127.776 37.048 128.74 36.8563 129.595 37.3268C130.442 37.0708 131.375 36.9541 132.311 36.987C132.909 36.9418 133.514 37.0311 134.021 37.2397C134.185 37.3316 134.395 37.3823 134.612 37.3823C134.829 37.3823 135.039 37.3316 135.203 37.2397C135.623 37.0465 136.142 36.9624 136.656 37.0044C137.755 37.0044 138.855 37.0044 139.955 37.0044C140.553 37.0044 141.15 37.0044 141.734 37.0044C141.987 37.0318 142.246 37.0241 142.494 36.9821C142.743 36.94 142.974 36.8644 143.173 36.7605C143.689 36.4207 144.151 37.1874 144.775 36.7605C145.015 36.6389 145.312 36.5728 145.617 36.5728C145.923 36.5728 146.219 36.6389 146.459 36.7605C146.883 36.9477 147.388 37.0443 147.902 37.0364C148.417 37.0286 148.914 36.9168 149.324 36.7169C149.417 36.6599 149.541 36.6281 149.67 36.6281C149.799 36.6281 149.923 36.6599 150.016 36.7169C150.109 36.7947 150.226 36.8587 150.361 36.9046C150.495 36.9506 150.644 36.9773 150.796 36.9831C150.948 36.9889 151.1 36.9736 151.242 36.9382C151.384 36.9027 151.513 36.8481 151.619 36.7779C152.162 36.4381 152.976 36.6385 153.492 36.2725C153.805 36.0808 154.47 36.2028 154.972 36.1941C155.23 36.1941 155.543 36.2551 155.733 36.1941C156.901 35.6539 158.204 35.9066 159.44 35.863C161.205 35.802 162.984 35.863 164.762 35.863C165.183 35.863 165.74 35.9676 166.011 35.8107C166.366 35.6565 166.765 35.5507 167.186 35.4997C167.606 35.4487 168.038 35.4538 168.456 35.5145C168.845 35.5298 169.234 35.4838 169.589 35.3805C169.944 35.2773 170.254 35.1198 170.492 34.922C170.818 34.678 171.375 35.2008 171.728 34.8C171.796 34.8435 171.904 34.8871 171.904 34.9307C171.904 35.4535 172.393 35.497 172.95 35.4883C173.507 35.4796 173.873 36.1244 174.525 35.68C174.797 35.5058 175.082 35.5319 175.448 35.6277C175.853 35.7727 176.309 35.8488 176.772 35.8488C177.236 35.8488 177.691 35.7727 178.096 35.6277C178.327 35.5755 178.68 35.4448 178.775 35.5145C179.44 35.9763 180.228 35.7933 180.961 35.8369C181.218 35.8661 181.483 35.8472 181.724 35.7823C181.965 35.7174 182.171 35.6092 182.319 35.4709C182.363 35.4224 182.423 35.3808 182.495 35.3489C182.802 35.2492 183.097 35.1357 183.378 35.0091C183.84 34.7738 183.066 34.617 183.283 34.4253C183.704 34.0332 184.193 33.6759 184.641 33.2838C184.664 33.2247 184.667 33.1631 184.651 33.1031C184.634 33.0431 184.599 32.9859 184.546 32.9353C184.464 32.8569 184.206 32.7697 184.138 32.8046C183.335 33.1377 182.362 33.2594 181.423 33.1444C180.744 33.1444 180.065 33.1444 179.386 33.1444C178.693 32.5781 178.028 33.2838 177.322 33.188C176.95 33.1057 176.55 33.0914 176.166 33.1468C175.783 33.2022 175.431 33.3251 175.15 33.5017C173.914 33.5017 172.597 33.7631 171.687 32.8133C171.458 32.8065 171.242 32.7427 171.084 32.6353C170.927 32.5279 170.842 32.3855 170.845 32.2382C170.166 32.0727 169.691 31.5237 168.876 31.6022L168.686 31.3146C168.611 31.2094 168.525 31.1075 168.428 31.0096C168.572 30.9542 168.727 30.9131 168.89 30.8877C169.057 30.8606 169.233 30.8616 169.399 30.8906C169.566 30.9196 169.718 30.9756 169.841 31.0532C170.207 31.3146 170.587 31.2885 170.927 31.0096C171.076 30.8789 171.185 30.8615 171.334 31.0096C171.483 31.1578 172.108 31.4105 172.461 31.2449C173.35 30.9208 174.38 30.7922 175.394 30.8789C176.238 30.94 177.091 30.8336 177.838 30.574C178.099 30.4688 178.407 30.4236 178.713 30.4458C179.019 30.4679 179.304 30.5562 179.522 30.696C179.915 30.9399 180.092 30.5565 180.364 30.5565C180.635 30.5565 181.205 30.8092 181.463 30.7047C182.278 30.3736 183.12 30.574 183.948 30.513C184.491 30.4694 184.6 30.7395 184.641 31.1055C184.681 31.4715 185.224 31.7851 185.673 31.6109C186.037 31.455 186.37 31.2706 186.664 31.0619C186.84 30.9574 187.03 30.9312 187.058 31.0619C187.302 31.9332 188.212 31.5673 188.891 31.6457C189.733 31.7022 190.581 31.5732 191.294 31.2797C191.552 31.2013 192 31.3582 192.054 31.0358C191.973 30.8702 191.701 30.6785 191.498 30.5653ZM57.0743 3.9633L57.4409 3.79775L57.0743 3.9633ZM9.60524 33.005C9.48304 32.9353 9.37441 32.8307 9.25221 32.822C9.37441 32.7959 9.48304 32.9004 9.60524 33.005ZM42.0705 6.95199C42.0705 6.95199 42.0705 6.87356 42.0705 6.83871C42.0705 6.83871 42.0977 6.86485 42.0705 6.91713V6.95199ZM103.036 7.76233V7.65777V7.76233Z" fill="#FFB35B"/>
</svg>
