<svg viewBox="0 0 66 98" fill="none" xmlns="http://www.w3.org/2000/svg">
<path d="M57.4465 45.4484C60.3833 45.5259 63.2651 46.2811 65.8695 47.6557C63.475 48.4513 61.1543 49.4545 58.9335 50.6541C58.4389 57.0848 50.3286 59.7705 50.3286 59.7705C46.1628 70.7881 24.2251 77.4293 24.2251 77.4293L24.4254 93.525C23.033 96.6446 20.5265 94.1311 20.5265 94.1311C18.7319 96.3448 16.0264 95.1327 16.0264 95.1327C13.1375 98.3544 9.52753 95.8408 9.52753 95.8408C5.78042 98.3926 2.9255 95.9875 2.9255 95.9875L12.8804 71.694C13.9104 65.7819 16.305 60.1992 19.8718 55.3942C10.1167 55.241 2.84252 46.9412 2.84252 46.9412C4.1128 47.5409 9.54042 47.0369 9.54042 47.0369C2.73142 43.7195 0.101289 33.7609 0.101289 33.7609C0.101289 33.7609 0.0979758 32.6509 0.501149 33.8566C0.904322 35.0624 6.31682 37.9842 6.31682 37.9842C3.90523 35.3686 2.16278 21.0783 2.16278 21.0783C2.80123 22.4882 10.7898 30.0097 10.7898 30.0097C4.97387 23.6684 4.11074 4.35101 4.11074 4.35101C5.23525 7.11338 11.9565 15.0432 19.2747 23.2091C19.2327 9.13571 25.4083 -0.0253906 25.4083 -0.0253906C23.4692 4.80396 39.8461 45.4037 39.8461 45.4037C50.1866 37.6716 55.2926 42.048 57.4465 45.4484Z" fill="#FFB35B"/>
</svg>
