<svg width="44" height="44" viewBox="0 0 44 44" fill="none" xmlns="http://www.w3.org/2000/svg">
<path d="M14 15.4794C14 14.9062 14.6773 14.602 15.1057 14.9829L29.777 28.024C29.9188 28.1501 30 28.3308 30 28.5206C30 29.0938 29.3227 29.398 28.8943 29.0171L14.223 15.976C14.0812 15.8499 14 15.6692 14 15.4794Z"/>
<path d="M14 28.5206C14 28.3308 14.0812 28.1501 14.223 28.024L28.8943 14.9829C29.3227 14.602 30 14.9062 30 15.4794C30 15.6692 29.9188 15.8499 29.777 15.976L15.1057 29.0171C14.6773 29.398 14 29.0938 14 28.5206Z"/>
</svg>
