<svg width="64" height="64" viewBox="0 0 64 64" fill="none" xmlns="http://www.w3.org/2000/svg">
<path fill-rule="evenodd" clip-rule="evenodd" d="M29.2039 37.6696C30.0688 39.1865 30.5243 41.9414 30.5243 41.9414C30.5243 41.9414 31.0181 45.1177 30.835 47.1453C30.6899 48.751 30.4764 49.6501 29.9806 51.1842C29.7207 51.9881 29.7851 52.5903 29.2039 53.2036C28.098 54.3704 26.6703 52.9231 25.0874 53.2036C23.8312 53.4261 23.1796 53.7776 21.9806 54.2133C20.1538 54.8771 19.1983 55.4224 17.3981 56.155C16.6416 56.4629 13.7476 57.3978 13.7476 57.3978C13.7476 57.3978 14.5192 58.4256 16 58.0968C17.4005 57.7858 21.4144 55.5011 22.835 55.3007C24.9374 55.004 26.1486 55.3007 28.2718 55.3007H29.9806C29.9806 55.3007 28.9536 56.3102 28.2718 56.9317C26.679 58.384 24.4971 58.3295 24 60.4269C23.8111 61.2238 23.4907 61.8826 24 62.524C24.819 63.5553 25.6061 61.2415 26.6408 60.4269C28.3903 59.0495 31.1456 56.9317 31.1456 56.9317L31.9223 56.155L32.932 54.2133C32.932 54.2133 33.8046 55.8494 33.6311 56.9317C33.4446 58.0948 32.3401 58.3159 31.9223 59.4172C31.2984 61.0621 31.9223 63.922 31.9223 63.922C31.9223 63.922 32.553 64.0308 32.932 63.922C33.7197 63.6959 33.9368 63.0472 34.2524 62.291C34.6847 61.2553 33.9669 60.5025 34.2524 59.4172C34.5357 58.3402 35.0132 57.845 35.6505 56.9317C36.1195 56.2597 36.9709 55.3007 36.9709 55.3007C36.9709 55.3007 37.4325 57.0733 37.9806 58.0968C38.5133 59.0915 38.9554 59.5697 39.6893 60.4269C40.4426 61.3067 41.7864 62.524 41.7864 62.524C41.7864 62.524 41.9344 61.2324 41.7864 60.4269C41.4989 58.8613 39.6893 56.9317 39.6893 56.9317C39.6893 56.9317 40.9691 56.9842 41.7864 56.9317C43.3893 56.8289 44.2285 56.3285 45.8252 56.155C47.9361 55.9257 49.2252 56.7543 51.2621 56.155C52.0836 55.9133 53.2816 55.3007 53.2816 55.3007C53.2816 55.3007 49.7646 54.3779 47.4563 54.2133C46.0041 54.1097 45.1555 53.9262 43.7282 54.2133C42.5518 54.4499 42.0394 55.4891 40.8544 55.3007C39.8407 55.1395 39.4156 54.5403 38.6796 53.8249C37.4817 52.6607 37.1762 51.6582 36.5825 50.0968C35.7957 48.0273 35.7897 46.7142 35.6505 44.5045C35.5646 43.1423 35.3985 42.3509 35.6505 41.0094C35.9094 39.631 36.1328 38.7942 36.9709 37.6696C37.7832 36.5795 38.4421 36.0358 39.6893 35.4948C40.7372 35.0403 41.5147 34.4979 42.5631 34.9512C43.6854 35.4364 43.4076 36.6733 44.1165 37.6696C44.7154 38.5113 44.976 39.1008 45.8252 39.689C46.5753 40.2086 48 40.5434 48 40.5434C48 40.5434 47.7204 39.5759 47.4563 38.99C46.9792 37.9316 46.1226 37.6268 45.8252 36.5046C45.5844 35.5956 45.1441 34.745 45.8252 34.0968C46.7096 33.2552 47.5551 34.9003 48.6214 35.4948C49.6801 36.0851 50.475 36.2041 51.2621 37.1259C51.7998 37.7555 52.2718 38.99 52.2718 38.99C52.2718 38.99 52.6992 38.463 52.8155 38.058C53.0193 37.3486 52.7415 36.8929 52.5049 36.1939C52.1996 35.2922 51.5152 35.0145 51.2621 34.0968C50.888 32.7403 51.0186 31.7391 51.7282 30.524L52.8932 29.0094L54.0583 27.4948H52.2718L50.4854 28.4269L50.0971 29.2813L48.3107 27.1842L48.6214 25.1648L48 22.8347L46.9126 20.1939L45.8252 19.0288C45.8252 19.0288 46.3262 20.5691 46.4466 21.5919C46.5637 22.586 46.6281 23.1707 46.4466 24.155C46.3075 24.9097 45.8252 26.0191 45.8252 26.0191C45.8252 26.0191 44.7231 24.6707 44.1165 24.155L42.5631 22.8347C41.9565 22.319 42.5924 21.8599 42.7961 21.2813C43.0924 20.4398 43.4527 20.0131 44.1165 19.4172C45.1602 18.4803 46.2058 19.1785 47.4563 18.7181C48.9746 18.1592 50.7961 17.1643 51.0291 16.6208C51.2621 16.0774 48.2651 17.5015 46.4466 17.8638C45.2728 18.0976 43.4175 18.3298 43.4175 18.3298L41.7864 19.0288L40.8544 16.5434L38.6796 14.2133C38.6796 14.2133 37.7476 13.2812 36.9709 13.1259C36.1942 12.9706 39.2097 15.4794 39.6893 17.3978C40.0572 18.8691 40.0454 19.8071 39.6893 21.2813C39.5384 21.906 39.1456 22.8347 39.1456 22.8347L37.5922 20.8152C37.5922 20.8152 36.3495 19.4172 35.6505 19.0288C34.9515 18.6405 36.7379 21.9026 36.7379 21.9026L37.5922 23.689C37.5922 23.689 37.7774 24.619 37.5922 25.1648C37.2409 26.2004 36.2215 26.1932 35.2621 26.7181C34.6432 27.0568 33.6311 27.4948 33.6311 27.4948C33.6311 27.4948 32.5681 25.8305 32.3884 24.6211C32.2858 23.931 32.2652 23.5213 32.3884 22.8347C32.6735 21.2447 34.0053 20.8665 34.7184 19.4172C35.1636 18.5125 35.3669 17.977 35.6505 17.0094C35.9633 15.9419 36.2056 15.3256 36.1942 14.2133C36.188 13.6177 36.3739 13.8638 36.1942 13.4366L35.8348 11.1842C35.8348 11.1842 35.9612 9.7861 35.6505 9.63076C35.3398 9.47542 34.9439 10.8114 34.7184 11.6502C34.372 12.939 35.0482 13.7744 34.7184 15.0677C34.4704 16.0407 34.1709 16.551 33.6311 17.3978C33.0757 18.2689 32.6264 18.6612 31.9223 19.4172C31.3961 19.9822 31.5833 20.0039 30.835 20.1939C29.3798 20.5633 30.328 19.3522 30.5243 17.8638C30.6622 16.8177 30.462 15.4333 30.835 14.4463C31.0898 13.7719 31.3714 13.44 31.534 12.7376C31.8641 11.3114 32.3322 10.4147 31.9223 9.0094C31.5349 7.68107 27.9612 1.08707 27.4175 1.16474C26.8738 1.24241 30.656 8.1426 30.5243 9.63076C30.4535 10.4307 30.1158 11.0412 29.5922 11.6502C28.539 12.8752 27.5753 10.1261 26.4078 9.0094C25.1972 7.85151 24.3107 1.39748 23.6893 1.94118C23.068 2.48489 23.9711 7.5746 24.1553 8.46571C24.5373 10.3133 25.1387 10.2541 26.4078 11.6502C27.2302 12.555 28.3056 13.0431 28.6602 14.2133C28.8713 14.91 28.6602 15.3494 28.6602 16.0774C28.6602 17.685 28.892 18.4172 27.9612 19.7278C27.5878 20.2536 28.0532 21.1728 27.4175 21.2813C26.2166 21.4861 26.6121 19.5307 26.4078 18.3298C26.1941 17.0739 26.5758 16.3305 26.4078 15.0677C26.2845 14.1414 26.2345 13.5954 25.8641 12.7376C25.2249 11.2575 24.1622 10.882 23.1456 9.63076C22.327 8.62313 22.7573 7.92206 21.1262 6.60167C20.3123 5.94276 20.1942 8.15503 21.1262 9.47542C22.0785 10.8245 22.3427 10.9515 23.1456 12.0385C23.9355 13.1079 24.2843 13.8046 24.699 15.0677C25.1019 16.2947 25.2427 18.3298 25.2427 18.3298C25.2427 18.3298 22.6537 16.0774 22.1359 15.0677C21.6181 14.0579 20.1942 12.0385 20.1942 12.0385C20.1942 12.0385 17.5275 9.44953 16.3883 8.15503C15.2492 6.86054 15.068 8.15503 15.068 8.15503C15.068 8.15503 16.0934 10.4267 17.0874 11.6502C17.7365 12.4492 18.7496 12.5047 18.9515 13.5143C19.0228 13.8712 18.9515 14.4463 18.9515 14.4463C18.6112 16.198 16.7713 12.5703 15.068 12.0385C14.3014 11.7992 13.0485 11.6502 13.0485 11.6502C13.0485 11.6502 14.9298 13.9036 16.3883 15.0677C18.2674 16.5673 19.9454 16.5056 21.7476 18.0968L21.748 18.0971C22.8108 19.0356 23.4399 19.591 24.1553 20.8152C24.3949 21.2251 24.7022 21.4279 24.699 21.9026C24.6921 22.9258 23.1561 22.5254 22.1359 22.4463C20.7429 22.3383 18.9515 20.8152 18.9515 20.8152C18.9515 20.8152 17.501 20.2277 17.0874 19.4172C16.66 18.5796 17.4277 17.886 17.0874 17.0094C16.6914 15.9895 15.068 15.0677 15.068 15.0677V17.3978C15.068 17.7617 15.206 17.993 15.068 18.3298C14.7105 19.2016 13.6952 17.6947 13.0485 17.0094C12.7363 16.6785 12.572 16.4742 12.3495 16.0774C11.8492 15.1848 11.1909 14.5772 10.7184 13.6696C10.0835 12.4496 9.16505 11.1842 9.16505 11.1842C9.16505 11.1842 8.93305 13.0533 9.16505 14.2133C9.39704 15.3733 10.3301 17.0094 10.3301 17.0094C10.3301 17.0094 8.62329 17.595 7.53398 17.3978C6.59156 17.2271 5.61217 15.2521 5.12621 16.0774C4.86458 16.5217 6.00972 17.2085 6.13592 17.7084C6.55225 19.3577 7.48171 18.7842 9.16505 19.0288C10.1856 19.1771 10.7858 18.8766 11.8058 19.0288C13.1438 19.2285 13.8487 19.608 15.068 20.1939C17.8264 21.5193 18.8576 23.1106 21.1262 25.1648C23.05 26.9067 24.8831 27.4222 25.8641 29.8249C26.1728 30.5811 26.4078 31.8444 26.4078 31.8444C26.4078 31.8444 24.3991 29.4842 22.7573 28.4269C21.3876 27.5448 20.4512 27.3545 18.9515 26.7181C17.4478 26.0801 16.0512 26.4691 15.068 25.1648C14.6841 24.6555 14.6546 24.2592 14.3689 23.689C13.8886 22.7302 13.668 22.1566 13.0485 21.2813C12.4898 20.4917 11.4175 19.4172 11.4175 19.4172L13.0485 23.689C13.0485 23.689 12.0794 24.1273 11.4175 24.155C10.1559 24.208 9.56641 23.454 8.46602 22.8347C7.27067 22.1619 5.59223 20.8152 5.59223 20.8152L3.33981 18.3298C3.33981 18.3298 3.38718 20.192 3.80583 21.2813C4.40236 22.8333 6.4466 24.6211 6.4466 24.6211L4.73786 25.1648C4.73786 25.1648 3.1619 25.5434 2.25243 26.0191C1.16099 26.59 0.543689 28.8929 0.543689 28.8929C0.543689 28.8929 1.81394 26.9797 3.18447 26.7181C4.9574 26.3797 5.80273 26.5296 7.53398 26.0191C8.33867 25.7819 8.79287 25.5178 9.63107 25.5531C10.7851 25.6017 11.7344 25.7406 12.3495 26.7181C13.4124 28.4073 9.68733 28.5261 8.62136 30.2133C8.085 31.0622 7.53398 32.5434 7.53398 32.5434C7.53398 32.5434 9.60655 31.3708 10.8738 30.524C12.0289 29.752 12.4315 28.8721 13.7476 28.4269C15.1555 27.9506 16.104 28.0978 17.5534 28.4269C18.8508 28.7215 19.953 28.698 20.6602 29.8249C20.9814 30.3369 21.1983 30.7006 21.1262 31.3007C20.9736 32.5702 19.3063 32.1279 18.0971 32.5434C16.9347 32.9428 16.29 33.2662 15.068 33.3978C14.2839 33.4822 13.8294 33.5081 13.0485 33.3978C11.7936 33.2204 11.2831 32.1355 10.0194 32.2327C9.17696 32.2975 8 33.0094 8 33.0094C8 33.0094 9.44587 33.7584 10.2524 34.4075C10.7373 34.7977 11.4444 34.8731 11.4175 35.4948C11.3851 36.2433 10.3314 35.9279 9.63107 36.1939C8.63539 36.5721 7.22511 37.0389 6.4466 36.8929C5.20388 36.6599 0 33.0094 0 33.0094C0 33.0094 4.82994 37.9118 6.95044 38.3798C7.44607 38.4891 7.82338 38.5472 8 38.524C9.56987 38.3176 10.3542 37.7582 11.8058 37.1259C13.1116 36.5571 13.7433 36.0181 15.068 35.4948C17.3262 34.6028 18.7295 34.4857 21.1262 34.0968C22.634 33.8521 23.5227 33.2816 25.0097 33.6308C27.1942 34.1438 28.0548 35.6537 29.1595 37.5917L29.2039 37.6696ZM30.5243 28.4269C30.5243 28.4269 31.6237 31.0752 30.5243 31.3007C29.9977 31.4087 29.6923 31.1367 29.2039 30.9123C27.9759 30.3482 26.7961 29.7783 26.7961 28.4269C26.7961 27.4948 26.6569 27.3555 26.4078 26.7181C26.0494 25.8014 24.3987 25.7864 25.0097 24.6211C25.5534 23.5841 27.7282 24.1033 28.6602 25.1648C29.5922 26.2262 29.2403 26.1044 29.5922 26.7181C29.9703 27.3776 30.5243 28.4269 30.5243 28.4269ZM34.7184 32.2327C34.7184 32.2327 34.6018 32.7294 34.7184 33.0094C34.8867 33.4132 35.213 33.6308 35.6505 33.6308C36.0879 33.6308 36.1716 33.1595 36.5825 33.0094C37.1808 32.7909 37.5845 33.1093 38.2136 33.0094C39.0481 32.8769 39.4957 32.6454 40.233 32.2327C40.4827 32.0929 40.8544 31.8444 40.8544 31.8444C40.8544 31.8444 40.5577 30.9923 40.233 30.524C39.5237 29.5007 37.5922 28.7376 37.5922 28.7376C37.5922 28.7376 37.2816 28.6599 37.1262 28.7376C36.9709 28.8152 35.2621 30.9123 35.2621 30.9123C35.2621 30.9123 34.7702 31.922 34.7184 32.2327ZM39.6893 27.9609C39.5691 27.4907 39.5699 27.1885 39.6893 26.7181C39.876 25.9832 40.1477 25.4398 40.8544 25.1648C41.575 24.8843 42.0697 25.2878 42.7961 25.5531C43.8866 25.9514 44.3347 26.5124 45.2816 27.1842C46.6377 28.1463 47.8209 28.3675 48.6214 29.8249C48.9907 30.4975 49.3331 30.927 49.2427 31.689L49.2407 31.7062C49.1745 32.2647 49.1179 32.7417 48.6214 33.0094C48.2209 33.2253 47.9113 33.0094 47.4563 33.0094C46.8193 33.0094 46.4443 33.1594 45.8252 33.0094C44.6133 32.7159 44.42 31.6539 43.4175 30.9123C42.802 30.4571 42.3982 30.2852 41.7864 29.8249C40.9108 29.1662 39.9608 29.0224 39.6893 27.9609Z" fill="#FCFCFA"/>
<path d="M40.8544 16.5434L41.7864 19.0288L42.5631 16.0774L42.8583 13.9803L42.5631 11.0288C42.5631 11.0288 41.7864 5.20358 41.3981 5.20358C41.0097 5.20358 41.3981 11.6502 41.3981 11.6502V14.6793L40.8544 16.5434Z" fill="#FCFCFA"/>
<path d="M45.0485 13.2036L46.2913 13.0482C46.2913 13.0482 46.2544 11.8859 46.2913 11.0288C46.333 10.0586 47.4563 8.62105 47.4563 8.62105L48.3884 6.91232L48.1553 6.36863C48.1553 6.36863 46.7399 8.32038 46.2913 8.93173C45.7167 9.71465 45.1627 10.0645 45.0485 11.0288C44.9487 11.8722 45.0485 13.2036 45.0485 13.2036Z" fill="#FCFCFA"/>
<path d="M42.5631 16.0774C42.5631 16.0774 44.3049 14.0622 45.2816 13.9803C46.1413 13.9082 46.6664 13.6333 47.4563 13.9803C48.3064 14.3537 48.5437 14.6793 48.5437 14.6793C48.5437 14.6793 48.6457 14.2377 48.3884 13.9803C47.4563 13.0482 46.2913 13.0482 46.2913 13.0482L45.0485 13.2036L42.8583 13.9803L42.5631 16.0774Z" fill="#FCFCFA"/>
<path d="M51.3398 13.9803C52.0976 14.1988 53.3592 13.9803 53.3592 13.9803V13.0482C53.3592 13.0482 52.3432 13.3364 51.7282 13.1647C50.8909 12.9311 50.0971 11.6502 50.0971 11.6502C50.0971 11.6502 50.3548 5.71845 50.0971 6.91216C49.9755 7.47549 49.3204 9.52047 49.3204 10.0968C49.3204 11.0371 48.9028 11.6621 49.3204 12.5045C49.7542 13.3797 50.4013 13.7096 51.3398 13.9803Z" fill="#FCFCFA"/>
<path d="M48 22.8347L48.6214 25.1648L49.3204 24.6211L53.7476 24.155L56.466 25.0871V24.155L53.7476 22.6793L52.1165 22.9123L53.3592 21.7473L54.4466 18.5628V16.2715V13.9803L53.3592 12.1162V13.0482V13.9803V17.0094L52.1165 19.8832L50.0971 22.9123L48 22.8347Z" fill="#FCFCFA"/>
<path d="M54.4466 18.5628L56.466 17.8638L59.8835 18.5628L60.1942 19.1842L59.8835 17.4754L56.466 16.0774L54.4466 16.2715V18.5628Z" fill="#FCFCFA"/>
<path d="M53.7476 31.7667H56.466C56.466 31.7667 57.1452 29.6096 57.9417 28.4269C58.661 27.3589 60.1942 26.0191 60.1942 26.0191L62.1359 25.0871C62.1359 25.0871 60.1588 24.6445 59.0291 25.0871C57.6289 25.6356 57.467 26.8386 56.466 27.9609C55.4044 29.4471 53.7476 31.7667 53.7476 31.7667Z" fill="#FCFCFA"/>
<path d="M52.8932 29.0094L51.7282 30.524C52.3348 31.3126 51.2434 32.5324 52.1165 33.0094C53.1546 33.5766 53.9627 33.0094 55.1456 33.0094C56.2376 33.0094 56.8498 33.0094 57.9417 33.0094C58.3664 32.2208 59.0291 30.99 59.0291 30.99L56.466 31.7667H53.7476L52.8932 29.0094Z" fill="#FCFCFA"/>
<path d="M35.8348 11.1842C35.3911 11.7908 36.2785 10.5775 35.8348 11.1842L36.1942 13.4366C37.053 12.6025 36.5792 12.1302 37.0485 11.0288C37.1876 10.7024 37.2889 10.3954 37.35 10.0968C37.4976 9.37428 37.4091 8.7011 37.0485 7.92202C37.0485 7.92202 35.2497 5.36578 34.0971 3.72785C33.6311 4.65992 35.895 7.2706 35.9612 7.92202C36.0473 8.76912 36.2785 10.5775 35.8348 11.1842Z" fill="#FCFCFA"/>
<path d="M38.5243 6.91232C38.1073 7.47246 37.0485 7.92202 37.0485 7.92202C37.4091 8.7011 37.4976 9.37428 37.35 10.0968L37.9806 9.47542C37.9806 9.47542 38.7194 8.82599 39.068 8.31037C39.8219 7.19501 40.0581 6.30998 39.9223 4.97057C39.8246 4.00631 39.068 2.64047 39.068 2.64047C39.068 2.64047 39.2486 4.21906 39.068 5.20358C38.9416 5.89235 38.9424 6.35059 38.5243 6.91232Z" fill="#FCFCFA"/>
<path d="M51.2622 35.193C51.2622 35.193 53.1194 34.8862 53.9807 34.7032C54.9686 34.4932 56.1579 34.8674 57.1651 35.0094C58.1022 35.1414 58.7185 35.3469 59.1845 35.7435C59.848 36.3082 60.2719 38.6795 60.2719 38.6795C60.2719 38.6795 58.9528 36.9488 58.0972 36.6C57.2539 36.2562 57.3957 36.1408 56.4661 35.9883C55.7237 35.8664 54.7067 35.9995 53.9807 36.1718C53.2476 36.3457 52.3496 36.6 52.3496 36.6L51.2622 35.193Z" fill="#FCFCFA" stroke="#FCFCFA" stroke-width="0.15534" stroke-linecap="round"/>
<path d="M35.5728 6.8341C35.5728 6.8341 34.3566 7.05457 33.6311 6.8341C32.6426 6.53374 32.216 5.96319 31.6116 5.12536C30.6127 3.74055 30.6796 0.853516 30.6796 0.853516C30.6796 0.853516 29.7719 3.12802 30.1359 4.03798L31.068 6.36808C31.4319 7.27804 33.0097 7.84381 33.0097 7.84381C33.0097 7.84381 36.2718 8.69818 36.9709 8.62051C37.6699 8.54284 36.5048 7.84381 36.5048 7.84381L35.5728 6.8341Z" fill="#FCFCFA"/>
<path d="M30.1359 4.03798C29.7719 3.12802 30.6796 0.853516 30.6796 0.853516C30.6796 0.853516 30.6127 3.74055 31.6116 5.12536C32.216 5.96319 32.6426 6.53374 33.6311 6.8341C34.3566 7.05457 35.5728 6.8341 35.5728 6.8341L36.5048 7.84381C36.5048 7.84381 37.6699 8.54284 36.9709 8.62051C36.2718 8.69818 33.0097 7.84381 33.0097 7.84381C33.0097 7.84381 31.4319 7.27804 31.068 6.36808M30.1359 4.03798C30.4999 4.94794 30.704 5.45812 31.068 6.36808M30.1359 4.03798L31.068 6.36808" stroke="#FCFCFA" stroke-width="0.15534" stroke-linecap="round"/>
<circle cx="32" cy="32" r="31" stroke="#FCFCFA" stroke-width="2"/>
<path d="M22.5243 33.166C22.5243 33.166 19.415 34.4829 18.9515 36.2728C18.7462 37.0656 18.828 37.5603 18.9515 38.3699C19.1121 39.4228 19.8835 40.933 19.8835 40.933C19.8835 40.933 18.6835 40.1464 18.2525 39.3796C17.7978 38.5706 17.7865 37.0495 17.7865 37.0495C17.7865 37.0495 17.454 37.8787 17.1651 38.3699C16.469 39.5537 14.7573 40.933 14.7573 40.933C14.7573 40.933 15.6704 38.8256 16.1554 37.4379C16.3136 36.9851 16.5437 36.2728 16.5437 36.2728L17.7865 34.5641L18.2525 34.0204L22.5243 33.166Z" fill="#FCFCFA" stroke="#FCFCFA" stroke-width="0.15534" stroke-linecap="round"/>
</svg>
