<svg width="49" height="49" viewBox="0 0 49 49" fill="none" xmlns="http://www.w3.org/2000/svg">
<path fill-rule="evenodd" clip-rule="evenodd" d="M22.9029 28.2522C23.5516 29.3899 23.8932 31.4561 23.8932 31.4561C23.8932 31.4561 24.2636 33.8383 24.1262 35.359C24.0174 36.5632 23.8573 37.2376 23.4854 38.3881C23.2905 38.9911 23.3388 39.4427 22.9029 39.9027C22.0735 40.7778 21.0027 39.6923 19.8155 39.9027C18.8734 40.0696 18.3847 40.3332 17.4854 40.66C16.1154 41.1578 15.3987 41.5668 14.0485 42.1163C13.4812 42.3472 11.3107 43.0483 11.3107 43.0483C11.3107 43.0483 11.8894 43.8192 13 43.5726C14.0504 43.3394 17.0608 41.6258 18.1262 41.4755C19.703 41.253 20.6115 41.4755 22.2039 41.4755H23.4854C23.4854 41.4755 22.7152 42.2327 22.2039 42.6988C21.0092 43.788 19.3729 43.7471 19 45.3202C18.8583 45.9178 18.618 46.412 19 46.893C19.6142 47.6664 20.2045 45.9311 20.9806 45.3202C22.2927 44.2871 24.3592 42.6988 24.3592 42.6988L24.9417 42.1163L25.699 40.66C25.699 40.66 26.3534 41.887 26.2233 42.6988C26.0835 43.5711 25.2551 43.7369 24.9417 44.5629C24.4738 45.7966 24.9417 47.9415 24.9417 47.9415C24.9417 47.9415 25.4148 48.0231 25.699 47.9415C26.2898 47.7719 26.4526 47.2854 26.6893 46.7182C27.0135 45.9414 26.4752 45.3769 26.6893 44.5629C26.9018 43.7551 27.2599 43.3837 27.7379 42.6988C28.0896 42.1948 28.7282 41.4755 28.7282 41.4755C28.7282 41.4755 29.0744 42.805 29.4854 43.5726C29.885 44.3186 30.2166 44.6773 30.767 45.3202C31.3319 45.98 32.3398 46.893 32.3398 46.893C32.3398 46.893 32.4508 45.9243 32.3398 45.3202C32.1241 44.146 30.767 42.6988 30.767 42.6988C30.767 42.6988 31.7268 42.7381 32.3398 42.6988C33.542 42.6217 34.1714 42.2464 35.3689 42.1163C36.952 41.9443 37.9189 42.5658 39.4466 42.1163C40.0627 41.935 40.9612 41.4755 40.9612 41.4755C40.9612 41.4755 38.3235 40.7835 36.5922 40.66C35.503 40.5823 34.8666 40.4446 33.7961 40.66C32.9138 40.8374 32.5296 41.6168 31.6408 41.4755C30.8806 41.3546 30.5617 40.9052 30.0097 40.3687C29.1113 39.4955 28.8821 38.7437 28.4369 37.5726C27.8468 36.0205 27.8423 35.0356 27.7379 33.3784C27.6735 32.3567 27.5489 31.7632 27.7379 30.7571C27.932 29.7232 28.0996 29.0957 28.7282 28.2522C29.3374 27.4346 29.8315 27.0269 30.767 26.6211C31.5529 26.2803 32.136 25.8734 32.9223 26.2134C33.7641 26.5773 33.5557 27.505 34.0874 28.2522C34.5366 28.8835 34.732 29.3256 35.3689 29.7668C35.9315 30.1565 37 30.4075 37 30.4075C37 30.4075 36.7903 29.682 36.5922 29.2425C36.2344 28.4487 35.5919 28.2201 35.3689 27.3784C35.1883 26.6967 34.8581 26.0587 35.3689 25.5726C36.0322 24.9414 36.6663 26.1752 37.466 26.6211C38.26 27.0639 38.8562 27.1531 39.4466 27.8444C39.8498 28.3166 40.2039 29.2425 40.2039 29.2425C40.2039 29.2425 40.5244 28.8472 40.6116 28.5435C40.7645 28.0115 40.5561 27.6697 40.3786 27.1454C40.1497 26.4691 39.6364 26.2609 39.4466 25.5726C39.166 24.5553 39.264 23.8043 39.7961 22.893L40.6699 21.7571L41.5437 20.6211H40.2039L38.8641 21.3202L38.5728 21.9609L37.233 20.3881L37.466 18.8736L37 17.126L36.1845 15.1454L35.3689 14.2716C35.3689 14.2716 35.7446 15.4268 35.8349 16.194C35.9227 16.9395 35.9711 17.378 35.8349 18.1163C35.7306 18.6823 35.3689 19.5143 35.3689 19.5143C35.3689 19.5143 34.5424 18.503 34.0874 18.1163L32.9223 17.126C32.4673 16.7393 32.9443 16.3949 33.0971 15.9609C33.3193 15.3299 33.5895 15.0098 34.0874 14.5629C34.8701 13.8602 35.6544 14.3839 36.5922 14.0386C37.7309 13.6194 39.0971 12.8732 39.2718 12.4656C39.4466 12.058 37.1988 13.1261 35.8349 13.3978C34.9546 13.5732 33.5631 13.7473 33.5631 13.7473L32.3398 14.2716L31.6408 12.4075L30.0097 10.66C30.0097 10.66 29.3107 9.96094 28.7282 9.84443C28.1456 9.72793 30.4073 11.6095 30.767 13.0483C31.0429 14.1518 31.0341 14.8553 30.767 15.9609C30.6538 16.4295 30.3592 17.126 30.3592 17.126L29.1942 15.6114C29.1942 15.6114 28.2621 14.5629 27.7379 14.2716C27.2136 13.9804 28.5534 16.427 28.5534 16.427L29.1942 17.7668C29.1942 17.7668 29.333 18.4642 29.1942 18.8736C28.9306 19.6503 28.1661 19.6449 27.4466 20.0386C26.9824 20.2926 26.2233 20.6211 26.2233 20.6211C26.2233 20.6211 25.4261 19.3729 25.2913 18.4658C25.2143 17.9483 25.1989 17.641 25.2913 17.126C25.5051 15.9335 26.504 15.6499 27.0388 14.5629C27.3727 13.8844 27.5252 13.4827 27.7379 12.7571C27.9725 11.9564 28.1542 11.4942 28.1456 10.66C28.141 10.2133 28.2804 10.3979 28.1456 10.0775L27.8761 8.38812C27.8761 8.38812 27.9709 7.33958 27.7379 7.22307C27.5049 7.10657 27.208 8.10854 27.0388 8.73763C26.779 9.70427 27.2861 10.3308 27.0388 11.3007C26.8528 12.0305 26.6282 12.4133 26.2233 13.0483C25.8068 13.7016 25.4698 13.9959 24.9417 14.5629C24.5471 14.9867 24.6875 15.0029 24.1262 15.1454C23.0348 15.4225 23.746 14.5142 23.8932 13.3978C23.9967 12.6133 23.8465 11.575 24.1262 10.8347C24.3174 10.3289 24.5286 10.08 24.6505 9.55317C24.898 8.48358 25.2491 7.811 24.9417 6.75705C24.6512 5.7608 21.9709 0.815305 21.5631 0.873557C21.1553 0.93181 23.992 6.10695 23.8932 7.22307C23.8401 7.82304 23.5868 8.28092 23.1942 8.73763C22.4042 9.65643 21.6814 7.5946 20.8058 6.75705C19.8979 5.88863 19.233 1.04811 18.767 1.45589C18.301 1.86366 18.9783 5.68095 19.1165 6.34929C19.403 7.735 19.854 7.69055 20.8058 8.73763C21.4227 9.41623 22.2292 9.78233 22.4951 10.66C22.6535 11.1825 22.4951 11.512 22.4951 12.058C22.4951 13.2637 22.669 13.8129 21.9709 14.7959C21.6908 15.1902 22.0399 15.8796 21.5631 15.9609C20.6625 16.1146 20.9591 14.648 20.8058 13.7473C20.6456 12.8054 20.9319 12.2478 20.8058 11.3007C20.7134 10.6061 20.6759 10.1965 20.3981 9.55317C19.9187 8.44312 19.1217 8.16152 18.3592 7.22307C17.7452 6.46735 18.068 5.94154 16.8447 4.95125C16.2342 4.45707 16.1456 6.11628 16.8447 7.10657C17.5589 8.11837 17.757 8.21365 18.3592 9.0289C18.9516 9.8309 19.2132 10.3534 19.5243 11.3007C19.8264 12.221 19.932 13.7473 19.932 13.7473C19.932 13.7473 17.9903 12.058 17.6019 11.3007C17.2136 10.5435 16.1456 9.0289 16.1456 9.0289C16.1456 9.0289 14.1456 7.08715 13.2913 6.11628C12.4369 5.1454 12.301 6.11628 12.301 6.11628C12.301 6.11628 13.0701 7.81999 13.8155 8.73763C14.3024 9.33693 15.0622 9.37856 15.2136 10.1357C15.2671 10.4034 15.2136 10.8347 15.2136 10.8347C14.9584 12.1485 13.5785 9.42774 12.301 9.0289C11.726 8.8494 10.7864 8.73763 10.7864 8.73763C10.7864 8.73763 12.1974 10.4277 13.2913 11.3007C14.7005 12.4255 15.9591 12.3792 17.3107 13.5726L17.311 13.5728C18.1081 14.2767 18.5799 14.6932 19.1165 15.6114C19.2962 15.9189 19.5267 16.0709 19.5243 16.427C19.5191 17.1944 18.3671 16.894 17.6019 16.8347C16.5571 16.7537 15.2136 15.6114 15.2136 15.6114C15.2136 15.6114 14.1257 15.1708 13.8155 14.5629C13.495 13.9347 14.0708 13.4145 13.8155 12.7571C13.5186 11.9921 12.301 11.3007 12.301 11.3007V13.0483C12.301 13.3213 12.4045 13.4948 12.301 13.7473C12.0329 14.4012 11.2714 13.2711 10.7864 12.7571C10.5522 12.5089 10.429 12.3557 10.2621 12.058C9.88689 11.3886 9.39315 10.9329 9.03883 10.2522C8.56259 9.33721 7.87379 8.38812 7.87379 8.38812C7.87379 8.38812 7.69979 9.78998 7.87379 10.66C8.04778 11.5299 8.74757 12.7571 8.74757 12.7571C8.74757 12.7571 7.46746 13.1962 6.65049 13.0483C5.94367 12.9203 5.20913 11.4391 4.84466 12.058C4.64843 12.3913 5.50729 12.9064 5.60194 13.2813C5.91419 14.5183 6.61128 14.0881 7.87379 14.2716C8.63921 14.3829 9.08938 14.1574 9.85437 14.2716C10.8578 14.4214 11.3865 14.706 12.301 15.1454C14.3698 16.1395 15.1432 17.333 16.8447 18.8736C18.2875 20.18 19.6623 20.5666 20.3981 22.3687C20.6296 22.9358 20.8058 23.8833 20.8058 23.8833C20.8058 23.8833 19.2993 22.1132 18.068 21.3202C17.0407 20.6586 16.3384 20.5159 15.2136 20.0386C14.0858 19.5601 13.0384 19.8518 12.301 18.8736C12.0131 18.4916 11.9909 18.1944 11.7767 17.7668C11.4164 17.0477 11.251 16.6175 10.7864 15.9609C10.3673 15.3687 9.56311 14.5629 9.56311 14.5629L10.7864 17.7668C10.7864 17.7668 10.0595 18.0954 9.56311 18.1163C8.61692 18.156 8.17481 17.5905 7.34951 17.126C6.453 16.6214 5.19417 15.6114 5.19417 15.6114L3.50485 13.7473C3.50485 13.7473 3.54039 15.144 3.85437 15.9609C4.30177 17.125 5.83495 18.4658 5.83495 18.4658L4.5534 18.8736C4.5534 18.8736 3.37143 19.1576 2.68932 19.5143C1.87074 19.9425 1.40777 21.6697 1.40777 21.6697C1.40777 21.6697 2.36045 20.2348 3.38835 20.0386C4.71805 19.7848 5.35204 19.8972 6.65049 19.5143C7.254 19.3364 7.59465 19.1384 8.2233 19.1648C9.08879 19.2013 9.8008 19.3054 10.2621 20.0386C11.0593 21.3055 8.26549 21.3946 7.46602 22.66C7.06375 23.2967 6.65049 24.4075 6.65049 24.4075C6.65049 24.4075 8.20491 23.5281 9.15534 22.893C10.0217 22.314 10.3236 21.6541 11.3107 21.3202C12.3666 20.963 13.078 21.0733 14.165 21.3202C15.1381 21.5411 15.9648 21.5235 16.4951 22.3687C16.7361 22.7526 16.8987 23.0255 16.8447 23.4755C16.7302 24.4276 15.4797 24.0959 14.5728 24.4075C13.701 24.7071 13.2175 24.9496 12.301 25.0483C11.7129 25.1116 11.3721 25.1311 10.7864 25.0483C9.84519 24.9153 9.46233 24.1016 8.51456 24.1745C7.88272 24.2231 7 24.7571 7 24.7571C7 24.7571 8.0844 25.3188 8.68932 25.8056C9.05296 26.0982 9.58327 26.1548 9.56311 26.6211C9.53884 27.1825 8.74855 26.9459 8.2233 27.1454C7.47654 27.429 6.41883 27.7792 5.83495 27.6697C4.90291 27.4949 1 24.7571 1 24.7571C1 24.7571 4.62245 28.4339 6.21283 28.7848C6.58455 28.8669 6.86754 28.9104 7 28.893C8.1774 28.7382 8.76564 28.3187 9.85437 27.8444C10.8337 27.4178 11.3074 27.0136 12.301 26.6211C13.9947 25.9521 15.0471 25.8643 16.8447 25.5726C17.9755 25.3891 18.642 24.9612 19.7573 25.2231C21.3956 25.6078 22.0411 26.7403 22.8696 28.1937L22.9029 28.2522ZM23.8932 21.3202C23.8932 21.3202 24.7178 23.3064 23.8932 23.4755C23.4983 23.5565 23.2692 23.3525 22.9029 23.1842C21.9819 22.7612 21.0971 22.3337 21.0971 21.3202C21.0971 20.6211 20.9927 20.5166 20.8058 20.0386C20.5371 19.3511 19.299 19.3398 19.7573 18.4658C20.1651 17.6881 21.7961 18.0774 22.4951 18.8736C23.1942 19.6697 22.9302 19.5783 23.1942 20.0386C23.4777 20.5332 23.8932 21.3202 23.8932 21.3202ZM27.0388 24.1745C27.0388 24.1745 26.9513 24.5471 27.0388 24.7571C27.165 25.0599 27.4098 25.2231 27.7379 25.2231C28.066 25.2231 28.1287 24.8696 28.4369 24.7571C28.8856 24.5932 29.1884 24.832 29.6602 24.7571C30.2861 24.6576 30.6218 24.4841 31.1748 24.1745C31.362 24.0697 31.6408 23.8833 31.6408 23.8833C31.6408 23.8833 31.4182 23.2443 31.1748 22.893C30.6428 22.1255 29.1942 21.5532 29.1942 21.5532C29.1942 21.5532 28.9612 21.4949 28.8447 21.5532C28.7282 21.6114 27.4466 23.1842 27.4466 23.1842C27.4466 23.1842 27.0777 23.9415 27.0388 24.1745ZM30.767 20.9706C30.6768 20.618 30.6774 20.3914 30.767 20.0386C30.907 19.4874 31.1108 19.0798 31.6408 18.8736C32.1813 18.6632 32.5523 18.9658 33.0971 19.1648C33.915 19.4636 34.251 19.8843 34.9612 20.3881C35.9782 21.1097 36.8657 21.2757 37.466 22.3687C37.7431 22.8731 37.9998 23.1953 37.932 23.7668L37.9305 23.7796C37.8808 24.1985 37.8384 24.5563 37.466 24.7571C37.1657 24.919 36.9335 24.7571 36.5922 24.7571C36.1145 24.7571 35.8332 24.8695 35.3689 24.7571C34.46 24.5369 34.315 23.7404 33.5631 23.1842C33.1015 22.8428 32.7986 22.7139 32.3398 22.3687C31.6831 21.8746 30.9706 21.7668 30.767 20.9706Z" fill="#FCFCFA"/>
<path d="M31.6408 12.4075L32.3398 14.2716L32.9223 12.058L33.1437 10.4852L32.9223 8.27162C32.9223 8.27162 32.3398 3.90268 32.0485 3.90268C31.7573 3.90268 32.0485 8.73763 32.0485 8.73763V11.0095L31.6408 12.4075Z" fill="#FCFCFA"/>
<path d="M34.7864 9.90268L35.7184 9.78618C35.7184 9.78618 35.6908 8.91446 35.7184 8.27162C35.7497 7.54397 36.5922 6.46579 36.5922 6.46579L37.2913 5.18424L37.1165 4.77647C37.1165 4.77647 36.0549 6.24028 35.7184 6.6988C35.2876 7.28599 34.872 7.54834 34.7864 8.27162C34.7116 8.90417 34.7864 9.90268 34.7864 9.90268Z" fill="#FCFCFA"/>
<path d="M32.9223 12.058C32.9223 12.058 34.2287 10.5467 34.9612 10.4852C35.6059 10.4311 35.9998 10.225 36.5922 10.4852C37.2298 10.7653 37.4078 11.0095 37.4078 11.0095C37.4078 11.0095 37.4843 10.6782 37.2913 10.4852C36.5922 9.78618 35.7184 9.78618 35.7184 9.78618L34.7864 9.90268L33.1437 10.4852L32.9223 12.058Z" fill="#FCFCFA"/>
<path d="M39.5049 10.4852C40.0732 10.6491 41.0194 10.4852 41.0194 10.4852V9.78618C41.0194 9.78618 40.2574 10.0023 39.7961 9.87356C39.1682 9.6983 38.5728 8.73763 38.5728 8.73763C38.5728 8.73763 38.7661 4.28884 38.5728 5.18412C38.4816 5.60662 37.9903 7.14036 37.9903 7.57259C37.9903 8.27781 37.6771 8.74656 37.9903 9.37841C38.3156 10.0348 38.801 10.2822 39.5049 10.4852Z" fill="#FCFCFA"/>
<path d="M37 17.126L37.466 18.8736L37.9903 18.4658L41.3107 18.1163L43.3495 18.8153V18.1163L41.3107 17.0095L40.0874 17.1842L41.0194 16.3105L41.8349 13.9221V12.2037V10.4852L41.0194 9.08715V9.78618V10.4852V12.7571L40.0874 14.9124L38.5728 17.1842L37 17.126Z" fill="#FCFCFA"/>
<path d="M41.8349 13.9221L43.3495 13.3978L45.9126 13.9221L46.1456 14.3881L45.9126 13.1066L43.3495 12.058L41.8349 12.2037V13.9221Z" fill="#FCFCFA"/>
<path d="M41.3107 23.825H43.3495C43.3495 23.825 43.8589 22.2072 44.4563 21.3202C44.9958 20.5192 46.1456 19.5143 46.1456 19.5143L47.6019 18.8153C47.6019 18.8153 46.1191 18.4834 45.2718 18.8153C44.2217 19.2267 44.1002 20.1289 43.3495 20.9706C42.5533 22.0854 41.3107 23.825 41.3107 23.825Z" fill="#FCFCFA"/>
<path d="M40.6699 21.7571L39.7961 22.893C40.2511 23.4845 39.4325 24.3993 40.0874 24.7571C40.866 25.1824 41.472 24.7571 42.3592 24.7571C43.1782 24.7571 43.6373 24.7571 44.4563 24.7571C44.7748 24.1656 45.2718 23.2425 45.2718 23.2425L43.3495 23.825H41.3107L40.6699 21.7571Z" fill="#FCFCFA"/>
<path d="M27.8761 8.38812C27.5433 8.8431 28.2088 7.93314 27.8761 8.38812L28.1456 10.0775C28.7897 9.45187 28.4344 9.09766 28.7864 8.27162C28.8907 8.02681 28.9667 7.79654 29.0125 7.57259C29.1232 7.03071 29.0569 6.52582 28.7864 5.94152C28.7864 5.94152 27.4373 4.02433 26.5728 2.79589C26.2233 3.49494 27.9212 5.45295 27.9709 5.94152C28.0354 6.57684 28.2088 7.93314 27.8761 8.38812Z" fill="#FCFCFA"/>
<path d="M29.8932 5.18424C29.5805 5.60435 28.7864 5.94152 28.7864 5.94152C29.0569 6.52582 29.1232 7.03071 29.0125 7.57259L29.4854 7.10657C29.4854 7.10657 30.0396 6.61949 30.301 6.23278C30.8664 5.39625 31.0436 4.73249 30.9417 3.72793C30.8685 3.00473 30.301 1.98035 30.301 1.98035C30.301 1.98035 30.4364 3.16429 30.301 3.90268C30.2062 4.41926 30.2068 4.76294 29.8932 5.18424Z" fill="#FCFCFA"/>
<path d="M22.9029 28.2522C23.5516 29.3899 23.8932 31.4561 23.8932 31.4561C23.8932 31.4561 24.2636 33.8383 24.1262 35.359C24.0174 36.5632 23.8573 37.2376 23.4854 38.3881C23.2905 38.9911 23.3388 39.4427 22.9029 39.9027C22.0735 40.7778 21.0027 39.6923 19.8155 39.9027C18.8734 40.0696 18.3847 40.3332 17.4854 40.66C16.1154 41.1578 15.3987 41.5668 14.0485 42.1163C13.4812 42.3472 11.3107 43.0483 11.3107 43.0483C11.3107 43.0483 11.8894 43.8192 13 43.5726C14.0504 43.3394 17.0608 41.6258 18.1262 41.4755C19.703 41.253 20.6115 41.4755 22.2039 41.4755M22.9029 28.2522L22.8696 28.1937M22.9029 28.2522C22.8918 28.2327 22.8807 28.2132 22.8696 28.1937M22.2039 41.4755C22.7044 41.4755 23.4854 41.4755 23.4854 41.4755M22.2039 41.4755H23.4854M23.4854 41.4755C23.4854 41.4755 22.7152 42.2327 22.2039 42.6988C21.0092 43.788 19.3729 43.7471 19 45.3202C18.8583 45.9178 18.618 46.412 19 46.893C19.6142 47.6664 20.2045 45.9311 20.9806 45.3202C22.2927 44.2871 24.3592 42.6988 24.3592 42.6988L24.9417 42.1163L25.699 40.66C25.699 40.66 26.3534 41.887 26.2233 42.6988C26.0835 43.5711 25.2551 43.7369 24.9417 44.5629C24.4738 45.7966 24.9417 47.9415 24.9417 47.9415C24.9417 47.9415 25.4148 48.0231 25.699 47.9415C26.2898 47.7719 26.4526 47.2854 26.6893 46.7182C27.0135 45.9414 26.4752 45.3769 26.6893 44.5629C26.9018 43.7551 27.2599 43.3837 27.7379 42.6988C28.0896 42.1948 28.7282 41.4755 28.7282 41.4755C28.7282 41.4755 29.0743 42.805 29.4854 43.5726C29.885 44.3186 30.2166 44.6773 30.767 45.3202C31.3319 45.98 32.3398 46.893 32.3398 46.893C32.3398 46.893 32.4508 45.9243 32.3398 45.3202C32.1241 44.146 30.767 42.6988 30.767 42.6988C30.767 42.6988 31.7268 42.7381 32.3398 42.6988C33.542 42.6217 34.1714 42.2464 35.3689 42.1163C36.952 41.9443 37.9189 42.5658 39.4466 42.1163C40.0627 41.935 40.9612 41.4755 40.9612 41.4755C40.9612 41.4755 38.3235 40.7835 36.5922 40.66C35.503 40.5823 34.8666 40.4446 33.7961 40.66C32.9138 40.8374 32.5296 41.6168 31.6408 41.4755C30.8806 41.3546 30.5617 40.9052 30.0097 40.3687C29.1113 39.4955 28.8821 38.7437 28.4369 37.5726C27.8468 36.0205 27.8423 35.0356 27.7379 33.3784C27.6735 32.3567 27.5489 31.7632 27.7379 30.7571C27.932 29.7232 28.0996 29.0957 28.7282 28.2522C29.3374 27.4346 29.8315 27.0269 30.767 26.6211C31.5529 26.2803 32.136 25.8734 32.9223 26.2134C33.7641 26.5773 33.5557 27.505 34.0874 28.2522C34.5366 28.8835 34.732 29.3256 35.3689 29.7668C35.9315 30.1565 37 30.4075 37 30.4075C37 30.4075 36.7903 29.682 36.5922 29.2425C36.2344 28.4487 35.5919 28.2201 35.3689 27.3784C35.1883 26.6967 34.8581 26.0587 35.3689 25.5726C36.0322 24.9414 36.6663 26.1752 37.466 26.6211C38.26 27.0639 38.8562 27.1531 39.4466 27.8444C39.8498 28.3166 40.2039 29.2425 40.2039 29.2425C40.2039 29.2425 40.5244 28.8472 40.6116 28.5435C40.7645 28.0115 40.5561 27.6697 40.3786 27.1454C40.1497 26.4691 39.6364 26.2609 39.4466 25.5726C39.166 24.5553 39.264 23.8043 39.7961 22.893M39.7961 22.893C40.1373 22.4494 40.6699 21.7571 40.6699 21.7571M39.7961 22.893C40.2511 23.4845 39.4325 24.3993 40.0874 24.7571C40.866 25.1824 41.472 24.7571 42.3592 24.7571C43.1782 24.7571 43.6373 24.7571 44.4563 24.7571C44.7748 24.1656 45.2718 23.2425 45.2718 23.2425L43.3495 23.825M39.7961 22.893L40.6699 21.7571M37.466 18.8736L37.233 20.3881L38.5728 21.9609L38.8641 21.3202L40.2039 20.6211H41.5437L40.6699 21.7571M37.466 18.8736L37 17.126M37.466 18.8736L37.9903 18.4658L41.3107 18.1163L43.3495 18.8153V18.1163L41.3107 17.0095L40.0874 17.1842L41.0194 16.3105L41.8349 13.9221M37 17.126L36.1845 15.1454L35.3689 14.2716C35.3689 14.2716 35.7446 15.4268 35.8349 16.194C35.9227 16.9395 35.9711 17.378 35.8349 18.1163C35.7306 18.6823 35.3689 19.5143 35.3689 19.5143C35.3689 19.5143 34.5424 18.503 34.0874 18.1163M37 17.126L38.5728 17.1842L40.0874 14.9124L41.0194 12.7571V10.4852M34.0874 18.1163C33.6324 17.7295 33.3773 17.5127 32.9223 17.126M34.0874 18.1163L32.9223 17.126M32.9223 17.126C32.4673 16.7393 32.9443 16.3949 33.0971 15.9609C33.3193 15.3299 33.5895 15.0098 34.0874 14.5629C34.8701 13.8602 35.6544 14.3839 36.5922 14.0386C37.731 13.6194 39.0971 12.8732 39.2718 12.4656C39.4466 12.058 37.1988 13.1261 35.8349 13.3978C34.9546 13.5732 33.5631 13.7473 33.5631 13.7473L32.3398 14.2716M32.3398 14.2716L31.6408 12.4075M32.3398 14.2716L32.9223 12.058M31.6408 12.4075L30.0097 10.66C30.0097 10.66 29.3107 9.96094 28.7282 9.84443C28.1456 9.72793 30.4073 11.6095 30.767 13.0483C31.0429 14.1518 31.0341 14.8553 30.767 15.9609C30.6538 16.4295 30.3592 17.126 30.3592 17.126L29.1942 15.6114C29.1942 15.6114 28.2621 14.5629 27.7379 14.2716C27.2136 13.9804 28.5534 16.427 28.5534 16.427L29.1942 17.7668C29.1942 17.7668 29.333 18.4642 29.1942 18.8736C28.9306 19.6503 28.1661 19.6449 27.4466 20.0386C26.9824 20.2926 26.2233 20.6211 26.2233 20.6211C26.2233 20.6211 25.4261 19.3729 25.2913 18.4658C25.2143 17.9483 25.1989 17.641 25.2913 17.126C25.5051 15.9335 26.504 15.6499 27.0388 14.5629C27.3727 13.8844 27.5252 13.4827 27.7379 12.7571C27.9725 11.9564 28.1542 11.4942 28.1456 10.66C28.141 10.2133 28.2804 10.3979 28.1456 10.0775M31.6408 12.4075L32.0485 11.0095V8.73763C32.0485 8.73763 31.7573 3.90268 32.0485 3.90268C32.3398 3.90268 32.9223 8.27162 32.9223 8.27162L33.1437 10.4852M12.301 11.3007C12.301 11.3007 13.5186 11.9921 13.8155 12.7571C14.0708 13.4145 13.495 13.9347 13.8155 14.5629C14.1257 15.1708 15.2136 15.6114 15.2136 15.6114C15.2136 15.6114 16.5571 16.7537 17.6019 16.8347C18.3671 16.894 19.5191 17.1944 19.5243 16.427C19.5267 16.0709 19.2962 15.9189 19.1165 15.6114C18.5799 14.6932 18.1081 14.2767 17.311 13.5728L17.3107 13.5726C15.9591 12.3792 14.7005 12.4255 13.2913 11.3007C12.1974 10.4277 10.7864 8.73763 10.7864 8.73763C10.7864 8.73763 11.726 8.8494 12.301 9.0289C13.5785 9.42774 14.9584 12.1485 15.2136 10.8347C15.2136 10.8347 15.2671 10.4034 15.2136 10.1357C15.0622 9.37856 14.3024 9.33693 13.8155 8.73763C13.0701 7.81999 12.301 6.11628 12.301 6.11628C12.301 6.11628 12.4369 5.1454 13.2913 6.11628C14.1456 7.08715 16.1456 9.0289 16.1456 9.0289C16.1456 9.0289 17.2136 10.5435 17.6019 11.3007C17.9903 12.058 19.932 13.7473 19.932 13.7473C19.932 13.7473 19.8264 12.221 19.5243 11.3007C19.2132 10.3534 18.9516 9.8309 18.3592 9.0289C17.757 8.21365 17.5589 8.11837 16.8447 7.10657C16.1456 6.11628 16.2342 4.45707 16.8447 4.95125C18.068 5.94154 17.7452 6.46735 18.3592 7.22307C19.1217 8.16152 19.9187 8.44312 20.3981 9.55317C20.6759 10.1965 20.7134 10.6061 20.8058 11.3007C20.9319 12.2478 20.6456 12.8054 20.8058 13.7473C20.9591 14.648 20.6625 16.1146 21.5631 15.9609C22.0399 15.8796 21.6908 15.1902 21.9709 14.7959C22.669 13.8129 22.4951 13.2637 22.4951 12.058C22.4951 11.512 22.6535 11.1825 22.4951 10.66C22.2292 9.78233 21.4227 9.41623 20.8058 8.73763C19.854 7.69055 19.403 7.735 19.1165 6.34929C18.9783 5.68095 18.301 1.86366 18.767 1.45589C19.233 1.04811 19.8979 5.88863 20.8058 6.75705C21.6814 7.5946 22.4042 9.65643 23.1942 8.73763C23.5868 8.28092 23.8401 7.82304 23.8932 7.22307C23.992 6.10695 21.1553 0.93181 21.5631 0.873557C21.9709 0.815305 24.6512 5.7608 24.9417 6.75705C25.2491 7.811 24.898 8.48358 24.6505 9.55317C24.5286 10.08 24.3174 10.3289 24.1262 10.8347C23.8465 11.575 23.9967 12.6133 23.8932 13.3978C23.746 14.5142 23.0348 15.4225 24.1262 15.1454C24.6875 15.0029 24.5471 14.9867 24.9417 14.5629C25.4698 13.9959 25.8068 13.7016 26.2233 13.0483C26.6282 12.4133 26.8528 12.0305 27.0388 11.3007C27.2861 10.3308 26.779 9.70427 27.0388 8.73763C27.208 8.10854 27.5049 7.10657 27.7379 7.22307C27.9709 7.33958 27.8761 8.38812 27.8761 8.38812M12.301 11.3007C12.301 11.3007 12.301 12.3658 12.301 13.0483M12.301 11.3007V13.0483M12.301 13.0483C12.301 13.3213 12.4045 13.4948 12.301 13.7473C12.0329 14.4012 11.2714 13.2711 10.7864 12.7571C10.5522 12.5089 10.429 12.3557 10.2621 12.058C9.88689 11.3886 9.39315 10.9329 9.03883 10.2522C8.56259 9.33721 7.87379 8.38812 7.87379 8.38812C7.87379 8.38812 7.69979 9.78998 7.87379 10.66C8.04778 11.5299 8.74757 12.7571 8.74757 12.7571C8.74757 12.7571 7.46746 13.1962 6.65049 13.0483C5.94367 12.9203 5.20913 11.4391 4.84466 12.058C4.64843 12.3913 5.50729 12.9064 5.60194 13.2813C5.91419 14.5183 6.61128 14.0881 7.87379 14.2716C8.63921 14.3829 9.08938 14.1574 9.85437 14.2716C10.8578 14.4214 11.3865 14.706 12.301 15.1454C14.3698 16.1395 15.1432 17.333 16.8447 18.8736C18.2875 20.18 19.6623 20.5666 20.3981 22.3687C20.6296 22.9358 20.8058 23.8833 20.8058 23.8833C20.8058 23.8833 19.2993 22.1132 18.068 21.3202C17.0407 20.6586 16.3384 20.5159 15.2136 20.0386C14.0858 19.5601 13.0384 19.8518 12.301 18.8736C12.0131 18.4917 11.9909 18.1944 11.7767 17.7668C11.4164 17.0477 11.251 16.6175 10.7864 15.9609C10.3673 15.3687 9.56311 14.5629 9.56311 14.5629L10.7864 17.7668C10.7864 17.7668 10.0595 18.0954 9.56311 18.1163C8.61692 18.156 8.17481 17.5905 7.34951 17.126C6.453 16.6214 5.19417 15.6114 5.19417 15.6114L3.50485 13.7473C3.50485 13.7473 3.54039 15.144 3.85437 15.9609C4.30177 17.125 5.83495 18.4658 5.83495 18.4658L4.5534 18.8736C4.5534 18.8736 3.37143 19.1576 2.68932 19.5143C1.87074 19.9425 1.40777 21.6697 1.40777 21.6697C1.40777 21.6697 2.36045 20.2348 3.38835 20.0386C4.71805 19.7848 5.35204 19.8972 6.65049 19.5143C7.254 19.3364 7.59465 19.1384 8.2233 19.1648C9.08879 19.2013 9.8008 19.3054 10.2621 20.0386C11.0593 21.3055 8.26549 21.3946 7.46602 22.66C7.06375 23.2967 6.65049 24.4075 6.65049 24.4075C6.65049 24.4075 8.20491 23.5281 9.15534 22.893C10.0217 22.314 10.3236 21.6541 11.3107 21.3202C12.3666 20.963 13.078 21.0733 14.165 21.3202C15.1381 21.5411 15.9648 21.5235 16.4951 22.3687C16.7361 22.7526 16.8987 23.0255 16.8447 23.4755C16.7302 24.4276 15.4797 24.0959 14.5728 24.4075C13.701 24.7071 13.2175 24.9496 12.301 25.0483C11.7129 25.1116 11.3721 25.1311 10.7864 25.0483C9.84519 24.9153 9.46233 24.1016 8.51456 24.1745C7.88272 24.2231 7 24.7571 7 24.7571C7 24.7571 8.0844 25.3188 8.68932 25.8056C9.05296 26.0982 9.58327 26.1548 9.56311 26.6211C9.53884 27.1825 8.74855 26.9459 8.2233 27.1454C7.47654 27.429 6.41883 27.7792 5.83495 27.6697C4.90291 27.4949 1 24.7571 1 24.7571C1 24.7571 4.62245 28.4339 6.21283 28.7848M7 28.893C8.1774 28.7382 8.76564 28.3187 9.85437 27.8444C10.8337 27.4178 11.3074 27.0136 12.301 26.6211C13.9947 25.9521 15.0471 25.8643 16.8447 25.5726C17.9755 25.3891 18.642 24.9612 19.7573 25.2231C21.3956 25.6078 22.0411 26.7403 22.8696 28.1937M7 28.893C6.86754 28.9104 6.58455 28.8669 6.21283 28.7848M7 28.893C6.72198 28.8001 6.46126 28.7637 6.21283 28.7848M37.932 23.7668C37.9998 23.1953 37.7431 22.8731 37.466 22.3687C36.8657 21.2757 35.9782 21.1097 34.9612 20.3881C34.251 19.8843 33.915 19.4636 33.0971 19.1648C32.5523 18.9658 32.1813 18.6632 31.6408 18.8736C31.1108 19.0798 30.907 19.4874 30.767 20.0386C30.6774 20.3914 30.6768 20.618 30.767 20.9706C30.9706 21.7668 31.6831 21.8746 32.3398 22.3687C32.7986 22.7139 33.1015 22.8428 33.5631 23.1842C34.315 23.7404 34.46 24.5369 35.3689 24.7571C35.8332 24.8695 36.1145 24.7571 36.5922 24.7571C36.9335 24.7571 37.1657 24.919 37.466 24.7571C37.8384 24.5563 37.8808 24.1985 37.9305 23.7796M37.932 23.7668L37.9305 23.7796M37.932 23.7668C37.9315 23.7711 37.931 23.7753 37.9305 23.7796M32.9223 12.058C32.9223 12.058 34.2287 10.5467 34.9612 10.4852C35.6059 10.4311 35.9998 10.225 36.5922 10.4852C37.2298 10.7653 37.4078 11.0095 37.4078 11.0095C37.4078 11.0095 37.4843 10.6782 37.2913 10.4852C36.5922 9.78618 35.7184 9.78618 35.7184 9.78618M32.9223 12.058L33.1437 10.4852M35.7184 9.78618L34.7864 9.90268M35.7184 9.78618C35.7184 9.78618 35.6908 8.91446 35.7184 8.27162C35.7497 7.54397 36.5922 6.46579 36.5922 6.46579L37.2913 5.18424L37.1165 4.77647C37.1165 4.77647 36.0549 6.24028 35.7184 6.6988C35.2876 7.28599 34.872 7.54834 34.7864 8.27162C34.7116 8.90417 34.7864 9.90268 34.7864 9.90268M34.7864 9.90268L33.1437 10.4852M41.0194 10.4852C41.0194 10.4852 40.0732 10.6491 39.5049 10.4852C38.801 10.2822 38.3156 10.0348 37.9903 9.37841C37.6771 8.74656 37.9903 8.27781 37.9903 7.57259C37.9903 7.14036 38.4816 5.60662 38.5728 5.18412C38.7661 4.28884 38.5728 8.73763 38.5728 8.73763C38.5728 8.73763 39.1682 9.6983 39.7961 9.87356C40.2574 10.0023 41.0194 9.78618 41.0194 9.78618M41.0194 10.4852V9.78618M41.8349 13.9221L43.3495 13.3978L45.9126 13.9221L46.1456 14.3881L45.9126 13.1066L43.3495 12.058L41.8349 12.2037M41.8349 13.9221V12.2037M27.8761 8.38812C28.2088 7.93314 27.5433 8.8431 27.8761 8.38812ZM27.8761 8.38812C28.2088 7.93314 28.0354 6.57684 27.9709 5.94152C27.9212 5.45295 26.2233 3.49494 26.5728 2.79589M27.8761 8.38812C27.8761 8.38812 28.093 9.63386 28.1456 10.0775M27.8761 8.38812L28.1456 10.0775M26.5728 2.79589C27.3517 3.90268 28.5158 5.35686 28.7864 5.94152M26.5728 2.79589C27.4373 4.02433 28.7864 5.94152 28.7864 5.94152M28.7864 5.94152C28.7864 5.94152 29.5805 5.60435 29.8932 5.18424C30.2068 4.76294 30.2062 4.41926 30.301 3.90268C30.4364 3.16429 30.301 1.98035 30.301 1.98035C30.301 1.98035 30.8685 3.00473 30.9417 3.72793C31.0436 4.73249 30.8664 5.39625 30.301 6.23278C30.0396 6.61949 29.4854 7.10657 29.4854 7.10657L29.0125 7.57259M28.7864 5.94152C29.0569 6.52582 29.1232 7.03071 29.0125 7.57259M28.1456 10.0775C28.7897 9.45187 28.4344 9.09766 28.7864 8.27162C28.8907 8.02681 28.9667 7.79654 29.0125 7.57259M40.6699 21.7571C40.6699 21.7571 40.7192 23.1539 41.3107 23.825M40.6699 21.7571L41.3107 23.825M41.3107 23.825C42.1069 23.825 43.3495 23.825 43.3495 23.825M41.3107 23.825C42.1069 22.7103 42.5533 22.0854 43.3495 20.9706M41.3107 23.825H43.3495M41.3107 23.825C41.3107 23.825 42.5533 22.0854 43.3495 20.9706M43.3495 23.825C43.3495 23.825 43.8589 22.2072 44.4563 21.3202C44.9958 20.5192 46.1456 19.5143 46.1456 19.5143L47.6019 18.8153C47.6019 18.8153 46.1191 18.4834 45.2718 18.8153C44.2217 19.2267 44.1002 20.1289 43.3495 20.9706M41.8349 12.2037V10.4852L41.0194 9.08715V9.78618M17.6019 42.5823C17.122 42.8523 16.4951 43.4561 16.4951 43.4561C16.4951 43.4561 17.1437 43.8222 17.6019 43.9221M19.932 41.9998C20.2725 41.9776 20.8058 41.9998 20.8058 41.9998M23.8932 23.4755C24.7178 23.3064 23.8932 21.3202 23.8932 21.3202C23.8932 21.3202 23.4777 20.5332 23.1942 20.0386C22.9302 19.5783 23.1942 19.6697 22.4951 18.8736C21.7961 18.0774 20.1651 17.6881 19.7573 18.4658C19.299 19.3398 20.5371 19.3511 20.8058 20.0386C20.9927 20.5166 21.0971 20.6211 21.0971 21.3202C21.0971 22.3337 21.9819 22.7612 22.9029 23.1842C23.2692 23.3525 23.4983 23.5565 23.8932 23.4755ZM27.0388 24.7571C26.9513 24.5471 27.0388 24.1745 27.0388 24.1745C27.0777 23.9415 27.4466 23.1842 27.4466 23.1842C27.4466 23.1842 28.7282 21.6114 28.8447 21.5532C28.9612 21.4949 29.1942 21.5532 29.1942 21.5532C29.1942 21.5532 30.6428 22.1255 31.1748 22.893C31.4182 23.2443 31.6408 23.8833 31.6408 23.8833C31.6408 23.8833 31.362 24.0697 31.1748 24.1745C30.6218 24.4841 30.2861 24.6576 29.6602 24.7571C29.1884 24.832 28.8856 24.5932 28.4369 24.7571C28.1287 24.8696 28.066 25.2231 27.7379 25.2231C27.4098 25.2231 27.165 25.0599 27.0388 24.7571Z" stroke="#FCFCFA" stroke-width="0.15534" stroke-linecap="round"/>
<path d="M39.4465 26.3947C39.4465 26.3947 40.8394 26.1646 41.4854 26.0274C42.2263 25.8699 43.1183 26.1506 43.8737 26.257C44.5765 26.3561 45.0388 26.5102 45.3883 26.8077C45.8858 27.2311 46.2038 29.0096 46.2038 29.0096C46.2038 29.0096 45.2145 27.7116 44.5727 27.45C43.9403 27.1922 44.0466 27.1056 43.3494 26.9912C42.7927 26.8998 42.0299 26.9996 41.4854 27.1288C40.9356 27.2593 40.2621 27.45 40.2621 27.45L39.4465 26.3947Z" fill="#FCFCFA" stroke="#FCFCFA" stroke-width="0.15534" stroke-linecap="round"/>
<path d="M27.6795 5.12606C27.6795 5.12606 26.7673 5.29141 26.2232 5.12606C25.4818 4.90079 25.1619 4.47288 24.7086 3.84451C23.9594 2.8059 24.0096 0.640625 24.0096 0.640625C24.0096 0.640625 23.3288 2.3465 23.6018 3.02897L24.3008 4.77655C24.5738 5.45902 25.7572 5.88334 25.7572 5.88334C25.7572 5.88334 28.2038 6.52412 28.728 6.46587C29.2523 6.40762 28.3785 5.88334 28.3785 5.88334L27.6795 5.12606Z" fill="#FCFCFA"/>
<path d="M23.6018 3.02897C23.3288 2.3465 24.0096 0.640625 24.0096 0.640625C24.0096 0.640625 23.9594 2.8059 24.7086 3.84451C25.1619 4.47288 25.4818 4.9008 26.2232 5.12606C26.7673 5.29141 27.6795 5.12606 27.6795 5.12606L28.3785 5.88334C28.3785 5.88334 29.2523 6.40762 28.728 6.46587C28.2038 6.52412 25.7572 5.88334 25.7572 5.88334C25.7572 5.88334 24.5738 5.45902 24.3008 4.77655M23.6018 3.02897C23.8748 3.71144 24.0279 4.09408 24.3008 4.77655M23.6018 3.02897L24.3008 4.77655" stroke="#FCFCFA" stroke-width="0.15534" stroke-linecap="round"/>
<circle cx="25" cy="24" r="23" stroke="#FCFCFA" stroke-width="2"/>
<path d="M17.8932 24.875C17.8932 24.875 15.5613 25.8626 15.2136 27.2051C15.0596 27.7997 15.121 28.1707 15.2136 28.7779C15.3341 29.5676 15.9127 30.7002 15.9127 30.7002C15.9127 30.7002 15.0126 30.1103 14.6894 29.5352C14.3483 28.9285 14.3398 27.7876 14.3398 27.7876C14.3398 27.7876 14.0905 28.4095 13.8738 28.7779C13.3517 29.6658 12.068 30.7002 12.068 30.7002C12.068 30.7002 12.7528 29.1197 13.1165 28.0789C13.2352 27.7393 13.4078 27.2051 13.4078 27.2051L14.3398 25.9235L14.6894 25.5158L17.8932 24.875Z" fill="#FCFCFA" stroke="#FCFCFA" stroke-width="0.15534" stroke-linecap="round"/>
</svg>
