<svg width="64" height="64" fill="none" xmlns="http://www.w3.org/2000/svg"><path fill-rule="evenodd" clip-rule="evenodd" d="M29.204 37.67c.865 1.517 1.32 4.271 1.32 4.271s.494 3.177.311 5.204c-.145 1.606-.359 2.505-.854 4.04-.26.803-.196 1.405-.777 2.019-1.106 1.166-2.534-.28-4.117 0-1.256.222-1.907.574-3.106 1.01-1.827.663-2.783 1.208-4.583 1.941-.756.308-3.65 1.243-3.65 1.243s.771 1.028 2.252.699c1.4-.311 5.414-2.596 6.835-2.796 2.102-.297 3.314 0 5.437 0h1.709s-1.027 1.01-1.71 1.63C26.68 58.385 24.498 58.33 24 60.428c-.189.797-.51 1.456 0 2.097.819 1.031 1.606-1.282 2.64-2.097 1.75-1.377 4.506-3.495 4.506-3.495l.776-.777 1.01-1.942s.873 1.636.7 2.719c-.187 1.163-1.292 1.384-1.71 2.485-.624 1.645 0 4.505 0 4.505s.631.109 1.01 0c.788-.226 1.005-.875 1.32-1.631.433-1.036-.285-1.788 0-2.874.284-1.077.761-1.572 1.398-2.485.47-.672 1.32-1.631 1.32-1.631s.462 1.772 1.01 2.796c.533.995.975 1.473 1.71 2.33.753.88 2.096 2.097 2.096 2.097s.148-1.292 0-2.097c-.287-1.566-2.097-3.495-2.097-3.495s1.28.052 2.097 0c1.603-.103 2.442-.604 4.04-.777 2.11-.23 3.4.6 5.436 0 .822-.242 2.02-.854 2.02-.854s-3.517-.923-5.826-1.088c-1.452-.103-2.3-.287-3.728 0-1.176.237-1.689 1.276-2.874 1.088-1.013-.162-1.438-.76-2.174-1.476-1.198-1.164-1.504-2.167-2.097-3.728-.787-2.07-.793-3.383-.932-5.593-.086-1.362-.253-2.153 0-3.495.258-1.378.482-2.215 1.32-3.34.812-1.09 1.471-1.633 2.718-2.174 1.048-.455 1.826-.997 2.874-.544 1.122.485.845 1.722 1.553 2.719.6.841.86 1.43 1.71 2.019.75.52 2.174.854 2.174.854s-.28-.967-.544-1.553c-.477-1.058-1.333-1.363-1.63-2.485-.242-.91-.682-1.76 0-2.408.884-.842 1.73.803 2.795 1.398 1.06.59 1.854.71 2.641 1.63.538.63 1.01 1.865 1.01 1.865s.427-.527.544-.932c.203-.71-.075-1.165-.311-1.864-.305-.902-.99-1.18-1.243-2.097-.374-1.357-.243-2.358.466-3.573l1.165-1.515 1.165-1.514h-1.786l-1.787.932-.388.854-1.786-2.097.31-2.02-.621-2.33-1.087-2.64-1.088-1.165s.501 1.54.622 2.563c.117.994.181 1.579 0 2.563-.14.755-.622 1.864-.622 1.864s-1.102-1.348-1.709-1.864l-1.553-1.32c-.607-.516.03-.975.233-1.554.296-.841.657-1.268 1.32-1.864 1.044-.937 2.09-.239 3.34-.699 1.519-.559 3.34-1.554 3.573-2.097.233-.544-2.764.88-4.582 1.243-1.174.234-3.03.466-3.03.466l-1.63.699-.933-2.486-2.174-2.33s-.932-.932-1.71-1.087c-.776-.155 2.24 2.353 2.72 4.272.367 1.471.355 2.41 0 3.883-.152.625-.544 1.554-.544 1.554l-1.554-2.02s-1.242-1.398-1.941-1.786c-.7-.389 1.087 2.874 1.087 2.874l.854 1.786s.185.93 0 1.476c-.351 1.035-1.37 1.028-2.33 1.553-.619.339-1.63.777-1.63.777s-1.064-1.665-1.244-2.874c-.102-.69-.123-1.1 0-1.786.285-1.59 1.617-1.969 2.33-3.418.446-.905.649-1.44.932-2.408.313-1.067.556-1.683.544-2.796-.006-.595.18-.35 0-.776l-.36-2.253s.127-1.398-.184-1.553c-.31-.156-.706 1.18-.932 2.02-.346 1.288.33 2.123 0 3.417-.248.973-.547 1.483-1.087 2.33-.555.87-1.005 1.263-1.709 2.02-.526.564-.339.586-1.087.776-1.455.37-.507-.842-.31-2.33.137-1.046-.063-2.43.31-3.418.255-.674.536-1.006.699-1.708.33-1.427.798-2.323.388-3.729-.387-1.328-3.96-7.922-4.505-7.844-.543.077 3.239 6.978 3.107 8.466-.07.8-.408 1.41-.932 2.02-1.053 1.224-2.017-1.525-3.184-2.642-1.21-1.157-2.097-7.612-2.719-7.068-.621.544.282 5.634.466 6.525.382 1.847.984 1.788 2.253 3.184.822.905 1.898 1.393 2.252 2.563.211.697 0 1.136 0 1.864 0 1.608.232 2.34-.699 3.65-.373.527.092 1.446-.543 1.554-1.201.205-.806-1.75-1.01-2.951-.214-1.256.168-2 0-3.262-.123-.927-.174-1.473-.544-2.33-.64-1.48-1.702-1.856-2.718-3.107-.819-1.008-.389-1.709-2.02-3.03-.814-.658-.932 1.554 0 2.874.952 1.35 1.217 1.476 2.02 2.564.79 1.069 1.138 1.766 1.553 3.029.403 1.227.544 3.262.544 3.262s-2.59-2.253-3.107-3.262c-.518-1.01-1.942-3.03-1.942-3.03s-2.666-2.588-3.806-3.883c-1.139-1.294-1.32 0-1.32 0s1.025 2.272 2.02 3.495c.648.8 1.662.855 1.863 1.864.072.357 0 .932 0 .932-.34 1.752-2.18-1.876-3.883-2.407-.767-.24-2.02-.389-2.02-.389s1.882 2.254 3.34 3.418c1.88 1.5 3.557 1.438 5.36 3.029 1.063.939 1.692 1.494 2.407 2.718.24.41.547.613.544 1.088-.007 1.023-1.543.622-2.563.543-1.393-.108-3.184-1.63-3.184-1.63s-1.451-.588-1.865-1.399c-.427-.837.34-1.531 0-2.408-.396-1.02-2.019-1.941-2.019-1.941v2.33c0 .364.138.595 0 .932-.357.872-1.373-.635-2.02-1.32-.312-.332-.476-.536-.698-.933-.5-.892-1.16-1.5-1.632-2.407-.634-1.22-1.553-2.486-1.553-2.486s-.232 1.87 0 3.03c.232 1.16 1.165 2.795 1.165 2.795s-1.707.586-2.796.389c-.942-.17-1.922-2.146-2.408-1.32-.261.444.884 1.13 1.01 1.63.416 1.65 1.346 1.076 3.03 1.32 1.02.15 1.62-.151 2.64 0 1.338.2 2.043.58 3.262 1.166 2.758 1.325 3.79 2.917 6.058 4.97 1.924 1.743 3.757 2.258 4.738 4.66.309.757.544 2.02.544 2.02s-2.009-2.36-3.65-3.417c-1.37-.882-2.307-1.072-3.806-1.709-1.504-.638-2.9-.249-3.884-1.553-.384-.51-.413-.906-.7-1.476-.48-.959-.7-1.532-1.32-2.408-.558-.79-1.63-1.864-1.63-1.864l1.63 4.272s-.969.438-1.63.466c-1.262.053-1.852-.701-2.952-1.32-1.195-.673-2.874-2.02-2.874-2.02L3.34 18.33s.047 1.862.466 2.951c.596 1.552 2.64 3.34 2.64 3.34l-1.708.544s-1.576.378-2.486.854C1.161 26.59.544 28.893.544 28.893s1.27-1.913 2.64-2.175c1.773-.338 2.619-.188 4.35-.699.805-.237 1.259-.501 2.097-.466 1.154.049 2.103.188 2.719 1.165 1.062 1.69-2.663 1.808-3.729 3.495-.536.85-1.087 2.33-1.087 2.33s2.073-1.172 3.34-2.019c1.155-.772 1.557-1.652 2.874-2.097 1.408-.476 2.356-.33 3.805 0 1.298.294 2.4.271 3.107 1.398.321.512.538.876.466 1.476-.152 1.27-1.82.827-3.029 1.242-1.162.4-1.807.723-3.029.855-.784.084-1.239.11-2.02 0-1.254-.178-1.765-1.263-3.029-1.165-.842.065-2.019.776-2.019.776s1.446.75 2.252 1.398c.485.39 1.192.466 1.165 1.088-.032.748-1.086.433-1.786.699-.996.378-2.406.845-3.184.699C5.204 36.66 0 33.009 0 33.009s4.83 4.903 6.95 5.37c.496.11.873.168 1.05.145 1.57-.206 2.354-.766 3.806-1.398 1.306-.569 1.937-1.108 3.262-1.631 2.258-.892 3.662-1.01 6.058-1.398 1.508-.245 2.397-.815 3.884-.466 2.184.513 3.045 2.023 4.15 3.96l.044.079Zm1.32-9.243s1.1 2.648 0 2.874c-.526.108-.832-.164-1.32-.389-1.228-.564-2.408-1.134-2.408-2.485 0-.932-.14-1.072-.388-1.709-.359-.917-2.01-.932-1.398-2.097.543-1.037 2.718-.518 3.65.544.932 1.061.58.94.932 1.553.378.66.932 1.709.932 1.709Zm4.194 3.806s-.116.496 0 .776a.953.953 0 0 0 .932.622c.438 0 .522-.471.933-.622.598-.218 1.002.1 1.63 0 .835-.132 1.283-.364 2.02-.776.25-.14.621-.389.621-.389s-.296-.852-.621-1.32c-.71-1.023-2.64-1.786-2.64-1.786s-.311-.078-.467 0c-.155.077-1.864 2.174-1.864 2.174s-.492 1.01-.544 1.32Zm4.971-4.272c-.12-.47-.12-.772 0-1.243.187-.735.459-1.278 1.165-1.553.721-.28 1.216.123 1.942.388 1.09.398 1.539.96 2.486 1.631 1.356.962 2.539 1.183 3.34 2.64.369.673.711 1.103.62 1.865l-.001.017c-.066.559-.123 1.036-.62 1.303-.4.216-.71 0-1.165 0-.637 0-1.012.15-1.63 0-1.213-.293-1.406-1.355-2.409-2.097-.615-.455-1.019-.627-1.63-1.087-.876-.659-1.826-.803-2.098-1.864Z" fill="#00090E"/><path d="m40.854 16.543.932 2.486.777-2.952.295-2.097-.295-2.951s-.777-5.825-1.165-5.825 0 6.446 0 6.446v3.03l-.544 1.863ZM45.048 13.204l1.243-.156s-.037-1.162 0-2.02c.042-.97 1.165-2.407 1.165-2.407l.932-1.709-.233-.543S46.74 8.32 46.291 8.932c-.574.783-1.128 1.133-1.242 2.097-.1.843 0 2.175 0 2.175ZM42.563 16.077s1.742-2.015 2.719-2.097c.86-.072 1.384-.347 2.174 0 .85.374 1.088.7 1.088.7s.102-.442-.156-.7c-.932-.932-2.097-.932-2.097-.932l-1.242.156-2.19.776-.296 2.097ZM51.34 13.98c.758.219 2.02 0 2.02 0v-.932s-1.017.288-1.632.117c-.837-.234-1.63-1.515-1.63-1.515s.257-5.932 0-4.738c-.123.563-.778 2.608-.778 3.185 0 .94-.417 1.565 0 2.408.434.875 1.081 1.205 2.02 1.475Z" fill="#00090E"/><path d="m48 22.835.621 2.33.7-.544 4.427-.466 2.718.932v-.932l-2.718-1.476-1.631.233 1.242-1.165 1.088-3.184V13.98l-1.088-1.864v4.894l-1.242 2.873-2.02 3.03L48 22.834Z" fill="#00090E"/><path d="m54.447 18.563 2.019-.7 3.417.7.311.621-.31-1.709-3.418-1.398-2.02.194v2.292ZM53.748 31.767h2.718s.68-2.157 1.476-3.34c.719-1.068 2.252-2.408 2.252-2.408l1.942-.932s-1.977-.442-3.107 0c-1.4.549-1.562 1.752-2.563 2.874l-2.718 3.806Z" fill="#00090E"/><path d="m52.893 29.01-1.165 1.514c.607.789-.485 2.008.389 2.485 1.038.568 1.846 0 3.029 0h2.796l1.087-2.019-2.563.777h-2.718l-.855-2.758ZM35.835 11.184c-.444.607.444-.606 0 0l.36 2.253c.858-.835.384-1.307.853-2.408.14-.327.24-.634.302-.932.148-.723.06-1.396-.302-2.175l-2.95-4.194c-.467.932 1.797 3.543 1.863 4.194.086.847.318 2.656-.126 3.262Z" fill="#00090E"/><path d="M38.524 6.912c-.417.56-1.476 1.01-1.476 1.01.361.78.45 1.452.302 2.175l.63-.622s.74-.649 1.088-1.165c.754-1.115.99-2 .854-3.34-.097-.964-.854-2.33-.854-2.33s.18 1.58 0 2.564c-.126.688-.126 1.147-.544 1.708Z" fill="#00090E"/><path d="M51.262 35.193s1.857-.307 2.719-.49c.988-.21 2.177.164 3.184.306.937.132 1.553.338 2.02.734.663.565 1.087 2.936 1.087 2.936s-1.32-1.73-2.175-2.079c-.843-.344-.701-.46-1.63-.612-.743-.122-1.76.011-2.486.184-.733.174-1.631.428-1.631.428l-1.088-1.407Z" fill="#00090E" stroke="#00090E" stroke-width=".155" stroke-linecap="round"/><path d="M35.573 6.834s-1.216.22-1.942 0c-.988-.3-1.415-.87-2.02-1.709-.998-1.384-.931-4.271-.931-4.271s-.908 2.274-.544 3.184l.932 2.33c.364.91 1.942 1.476 1.942 1.476s3.262.854 3.96.777c.7-.078-.465-.777-.465-.777l-.932-1.01Z" fill="#00090E"/><path d="M30.136 4.038c-.364-.91.544-3.184.544-3.184s-.067 2.887.932 4.271c.604.838 1.03 1.409 2.02 1.71.725.22 1.94 0 1.94 0l.933 1.009s1.165.699.466.777c-.7.077-3.961-.777-3.961-.777s-1.578-.566-1.942-1.476m-.932-2.33.932 2.33m-.932-2.33.932 2.33" stroke="#00090E" stroke-width=".155" stroke-linecap="round"/><circle cx="32" cy="32" r="31" stroke="#00090E" stroke-width="2"/><path d="M22.524 33.166s-3.109 1.317-3.573 3.107c-.205.793-.123 1.287 0 2.097.161 1.053.933 2.563.933 2.563s-1.2-.787-1.631-1.553c-.455-.81-.466-2.33-.466-2.33s-.333.829-.622 1.32c-.696 1.184-2.408 2.563-2.408 2.563s.913-2.107 1.398-3.495c.159-.453.389-1.165.389-1.165l1.242-1.709.466-.544 4.272-.854Z" fill="#00090E" stroke="#00090E" stroke-width=".155" stroke-linecap="round"/></svg>