<svg width="72" height="64" fill="none" xmlns="http://www.w3.org/2000/svg"><g clip-path="url(#a)"><path d="M13.524 8.815c.297.008.588.086.852.228a4.342 4.342 0 0 0-.702.31c-.05.663-.87.94-.87.94-.421 1.138-2.64 1.823-2.64 1.823l.02 1.662c-.14.322-.394.063-.394.063-.181.228-.455.103-.455.103-.292.332-.657.073-.657.073-.379.263-.667.015-.667.015l1.006-2.508c.104-.61.347-1.186.707-1.682-.986-.016-1.722-.873-1.722-.873.129.062.678.01.678.01-.689-.342-.955-1.37-.955-1.37s0-.115.04.01c.041.124.589.426.589.426-.244-.27-.42-1.745-.42-1.745.064.145.872.921.872.921-.588-.654-.676-2.648-.676-2.648.114.285.794 1.104 1.534 1.946-.004-1.452.62-2.398.62-2.398-.196.499 1.46 4.69 1.46 4.69 1.046-.799 1.562-.347 1.78.004Z" fill="#FFB35B"/></g><path d="M48.648 22.025c-.92-.235-1.827-.267-2.727.106-.313.13-.596.283-.725.6-.477 1.16-1.484 1.558-2.552 1.869-2.216.642-3.786 3.185-3.42 5.516.107.681.475.876 1.08.756a3.242 3.242 0 0 0 1.534-.774 2.06 2.06 0 0 1 2.507-.297 3.904 3.904 0 0 0 3.608.089 3.207 3.207 0 0 1 2.43-.065c1.017.344 1.991.253 3.013-.031 2.315-.643 4.629-1.332 7.06-1.216.62.03 1.094-.57 1.825-.367-.553.613-1.19 1.05-1.91 1.086-2.148.104-4.092.964-6.11 1.55-.49.143-.965.317-1.582.518 1.35.68 2.679.824 4.036.885 1.46.063 2.934-.196 4.382.218.396.114.712.458 1.157.405-.019.251.386.251.278.64-2.928-1.375-6.125.01-9.109-.952l-.785-.285-.613-.267a1.233 1.233 0 0 0-.727-.299l-1.493-.32a1.329 1.329 0 0 0-1.136.065c-1.005.206-1.965.62-3.009.644l-.295-.02c-.428-.133-.868-.233-1.278-.408a1.153 1.153 0 0 0-1.337.244c-.494.47-1.12.773-1.79.867-.885.14-1.157.737-1.242 1.497a3.92 3.92 0 0 0 .089 1.457c.2.754.246 1.54.137 2.313-.127.968.074 1.95.57 2.785a4.236 4.236 0 0 0 2.153 1.812c.273.11.576.11.849 0 2.36-.946 4.472-.26 6.466 1.041.538.352.944.393 1.47.024.462-.294.943-.557 1.439-.786 1.35-.713 2.715-.713 4.05.034 1.444.809 2.893.954 4.42.241.593-.279 1.158-.163 1.956.279a3.924 3.924 0 0 0-2.453.538c-1.26.677-2.53.558-3.798-.02-1.084-.495-2.183-.767-3.319-.125 1.655 1.486 1.655 1.494 3.902 1.355.61-.038 1.117.116 1.518.589a2.906 2.906 0 0 0-1.746-.206c-.602.141-1.203.05-1.846.098 1.088.762 3.14.361 2.936 2.653-.345-1.292-1.236-1.614-2.396-1.66-.692-.025-1.17-.624-1.623-1.142-.955-1.09-1.601-1.216-2.84-.542a2.32 2.32 0 0 1-1.573.347c.368.497.86.513 1.35.786-.22.023-.386.098-.465.043-1.014-.664-2.06-.175-3.095-.124-.17.01-.34 0-.361.197a.295.295 0 0 0 .08.224.285.285 0 0 0 .219.088c.187-.023.373-.059.555-.106 1.13-.14 2.234-.197 3.179.663.603.554 1.338.52 2.092.336 1.323-.326 2.033-.015 2.166 1.285.147 1.45.345 2.812 1.335 3.956-1.09-.502-1.6-1.192-1.796-2.29-.061-.35-.094-.712-.193-1.058-.26-.958-.655-1.22-1.543-.807-1.068.499-1.967.371-2.835-.393-.754-.663-1.598-.212-2.405-.163-.385.024-.212.31-.164.519.26 1.127 1.333 1.643 2.568 1.239 1.542-.51 1.556-.514 2.457.886.181.269.44.475.74.589.51.2.945.561 1.24 1.03-.852-.54-2.044-.47-2.567-1.602-.272-.589-.727-.687-1.286-.312.515 1.082 1.2 1.832 2.46 2.125 1.652.393 2.136 1.121 2.037 2.625-.588-1.559-1.672-1.987-3.2-1.714.907.393.905 1.318 1.305 2.007.559.964-.548 1.41-.646 2.2-.346-.138-.34-.338-.284-.46.245-.53.75-.959.193-1.652-.353-.438-.473-1.054-1.088-1.292-.386-.153-.526-.538-.629-.933-.385-1.498-.9-1.895-2.7-1.9 1.576.82 1.782 2.283 2.4 3.674-.523-.197-.58-.607-.83-.835-.056-.14-.112-.279-.17-.418l-.192-.393c-.398-1.143-1.651-1.215-2.353-2.04-.193.589.137.876.472 1.13.54.411 1.096.798 1.643 1.195l.214.312.209.367c.264.84.26 1.715.324 2.583.036.49.274.919.486 1.35l-.157.13c-.798-.603-.95-1.534-1.076-2.421a2.11 2.11 0 0 0-.355-.99c-.2-.294-.47-.53-.786-.687a8 8 0 0 1-1.179-.843c-1.23-1.017-1.456-2.118-.644-3.524.26-.452.193-.703-.154-.982-.178-.142-.346-.295-.517-.442-1.082-.927-1.082-.927-1.468-2.097-.825.52-1.518 1.178-2.224 1.824-.322.29-.262.614-.083.982.386.758.988 1.274 1.682 1.7.282.152.52.374.695.645.175.271.279.583.302.907.143 1.249 1.293 1.685 2.122 2.356.316.254.748.361 1.132.523.706.296 1.032.846 1.04 1.604v2.517c-.71-.938-.361-2.083-.803-3.047-.56.866-.754 1.675.033 2.515-.652-.424-1.379-.72-1.08-1.66.432-.645.432-.645-.13-1.177l-.078.982a5.994 5.994 0 0 0-.045 3.29 2.887 2.887 0 0 1-.733-1.307 2.924 2.924 0 0 1 .018-1.506c.272-1.126-.3-1.876-.92-2.638-.33-.406-.511-.196-.644.181-.193.526.011.96.308 1.375.542.736.681 1.504.324 2.386a3.994 3.994 0 0 0-.193 2.407c.095.418.11.84-.24 1.214-.236-1.424-.716-2.8-.13-4.236.181-.446-.158-.81-.413-1.141a2.767 2.767 0 0 1-.536-2.453c.21-1.007.058-2.077-1-2.735-.504-.312-.932-.748-1.513-1.224.149 1.322.288 2.435 1.157 3.3.87.864 1.098 1.86.824 3.051-.18.786-.237 1.585-.446 2.376a6.102 6.102 0 0 1-.042-2.621c.147-.717-.145-1.165-.79-1.583.686 1.2-1.272 2.13-.471 2.86.935.851-.23 2.31 1.157 2.762-.76 0-1.136-.35-1.03-1.123.038-.293.145-.6-.056-.849-.135-.166-.353-.367-.534-.367-.274 0-.249.32-.276.534-.106.89.175 1.666.658 2.396.308.468.551.968-.09 1.632.17-.626.034-.994-.279-1.353-1.2-1.375-1.327-2.946-.505-4.54.417-.815.694-1.547.204-2.447-.206-.377-.216-.88-.262-1.333-.106-1.06-.241-2.08-1.338-2.632-.193-.102-.307-.406-.446-.624-.139-.218-.108-.701-.515-.536a.614.614 0 0 0-.308.372.635.635 0 0 0 .05.484c.76 1.374.771 2.957 1.317 4.385.546 1.428.723 2.84.108 4.285-.077.178-.193.343-.071.548.626 1.044.02 2-.114 3.01-.45-.086-.368-.342-.284-.536.218-.5.149-1.025.147-1.541 0-.154.02-.35-.177-.409-.197-.059-.284.122-.386.236-.828.982-1.665 1.973-2.039 3.554a3.068 3.068 0 0 1 .395-2.478c.336-.556.72-1.082 1.083-1.62.811-1.212 1.074-2.518.541-3.906-.4-.957-.733-1.941-.999-2.946-.07-.308-.999-.815-.999-.815-.671-.236-.951-.117-1.543 0a4.83 4.83 0 0 0-1.053.367.247.247 0 0 0-.104.162c-.258 1.549-1.219 2.88-1.35 4.465-.108 1.255.486 2.254 1.177 3.227.69.971 1.433 1.93 1.109 3.481-.469-1.622-1.333-2.75-2.415-3.83-.444.837-.014 1.676-.303 2.57-.25-1.043-.644-1.964-.166-2.936a.68.68 0 0 0-.046-.644c-.511-1.128-.476-2.304-.13-3.445.348-1.14.676-2.311.93-3.491.11-.648.404-1.25.845-1.73.307-.307.315-.72-.017-.937-.452-.297-.488.21-.602.477-.206.489-.42.982-.964 1.159-.802.269-1.028.91-1.11 1.665-.096.91-.155 1.83-.597 2.657-.226.424-.01.756.175 1.092 1.036 1.889 1.189 3.711-.385 5.396-.259.275-.158.607-.216.982-.527-.493-.317-.953-.037-1.375.455-.699.795-1.427.704-2.287-.027-.26.116-.707-.285-.71a.584.584 0 0 0-.473.233.608.608 0 0 0-.106.524c.299 1.111-.432 1.512-1.176 1.93l-.128-.102c.693-.548 1.244-1.159.916-2.16 1.184-1.01.319-1.982-.04-2.97a1.482 1.482 0 0 1 0-.48c.025-.11.106-.285.065-.32-.129-.116-.17.074-.252.131-.598.477-.606 1.096-.425 1.767.247.93.309 1.854-.227 2.785.13-1.3-.34-2.431-.802-3.574-.832.862-1.21 1.754-.8 2.989.344 1.043-.3 2.103-.333 3.203a1.27 1.27 0 0 1-.27-1.084 5.21 5.21 0 0 0-.252-2.789 1.937 1.937 0 0 1 .218-1.865c.144-.215.266-.446.395-.67.284-.489.253-1.082-.158-1.326-.357-.21-.563.393-.79.678-.52.646-.635 1.374-.518 2.205.14.982.166 1.995-.794 2.692.648-1.445-.012-2.841-.018-4.32-.578.568-.61.59-.264 1.218.22.404.241.901-.048 1.07-.667.393-.579.982-.635 1.571-.192-.607-.667-1.225.193-1.726a.339.339 0 0 0 .207-.263.349.349 0 0 0-.112-.316c-.317-.285-.274-.707-.496-1.141-.636 1.086.029 2.503-1.101 3.35.416-.95.193-1.933.243-2.903.037-.754.41-1.335 1.13-1.543 1.167-.336 1.938-1.237 2.866-1.92.355-.264.334-.639.334-.969 0-.673.31-1.1.85-1.418.71-.418 1.211-1.05 1.723-1.687.51-.636.509-1.025-.257-1.449-.654-.365-1.468-.504-1.973-1.333-.029 1.053-.785 1.44-1.42 1.944-.634.505-.794 1.076-.495 1.895.513 1.412.218 2.23-.945 3.17-.073.064-.152.12-.236.168-1.32.666-2.096 1.66-2.208 3.239-.056.785-.405 1.586-1.35 1.808l.018.016c.79-1.316.844-2.81 1.006-4.277l.193-.393c.612-1.07 2.203-1.227 2.606-2.79-1.157.852-2.465 1.23-2.79 2.645l-.192.37c-.137.18-.258.394-.579.258.504-.982.666-2.16 1.653-2.883-.964-.377-1.869.13-2.067 1.251-.12.688-.386 1.15-.997 1.43-.498.228-.469.856-.805 1.178-.54.513-.079.874.081 1.288.137.352.178.69-.16 1.204.058-1.027-1.043-1.63-.734-2.356.308-.727.362-1.681 1.247-2.135-1.656-.475-2.536-.023-3.037 1.571-.351-.827-.039-1.39.463-1.883a3.389 3.389 0 0 1 1.788-.907c.429-.056.837-.224 1.184-.487.348-.263.622-.613.798-1.016.083-.172.455-.273.193-.54a.675.675 0 0 0-.725-.125c-.255.094-.386.324-.53.544-.508.785-1.339 1.233-2.577 1.345 1.084-.703 2.083-1.241 2.652-2.33.245-.463.898-.392 1.33-.166.65.33 1.29.23 1.96.212.868-.026.978-.705 1.06-1.273.1-.683-.593-.553-.964-.665-.62-.185-1.188 0-1.699.434-.684.573-1.42.785-2.314.408-1.35-.562-1.736-.336-2.052 1.143-.226 1.03-.4 2.062-1.37 2.688l-.142-.155c.487-.73.765-1.584.802-2.466.018-.555.138-1.1.353-1.61.359-.798.903-1.179 1.759-.89.465.18.969.224 1.457.13a2.68 2.68 0 0 0 1.31-.662c.816-.686 1.813-.509 2.766-.38.693.093 1.38.197 2.05-.035-1.012-.206-2.061-.135-2.97-.738-.094-.063-.306-.104-.353-.053-.707.8-1.71.354-2.534.64a1.336 1.336 0 0 0-.104-.106c.266-.414.67-.373 1.08-.361.41.012.825.045 1.072-.393.07-.022.193-.027.128-.133-.066-.106-.147-.018-.193.074-.579.106-1.061-.143-1.543-.404-1.072-.572-1.807-.493-2.575.392-.729.85-1.512 1.477-2.7 1.45-.556-.014-.93.375-1.173.883-.158.334-.235.75-.64.855.131-2.045 1.736-2.333 3.248-2.777-1.37-.04-2.7-.432-3.774.04.675-.804 1.735-.608 2.796-.476 1.21.15 1.977-.7 2.827-1.438a2.646 2.646 0 0 0-2.69-.153c-1.778.847-3.497.998-5.217-.116-.426-.276-.937-.139-1.483-.237.739-.52 1.427-.393 2.121-.093 1.158.503 2.355.568 3.433-.086 2.1-1.274 4.05-.917 5.948.377.666.456 1.157.393 1.81-.021 1.915-1.24 3.895-1.591 6.227-1.057 1.543.352 3.1-.827 4.528-1.57.596-.31.535-1.352.486-2.108-.071-1.178-.113-2.296.25-3.476.239-.677.322-1.4.242-2.115-.443-2.888-1.942-4.296-4.881-4.24-2.716.052-5.4.315-7.861 1.652-1.007.546-2.089.59-3.186.393a15.244 15.244 0 0 0-3.065-.161c-.89.025-1.769 0-2.617-.407-1.013-.485-2.122-.485-3.213-.392-.386.033-.772.14-1.14-.028 1.543-.672 2.204-.746 3.604-.405h.018c.739.134 1.471.303 2.216.381.44.048 1.007.185 1.128-.538l-.02.012c.662-.155 1.27.226 1.92.197 1.37.56 2.723.516 3.471-.071-1.649-1.856-4.027-1.74-6.171-2.296l.017.012c-.293-.428-.771-.312-1.175-.407-.964-.227-2.507-1.358-2.507-1.358s.077-.075.108-.118l.903.412.133.063s.635.33.991.316c1.682-.033 3.227.786 4.893.797h.043a3.303 3.303 0 0 1 2.245.764c1.122.896 2.302 1.22 3.639.495.85-.463 1.792-.404 2.717-.46.369-.02.727-.221 1.09-.339.596.084.883-.546 1.406-.632.122.025.218.196.365.063a.373.373 0 0 0-.02.092c1.242.57 2.57.744 3.906.807.303.014.507-.373.567-.719a.694.694 0 0 0-.053-.48.676.676 0 0 0-.352-.325c-1.458-.642-2.575-1.938-3.927-2.553-1.82-.832-3.896-1.39-5.979-1.288-.823.04-1.46.075-2.407.265-.497.1-.814.068-1.31.177-.792.174-4.057.5-2.065.118 1.992-.383 4.039-.758 5.923-1.238.386.132.766.03 1.02-.039.255-.068 2.542.805 4.15.64-.356-.714-.813-1.317-.942-2.064-.054-.314-.313-.265-.529-.292-1.736-.214-3.481-.375-5.066-1.227-.03-.016-.066-.051-.083-.042-1.753.857-3.576-.312-5.337.197a2.385 2.385 0 0 0-.414.204h-2.276c1.83.018 3.51-1.375 5.462-.518.544.24 1.176-.134 1.847-.346-.476-.85-1.276-.964-2.013-1.178-.945-.27-1.929-.444-2.714-1.11l.193-.084c.36.294.824.196 1.227.337l.231.018c.469.344 1.042.27 1.564.365.666.09 1.29.377 1.798.825l.216.197c1.637 1.02 3.502 1.1 5.332 1.307.612.071.625-.304.444-.74a2.758 2.758 0 0 0-.862-1.035c-.422-.35-.916-.634-1.17-1.147-.481-.97-1.324-1.249-2.294-1.315l-.416-.377-.926-1.118c.102-.035.216-.106.245-.08 1.253 1.145 3.365.848 4.256 2.617.015.046.04.087.073.121.034.034.081.037.126.052.195.091.507.324.67.468l.082.084 1.109 1.155.305.602c-.263 2.946 1.834 4.397 3.664 6.013.34.299.828.497 1.248.197.42-.3.337-.797.226-1.259a3.568 3.568 0 0 0-1.158-1.98c-.771-.64-1.124-1.513-.771-2.44.353-.927.147-1.632-.237-2.398l-.066-.656c.03-.288-.486-1.61-.486-1.61-.168-.204-.922-2.594-.922-2.693 0 0 .012-.196.097-.196.096 0 .569.927.569.927l.202.448s1.16 3.134 1.356 4.672c1.38-1.45.645-2.724.928-4.494l.044-.282.152-1.063s.15-.713.193-1.178c.084-.917-.168-1.57-.116-2.356.041-.61-.414-1.332.303-1.817v.008c-.015.197-.002.395.037.59.771 2.18 1.1 3.709.575 6.01-.127.557-.193.856-.193 1.277 0 .793-.26 1.173-.247 1.965.013.792-.245 1.7-.457 2.247-.434.838-.328 1.498.457 2.123 1.074.854 1.481 2.095 1.581 3.446.033.42.045.84.08 1.5.528-.897.702-1.616.68-2.376-.025-.878-.632-.37-.68-1.247.24-.104.005-.412.285-.49.137.645.615.883.615.883l.386.695s-.008-.014-.012.051c-.067 1.214-.306 2.343-.989 3.401-.461.715-.262 1.571.193 2.308.193.3.386.652.787.632.463-.023.467-.487.55-.805.307-1.091.72-2.15 1.232-3.158.331-.695 1.028-1.166 1.128-1.987a.114.114 0 0 0 .075-.041.118.118 0 0 0 .025-.083c.251-2.356.307-3.167.386-5.53.056-1.608-1.055-4.809-1.08-6.525v-.328c.299-.065.44.09.405.365-.21 1.63.41 3.063 1.09 4.568a13.077 13.077 0 0 1 3.311-2.098c.303-.125.529-.569.681-.915.407-.928 1.105-1.465 2.025-1.767.556-.18 1.017-.538 1.556-.982 0 .866-.528 1.267-1.066 1.532-.799.393-1.389.913-1.632 1.795-.225.817-.83 1.27-1.489 1.706 0 0-2.72 1.913-2.574 2.922.231 1.585-.045 3.217.545 4.776.193.495.34.617.79.517.682-.154 1.301-.432 1.635-1.086.526-1.03 1.4-1.348 2.455-1.375.771-.024 1.468-.124 2.062-.803.663-.76 1.595-.633 2.507-.42.451.106.96.008 1.315-.401.09-.104.193-.295.193-.295l.257-.223c.364-.258.682-.523 1.164-.623.65-.133 1.302-.43 1.14-1.351l-.013.016c.463-.786 1.176-1.237 2.075-1.495-.858.76-1.688 1.534-1.599 2.816l.02.034c-.837.506-1.898.732-2.452 1.594-.644 1.004-1.458 1.155-2.476.88-.451-.122-.893-.141-1.277.17-.295.242-.453.53.071.672.901.244 1.707.71 2.552 1.088.426.197.926.287 1.265-.064.67-.696 1.543-.82 2.386-1.04.538.29 1.072.496 1.568-.08.74-.453 1.52-.744 2.416-.57-.939.234-1.807.555-2.484 1.322-.27.307-.752.289-1.18.197-.771-.157-1.477-.038-2.03.565-.512.554-1.195.56-1.847.682-.065.08-.133.159-.192.24-.772-.76-1.632-1.375-2.787-1.317a.923.923 0 0 1-.677-.249ZM22.01 45.001c.228.126.466.23.712.312 1.123.246 2.287.876 3.23-.436.297-.412.784-.393 1.24-.25.572.211 1.114.5 1.61.859 1.262.823 1.799.668 2.398-.69.363-.82.212-1.05-.684-.914-.862.131-1.723.284-2.565-.024-2.193-.8-4.062.043-5.94 1.145V45Zm18.693-1.178c.075.23.14.412.193.589.422 1.422 1.049 1.677 2.355.958.366-.196.723-.422 1.099-.603.636-.306 1.21-.355 1.684.346.225.334.592.715 1.022.589.848-.257 1.83 0 2.534-.705-1.75-1.324-3.531-1.685-5.547-1.053a3.452 3.452 0 0 1-2.438-.04 1.164 1.164 0 0 0-.902-.08v-.001ZM27.836 55.27c1.215-1.353 2.474-2.669 2.33-4.829a11.165 11.165 0 0 1-2.195 1.891.63.63 0 0 0-.193.415c-.108.858-.44 1.718.058 2.525v-.002Zm13.751-4.632a4.524 4.524 0 0 0-1.508-1.726c.22.984 1.065 1.184 1.508 1.728v-.002Zm-9.93-1.74c-.675.524-1.098.96-1.35 1.547.455-.406 1.155-.571 1.35-1.545v-.002ZM54.309 9.066c-.634.07-1.088.41-1.58.703-.608.361-1.77.147-1.845-.402-.075-.55.505-.89.963-1.143.746-.409 1.566-.128 2.462.842ZM50.479 8.262c-.368.198-.562.516-.79.813-.284.369-1.039.524-1.215.21-.175-.315.096-.664.314-.93.355-.43.919-.462 1.691-.093Z" fill="#FCFCFA"/><path d="M54.144 20.633c-.368.198-.563.516-.791.813-.283.369-1.038.524-1.214.21-.176-.315.095-.663.313-.93.355-.43.92-.461 1.692-.093ZM57.037 19.848c-.368.198-.563.515-.791.813-.283.368-1.038.524-1.214.21-.176-.315.096-.664.313-.93.356-.43.92-.462 1.692-.093ZM41.342.133c.857 1.842.56 2.934-.839 3.507-.349.144-.522.125-.604-.28-.147-.729-.212-1.405.505-1.918.412-.298.659-.77.938-1.309ZM58.274 11.843c-.506.281-.93.694-1.229 1.196-.43.754-1.068.84-1.81.573-.138-.05-.42.07-.319-.285.193-.691.374-1.41 1.13-1.685.722-.26 1.441-.13 2.228.2ZM72 33.59c-.579-.392-1.206-.46-1.82-.565a1.338 1.338 0 0 1-.28-.065 1.357 1.357 0 0 1-.676-.6 1.396 1.396 0 0 1-.158-.898c.056-.532.685-.265 1.046-.273 1.155-.02 1.75.735 1.888 2.402ZM66.769 19.451c-1.158 2.473-2.528 3.083-4.301 2.087-.444-.249-.57-.45-.226-.88.621-.774 1.257-1.417 2.392-1.09.653.183 1.346.045 2.135-.117ZM0 33.474a5.007 5.007 0 0 0 1.207-1.214c.098-.166.23-.31.386-.42.517-.312 1.109-.308 1.528.069.385.347-.043.776-.232 1.105-.515.911-1.489 1.07-2.889.46ZM11.273 34.707c.283-.503.48-1.053.58-1.624.018-.193.077-.38.172-.547.335-.508.872-.763 1.409-.605.495.146.288.72.256 1.1-.082 1.048-.895 1.617-2.417 1.676ZM6.51 33.248c.269-.246.494-.537.665-.861a.86.86 0 0 1 .21-.296c.301-.239.674-.284.967-.08.27.187.034.491-.06.714-.252.615-.853.794-1.782.523ZM14.476 35.314a5.11 5.11 0 0 0 .58-1.623c.018-.193.076-.38.171-.548.336-.508.873-.763 1.41-.604.494.145.287.719.256 1.1-.082 1.047-.895 1.616-2.418 1.675ZM49.32 6.041c.077.297.123.541.568.501 1.35-.1 1.928-.925 1.816-2.996-.644 1.081-2.227.671-2.386 2.134l.001.361ZM64.717 13.623c-.12 2.035-.897 2.845-2.393 2.663-.374-.045-.517-.147-.398-.542.216-.711.479-1.335 1.35-1.434.502-.059.942-.351 1.441-.687ZM25.547 8.184c.22.21.386.393.742.12 1.096-.81 1.158-1.822-.011-3.52.013 1.264-1.543 1.767-.92 3.094l.189.306ZM15.825 7.943c.545 1.167 2.314 1.758 1.184 3.41-1.726-.378-2.17-1.495-1.184-3.41ZM7.244 16.836c1.865-.644 2.748-.335 3.224.928.198.52.12.748-.444.844-.626.107-1.143.013-1.5-.568a3.166 3.166 0 0 0-1.28-1.204ZM37.21 4.846c-.219.21-.385.393-.742.12-1.095-.81-1.157-1.822.012-3.52-.013 1.264 1.543 1.767.92 3.094l-.19.306ZM32.252 12.434c-.22.21-.386.393-.743.12-1.096-.81-1.157-1.822.011-3.52-.013 1.264 1.543 1.767.92 3.094l-.188.306ZM57.238 36.692c-1.703.52-2.646.098-3.05-1.256-.164-.55-.011-.74.533-.776.545-.036 1.033 0 1.328.53a4.875 4.875 0 0 0 1.19 1.502ZM46.28 3.607c.385 1.768-.097 2.695-1.453 3.007-.551.126-.725-.043-.721-.599.004-.556.075-1.049.615-1.31a4.801 4.801 0 0 0 1.559-1.098ZM71.834 28.356a3.96 3.96 0 0 0-1.23 1.24c-.092.172-.22.32-.374.435a1.446 1.446 0 0 1-1.617.035c-.46-.33.091-.752.236-1.074.466-1.035 1.36-1.212 2.985-.636ZM20.395 33.528c.666-1.42 1.264-1.91 2.236-1.734.436.08 1.093.114 1.03.754-.02.3-.155.58-.375.78-.22.2-.509.305-.804.292-.696 0-1.39-.068-2.087-.107v.015ZM29.11 3.864c-.219.21-.385.393-.742.12-1.095-.811-1.157-1.822.012-3.521-.014 1.265 1.543 1.767.92 3.095l-.19.306ZM6.408 24.73c1.245-.93 2-1.076 2.775-.453.346.281.91.627.557 1.16a1.134 1.134 0 0 1-.692.508c-.287.07-.59.024-.844-.13-.613-.334-1.193-.729-1.789-1.098l-.007.014ZM18.362 11.425c.258.16.458.302.75-.04.905-1.027.758-2.03-.734-3.441.273 1.234-1.146 2.057-.264 3.222l.248.26ZM21.085 12.894c.259.159.458.302.751-.04.905-1.027.757-2.03-.735-3.441.274 1.233-1.145 2.056-.263 3.222l.247.26ZM31.26 0c1.714 1.249 1.834 2.062.63 3.605-.904-.528-1.282-1.24-.785-2.274.19-.38.114-.826.154-1.331ZM30.59 20.756c1.681.582 1.955 1.194 1.295 2.69-.86-.204-1.325-.677-1.137-1.606.074-.344-.084-.677-.159-1.084ZM14.116 11.041c1.718.012 2.463.833 2.281 2.38-.05.424-.158.574-.578.456-.662-.185-1.171-.472-1.225-1.279a3.735 3.735 0 0 0-.478-1.557ZM67.803 25.706c.65-1.188 1.12-1.337 2.953-.87-.984.786-1.331 2.488-3.086 1.787.042-.306.087-.61.133-.917ZM47.481 33.628c1.72-.434 2.494.012 3.003 2.034-1.045-.681-2.74.17-3.097-1.7.032-.112.063-.216.094-.334ZM42.081 7.543c-1.22-1.34-1.101-2.472.405-3.49.098 1.222 1.432 2.472-.202 3.585l-.203-.095ZM40.196 10.048c-.807-.886-.728-1.634.267-2.307.065.808.947 1.634-.133 2.37l-.134-.063ZM34.217 5.533c-.807-.887-.728-1.635.267-2.308.065.808.947 1.635-.133 2.37l-.134-.062ZM28.907 30.534c-.332 1.16-1.003 1.476-2.081.952.647-.472.89-1.667 2.065-1.1l.016.148ZM62.904 34.657c.332 1.16 1.003 1.476 2.081.952-.647-.472-.89-1.667-2.065-1.1l-.016.148ZM26.888 13.583c-.807-.886-.728-1.634.267-2.307.065.808.947 1.635-.133 2.37l-.134-.063ZM24.669 18.2c-1.151-.296-1.485-.967-1.01-2.083.486.642 1.668.845 1.155 2.061l-.145.022ZM31.033 27.233c-1.151-.296-1.485-.966-1.01-2.083.486.642 1.668.846 1.155 2.061l-.145.022ZM19.187 29.776c-.793.396-1.299.179-1.557-.687.58.126 1.346-.337 1.63.603l-.073.084ZM23.542 26.407c-1.16-.26-1.753.187-1.82 1.402.717-.352 1.864.005 1.94-1.316l-.12-.086ZM54.279 11.557c-.278 1.789-1.06 2.471-2.434 2.255-.559-.088-.66-.31-.456-.826.204-.516.448-.947 1.044-.989a4.73 4.73 0 0 0 1.846-.44ZM25.265 24.476c1.867-.642 2.845-.324 3.279.962.125.371.193.694-.376.802-.62.117-1.146.104-1.534-.474a3.763 3.763 0 0 0-1.369-1.29ZM30.457 8.234a1.623 1.623 0 0 1-.534-.84c-.086-.33-.067-.68.054-1 .127-.42.071-.897.102-1.398.835.33 1.495.835 1.578 1.767.06.674-.08 1.355-.828 1.666h.014l-.396-.212.01.017ZM45.526 25.089c-.25-.174-.46-.3-.275-.713.542-1.264 1.499-1.543 3.38-.747-1.216.26-1.363 1.915-2.77 1.582l-.335-.122ZM43.584 19.739l.55-.495c.657 1.599.204 2.67-1.25 3.091-.505.147-.544 0-.617-.45-.13-.785.173-1.308.771-1.728a1 1 0 0 0 .546-.418ZM41.848 27.005l.55-.495c.657 1.598.204 2.67-1.25 3.09-.505.148-.544 0-.617-.449-.13-.785.174-1.308.771-1.728a1 1 0 0 0 .546-.418ZM27.909 7.463c1.35.84 1.766 1.589 1.43 2.498-.152.416-.306 1.117-.815.964-.596-.179-1.105-.73-.897-1.524.156-.597.39-1.176.282-1.938ZM51.977 24.98a6.065 6.065 0 0 0-1.606-.184 1.441 1.441 0 0 1-.566-.075 1.31 1.31 0 0 1-.59-.48 1.346 1.346 0 0 1-.231-.733c-.029-.526.578-.415.893-.491 1.047-.253 1.844.465 2.181 1.885l-.08.079ZM5.898 24.619c-1.333.674-2.02.403-2.528-1.062.885.32 2.173-.507 2.528 1.062ZM4.457 30.517c-1.333.674-2.02.403-2.528-1.062.885.32 2.173-.507 2.528 1.063ZM60.228 35.709c-.704-.22-1.322-.486-1.426-1.29-.052-.393-.07-.97.386-1.035.484-.07.897.286.941.883.033.434.06.88.099 1.441ZM55.375 23.813c.548-1.353 1.055-1.559 2.56-.958-.857.42-1.202 1.858-2.56.958ZM55.16 31.52c.547-1.353 1.054-1.559 2.559-.958-.857.42-1.202 1.858-2.56.958ZM23.722 27.742c.409-.848.54-1.867 1.726-1.818.01 1.512-.208 1.751-1.726 1.818ZM21.769 20.785c-.648.338-1.275.157-1.952-.07.37-.773.885-1.083 1.707-.83.588.183.34.55.248.898l-.003.002ZM22.184 20.381c.694-.23 1.255-.297 1.687.243.211.264.485.677.205.933s-.74.196-1.04-.133c-.285-.303-.533-.644-.852-1.043ZM15.178 24.197c.184-.72.429-1.237 1.109-1.318.331-.04.821-.053.882.325.061.378-.235.74-.668.822-.405.082-.82.111-1.323.171ZM42.295 19.096c-.648-1.292-.617-1.485.375-2.245.373 1.444.373 1.444-.352 2.255l-.023-.01ZM25.657 20.37c.707.183 1.217.43 1.3 1.122.041.337.057.836-.315.9-.37.064-.727-.236-.81-.677-.082-.41-.114-.834-.175-1.345ZM51.896 22.78a2.633 2.633 0 0 0 1.6.594c.658.054 1.325.192 1.856.78-1.157-.677-1.929.098-3.279-.59.075-.086-.25-.698-.177-.785ZM5.076 29.445c.716.014 1.223.106 1.314.831.023.196.07.457-.193.463-.774.02-.743-.746-1.12-1.294ZM5.593 32.033c.343-.64.658-1.054 1.33-.801.182.07.432.147.315.389-.34.707-.993.325-1.645.412ZM10.004 32.32c.16-.238.305-.49.482-.713.218-.27.561-.442.824-.214.297.255.086.632-.14.838-.345.314-.75.585-1.166.089ZM28.625 61.118c-.058.269-.114.538-.193.872-.137-.381-.231-.692.058-.982l.135.11ZM59.161 45.723l.176.17.073-.121-.241-.045-.008-.004ZM15.055 52.432a.218.218 0 0 1-.15.147.208.208 0 0 1-.2-.052l.207-.252c.048.053.106.105.143.157ZM20.395 33.514v.043-.043ZM7.865 34.506v.067a.504.504 0 0 0 .01-.053l-.01-.014ZM19.552 46.214c-.077.011-.206.056-.22.033-.065-.114.049-.116.116-.14.037.034.072.07.104.107ZM10.004 25.318l-.016.02.016-.02ZM51.47 14.524l.061-.088v.055a.212.212 0 0 1-.071.017l.01.016ZM51.01 58.191l.012.232-.167-.104.156-.128ZM20.419 58.668l-.054.133c-.122-.133.015-.098.071-.115l-.017-.018ZM35.804 27.634c.124.221.212.408.549.259 1.028-.437 1.3-1.262.771-2.92-.27 1.05-1.586 1.133-1.398 2.367l.078.294ZM38.332 15.678l.094-.08c-.023.035-.044.07-.065.106l-.029-.026ZM36.466 8.576c-.748-.575-.789-1.167-.107-1.83.16.618.958 1.136.22 1.86l-.113-.03ZM35.832 9.974c-.748-.575-.789-1.167-.107-1.83.16.618.959 1.136.22 1.86l-.113-.03ZM35.455 11.75c-.748-.575-.788-1.167-.107-1.83.16.618.959 1.135.22 1.86l-.113-.03ZM39.125 4.32c.546 1.96.074 2.987-1.398 3.316-.368.083-.535.035-.55-.378-.027-.744.019-1.421.81-1.806.455-.224.775-.648 1.138-1.133ZM38.964 7.875c-.267 1.028-.746 1.361-1.493 1.111-.187-.062-.25-.13-.149-.319.182-.34.38-.633.835-.592.263.023.517-.08.807-.2ZM38.392 9.158c-.266 1.028-.746 1.362-1.493 1.111-.187-.062-.25-.13-.148-.319.182-.34.38-.632.835-.591.263.022.517-.082.806-.201ZM38.112 10.752c-.267 1.028-.746 1.361-1.493 1.111-.187-.062-.25-.13-.148-.319.182-.34.379-.633.835-.592.262.023.517-.08.806-.2Z" fill="#FCFCFA"/><path d="M37.23 8.22s-.669 1.317-.964 2.208c-.344 1.04.071 1.867-.586 2.728-.279.365-.868.786-.868.786" stroke="#FCFCFA" stroke-linecap="round"/><path d="M19.487 25.861c-.111.948-.593 1.281-1.5 1.015.445-.452.483-1.415 1.47-1.129l.03.114ZM20.994 25.715c-.112.947-.594 1.28-1.5 1.015.444-.453.482-1.415 1.468-1.129l.032.114ZM22.69 25.154c-.113.948-.595 1.281-1.501 1.015.445-.452.482-1.415 1.469-1.128l.031.113ZM14.536 25.662c1.39-1.466 2.499-1.568 3.519-.438.256.282.299.454-.044.674-.618.398-1.216.698-1.941.196-.419-.287-.94-.356-1.534-.432ZM17.636 24.015c1.006-.282 1.53-.028 1.694.755.042.196.016.285-.196.291-.38.012-.728-.015-.922-.437-.113-.242-.33-.414-.576-.608ZM19.012 23.873c1.006-.283 1.53-.029 1.694.755.041.195.016.285-.196.29-.38.012-.728-.015-.922-.436-.113-.243-.33-.414-.576-.609ZM20.506 23.318c1.007-.282 1.531-.028 1.695.755.041.196.016.285-.196.291-.381.011-.728-.015-.923-.437-.113-.242-.329-.414-.576-.609Z" fill="#FCFCFA"/><path d="M18.802 25.367s1.453-.074 2.358-.263c1.056-.22 1.549-1.001 2.61-.856.45.061 1.104.368 1.104.368" stroke="#FCFCFA" stroke-linecap="round"/><path d="M56.24 27.47c.071.951.538 1.306 1.455 1.08-.424-.472-.42-1.435-1.419-1.192l-.036.112ZM54.742 27.257c.07.951.538 1.306 1.455 1.08-.425-.471-.422-1.435-1.42-1.192l-.035.112ZM53.071 26.62c.071.951.538 1.306 1.455 1.08-.424-.471-.42-1.434-1.419-1.192l-.036.112ZM61.195 27.492c-1.326-1.527-2.429-1.678-3.497-.595-.267.27-.318.44.015.677.6.424 1.185.75 1.931.281.43-.268.954-.314 1.55-.363ZM58.169 25.708c-.994-.327-1.528-.096-1.725.679-.05.194-.028.284.183.3.38.027.728.016.94-.397.124-.236.347-.399.602-.582ZM56.8 25.505c-.993-.327-1.528-.096-1.725.679-.05.194-.028.284.183.3.38.027.728.016.94-.397.124-.237.347-.399.602-.582ZM55.331 24.884c-.994-.327-1.528-.097-1.725.679-.05.193-.028.283.183.3.38.027.728.016.94-.397.124-.237.347-.399.602-.582Z" fill="#FCFCFA"/><path d="M56.946 27.008s-1.448-.139-2.344-.368c-1.046-.267-1.505-1.069-2.572-.97-.452.04-1.118.318-1.118.318" stroke="#FCFCFA" stroke-linecap="round"/><path d="M49.297 28.648c.071.95.539 1.306 1.456 1.08-.425-.472-.422-1.435-1.42-1.193l-.036.113ZM47.799 28.435c.07.951.538 1.306 1.455 1.08-.425-.472-.421-1.435-1.42-1.193l-.035.113ZM46.128 27.798c.071.951.539 1.306 1.456 1.08-.425-.471-.422-1.435-1.42-1.192l-.036.112ZM54.252 28.67c-1.326-1.527-2.429-1.678-3.497-.595-.267.27-.318.44.015.676.601.425 1.186.752 1.931.282.431-.268.954-.314 1.551-.363ZM51.226 26.886c-.994-.327-1.528-.097-1.725.679-.05.193-.028.283.183.3.38.027.728.016.94-.397.124-.237.347-.399.602-.582ZM49.857 26.683c-.993-.327-1.528-.097-1.725.678-.05.194-.028.284.183.3.38.028.729.017.94-.396.124-.237.347-.399.602-.582ZM48.388 26.061c-.994-.326-1.528-.096-1.725.68-.05.193-.028.283.183.299.38.028.728.017.94-.396.124-.237.347-.4.602-.582Z" fill="#FCFCFA"/><path d="M50.003 28.186s-1.448-.14-2.344-.368c-1.046-.267-1.505-1.07-2.572-.971-.451.041-1.118.319-1.118.319" stroke="#FCFCFA" stroke-linecap="round"/><path d="M15.395 21.446c-.289.758-.756.93-1.448.514.46-.277.692-1.063 1.446-.614l.002.1ZM16.668 21.651c-.289.758-.756.93-1.448.514.46-.277.692-1.063 1.446-.614l.002.1ZM18.184 21.554c-.29.757-.756.929-1.449.514.461-.278.692-1.064 1.447-.615l.002.1ZM11.351 20.216c1.452-.91 2.388-.756 2.995.396.152.288.152.44-.177.548-.593.194-1.149.313-1.642-.258-.286-.327-.701-.496-1.176-.686ZM14.251 19.525c.89-.016 1.27.307 1.241.988-.006.17-.046.238-.222.198-.317-.073-.597-.17-.67-.56-.043-.224-.186-.412-.349-.626ZM15.416 19.705c.89-.016 1.27.306 1.241.988-.006.17-.046.238-.222.198-.317-.073-.597-.17-.67-.56-.043-.224-.186-.412-.349-.626ZM16.765 19.568c.89-.016 1.269.307 1.241.988-.007.17-.046.238-.222.198-.317-.073-.598-.17-.67-.56-.043-.224-.186-.412-.35-.626Z" fill="#FCFCFA"/><path d="M14.932 20.893s1.215.252 2 .291c.917.046 1.487-.492 2.333-.144.358.148.833.542.833.542" stroke="#FCFCFA" stroke-linecap="round"/><path d="M9.748 22.82c-.51.716-1.048.765-1.664.133.56-.162 1.017-.924 1.689-.239l-.025.107ZM11.031 23.395c-.51.715-1.048.764-1.663.133.56-.163 1.016-.924 1.688-.24l-.025.107ZM12.652 23.72c-.51.715-1.048.763-1.663.132.56-.162 1.017-.924 1.688-.24l-.025.107ZM5.828 20.387c1.774-.548 2.716-.122 3.042 1.26.082.346.04.505-.334.527-.677.037-1.294.006-1.658-.733-.212-.425-.603-.72-1.05-1.053ZM9.066 20.478c.94.234 1.252.68 1.037 1.389-.053.177-.113.238-.287.146-.313-.166-.582-.347-.553-.778.016-.248-.083-.486-.197-.757ZM10.243 20.994c.94.233 1.252.68 1.037 1.389-.053.177-.113.237-.287.145-.314-.166-.583-.347-.553-.777.015-.248-.083-.486-.197-.757ZM11.698 21.23c.94.234 1.252.68 1.038 1.389-.054.177-.114.238-.288.146-.313-.166-.582-.347-.553-.778.016-.248-.083-.486-.197-.757Z" fill="#FCFCFA"/><path d="M9.41 22.107s1.21.608 2.026.87c.952.307 1.697-.1 2.492.506.336.256.73.804.73.804" stroke="#FCFCFA" stroke-linecap="round"/><path d="M62.412 25.507c.071.951.538 1.306 1.455 1.08-.424-.471-.421-1.435-1.419-1.192l-.036.112ZM60.913 25.294c.072.951.539 1.306 1.456 1.08-.425-.471-.422-1.435-1.42-1.192l-.035.112ZM59.243 24.657c.071.952.538 1.306 1.455 1.08-.424-.471-.421-1.434-1.419-1.192l-.036.112ZM67.367 25.53c-1.326-1.528-2.43-1.678-3.497-.595-.267.27-.318.44.015.676.6.424 1.185.751 1.931.281.43-.268.954-.314 1.55-.363ZM64.34 23.745c-.993-.327-1.528-.096-1.725.679-.049.194-.027.284.184.3.38.027.728.016.94-.396.124-.237.347-.4.602-.583ZM62.972 23.542c-.994-.327-1.528-.096-1.725.679-.05.194-.028.284.183.3.38.027.728.016.94-.397.124-.236.347-.399.602-.582ZM61.503 22.92c-.994-.326-1.529-.096-1.725.68-.05.194-.028.284.183.3.38.027.728.016.94-.397.124-.237.347-.399.602-.582Z" fill="#FCFCFA"/><path d="M63.118 25.045s-1.449-.139-2.345-.368c-1.045-.266-1.504-1.069-2.571-.97-.452.04-1.118.318-1.118.318" stroke="#FCFCFA" stroke-linecap="round"/><path d="M24.215 9.207c.698-.636.69-1.23-.044-1.833-.109.63-.861 1.214-.065 1.872l.11-.039ZM24.962 10.547c.698-.637.69-1.23-.044-1.833-.109.63-.861 1.214-.065 1.872l.11-.04ZM25.483 12.283c.698-.636.69-1.23-.044-1.833-.11.63-.862 1.214-.066 1.872l.11-.039ZM21.217 5.19c-.383 2.001.17 2.984 1.665 3.187.373.052.536-.011.517-.424-.035-.743-.136-1.414-.956-1.73-.47-.185-.825-.58-1.226-1.032ZM21.669 8.72c.35 1.001.855 1.293 1.579.98.181-.078.238-.15.122-.33-.21-.325-.43-.599-.881-.519-.26.045-.522-.037-.82-.131ZM22.343 9.95c.35 1.002.855 1.293 1.58.98.18-.077.237-.15.121-.33-.21-.324-.43-.598-.881-.519-.26.045-.522-.037-.82-.131ZM22.754 11.514c.35 1.002.855 1.294 1.579.981.18-.078.238-.15.122-.33-.21-.325-.43-.599-.881-.52-.26.046-.522-.036-.82-.13Z" fill="#FCFCFA"/><path d="M23.425 8.916s.774 1.255 1.141 2.118c.429 1.007.083 1.866.809 2.668.307.34.929.71.929.71" stroke="#FCFCFA" stroke-linecap="round"/><path d="M14.172 15.713c.266-.74.034-1.17-.731-1.319.16.503-.165 1.226.666 1.39l.065-.071ZM15.227 16.395c.266-.74.034-1.17-.73-1.32.16.503-.166 1.226.665 1.391l.065-.072ZM16.27 17.455c.265-.74.033-1.17-.732-1.319.161.503-.165 1.226.666 1.391l.065-.072ZM10.454 13.972c.484 1.61 1.263 2.107 2.43 1.664.291-.11.386-.22.215-.513-.309-.528-.639-.978-1.357-.884-.414.052-.823-.096-1.288-.267ZM12.13 16.366c.638.592 1.117.605 1.526.09.102-.128.116-.203-.038-.288-.276-.154-.541-.266-.84-.03-.172.135-.394.18-.647.228ZM13.091 16.995c.637.592 1.117.605 1.525.09.102-.128.116-.203-.037-.288-.277-.154-.542-.267-.84-.03-.172.135-.395.18-.648.228ZM13.987 17.974c.637.592 1.117.604 1.525.09.102-.128.116-.204-.037-.289-.277-.153-.542-.266-.84-.03-.172.136-.394.18-.648.229Z" fill="#FCFCFA"/><path d="M13.486 15.815s1.043.608 1.64 1.092c.696.564.772 1.328 1.607 1.625.353.126.948.15.948.15" stroke="#FCFCFA" stroke-linecap="round"/><path d="M30.046 15.884c.783-.299.965-.794.548-1.538-.292.488-1.104.724-.652 1.534l.104.004ZM30.24 17.243c.783-.298.965-.794.548-1.538-.292.488-1.104.724-.652 1.535l.104.003ZM30.12 18.858c.782-.298.965-.794.547-1.538-.292.488-1.103.724-.651 1.535l.103.003ZM28.833 11.554c-.956 1.537-.808 2.537.369 3.2.293.165.45.167.565-.182.208-.63.338-1.22-.243-1.755-.333-.309-.501-.754-.69-1.263ZM28.084 14.637c-.028.948.299 1.357 1 1.337.176-.005.246-.046.207-.235-.07-.338-.167-.64-.567-.722-.23-.049-.422-.203-.64-.38ZM28.253 15.883c-.029.948.299 1.358 1 1.337.175-.005.246-.046.206-.235-.07-.338-.166-.64-.567-.722-.23-.049-.421-.203-.64-.38ZM28.096 17.319c-.029.948.298 1.357 1 1.336.175-.005.245-.046.206-.234-.07-.339-.166-.64-.567-.722-.23-.049-.422-.203-.64-.38Z" fill="#FCFCFA"/><path d="M29.482 15.383s.243 1.298.273 2.137c.035.979-.526 1.579-.178 2.485.147.384.546.896.546.896" stroke="#FCFCFA" stroke-linecap="round"/><path d="M63.184 32.183c.07.951.538 1.306 1.455 1.08-.425-.472-.422-1.435-1.42-1.193l-.035.113ZM61.685 31.97c.071.951.538 1.306 1.455 1.08-.425-.472-.421-1.435-1.419-1.192l-.036.112ZM60.015 31.333c.07.951.538 1.306 1.455 1.08-.425-.471-.422-1.435-1.42-1.192l-.035.112ZM68.138 32.205c-1.326-1.527-2.429-1.678-3.497-.595-.267.27-.317.44.016.676.6.425 1.185.752 1.93.282.431-.268.955-.314 1.551-.363ZM65.112 30.42c-.993-.326-1.528-.096-1.725.68-.05.194-.028.284.183.3.38.027.728.016.94-.397.124-.237.347-.399.602-.582ZM63.744 30.218c-.994-.327-1.529-.097-1.726.679-.05.193-.028.283.184.3.38.027.728.016.94-.397.123-.237.346-.399.602-.582ZM62.274 29.597c-.993-.327-1.528-.097-1.725.679-.05.193-.028.283.183.299.38.028.729.017.94-.396.124-.237.347-.399.602-.582Z" fill="#FCFCFA"/><path d="M63.89 31.72s-1.45-.138-2.345-.367c-1.045-.267-1.505-1.069-2.572-.971-.451.041-1.118.32-1.118.32" stroke="#FCFCFA" stroke-linecap="round"/><path d="M46.032 15.055c.006-.55.261-.771.796-.677-.226.288-.188.841-.77.74l-.026-.063ZM45.178 15.235c.006-.55.261-.772.796-.677-.226.287-.188.84-.77.74l-.026-.063ZM44.242 15.665c.006-.55.26-.772.796-.678-.226.288-.188.841-.77.74l-.026-.062ZM48.88 14.851c-.706.93-1.334 1.059-1.988.478-.164-.146-.2-.241-.017-.39.33-.267.653-.477 1.1-.236.257.137.56.143.904.149ZM47.206 15.994c-.559.226-.875.114-1.017-.324-.035-.11-.026-.162.095-.179.217-.03.418-.038.555.191.08.132.214.216.367.312ZM46.427 16.164c-.559.226-.875.114-1.017-.324-.036-.11-.026-.162.094-.18.218-.03.418-.037.556.192.08.132.214.216.367.312ZM45.606 16.576c-.56.226-.875.114-1.017-.324-.036-.11-.027-.162.094-.179.218-.03.418-.038.555.191.08.132.215.216.368.312Z" fill="#FCFCFA"/><path d="M46.455 15.293s-.828.136-1.334.302c-.591.194-.825.673-1.442.658-.261-.007-.655-.14-.655-.14" stroke="#FCFCFA" stroke-linecap="round"/><path d="M19.455 15.36c-.602.405-1.034.282-1.33-.392.481.04 1.055-.415 1.38.317l-.05.076ZM20.288 16.189c-.602.404-1.034.281-1.33-.393.481.04 1.055-.415 1.38.317l-.05.076ZM21.455 16.923c-.602.404-1.034.282-1.331-.393.482.041 1.056-.415 1.38.318l-.05.075ZM17.108 12.3c1.537.103 2.147.715 2.003 1.887-.036.293-.114.404-.412.31-.536-.173-1.007-.381-1.077-1.065-.043-.393-.262-.738-.514-1.131ZM19.6 13.335c.663.462.777.901.406 1.389-.092.122-.156.15-.265.027-.196-.222-.353-.443-.206-.769.083-.188.075-.402.064-.647ZM20.366 14.089c.663.462.777.901.406 1.389-.092.122-.156.15-.265.027-.196-.222-.353-.443-.206-.77.083-.187.075-.402.065-.646ZM21.43 14.706c.663.462.777.902.406 1.389-.092.122-.156.15-.265.027-.196-.222-.353-.443-.206-.769.083-.188.075-.402.064-.647Z" fill="#FCFCFA"/><path d="M19.399 14.705s.765.832 1.324 1.28c.652.521 1.348.428 1.791 1.135.188.3.336.843.336.843" stroke="#FCFCFA" stroke-linecap="round"/><path d="M38.014 22.175c-.365-.203-.414-.497-.144-.912.105.293.49.461.196.913l-.052-.001ZM37.804 22.956c-.365-.203-.414-.497-.144-.912.105.294.49.462.197.914l-.053-.002ZM37.729 23.895c-.366-.202-.415-.497-.145-.912.105.294.49.462.197.914l-.052-.002ZM38.982 19.713c.348.926.19 1.5-.452 1.839-.16.085-.238.08-.267-.127-.05-.372-.066-.72.269-1.007.191-.166.313-.418.45-.705ZM39.097 21.529c-.065.55-.263.775-.61.736-.088-.01-.12-.036-.084-.143.064-.194.137-.365.343-.397.119-.02.227-.102.35-.196ZM38.908 22.242c-.065.55-.262.775-.61.736-.087-.01-.119-.036-.083-.144.063-.193.136-.364.343-.396.118-.02.227-.102.35-.196ZM38.867 23.082c-.065.55-.263.775-.61.736-.088-.01-.12-.036-.084-.144.064-.193.137-.364.343-.396.119-.02.228-.102.351-.196Z" fill="#FCFCFA"/><path d="M38.338 21.906s-.23.743-.315 1.228c-.1.565.13.934-.12 1.446-.105.217-.347.498-.347.498" stroke="#FCFCFA" stroke-linecap="round"/><path d="M61.728 18.382c-.021-.503.243-.734.824-.707-.23.288-.163.79-.794.762l-.03-.055ZM60.818 18.642c-.02-.503.243-.734.824-.708-.23.288-.163.79-.794.763l-.03-.055ZM59.832 19.138c-.021-.503.243-.734.824-.708-.23.288-.163.79-.794.763l-.03-.055ZM64.781 17.88c-.714.927-1.384 1.115-2.116.656-.183-.115-.225-.198-.036-.354.342-.28.68-.51 1.171-.338.284.097.61.07.981.036ZM63.036 19.109c-.59.269-.936.202-1.11-.183-.043-.096-.036-.145.093-.174.233-.053.448-.081.607.113.092.111.24.174.41.244ZM62.206 19.351c-.59.27-.936.202-1.11-.183-.043-.096-.036-.145.093-.174.233-.052.448-.081.607.113.092.111.24.174.41.244ZM61.342 19.82c-.59.269-.935.201-1.11-.183-.043-.096-.036-.145.093-.174.233-.053.448-.081.607.113.092.111.24.174.41.244Z" fill="#FCFCFA"/><path d="M62.194 18.553s-.884.215-1.42.424c-.627.242-.856.706-1.52.76-.281.024-.71-.055-.71-.055" stroke="#FCFCFA" stroke-linecap="round"/><path d="M11.696 27.286c.027-.658-.318-.96-1.077-.925.3.377.213 1.033 1.038.997l.04-.072ZM12.885 27.626c.027-.658-.318-.96-1.077-.925.3.376.213 1.032 1.038.997l.04-.072ZM14.175 28.276c.027-.658-.318-.96-1.077-.925.3.377.212 1.033 1.038.997l.039-.072ZM7.704 26.63c.934 1.212 1.81 1.458 2.766.858.24-.15.295-.26.048-.463-.447-.367-.889-.666-1.532-.442-.37.127-.796.09-1.282.047ZM9.986 28.237c.771.352 1.223.264 1.45-.24.057-.125.048-.189-.12-.227-.305-.068-.586-.106-.794.148-.12.146-.315.227-.536.32ZM11.07 28.553c.772.352 1.224.264 1.451-.239.057-.125.048-.19-.12-.228-.305-.068-.586-.105-.794.148-.12.146-.315.227-.537.32ZM12.2 29.167c.772.351 1.223.263 1.45-.24.058-.125.048-.19-.12-.227-.305-.069-.586-.106-.794.148-.12.145-.314.227-.536.319Z" fill="#FCFCFA"/><path d="M11.086 27.51s1.155.282 1.857.554c.82.317 1.118.923 1.987.995.367.03.93-.073.93-.073" stroke="#FCFCFA" stroke-linecap="round"/><path d="M5.06 28.003c-.273.42-.62.45-1.075.081.352-.096.586-.543 1.082-.143l-.007.062ZM5.946 28.337c-.273.42-.62.45-1.075.081.352-.096.586-.543 1.082-.143l-.007.062ZM7.03 28.523c-.272.42-.619.45-1.074.081.352-.096.586-.543 1.082-.144l-.007.063ZM2.296 26.589c1.112-.326 1.763-.078 2.092.73.083.202.069.296-.174.309-.438.023-.844.007-1.144-.425-.174-.248-.454-.42-.774-.614ZM4.418 26.634c.633.135.874.395.794.81-.02.105-.054.14-.176.087-.218-.097-.41-.202-.426-.454-.01-.145-.095-.285-.192-.443ZM5.23 26.933c.633.135.874.395.793.81-.02.105-.054.14-.175.087-.219-.097-.41-.202-.427-.454-.01-.146-.095-.285-.192-.443ZM6.2 27.068c.633.134.874.395.793.81-.02.104-.054.14-.175.086-.219-.096-.41-.201-.426-.454-.01-.145-.095-.284-.192-.442Z" fill="#FCFCFA"/><path d="M4.78 27.586s.84.353 1.395.504c.647.177 1.1-.062 1.67.29.24.15.543.47.543.47" stroke="#FCFCFA" stroke-linecap="round"/><path d="M65.585 27.392c.12-.488.438-.634.987-.44-.3.21-.375.71-.973.501l-.014-.061ZM64.64 27.378c.12-.488.438-.634.988-.44-.301.21-.376.71-.974.502l-.013-.062ZM63.556 27.57c.12-.489.438-.634.987-.441-.3.21-.376.71-.974.502l-.013-.061ZM68.653 27.792c-.943.683-1.638.67-2.212.019-.144-.163-.161-.255.064-.35.405-.17.793-.292 1.217.014.245.175.565.242.93.317ZM66.637 28.468c-.64.087-.953-.077-1.013-.496-.015-.105.006-.15.138-.14.237.017.451.051.55.284.057.133.182.236.325.352ZM65.775 28.46c-.642.088-.954-.076-1.014-.496-.015-.104.006-.15.138-.14.237.017.452.052.55.284.057.133.183.236.326.352ZM64.815 28.661c-.641.088-.953-.076-1.013-.495-.015-.105.005-.15.137-.14.238.016.452.05.55.283.058.133.183.236.326.352Z" fill="#FCFCFA"/><path d="M65.985 27.691s-.907-.048-1.48-.003c-.668.052-1.017.43-1.67.291-.275-.059-.665-.258-.665-.258" stroke="#FCFCFA" stroke-linecap="round"/><path d="M49.273 11.239c-.127-.723.154-1.079.88-1.09-.227.434-.042 1.151-.831 1.167l-.049-.077ZM48.198 11.692c-.128-.723.153-1.079.879-1.09-.227.434-.042 1.151-.831 1.167l-.048-.077ZM47.074 12.493c-.127-.723.154-1.079.88-1.09-.227.434-.043 1.15-.832 1.166l-.048-.076ZM52.96 10.25c-.698 1.397-1.491 1.726-2.492 1.129-.25-.149-.32-.266-.116-.507.366-.434.74-.792 1.385-.589.371.116.77.047 1.223-.034ZM51.044 12.173c-.678.438-1.12.372-1.413-.167-.074-.135-.075-.206.08-.26.277-.095.539-.155.775.11.137.153.334.23.558.317ZM50.063 12.592c-.678.44-1.12.372-1.414-.166-.073-.135-.074-.206.08-.26.278-.095.54-.155.776.11.136.153.333.23.558.316ZM49.086 13.345c-.678.438-1.12.371-1.413-.167-.074-.135-.075-.206.08-.26.277-.095.539-.155.775.11.137.153.334.23.558.316Z" fill="#FCFCFA"/><path d="M49.887 11.445s-1.053.388-1.677.735c-.728.404-.918 1.092-1.731 1.228-.344.058-.893-.018-.893-.018" stroke="#FCFCFA" stroke-linecap="round"/><path d="M48.825 18.274c.59.42 1.026.31 1.34-.357-.483.028-1.044-.443-1.389.28l.049.077ZM47.97 19.08c.592.421 1.027.31 1.341-.356-.483.028-1.044-.443-1.389.28l.049.077ZM46.786 19.784c.59.42 1.026.31 1.34-.357-.483.028-1.045-.443-1.389.28l.049.077ZM51.25 15.28c-1.54.06-2.164.656-2.05 1.832.027.293.102.407.402.32.541-.158 1.017-.354 1.105-1.035.053-.392.281-.731.543-1.117ZM48.733 16.247c-.675.444-.8.88-.443 1.378.09.124.152.155.264.034.202-.217.365-.433.227-.763-.079-.19-.065-.405-.048-.649ZM47.948 16.978c-.676.444-.801.88-.443 1.377.09.124.152.155.264.035.202-.217.365-.434.227-.764-.08-.19-.065-.404-.048-.648ZM46.868 17.568c-.675.443-.8.88-.442 1.377.089.124.152.155.264.035.202-.218.364-.434.226-.764-.078-.19-.064-.404-.047-.648Z" fill="#FCFCFA"/><path d="M48.898 17.621s-.787.812-1.357 1.244c-.665.504-1.358.392-1.82 1.087-.196.294-.358.833-.358.833" stroke="#FCFCFA" stroke-linecap="round"/><path d="M47.295 8.013c.68.243 1.07.017 1.197-.71-.457.159-1.123-.141-1.264.65l.067.06ZM46.685 9.023c.68.243 1.07.017 1.197-.71-.457.158-1.123-.142-1.263.65l.066.06ZM45.73 10.025c.68.242 1.07.017 1.197-.71-.458.158-1.124-.142-1.264.65l.067.06ZM48.84 4.464c-1.466.48-1.91 1.225-1.49 2.326.104.275.206.364.472.198.48-.3.886-.619.791-1.3-.053-.39.077-.78.228-1.224ZM46.672 6.084c-.534.612-.54 1.067-.063 1.448.119.095.188.107.264-.04.137-.264.236-.517.016-.797-.126-.161-.17-.371-.217-.611ZM46.108 7.004c-.533.612-.538 1.067-.063 1.447.12.096.188.108.264-.039.137-.264.237-.517.017-.797-.126-.161-.17-.372-.218-.611ZM45.224 7.867c-.533.612-.538 1.067-.063 1.448.12.095.188.107.264-.04.137-.264.237-.517.017-.796-.126-.162-.17-.372-.218-.612Z" fill="#FCFCFA"/><path d="M47.193 7.363s-.543.997-.978 1.57c-.508.667-1.205.749-1.466 1.545-.111.337-.125.9-.125.9" stroke="#FCFCFA" stroke-linecap="round"/><path d="M58.683 15.555c-.417-.856-.215-1.383.64-1.623-.108.609.375 1.44-.554 1.703l-.086-.08ZM57.575 16.45c-.417-.856-.215-1.384.64-1.623-.108.608.375 1.44-.554 1.702l-.086-.08ZM56.539 17.79c-.417-.856-.215-1.384.64-1.623-.109.608.374 1.439-.555 1.702l-.085-.08ZM62.687 13.19c-.313 1.948-1.131 2.6-2.537 2.17-.351-.107-.477-.23-.325-.591.275-.65.586-1.21 1.425-1.158.482.028.93-.18 1.437-.42ZM61.125 16.163c-.642.753-1.19.807-1.737.23-.137-.143-.164-.231 0-.345.293-.204.58-.36.959-.103.218.146.48.18.778.218ZM60.117 16.987c-.642.754-1.19.808-1.737.231-.136-.144-.164-.232 0-.346.294-.204.581-.359.959-.103.218.146.48.18.778.218ZM59.236 18.22c-.642.753-1.19.807-1.737.23-.136-.143-.164-.232 0-.345.294-.204.581-.36.96-.104.217.147.479.181.777.219Z" fill="#FCFCFA"/><path d="M59.486 15.621s-1.105.806-1.717 1.428c-.714.726-.686 1.637-1.6 2.057-.386.178-1.064.254-1.064.254" stroke="#FCFCFA" stroke-linecap="round"/><path d="M43.173 10.816c.716.09 1.05-.214 1.023-.953-.414.254-1.127.104-1.1.908l.078.044ZM42.787 11.933c.716.09 1.05-.214 1.023-.953-.415.254-1.128.105-1.1.908l.077.045ZM42.06 13.118c.716.091 1.05-.214 1.023-.952-.414.254-1.127.104-1.1.907l.078.045ZM43.947 7.014c-1.334.785-1.614 1.609-.975 2.594.16.247.278.312.503.092.406-.396.738-.795.504-1.44-.133-.371-.087-.78-.032-1.246ZM42.163 9.066c-.394.713-.305 1.16.24 1.429.136.068.205.065.25-.095.078-.288.123-.557-.15-.783-.157-.13-.243-.327-.34-.55ZM41.804 10.086c-.394.713-.305 1.159.24 1.428.135.068.205.065.249-.095.079-.287.124-.556-.15-.782-.156-.131-.242-.327-.339-.551ZM41.119 11.12c-.394.712-.305 1.158.24 1.428.135.067.205.064.249-.095.079-.288.124-.557-.15-.783-.156-.13-.242-.327-.34-.55Z" fill="#FCFCFA"/><path d="M42.939 10.203s-.324 1.091-.63 1.744c-.358.762-1.022.992-1.113 1.826-.038.354.066.908.066.908" stroke="#FCFCFA" stroke-linecap="round"/><path d="M53.068 15.79c-.249-.651-.05-1.036.625-1.183-.134.449.167 1.083-.566 1.245l-.06-.063ZM52.145 16.414c-.249-.65-.05-1.035.625-1.182-.134.449.167 1.083-.566 1.245l-.06-.063ZM51.24 17.371c-.249-.65-.05-1.035.625-1.182-.134.449.168 1.083-.566 1.245l-.059-.063ZM56.65 13.994c-.4 1.435-1.081 1.89-2.123 1.519-.26-.092-.347-.188-.2-.451.265-.474.549-.878 1.187-.808.368.038.727-.1 1.136-.26ZM54.889 16.332c-.555.536-.98.556-1.35.108-.093-.112-.107-.179.028-.257.242-.141.475-.246.743-.042.155.117.353.152.578.19ZM54.048 16.906c-.554.536-.979.556-1.35.108-.093-.112-.106-.178.028-.257.243-.14.476-.246.744-.042.155.117.353.152.578.191ZM53.271 17.79c-.554.537-.979.557-1.35.109-.092-.112-.106-.179.028-.257.243-.141.476-.246.744-.042.155.117.353.152.578.19Z" fill="#FCFCFA"/><path d="M53.678 15.867s-.854.525-1.334.948c-.561.494-1.275 1.433-1.275 1.433" stroke="#FCFCFA" stroke-linecap="round"/><path d="M49.624 15.366c-.648-1.293-.616-1.485.375-2.245.373 1.443.373 1.443-.352 2.255l-.023-.01ZM43.606 18.826c1.422-.102 1.567-.229 1.696-1.486-1.407.42-1.407.42-1.716 1.47l.02.016Z" fill="#FCFCFA"/><path d="M37.94 55.383c-1.111-.65-1.991.461-2.16.703-.175-.242-1.055-1.353-2.16-.703-1.244.728-.35 2.5-.017 2.86.393.428 1.246 1.206 2.161 1.455a4.975 4.975 0 0 0 2.208-1.456c.29-.378 1.21-2.127-.032-2.859Z" fill="#FFB35B"/><g clip-path="url(#b)" fill="#FFB35B"><path d="M39.243 15.501c-.439-.572-1.206-.624-1.851-.41a1.591 1.591 0 0 1-.292.072c-.114.027-.23.042-.348.046-.174.007-.376 0-.538-.08a3.231 3.231 0 0 1-.124-.039c-.646-.213-1.413-.162-1.851.411-.476.62-.57 1.458-.369 2.197.112.408.33.78.564 1.13.222.333.445.68.704.986l.036.042c.222.25.574.338.752.331.218-.009.299-.198.535-.073.04.021.093.052.146.076a.36.36 0 0 0 .125.036h.021a.358.358 0 0 0 .12-.034c.054-.024.106-.055.147-.076.235-.124.316.065.534.073a1.055 1.055 0 0 0 .788-.372c.26-.306.482-.654.704-.986.235-.351.452-.722.563-1.131.204-.741.11-1.58-.366-2.199Z"/><path d="m36.743 20.226-.005-.018v.018h-.01a.377.377 0 0 1-.126-.037l-.01-.006a1.361 1.361 0 0 1-.098-.051l-.037-.02c-.135-.07-.214-.032-.306.011a.523.523 0 0 1-.215.064 1.08 1.08 0 0 1-.802-.376 8.71 8.71 0 0 1-.617-.857l-.083-.124c-.212-.318-.445-.7-.562-1.129-.218-.793-.08-1.614.368-2.197.464-.605 1.265-.611 1.86-.414.045.014.085.027.122.037.167.083.37.086.53.08.115-.004.229-.019.34-.045.1-.015.196-.04.29-.072.594-.197 1.397-.191 1.86.414.447.583.584 1.404.369 2.197-.117.428-.35.81-.563 1.129l-.083.124c-.192.29-.391.59-.617.857l-.036.041c-.227.258-.59.342-.763.335a.527.527 0 0 1-.216-.064c-.092-.044-.17-.082-.306-.01l-.036.019c-.03.016-.065.035-.098.051l-.01.006a.375.375 0 0 1-.129.037h-.01Zm-.005-.037h.01a.329.329 0 0 0 .107-.028l.01-.007c.037-.016.074-.037.107-.055l.037-.02c.151-.08.243-.035.34.01.062.035.13.056.2.061a1.037 1.037 0 0 0 .77-.362c.224-.265.422-.564.615-.853l.083-.125c.21-.315.442-.695.557-1.117.214-.783.079-1.592-.362-2.166-.453-.589-1.236-.593-1.82-.401a1.575 1.575 0 0 1-.292.073c-.113.027-.23.042-.346.046-.163.006-.374.003-.544-.083a2.268 2.268 0 0 1-.121-.036c-.583-.193-1.365-.188-1.82.401-.44.573-.576 1.383-.363 2.165.116.423.347.802.558 1.117l.083.125c.192.29.39.588.617.853l.036.04c.22.248.567.33.733.322a.49.49 0 0 0 .2-.06c.098-.046.19-.09.341-.01l.037.02c.033.017.07.038.107.055l.011.006a.316.316 0 0 0 .104.028l.005.001Z"/><path d="M36.53 14.43a.346.346 0 0 1 .364-.33c.078.004.26.228.105.676-.155.449-.182.701-.06 1.097.085.277.311.47.438.56a2.113 2.113 0 0 1-.229.066l-.014.002c-.01 0-.02.003-.03.004a.617.617 0 0 1-.17-.01 3.139 3.139 0 0 0-.19-.324c-.239-.366-.167-.86-.105-1.212.06-.352-.12-.462-.11-.529Z"/></g><path d="M38.548 13.545c-.8-.285-.997-.784-.59-1.549.307.489 1.136.71.696 1.543l-.106.006Z" fill="#FCFCFA"/><defs><clipPath id="a"><path fill="#fff" transform="matrix(1 0 .00292 1 7.715 4.123)" d="M0 0h6.645v10.015H0z"/></clipPath><clipPath id="b"><path fill="#fff" transform="translate(33.559 12.568)" d="M0 0h6.365v7.659H0z"/></clipPath></defs></svg>