<svg width="720" height="680" viewBox="0 0 720 680" fill="none" xmlns="http://www.w3.org/2000/svg">
<path d="M60.4375 301.766L60.2004 301.89L60.4375 302.025V301.766Z" fill="#F0F6FA"/>
<path d="M51.9668 286.909L51.6167 286.705V287.113L51.9668 286.909Z" fill="#F0F6FA"/>
<path d="M60.5508 271.588L59.9634 271.928L60.5508 272.268V271.588Z" fill="#F0F6FA"/>
<path d="M34.5273 286.84L34.4144 286.908L34.5273 286.975V286.84Z" fill="#F0F6FA"/>
<path d="M52.125 256.945L51.5377 256.605V257.285L52.125 256.945Z" fill="#F0F6FA"/>
<path d="M60.6406 241.479L59.7935 241.966L60.6406 242.453V241.479Z" fill="#F0F6FA"/>
<path d="M25.9883 271.928L25.8076 271.826V272.029L25.9883 271.928Z" fill="#F0F6FA"/>
<path d="M34.6074 256.742L34.2573 256.946L34.6074 257.15V256.742Z" fill="#F0F6FA"/>
<path d="M52.2148 226.984L51.5033 226.564V227.392L52.2148 226.984Z" fill="#F0F6FA"/>
<path d="M60.6641 211.459L59.7379 211.992L60.6641 212.536V211.459Z" fill="#F0F6FA"/>
<path d="M26.0234 241.966L25.7975 241.83V242.09L26.0234 241.966Z" fill="#F0F6FA"/>
<path d="M34.6074 226.779L34.2573 226.983L34.6074 227.176V226.779Z" fill="#F0F6FA"/>
<path d="M52.2148 197.01L51.5033 196.602V197.429L52.2148 197.01Z" fill="#F0F6FA"/>
<path d="M60.6406 181.541L59.7935 182.028L60.6406 182.516V181.541Z" fill="#F0F6FA"/>
<path d="M25.9434 211.992L25.8304 211.936V212.06L25.9434 211.992Z" fill="#F0F6FA"/>
<path d="M34.5723 196.885L34.3351 197.009L34.5723 197.144V196.885Z" fill="#F0F6FA"/>
<path d="M52.0469 167.047L51.5838 166.775V167.319L52.0469 167.047Z" fill="#F0F6FA"/>
<path d="M60.5176 151.795L60.0432 152.067L60.5176 152.339V151.795Z" fill="#F0F6FA"/>
<path d="M34.5156 167.002L34.4372 167.047L34.5156 167.092V167.002Z" fill="#F0F6FA"/>
<path d="M248.516 451.68L248.448 451.725L248.516 451.769V451.68Z" fill="#F0F6FA"/>
<path d="M266 451.725L265.605 451.498V451.951L266 451.725Z" fill="#F0F6FA"/>
<path d="M240.293 436.743L239.672 436.381V437.095L240.293 436.743Z" fill="#F0F6FA"/>
<path d="M274.867 435.871L273.365 436.744L274.867 437.616V435.871Z" fill="#F0F6FA"/>
<path d="M291.719 466.705L291.549 466.604V466.807L291.719 466.705Z" fill="#F0F6FA"/>
<path d="M249.092 420.719L247.307 421.761L249.092 422.793V420.719Z" fill="#F0F6FA"/>
<path d="M267.299 421.762L264.961 420.402V423.122L267.299 421.762Z" fill="#F0F6FA"/>
<path d="M292.926 436.744L290.938 435.588V437.888L292.926 436.744Z" fill="#F0F6FA"/>
<path d="M300.664 450.965L299.365 451.724L300.664 452.472V450.965Z" fill="#F0F6FA"/>
<path d="M223.238 405.715L221.409 406.769L223.238 407.834V405.715Z" fill="#F0F6FA"/>
<path d="M241.637 406.77L238.994 405.24V408.311L241.637 406.77Z" fill="#F0F6FA"/>
<path d="M275.715 404.424L271.66 406.77L275.715 409.127V404.424Z" fill="#F0F6FA"/>
<path d="M294.791 406.769L290.013 404.004V409.545L294.791 406.769Z" fill="#F0F6FA"/>
<path d="M301.443 419.654L297.806 421.762L301.443 423.859V419.654Z" fill="#F0F6FA"/>
<path d="M318.916 451.725L316.747 450.467V452.983L318.916 451.725Z" fill="#F0F6FA"/>
<path d="M326.629 465.775L325.014 466.705L326.629 467.634V465.775Z" fill="#F0F6FA"/>
<path d="M317.641 481.687L317.392 481.551V481.834L317.641 481.687Z" fill="#F0F6FA"/>
<path d="M214.373 421.763L213.831 421.445V422.069L214.373 421.763Z" fill="#F0F6FA"/>
<path d="M215.57 391.788L213.232 390.428V393.147L215.57 391.788Z" fill="#F0F6FA"/>
<path d="M249.961 389.238L245.556 391.788L249.961 394.349V389.238Z" fill="#F0F6FA"/>
<path d="M269.299 391.787L263.968 388.705V394.881L269.299 391.787Z" fill="#F0F6FA"/>
<path d="M302.527 387.799L295.626 391.788L302.527 395.788V387.799Z" fill="#F0F6FA"/>
<path d="M320.43 421.761L315.991 419.178V424.334L320.43 421.761Z" fill="#F0F6FA"/>
<path d="M327.309 434.623L323.66 436.742L327.309 438.85V434.623Z" fill="#F0F6FA"/>
<path d="M345.141 466.706L342.43 465.131V468.281L345.141 466.706Z" fill="#F0F6FA"/>
<path d="M196.775 421.75L196.765 421.761H196.775V421.75Z" fill="#F0F6FA"/>
<path d="M223.928 374.553L220.042 376.808L223.928 379.063V374.553Z" fill="#F0F6FA"/>
<path d="M243.309 376.807L238.158 373.826V379.798L243.309 376.807Z" fill="#F0F6FA"/>
<path d="M276.754 372.648L269.571 376.807L276.754 380.978V372.648Z" fill="#F0F6FA"/>
<path d="M296.891 376.806L288.962 372.217V381.407L296.891 376.806Z" fill="#F0F6FA"/>
<path d="M322.654 391.788L314.884 387.289V396.298L322.654 391.788Z" fill="#F0F6FA"/>
<path d="M328.279 402.973L321.717 406.769L328.279 410.577V402.973Z" fill="#F0F6FA"/>
<path d="M346.576 436.744L341.708 433.922V439.565L346.576 436.744Z" fill="#F0F6FA"/>
<path d="M353.477 449.072L348.902 451.724L353.477 454.376V449.072Z" fill="#F0F6FA"/>
<path d="M352.766 480.293L350.349 481.687L352.766 483.081V480.293Z" fill="#F0F6FA"/>
<path d="M343.865 496.668L343.075 496.215V497.133L343.865 496.668Z" fill="#F0F6FA"/>
<path d="M197.238 390.973L195.815 391.789L197.238 392.604V390.973Z" fill="#F0F6FA"/>
<path d="M197.791 360.047L194.719 361.826L197.791 363.605V360.047Z" fill="#F0F6FA"/>
<path d="M216.777 361.826L212.621 359.412V364.24L216.777 361.826Z" fill="#F0F6FA"/>
<path d="M250.775 357.871L243.942 361.826L250.775 365.781V357.871Z" fill="#F0F6FA"/>
<path d="M271.027 361.826L263.099 357.236V366.415L271.027 361.826Z" fill="#F0F6FA"/>
<path d="M303.408 356.295L293.864 361.825L303.408 367.355V356.295Z" fill="#F0F6FA"/>
<path d="M324.27 361.826L314.07 355.91V367.741L324.27 361.826Z" fill="#F0F6FA"/>
<path d="M329.25 371.322L319.774 376.807L329.25 382.303V371.322Z" fill="#F0F6FA"/>
<path d="M348.451 406.768L340.771 402.326V411.222L348.451 406.768Z" fill="#F0F6FA"/>
<path d="M354.268 417.75L347.344 421.762L354.268 425.773V417.75Z" fill="#F0F6FA"/>
<path d="M373.457 451.725L367.064 448.02V455.431L373.457 451.725Z" fill="#F0F6FA"/>
<path d="M379.906 463.078L373.649 466.704L379.906 470.331V463.078Z" fill="#F0F6FA"/>
<path d="M371.967 481.686L367.822 479.283V484.088L371.967 481.686Z" fill="#F0F6FA"/>
<path d="M352.156 511.309L351.569 511.66L352.156 512V511.309Z" fill="#F0F6FA"/>
<path d="M189.344 376.806L187.548 375.764V377.849L189.344 376.806Z" fill="#F0F6FA"/>
<path d="M190.314 346.844L187.062 344.963V348.725L190.314 346.844Z" fill="#F0F6FA"/>
<path d="M224.57 343.479L218.754 346.844L224.57 350.21V343.479Z" fill="#F0F6FA"/>
<path d="M244.654 346.844L237.482 342.686V350.992L244.654 346.844Z" fill="#F0F6FA"/>
<path d="M277.477 341.428L268.136 346.845L277.477 352.25V341.428Z" fill="#F0F6FA"/>
<path d="M298.359 346.845L288.228 340.975V352.715L298.359 346.845Z" fill="#F0F6FA"/>
<path d="M329.805 340.385L318.657 346.844L329.805 353.303V340.385Z" fill="#F0F6FA"/>
<path d="M350.201 376.806L339.9 370.846V382.767L350.201 376.806Z" fill="#F0F6FA"/>
<path d="M355.205 386.145L345.458 391.788L355.205 397.443V386.145Z" fill="#F0F6FA"/>
<path d="M374.961 421.763L366.321 416.754V426.76L374.961 421.763Z" fill="#F0F6FA"/>
<path d="M380.619 431.893L372.239 436.743L380.619 441.593V431.893Z" fill="#F0F6FA"/>
<path d="M400.758 466.704L392.219 461.764V471.645L400.758 466.704Z" fill="#F0F6FA"/>
<path d="M379.127 494.4L375.208 496.667L379.127 498.945V494.4Z" fill="#F0F6FA"/>
<path d="M370.521 511.66L368.545 510.516V512.805L370.521 511.66Z" fill="#F0F6FA"/>
<path d="M171.193 376.297L170.312 376.807L171.193 377.317V376.297Z" fill="#F0F6FA"/>
<path d="M198.277 329.234L193.748 331.863L198.277 334.481V329.234Z" fill="#F0F6FA"/>
<path d="M217.863 331.864L212.08 328.51V335.207L217.863 331.864Z" fill="#F0F6FA"/>
<path d="M251.328 326.945L242.846 331.863L251.328 336.77V326.945Z" fill="#F0F6FA"/>
<path d="M272.121 331.863L262.555 326.311V337.405L272.121 331.863Z" fill="#F0F6FA"/>
<path d="M303.883 325.506L292.916 331.863L303.883 338.221V325.506Z" fill="#F0F6FA"/>
<path d="M325.037 331.863L313.686 325.279V338.436L325.037 331.863Z" fill="#F0F6FA"/>
<path d="M351.15 346.845L339.427 340.057V353.633L351.15 346.845Z" fill="#F0F6FA"/>
<path d="M355.793 355.162L344.284 361.825L355.793 368.489V355.162Z" fill="#F0F6FA"/>
<path d="M376.529 391.789L365.54 385.42V398.157L376.529 391.789Z" fill="#F0F6FA"/>
<path d="M381.398 400.559L370.669 406.769L381.398 412.99V400.559Z" fill="#F0F6FA"/>
<path d="M402.113 436.742L391.542 430.623V442.862L402.113 436.742Z" fill="#F0F6FA"/>
<path d="M407.297 445.436L396.454 451.725L407.297 458.014V445.436Z" fill="#F0F6FA"/>
<path d="M406.562 476.701L397.945 481.687L406.562 486.685V476.701Z" fill="#F0F6FA"/>
<path d="M399.062 496.667L393.065 493.199V500.146L399.062 496.667Z" fill="#F0F6FA"/>
<path d="M378.404 525.633L376.665 526.641L378.404 527.639V525.633Z" fill="#F0F6FA"/>
<path d="M369.438 541.622L369.087 541.418V541.826L369.438 541.622Z" fill="#F0F6FA"/>
<path d="M163.016 361.826L161.909 361.191V362.461L163.016 361.826Z" fill="#F0F6FA"/>
<path d="M171.645 345.541L169.397 346.844L171.645 348.147V345.541Z" fill="#F0F6FA"/>
<path d="M172.051 314.889L168.606 316.883L172.051 318.866V314.889Z" fill="#F0F6FA"/>
<path d="M191.207 316.881L186.61 314.207V319.545L191.207 316.881Z" fill="#F0F6FA"/>
<path d="M225 312.77L217.896 316.883L225 320.985V312.77Z" fill="#F0F6FA"/>
<path d="M245.5 316.882L237.063 311.986V321.766L245.5 316.882Z" fill="#F0F6FA"/>
<path d="M277.803 310.898L267.479 316.882L277.803 322.854V310.898Z" fill="#F0F6FA"/>
<path d="M298.936 316.882L287.935 310.502V323.251L298.936 316.882Z" fill="#F0F6FA"/>
<path d="M329.984 310.105L318.306 316.882L329.984 323.647V310.105Z" fill="#F0F6FA"/>
<path d="M351.264 316.882L339.37 309.992V323.761L351.264 316.882Z" fill="#F0F6FA"/>
<path d="M355.984 324.85L343.888 331.864L355.984 338.868V324.85Z" fill="#F0F6FA"/>
<path d="M377.332 361.826L365.134 354.766V368.886L377.332 361.826Z" fill="#F0F6FA"/>
<path d="M381.895 369.725L369.674 376.807L381.895 383.89V369.725Z" fill="#F0F6FA"/>
<path d="M403.445 406.769L390.874 399.494V414.056L403.445 406.769Z" fill="#F0F6FA"/>
<path d="M407.939 414.352L395.165 421.763L407.939 429.163V414.352Z" fill="#F0F6FA"/>
<path d="M429.648 451.724L416.569 444.143V459.305L429.648 451.724Z" fill="#F0F6FA"/>
<path d="M433.975 459.021L420.703 466.705L433.975 474.388V459.021Z" fill="#F0F6FA"/>
<path d="M428.215 481.687L417.293 475.363V488.021L428.215 481.687Z" fill="#F0F6FA"/>
<path d="M405.602 508.328L399.864 511.66L405.602 514.98V508.328Z" fill="#F0F6FA"/>
<path d="M397.357 526.641L393.924 524.646V528.624L397.357 526.641Z" fill="#F0F6FA"/>
<path d="M377.896 556.467L377.671 556.603L377.896 556.739V556.467Z" fill="#F0F6FA"/>
<path d="M145.182 361.576L144.752 361.825L145.182 362.063V361.576Z" fill="#F0F6FA"/>
<path d="M163.816 331.864L161.501 330.516V333.201L163.816 331.864Z" fill="#F0F6FA"/>
<path d="M164.609 301.89L161.119 299.873V303.919L164.609 301.89Z" fill="#F0F6FA"/>
<path d="M198.695 298.535L192.901 301.889L198.695 305.255V298.535Z" fill="#F0F6FA"/>
<path d="M218.631 301.891L211.696 297.879V305.913L218.631 301.891Z" fill="#F0F6FA"/>
<path d="M251.6 296.496L242.282 301.89L251.6 307.296V296.496Z" fill="#F0F6FA"/>
<path d="M272.586 301.889L262.319 295.939V307.85L272.586 301.889Z" fill="#F0F6FA"/>
<path d="M304.008 295.328L292.668 301.889L304.008 308.451V295.328Z" fill="#F0F6FA"/>
<path d="M325.162 301.889L313.63 295.215V308.575L325.162 301.889Z" fill="#F0F6FA"/>
<path d="M355.871 295.09L344.125 301.889L355.871 308.7V295.09Z" fill="#F0F6FA"/>
<path d="M377.445 331.863L365.078 324.701V339.025L377.445 331.863Z" fill="#F0F6FA"/>
<path d="M382.041 339.514L369.38 346.846L382.041 354.178V339.514Z" fill="#F0F6FA"/>
<path d="M403.977 376.806L390.615 369.066V384.558L403.977 376.806Z" fill="#F0F6FA"/>
<path d="M408.324 383.742L394.421 391.788L408.324 399.845V383.742Z" fill="#F0F6FA"/>
<path d="M430.711 421.762L416.039 413.252V430.262L430.711 421.762Z" fill="#F0F6FA"/>
<path d="M434.527 428.096L419.607 436.742L434.527 445.389V428.096Z" fill="#F0F6FA"/>
<path d="M457.061 466.706L441.666 457.787V475.624L457.061 466.706Z" fill="#F0F6FA"/>
<path d="M433.07 490.561L422.521 496.669L433.07 502.777V490.561Z" fill="#F0F6FA"/>
<path d="M426.17 511.661L418.309 507.105V516.205L426.17 511.661Z" fill="#F0F6FA"/>
<path d="M404.699 539.855L401.661 541.623L404.699 543.391V539.855Z" fill="#F0F6FA"/>
<path d="M395.969 556.604L394.613 555.822V557.386L395.969 556.604Z" fill="#F0F6FA"/>
<path d="M136.879 346.845L136.179 346.438V347.253L136.879 346.845Z" fill="#F0F6FA"/>
<path d="M145.543 330.969L144.018 331.864L145.543 332.748V330.969Z" fill="#F0F6FA"/>
<path d="M172.447 284.211L167.794 286.908L172.447 289.605V284.211Z" fill="#F0F6FA"/>
<path d="M192.02 286.909L186.203 283.543V290.274L192.02 286.909Z" fill="#F0F6FA"/>
<path d="M225.305 282.262L217.285 286.908L225.305 291.554V282.262Z" fill="#F0F6FA"/>
<path d="M245.975 286.909L236.826 281.617V292.213L245.975 286.909Z" fill="#F0F6FA"/>
<path d="M277.848 280.846L267.378 286.908L277.848 292.982V280.846Z" fill="#F0F6FA"/>
<path d="M298.891 286.909L287.969 280.586V293.244L298.891 286.909Z" fill="#F0F6FA"/>
<path d="M329.758 280.551L318.768 286.908L329.758 293.266V280.551Z" fill="#F0F6FA"/>
<path d="M350.598 286.908L339.71 280.596V293.22L350.598 286.908Z" fill="#F0F6FA"/>
<path d="M376.926 301.89L365.337 295.182V308.61L376.926 301.89Z" fill="#F0F6FA"/>
<path d="M381.871 309.846L369.729 316.883L381.871 323.909V309.846Z" fill="#F0F6FA"/>
<path d="M403.84 346.845L390.682 339.219V354.472L403.84 346.845Z" fill="#F0F6FA"/>
<path d="M408.268 353.859L394.522 361.826L408.268 369.792V353.859Z" fill="#F0F6FA"/>
<path d="M431.184 391.788L415.8 382.881V400.706L431.184 391.788Z" fill="#F0F6FA"/>
<path d="M434.889 397.5L418.873 406.77L434.889 416.051V397.5Z" fill="#F0F6FA"/>
<path d="M457.93 436.742L441.236 427.064V446.409L457.93 436.742Z" fill="#F0F6FA"/>
<path d="M461.137 441.775L443.969 451.725L461.137 461.675V441.775Z" fill="#F0F6FA"/>
<path d="M460.516 472.824L445.211 481.686L460.516 490.559V472.824Z" fill="#F0F6FA"/>
<path d="M455.275 496.667L442.558 489.312V504.033L455.275 496.667Z" fill="#F0F6FA"/>
<path d="M431.941 522.494L424.781 526.642L431.941 530.789V522.494Z" fill="#F0F6FA"/>
<path d="M424.023 541.623L419.381 538.926V544.309L424.023 541.623Z" fill="#F0F6FA"/>
<path d="M404.088 570.883L402.879 571.585L404.088 572.288V570.883Z" fill="#F0F6FA"/>
<path d="M119.25 346.709L119.013 346.845L119.25 346.981V346.709Z" fill="#F0F6FA"/>
<path d="M137.559 316.882L135.842 315.885V317.868L137.559 316.882Z" fill="#F0F6FA"/>
<path d="M145.916 300.371L143.284 301.89L145.916 303.419V300.371Z" fill="#F0F6FA"/>
<path d="M146.254 269.82L142.606 271.928L146.254 274.036V269.82Z" fill="#F0F6FA"/>
<path d="M165.332 271.927L160.758 269.275V274.579L165.332 271.927Z" fill="#F0F6FA"/>
<path d="M198.979 268.086L192.337 271.928L198.979 275.769V268.086Z" fill="#F0F6FA"/>
<path d="M219.059 271.927L211.48 267.541V276.323L219.059 271.927Z" fill="#F0F6FA"/>
<path d="M251.588 266.557L242.304 271.928L251.588 277.311V266.557Z" fill="#F0F6FA"/>
<path d="M272.27 271.928L262.477 266.262V277.594L272.27 271.928Z" fill="#F0F6FA"/>
<path d="M303.6 266.057L293.468 271.927L303.6 277.797V266.057Z" fill="#F0F6FA"/>
<path d="M324.145 271.927L314.126 266.125V277.729L324.145 271.927Z" fill="#F0F6FA"/>
<path d="M355.184 266.33L345.515 271.928L355.184 277.526V266.33Z" fill="#F0F6FA"/>
<path d="M375.412 271.927L366.094 266.533V277.321L375.412 271.927Z" fill="#F0F6FA"/>
<path d="M381.318 280.834L370.837 286.908L381.318 292.982V280.834Z" fill="#F0F6FA"/>
<path d="M403.264 316.882L390.964 309.754V323.998L403.264 316.882Z" fill="#F0F6FA"/>
<path d="M407.996 324.373L395.075 331.864L407.996 339.343V324.373Z" fill="#F0F6FA"/>
<path d="M430.643 361.825L416.072 353.383V370.268L430.643 361.825Z" fill="#F0F6FA"/>
<path d="M434.742 367.787L419.167 376.808L434.742 385.839V367.787Z" fill="#F0F6FA"/>
<path d="M458.395 406.77L441.001 396.695V416.855L458.395 406.77Z" fill="#F0F6FA"/>
<path d="M461.443 411.279L443.361 421.762L461.443 432.233V411.279Z" fill="#F0F6FA"/>
<path d="M485.07 451.724L466.457 440.936V462.512L485.07 451.724Z" fill="#F0F6FA"/>
<path d="M487.545 455.838L468.773 466.705L487.545 477.584V455.838Z" fill="#F0F6FA"/>
<path d="M484.145 481.687L466.92 471.703V491.67L484.145 481.687Z" fill="#F0F6FA"/>
<path d="M459.467 504.623L447.325 511.66L459.467 518.686V504.623Z" fill="#F0F6FA"/>
<path d="M452.893 526.641L443.744 521.338V531.945L452.893 526.641Z" fill="#F0F6FA"/>
<path d="M430.926 554.213L426.803 556.604L430.926 558.995V554.213Z" fill="#F0F6FA"/>
<path d="M422.521 571.586L420.138 570.203V572.968L422.521 571.586Z" fill="#F0F6FA"/>
<path d="M110.857 331.864L110.394 331.592V332.136L110.857 331.864Z" fill="#F0F6FA"/>
<path d="M119.531 316.248L118.447 316.883L119.531 317.506V316.248Z" fill="#F0F6FA"/>
<path d="M138.314 286.909L135.468 285.266V288.563L138.314 286.909Z" fill="#F0F6FA"/>
<path d="M138.789 256.947L135.22 254.885V259.01L138.789 256.947Z" fill="#F0F6FA"/>
<path d="M172.65 253.91L167.41 256.947L172.65 259.984V253.91Z" fill="#F0F6FA"/>
<path d="M192.234 256.947L186.101 253.389V260.505L192.234 256.947Z" fill="#F0F6FA"/>
<path d="M225.193 252.504L217.513 256.946L225.193 261.388V252.504Z" fill="#F0F6FA"/>
<path d="M245.41 256.945L237.109 252.141V261.75L245.41 256.945Z" fill="#F0F6FA"/>
<path d="M277.295 251.857L268.508 256.946L277.295 262.034V251.857Z" fill="#F0F6FA"/>
<path d="M297.568 256.946L288.623 251.768V262.125L297.568 256.946Z" fill="#F0F6FA"/>
<path d="M328.922 252.027L320.428 256.946L328.922 261.875V252.027Z" fill="#F0F6FA"/>
<path d="M348.902 256.946L340.544 252.107V261.785L348.902 256.946Z" fill="#F0F6FA"/>
<path d="M380.381 252.504L372.712 256.946L380.381 261.388V252.504Z" fill="#F0F6FA"/>
<path d="M401.887 286.909L391.654 280.982V292.836L401.887 286.909Z" fill="#F0F6FA"/>
<path d="M407.521 295.227L396.012 301.89L407.521 308.565V295.227Z" fill="#F0F6FA"/>
<path d="M429.727 331.864L416.534 324.227V339.502L429.727 331.864Z" fill="#F0F6FA"/>
<path d="M434.268 338.652L420.127 346.846L434.268 355.039V338.652Z" fill="#F0F6FA"/>
<path d="M457.762 376.808L441.317 367.277V386.338L457.762 376.808Z" fill="#F0F6FA"/>
<path d="M461.285 381.6L443.699 391.787L461.285 401.975V381.6Z" fill="#F0F6FA"/>
<path d="M485.479 421.763L466.255 410.623V432.891L485.479 421.763Z" fill="#F0F6FA"/>
<path d="M487.76 425.479L468.333 436.743L487.76 447.996V425.479Z" fill="#F0F6FA"/>
<path d="M511.602 466.706L491.983 455.34V478.072L511.602 466.706Z" fill="#F0F6FA"/>
<path d="M486.789 487.115L470.276 496.668L486.789 506.233V487.115Z" fill="#F0F6FA"/>
<path d="M482.021 511.66L467.982 503.523V519.785L482.021 511.66Z" fill="#F0F6FA"/>
<path d="M458.18 536.828L449.901 541.622L458.18 546.415V536.828Z" fill="#F0F6FA"/>
<path d="M450.623 556.604L444.885 553.283V559.924L450.623 556.604Z" fill="#F0F6FA"/>
<path d="M430.168 585.49L428.316 586.567L430.168 587.655V585.49Z" fill="#F0F6FA"/>
<path d="M421.246 601.559L420.772 601.275V601.831L421.246 601.559Z" fill="#F0F6FA"/>
<path d="M93.3848 331.727L93.1476 331.862L93.3848 331.986V331.727Z" fill="#F0F6FA"/>
<path d="M111.41 301.891L110.123 301.143V302.65L111.41 301.891Z" fill="#F0F6FA"/>
<path d="M119.859 285.719L117.792 286.909L119.859 288.11V285.719Z" fill="#F0F6FA"/>
<path d="M146.391 239.619L142.336 241.965L146.391 244.311V239.619Z" fill="#F0F6FA"/>
<path d="M165.422 241.965L160.712 239.234V244.696L165.422 241.965Z" fill="#F0F6FA"/>
<path d="M198.809 238.406L192.676 241.965L198.809 245.523V238.406Z" fill="#F0F6FA"/>
<path d="M218.461 241.965L211.786 238.09V245.83L218.461 241.965Z" fill="#F0F6FA"/>
<path d="M251 237.602L243.489 241.964L251 246.316V237.602Z" fill="#F0F6FA"/>
<path d="M270.834 241.966L263.187 237.535V246.386L270.834 241.966Z" fill="#F0F6FA"/>
<path d="M302.73 237.602L295.208 241.964L302.73 246.327V237.602Z" fill="#F0F6FA"/>
<path d="M322.316 241.966L315.054 237.75V246.17L322.316 241.966Z" fill="#F0F6FA"/>
<path d="M354.211 238.045L347.445 241.966L354.211 245.887V238.045Z" fill="#F0F6FA"/>
<path d="M373.457 241.965L367.076 238.26V245.66L373.457 241.965Z" fill="#F0F6FA"/>
<path d="M400.068 256.947L392.569 252.596V261.299L400.068 256.947Z" fill="#F0F6FA"/>
<path d="M406.641 266.805L397.786 271.927L406.641 277.049V266.805Z" fill="#F0F6FA"/>
<path d="M428.553 301.889L417.111 295.271V308.519L428.553 301.889Z" fill="#F0F6FA"/>
<path d="M433.715 309.652L421.234 316.882L433.715 324.101V309.652Z" fill="#F0F6FA"/>
<path d="M456.484 346.846L441.948 338.426V355.265L456.484 346.846Z" fill="#F0F6FA"/>
<path d="M460.664 352.703L444.919 361.826L460.664 370.948V352.703Z" fill="#F0F6FA"/>
<path d="M484.789 391.787L466.593 381.26V402.326L484.789 391.787Z" fill="#F0F6FA"/>
<path d="M487.691 395.641L468.468 406.769L487.691 417.908V395.641Z" fill="#F0F6FA"/>
<path d="M511.873 436.743L491.859 425.15V448.336L511.873 436.743Z" fill="#F0F6FA"/>
<path d="M513.873 440.041L493.712 451.725L513.873 463.408V440.041Z" fill="#F0F6FA"/>
<path d="M513.488 470.672L494.468 481.687L513.488 492.702V470.672Z" fill="#F0F6FA"/>
<path d="M510.18 496.668L492.696 486.549V506.799L510.18 496.668Z" fill="#F0F6FA"/>
<path d="M485.523 519.264L472.794 526.641L485.523 534.007V519.264Z" fill="#F0F6FA"/>
<path d="M479.322 541.623L469.326 535.832V547.414L479.322 541.623Z" fill="#F0F6FA"/>
<path d="M457.162 568.547L451.921 571.584L457.162 574.621V568.547Z" fill="#F0F6FA"/>
<path d="M448.861 586.566L445.767 584.775V588.356L448.861 586.566Z" fill="#F0F6FA"/>
<path d="M429.559 616.527L429.548 616.538H429.559V616.527Z" fill="#F0F6FA"/>
<path d="M84.959 316.882L84.5411 316.633V317.12L84.959 316.882Z" fill="#F0F6FA"/>
<path d="M93.5879 301.414L92.7408 301.89L93.5879 302.377V301.414Z" fill="#F0F6FA"/>
<path d="M111.953 271.927L109.852 270.703V273.151L111.953 271.927Z" fill="#F0F6FA"/>
<path d="M120.096 255.338L117.317 256.947L120.096 258.556V255.338Z" fill="#F0F6FA"/>
<path d="M120.164 225.25L117.171 226.984L120.164 228.718V225.25Z" fill="#F0F6FA"/>
<path d="M138.789 226.984L135.22 224.91V229.046L138.789 226.984Z" fill="#F0F6FA"/>
<path d="M172.469 224.252L167.759 226.983L172.469 229.714V224.252Z" fill="#F0F6FA"/>
<path d="M191.648 226.984L186.396 223.936V230.021L191.648 226.984Z" fill="#F0F6FA"/>
<path d="M224.65 223.482L218.596 226.984L224.65 230.486V223.482Z" fill="#F0F6FA"/>
<path d="M244.055 226.983L237.786 223.346V230.61L244.055 226.983Z" fill="#F0F6FA"/>
<path d="M276.471 223.324L270.146 226.985L276.471 230.633V223.324Z" fill="#F0F6FA"/>
<path d="M295.727 226.985L289.537 223.393V230.566L295.727 226.985Z" fill="#F0F6FA"/>
<path d="M328.02 223.629L322.237 226.983L328.02 230.326V223.629Z" fill="#F0F6FA"/>
<path d="M347.006 226.985L341.494 223.789V230.169L347.006 226.985Z" fill="#F0F6FA"/>
<path d="M379.5 224.061L374.463 226.984L379.5 229.897V224.061Z" fill="#F0F6FA"/>
<path d="M398.43 226.984L393.381 224.061V229.908L398.43 226.984Z" fill="#F0F6FA"/>
<path d="M405.76 238.361L399.536 241.965L405.76 245.569V238.361Z" fill="#F0F6FA"/>
<path d="M426.746 271.927L418.027 266.873V276.981L426.746 271.927Z" fill="#F0F6FA"/>
<path d="M432.891 281.107L422.872 286.91L432.891 292.723V281.107Z" fill="#F0F6FA"/>
<path d="M455.186 316.882L442.603 309.584V324.169L455.186 316.882Z" fill="#F0F6FA"/>
<path d="M459.941 324.01L446.388 331.863L459.941 339.705V324.01Z" fill="#F0F6FA"/>
<path d="M483.309 361.827L467.338 352.568V371.085L483.309 361.827Z" fill="#F0F6FA"/>
<path d="M487.025 366.834L469.801 376.806L487.025 386.779V366.834Z" fill="#F0F6FA"/>
<path d="M511.479 406.769L492.052 395.516V418.033L511.479 406.769Z" fill="#F0F6FA"/>
<path d="M513.84 410.135L493.769 421.762L513.84 433.377V410.135Z" fill="#F0F6FA"/>
<path d="M537.84 451.725L517.668 440.041V463.408L537.84 451.725Z" fill="#F0F6FA"/>
<path d="M539.602 455.26L519.836 466.705L539.602 478.162V455.26Z" fill="#F0F6FA"/>
<path d="M537.184 481.686L517.994 470.58V492.803L537.184 481.686Z" fill="#F0F6FA"/>
<path d="M512.484 502.391L496.491 511.66L512.484 520.919V502.391Z" fill="#F0F6FA"/>
<path d="M507.615 526.641L493.983 518.742V534.528L507.615 526.641Z" fill="#F0F6FA"/>
<path d="M484.18 551.572L475.483 556.604L484.18 561.635V551.572Z" fill="#F0F6FA"/>
<path d="M477.062 571.584L470.455 567.754V575.414L477.062 571.584Z" fill="#F0F6FA"/>
<path d="M456.168 600.244L453.909 601.559L456.168 602.862V600.244Z" fill="#F0F6FA"/>
<path d="M447.268 616.54L446.556 616.121V616.948L447.268 616.54Z" fill="#F0F6FA"/>
<path d="M67.5195 316.746L67.2823 316.882L67.5195 317.006V316.746Z" fill="#F0F6FA"/>
<path d="M85.375 286.909L84.3359 286.309V287.51L85.375 286.909Z" fill="#F0F6FA"/>
<path d="M93.8242 271.031L92.2769 271.927L93.8242 272.822V271.031Z" fill="#F0F6FA"/>
<path d="M112.281 241.964L109.683 240.457V243.46L112.281 241.964Z" fill="#F0F6FA"/>
<path d="M112.314 211.991L109.66 210.461V213.532L112.314 211.991Z" fill="#F0F6FA"/>
<path d="M146.221 209.93L142.663 211.992L146.221 214.066V209.93Z" fill="#F0F6FA"/>
<path d="M164.914 211.991L160.961 209.713V214.291L164.914 211.991Z" fill="#F0F6FA"/>
<path d="M198.346 209.25L193.602 211.992L198.346 214.746V209.25Z" fill="#F0F6FA"/>
<path d="M217.354 211.991L212.339 209.09V214.892L217.354 211.991Z" fill="#F0F6FA"/>
<path d="M250.266 208.92L244.957 211.991L250.266 215.073V208.92Z" fill="#F0F6FA"/>
<path d="M269.207 211.991L264 208.977V215.017L269.207 211.991Z" fill="#F0F6FA"/>
<path d="M301.895 209.09L296.88 211.991L301.895 214.903V209.09Z" fill="#F0F6FA"/>
<path d="M320.654 211.992L315.877 209.227V214.768L320.654 211.992Z" fill="#F0F6FA"/>
<path d="M353.41 209.477L349.05 211.992L353.41 214.519V209.477Z" fill="#F0F6FA"/>
<path d="M371.922 211.992L367.844 209.635V214.36L371.922 211.992Z" fill="#F0F6FA"/>
<path d="M405.082 209.566L400.892 211.992L405.082 214.428V209.566Z" fill="#F0F6FA"/>
<path d="M425.062 241.965L418.862 238.373V245.558L425.062 241.965Z" fill="#F0F6FA"/>
<path d="M432.031 252.629L424.588 256.946L432.031 261.253V252.629Z" fill="#F0F6FA"/>
<path d="M453.412 286.909L443.484 281.164V292.655L453.412 286.909Z" fill="#F0F6FA"/>
<path d="M459.195 295.34L447.867 301.89L459.195 308.451V295.34Z" fill="#F0F6FA"/>
<path d="M481.57 331.863L468.209 324.111V339.602L481.57 331.863Z" fill="#F0F6FA"/>
<path d="M486.076 338.516L471.698 346.845L486.076 355.174V338.516Z" fill="#F0F6FA"/>
<path d="M509.896 376.808L492.842 366.938V386.69L509.896 376.808Z" fill="#F0F6FA"/>
<path d="M513.24 381.193L494.954 391.789L513.24 402.385V381.193Z" fill="#F0F6FA"/>
<path d="M537.67 421.763L517.757 410.227V433.299L537.67 421.763Z" fill="#F0F6FA"/>
<path d="M539.67 425.172L519.701 436.742L539.67 448.301V425.172Z" fill="#F0F6FA"/>
<path d="M563.084 466.706L543.838 455.555V477.856L563.084 466.706Z" fill="#F0F6FA"/>
<path d="M538.902 486.436L521.238 496.669L538.902 506.901V486.436Z" fill="#F0F6FA"/>
<path d="M535.096 511.659L519.046 502.355V520.952L535.096 511.659Z" fill="#F0F6FA"/>
<path d="M510.969 534.992L499.516 541.622L510.969 548.251V534.992Z" fill="#F0F6FA"/>
<path d="M504.791 556.604L495.394 551.164V562.043L504.791 556.604Z" fill="#F0F6FA"/>
<path d="M483.061 583.484L477.729 586.567L483.061 589.66V583.484Z" fill="#F0F6FA"/>
<path d="M474.781 601.558L471.596 599.711V603.394L474.781 601.558Z" fill="#F0F6FA"/>
<path d="M455.469 631.43L455.322 631.52L455.469 631.61V631.43Z" fill="#F0F6FA"/>
<path d="M59.1055 301.89L58.6763 301.652V302.14L59.1055 301.89Z" fill="#F0F6FA"/>
<path d="M67.6777 286.5L66.9662 286.908L67.6777 287.327V286.5Z" fill="#F0F6FA"/>
<path d="M85.75 256.947L84.1462 256.018V257.876L85.75 256.947Z" fill="#F0F6FA"/>
<path d="M93.9727 240.809L91.9735 241.964L93.9727 243.12V240.809Z" fill="#F0F6FA"/>
<path d="M120.084 195.436L117.351 197.011L120.084 198.597V195.436Z" fill="#F0F6FA"/>
<path d="M138.438 197.01L135.399 195.254V198.767L138.438 197.01Z" fill="#F0F6FA"/>
<path d="M172.086 194.959L168.539 197.01L172.086 199.073V194.959Z" fill="#F0F6FA"/>
<path d="M190.688 197.011L186.87 194.801V199.232L190.688 197.011Z" fill="#F0F6FA"/>
<path d="M224.018 194.607L219.861 197.01L224.018 199.412V194.607Z" fill="#F0F6FA"/>
<path d="M242.666 197.011L238.476 194.586V199.447L242.666 197.011Z" fill="#F0F6FA"/>
<path d="M275.736 194.619L271.602 197.01L275.736 199.413V194.619Z" fill="#F0F6FA"/>
<path d="M294.27 197.011L290.271 194.699V199.334L294.27 197.011Z" fill="#F0F6FA"/>
<path d="M327.342 194.857L323.603 197.011L327.342 199.175V194.857Z" fill="#F0F6FA"/>
<path d="M345.65 197.01L342.183 195.004V199.027L345.65 197.01Z" fill="#F0F6FA"/>
<path d="M378.891 195.152L375.683 197.011L378.891 198.869V195.152Z" fill="#F0F6FA"/>
<path d="M397.244 197.01L393.98 195.117V198.913L397.244 197.01Z" fill="#F0F6FA"/>
<path d="M423.854 211.992L419.471 209.453V214.541L423.854 211.992Z" fill="#F0F6FA"/>
<path d="M431.285 223.959L426.078 226.985L431.285 229.999V223.959Z" fill="#F0F6FA"/>
<path d="M451.73 256.947L444.332 252.652V261.231L451.73 256.947Z" fill="#F0F6FA"/>
<path d="M458.246 267.021L449.764 271.928L458.246 276.835V267.021Z" fill="#F0F6FA"/>
<path d="M479.943 301.89L469.021 295.566V308.224L479.943 301.89Z" fill="#F0F6FA"/>
<path d="M485.252 309.969L473.336 316.881L485.252 323.783V309.969Z" fill="#F0F6FA"/>
<path d="M507.809 346.844L493.894 338.775V354.901L507.809 346.844Z" fill="#F0F6FA"/>
<path d="M512.246 352.965L496.953 361.827L512.246 370.688V352.965Z" fill="#F0F6FA"/>
<path d="M536.338 391.789L518.425 381.408V402.169L536.338 391.789Z" fill="#F0F6FA"/>
<path d="M539.32 395.811L520.402 406.769L539.32 417.738V395.811Z" fill="#F0F6FA"/>
<path d="M563.162 436.742L543.803 425.523V447.95L563.162 436.742Z" fill="#F0F6FA"/>
<path d="M565.297 440.574L546.051 451.725L565.297 462.876V440.574Z" fill="#F0F6FA"/>
<path d="M564.879 471.262L546.875 481.687L564.879 492.113V471.262Z" fill="#F0F6FA"/>
<path d="M561.672 496.668L544.549 486.752V506.595L561.672 496.668Z" fill="#F0F6FA"/>
<path d="M537.613 518.641L523.8 526.641L537.613 534.642V518.641Z" fill="#F0F6FA"/>
<path d="M532.113 541.622L520.525 534.902V548.331L532.113 541.622Z" fill="#F0F6FA"/>
<path d="M509.717 567.119L502.003 571.584L509.717 576.049V567.119Z" fill="#F0F6FA"/>
<path d="M502.295 586.566L496.636 583.291V589.852L502.295 586.566Z" fill="#F0F6FA"/>
<path d="M481.943 615.383L479.956 616.539L481.943 617.695V615.383Z" fill="#F0F6FA"/>
<path d="M473.145 631.521L472.422 631.102V631.929L473.145 631.521Z" fill="#F0F6FA"/>
<path d="M59.375 271.927L58.5392 271.439V272.414L59.375 271.927Z" fill="#F0F6FA"/>
<path d="M67.8359 256.266L66.6499 256.946L67.8359 257.625V256.266Z" fill="#F0F6FA"/>
<path d="M85.9297 226.984L84.0661 225.896V228.061L85.9297 226.984Z" fill="#F0F6FA"/>
<path d="M94.0176 210.768L91.8942 211.991L94.0176 213.227V210.768Z" fill="#F0F6FA"/>
<path d="M93.9258 180.953L92.0621 182.03L93.9258 183.106V180.953Z" fill="#F0F6FA"/>
<path d="M112.055 182.03L109.796 180.727V183.333L112.055 182.03Z" fill="#F0F6FA"/>
<path d="M145.916 180.5L143.284 182.03L145.916 183.56V180.5Z" fill="#F0F6FA"/>
<path d="M164.123 182.029L161.356 180.432V183.627L164.123 182.029Z" fill="#F0F6FA"/>
<path d="M197.77 180.283L194.754 182.028L197.77 183.774V180.283Z" fill="#F0F6FA"/>
<path d="M216.102 182.03L212.962 180.217V183.843L216.102 182.03Z" fill="#F0F6FA"/>
<path d="M249.543 180.217L246.403 182.03L249.543 183.843V180.217Z" fill="#F0F6FA"/>
<path d="M267.818 182.03L264.701 180.217V183.843L267.818 182.03Z" fill="#F0F6FA"/>
<path d="M301.217 180.295L298.235 182.029L301.217 183.763V180.295Z" fill="#F0F6FA"/>
<path d="M319.424 182.03L316.499 180.33V183.73L319.424 182.03Z" fill="#F0F6FA"/>
<path d="M352.822 180.521L350.224 182.029L352.822 183.536V180.521Z" fill="#F0F6FA"/>
<path d="M370.848 182.029L368.374 180.602V183.469L370.848 182.029Z" fill="#F0F6FA"/>
<path d="M404.609 180.432L401.853 182.029L404.609 183.627V180.432Z" fill="#F0F6FA"/>
<path d="M422.973 182.03L419.912 180.262V183.809L422.973 182.03Z" fill="#F0F6FA"/>
<path d="M430.846 194.777L426.983 197.01L430.846 199.254V194.777Z" fill="#F0F6FA"/>
<path d="M450.385 226.983L444.997 223.855V230.1L450.385 226.983Z" fill="#F0F6FA"/>
<path d="M457.512 238.328L451.232 241.966L457.512 245.592V238.328Z" fill="#F0F6FA"/>
<path d="M478.113 271.928L469.936 267.191V276.665L478.113 271.928Z" fill="#F0F6FA"/>
<path d="M484.336 281.605L475.176 286.909L484.336 292.212V281.605Z" fill="#F0F6FA"/>
<path d="M506.102 316.883L494.739 310.299V323.455L506.102 316.883Z" fill="#F0F6FA"/>
<path d="M511.219 324.781L498.998 331.864L511.219 338.946V324.781Z" fill="#F0F6FA"/>
<path d="M534.203 361.826L519.486 353.293V370.348L534.203 361.826Z" fill="#F0F6FA"/>
<path d="M538.383 367.48L522.277 376.807L538.383 386.133V367.48Z" fill="#F0F6FA"/>
<path d="M562.451 406.769L544.154 396.174V417.376L562.451 406.769Z" fill="#F0F6FA"/>
<path d="M565.139 410.871L546.356 421.761L565.139 432.64V410.871Z" fill="#F0F6FA"/>
<path d="M588.418 451.723L569.974 441.037V462.41L588.418 451.723Z" fill="#F0F6FA"/>
<path d="M590.643 456.449L572.933 466.705L590.643 476.972V456.449Z" fill="#F0F6FA"/>
<path d="M587.514 481.686L570.425 471.793V491.59L587.514 481.686Z" fill="#F0F6FA"/>
<path d="M563.84 503.037L548.953 511.661L563.84 520.285V503.037Z" fill="#F0F6FA"/>
<path d="M559.086 526.641L545.849 518.969V534.313L559.086 526.641Z" fill="#F0F6FA"/>
<path d="M536.156 551.141L526.725 556.603L536.156 562.065V551.141Z" fill="#F0F6FA"/>
<path d="M529.482 571.586L521.847 567.166V576.005L529.482 571.586Z" fill="#F0F6FA"/>
<path d="M508.406 599.371L504.645 601.558L508.406 603.723V599.371Z" fill="#F0F6FA"/>
<path d="M500.025 616.54L497.778 615.236V617.831L500.025 616.54Z" fill="#F0F6FA"/>
<path d="M59.5898 241.965L58.4265 241.285V242.645L59.5898 241.965Z" fill="#F0F6FA"/>
<path d="M67.9141 226.145L66.4797 226.983L67.9141 227.81V226.145Z" fill="#F0F6FA"/>
<path d="M85.9297 197.01L84.0661 195.934V198.098L85.9297 197.01Z" fill="#F0F6FA"/>
<path d="M85.6699 167.047L84.1903 166.197V167.897L85.6699 167.047Z" fill="#F0F6FA"/>
<path d="M119.791 165.971L117.927 167.047L119.791 168.124V165.971Z" fill="#F0F6FA"/>
<path d="M137.738 167.049L135.75 165.904V168.193L137.738 167.049Z" fill="#F0F6FA"/>
<path d="M171.566 165.904L169.579 167.049L171.566 168.193V165.904Z" fill="#F0F6FA"/>
<path d="M189.512 167.047L187.456 165.857V168.237L189.512 167.047Z" fill="#F0F6FA"/>
<path d="M223.328 165.836L221.239 167.048L223.328 168.261V165.836Z" fill="#F0F6FA"/>
<path d="M241.266 167.049L239.187 165.848V168.25L241.266 167.049Z" fill="#F0F6FA"/>
<path d="M275.059 165.848L272.969 167.049L275.059 168.25V165.848Z" fill="#F0F6FA"/>
<path d="M292.904 167.047L290.95 165.914V168.181L292.904 167.047Z" fill="#F0F6FA"/>
<path d="M326.742 165.914L324.788 167.047L326.742 168.181V165.914Z" fill="#F0F6FA"/>
<path d="M344.543 167.048L342.736 165.994V168.102L344.543 167.048Z" fill="#F0F6FA"/>
<path d="M378.428 165.994L376.609 167.048L378.428 168.102V165.994Z" fill="#F0F6FA"/>
<path d="M396.396 167.048L394.397 165.893V168.204L396.396 167.048Z" fill="#F0F6FA"/>
<path d="M430.461 165.473L427.739 167.048L430.461 168.623V165.473Z" fill="#F0F6FA"/>
<path d="M449.492 197.01L445.449 194.664V199.367L449.492 197.01Z" fill="#F0F6FA"/>
<path d="M457.039 209.193L452.182 211.992L457.039 214.803V209.193Z" fill="#F0F6FA"/>
<path d="M476.781 241.966L470.603 238.385V245.547L476.781 241.966Z" fill="#F0F6FA"/>
<path d="M483.592 252.936L476.668 256.947L483.592 260.959V252.936Z" fill="#F0F6FA"/>
<path d="M504.227 286.909L495.677 281.957V291.873L504.227 286.909Z" fill="#F0F6FA"/>
<path d="M510.348 296.338L500.747 301.891L510.348 307.455V296.338Z" fill="#F0F6FA"/>
<path d="M531.988 331.863L520.592 325.256V338.458L531.988 331.863Z" fill="#F0F6FA"/>
<path d="M537.184 339.58L524.658 346.844L537.184 354.097V339.58Z" fill="#F0F6FA"/>
<path d="M560.496 376.808L545.135 367.912V385.704L560.496 376.808Z" fill="#F0F6FA"/>
<path d="M564.428 382.156L547.791 391.789L564.428 401.432V382.156Z" fill="#F0F6FA"/>
<path d="M588.18 421.762L570.097 411.279V432.233L588.18 421.762Z" fill="#F0F6FA"/>
<path d="M590.777 426.25L572.672 436.744L590.777 447.226V426.25Z" fill="#F0F6FA"/>
<path d="M613.197 466.705L596.38 456.959V476.45L613.197 466.705Z" fill="#F0F6FA"/>
<path d="M589.738 487.986L574.75 496.667L589.738 505.359V487.986Z" fill="#F0F6FA"/>
<path d="M585.209 511.66L571.576 503.762V519.547L585.209 511.66Z" fill="#F0F6FA"/>
<path d="M562.371 535.561L551.901 541.623L562.371 547.686V535.561Z" fill="#F0F6FA"/>
<path d="M556.262 556.603L547.249 551.379V561.827L556.262 556.603Z" fill="#F0F6FA"/>
<path d="M534.893 583.303L529.257 586.566L534.893 589.841V583.303Z" fill="#F0F6FA"/>
<path d="M526.873 601.559L523.157 599.395V603.712L526.873 601.559Z" fill="#F0F6FA"/>
<path d="M507.469 630.955L506.509 631.522L507.469 632.077V630.955Z" fill="#F0F6FA"/>
<path d="M59.6797 211.992L58.3921 211.244V212.74L59.6797 211.992Z" fill="#F0F6FA"/>
<path d="M67.9258 196.16L66.4575 197.01L67.9258 197.871V196.16Z" fill="#F0F6FA"/>
<path d="M93.7109 151.363L92.4911 152.066L93.7109 152.768V151.363Z" fill="#F0F6FA"/>
<path d="M111.445 152.067L110.101 151.285V152.849L111.445 152.067Z" fill="#F0F6FA"/>
<path d="M145.486 151.285L144.131 152.067L145.486 152.849V151.285Z" fill="#F0F6FA"/>
<path d="M163.162 152.067L161.829 151.297V152.838L163.162 152.067Z" fill="#F0F6FA"/>
<path d="M197.172 151.363L195.963 152.066L197.172 152.768V151.363Z" fill="#F0F6FA"/>
<path d="M214.812 152.066L213.604 151.363V152.768L214.812 152.066Z" fill="#F0F6FA"/>
<path d="M248.889 151.375L247.703 152.066L248.889 152.746V151.375Z" fill="#F0F6FA"/>
<path d="M266.531 152.066L265.345 151.375V152.746L266.531 152.066Z" fill="#F0F6FA"/>
<path d="M300.664 151.307L299.354 152.066L300.664 152.814V151.307Z" fill="#F0F6FA"/>
<path d="M318.352 152.067L317.03 151.297V152.827L318.352 152.067Z" fill="#F0F6FA"/>
<path d="M352.393 151.297L351.082 152.067L352.393 152.827V151.297Z" fill="#F0F6FA"/>
<path d="M370.104 152.067L368.748 151.285V152.849L370.104 152.067Z" fill="#F0F6FA"/>
<path d="M404.314 150.979L402.44 152.066L404.314 153.143V150.979Z" fill="#F0F6FA"/>
<path d="M422.441 152.066L420.171 150.752V153.381L422.441 152.066Z" fill="#F0F6FA"/>
<path d="M448.861 167.048L445.767 165.258V168.839L448.861 167.048Z" fill="#F0F6FA"/>
<path d="M456.631 179.922L452.983 182.03L456.631 184.137V179.922Z" fill="#F0F6FA"/>
<path d="M475.957 211.992L471.01 209.137V214.859L475.957 211.992Z" fill="#F0F6FA"/>
<path d="M483.117 223.789L477.617 226.985L483.117 230.169V223.789Z" fill="#F0F6FA"/>
<path d="M502.85 256.946L496.366 253.184V260.708L502.85 256.946Z" fill="#F0F6FA"/>
<path d="M509.479 267.871L502.487 271.928L509.479 275.985V267.871Z" fill="#F0F6FA"/>
<path d="M530.172 301.889L521.498 296.869V306.909L530.172 301.889Z" fill="#F0F6FA"/>
<path d="M536.203 311.33L526.637 316.883L536.203 322.424V311.33Z" fill="#F0F6FA"/>
<path d="M557.934 346.845L546.413 340.182V353.508L557.934 346.845Z" fill="#F0F6FA"/>
<path d="M563.219 354.289L550.196 361.825L563.219 369.361V354.289Z" fill="#F0F6FA"/>
<path d="M586.689 391.788L570.843 382.609V400.979L586.689 391.788Z" fill="#F0F6FA"/>
<path d="M590.371 396.99L573.474 406.77L590.371 416.561V396.99Z" fill="#F0F6FA"/>
<path d="M613.594 436.744L596.177 426.658V446.83L613.594 436.744Z" fill="#F0F6FA"/>
<path d="M616.27 441.889L599.282 451.725L616.27 461.561V441.889Z" fill="#F0F6FA"/>
<path d="M615.592 473.018L600.638 481.687L615.592 490.356V473.018Z" fill="#F0F6FA"/>
<path d="M611.131 496.668L597.419 488.725V504.612L611.131 496.668Z" fill="#F0F6FA"/>
<path d="M588.395 520.283L577.427 526.641L588.395 532.987V520.283Z" fill="#F0F6FA"/>
<path d="M582.34 541.622L573.01 536.217V547.028L582.34 541.622Z" fill="#F0F6FA"/>
<path d="M561.096 567.732L554.432 571.585L561.096 575.45V567.732Z" fill="#F0F6FA"/>
<path d="M553.688 586.566L548.537 583.586V589.558L553.688 586.566Z" fill="#F0F6FA"/>
<path d="M533.717 615.316L531.605 616.54L533.717 617.753V615.316Z" fill="#F0F6FA"/>
<path d="M524.975 631.522L524.094 631.012V632.032L524.975 631.522Z" fill="#F0F6FA"/>
<path d="M59.6367 182.029L58.4169 181.326V182.731L59.6367 182.029Z" fill="#F0F6FA"/>
<path d="M67.8359 166.367L66.6612 167.047L67.8359 167.727V166.367Z" fill="#F0F6FA"/>
<path d="M67.6328 136.734L67.0455 137.086L67.6328 137.426V136.734Z" fill="#F0F6FA"/>
<path d="M85.1621 137.085L84.4392 136.666V137.493L85.1621 137.085Z" fill="#F0F6FA"/>
<path d="M119.475 136.553L118.56 137.085L119.475 137.607V136.553Z" fill="#F0F6FA"/>
<path d="M136.971 137.085L136.135 136.598V137.572L136.971 137.085Z" fill="#F0F6FA"/>
<path d="M171.104 136.734L170.505 137.086L171.104 137.426V136.734Z" fill="#F0F6FA"/>
<path d="M188.531 137.086L187.955 136.746V137.415L188.531 137.086Z" fill="#F0F6FA"/>
<path d="M222.82 136.758L222.256 137.086L222.82 137.415V136.758Z" fill="#F0F6FA"/>
<path d="M240.248 137.086L239.683 136.758V137.415L240.248 137.086Z" fill="#F0F6FA"/>
<path d="M274.584 136.689L273.906 137.086L274.584 137.483V136.689Z" fill="#F0F6FA"/>
<path d="M292.148 137.085L291.335 136.609V137.55L292.148 137.085Z" fill="#F0F6FA"/>
<path d="M326.416 136.52L325.445 137.086L326.416 137.653V136.52Z" fill="#F0F6FA"/>
<path d="M344.047 137.086L342.985 136.463V137.698L344.047 137.086Z" fill="#F0F6FA"/>
<path d="M378.258 136.314L376.948 137.085L378.258 137.844V136.314Z" fill="#F0F6FA"/>
<path d="M396.137 137.085L394.533 136.145V138.014L396.137 137.085Z" fill="#F0F6FA"/>
<path d="M430.314 135.748L428.01 137.085L430.314 138.411V135.748Z" fill="#F0F6FA"/>
<path d="M448.59 137.085L445.89 135.521V138.649L448.59 137.085Z" fill="#F0F6FA"/>
<path d="M456.439 150.299L453.379 152.067L456.439 153.834V150.299Z" fill="#F0F6FA"/>
<path d="M475.357 182.03L471.314 179.695V184.364L475.357 182.03Z" fill="#F0F6FA"/>
<path d="M482.789 194.381L478.26 197.01L482.789 199.639V194.381Z" fill="#F0F6FA"/>
<path d="M502.125 226.985L496.726 223.846V230.112L502.125 226.985Z" fill="#F0F6FA"/>
<path d="M508.992 238.758L503.469 241.965L508.992 245.16V238.758Z" fill="#F0F6FA"/>
<path d="M528.488 271.927L522.344 268.369V275.486L528.488 271.927Z" fill="#F0F6FA"/>
<path d="M535.275 282.977L528.487 286.909L535.275 290.852V282.977Z" fill="#F0F6FA"/>
<path d="M555.945 316.882L547.418 311.941V321.812L555.945 316.882Z" fill="#F0F6FA"/>
<path d="M561.988 326.457L552.659 331.863L561.988 337.257V326.457Z" fill="#F0F6FA"/>
<path d="M584.238 361.826L572.063 354.766V368.886L584.238 361.826Z" fill="#F0F6FA"/>
<path d="M589.32 368.852L575.575 376.807L589.32 384.773V368.852Z" fill="#F0F6FA"/>
<path d="M612.871 406.769L596.55 397.318V416.232L612.871 406.769Z" fill="#F0F6FA"/>
<path d="M616.248 411.971L599.34 421.762L616.248 431.541V411.971Z" fill="#F0F6FA"/>
<path d="M638.859 451.725L622.347 442.16V461.289L638.859 451.725Z" fill="#F0F6FA"/>
<path d="M641.672 457.674L626.074 466.706L641.672 475.737V457.674Z" fill="#F0F6FA"/>
<path d="M637.346 481.687L623.103 473.438V489.949L637.346 481.687Z" fill="#F0F6FA"/>
<path d="M614.281 505.27L603.258 511.661L614.281 518.041V505.27Z" fill="#F0F6FA"/>
<path d="M608.375 526.641L598.797 521.088V532.182L608.375 526.641Z" fill="#F0F6FA"/>
<path d="M587.062 552.58L580.116 556.603L587.062 560.626V552.58Z" fill="#F0F6FA"/>
<path d="M579.924 571.585L574.22 568.287V574.894L579.924 571.585Z" fill="#F0F6FA"/>
<path d="M559.863 599.848L556.904 601.559L559.863 603.27V599.848Z" fill="#F0F6FA"/>
<path d="M551.496 616.539L549.632 615.451V617.616L551.496 616.539Z" fill="#F0F6FA"/>
<path d="M59.3418 152.067L58.5512 151.613V152.52L59.3418 152.067Z" fill="#F0F6FA"/>
<path d="M58.8906 122.094L58.7777 122.037V122.161L58.8906 122.094Z" fill="#F0F6FA"/>
<path d="M93.4531 121.832L93.0013 122.093L93.4531 122.365V121.832Z" fill="#F0F6FA"/>
<path d="M110.857 122.092L110.394 121.82V122.364L110.857 122.092Z" fill="#F0F6FA"/>
<path d="M145.148 121.9L144.81 122.093L145.148 122.297V121.9Z" fill="#F0F6FA"/>
<path d="M162.418 122.093L162.203 121.98V122.229L162.418 122.093Z" fill="#F0F6FA"/>
<path d="M196.797 122.037L196.695 122.094L196.797 122.161V122.037Z" fill="#F0F6FA"/>
<path d="M214.078 122.094L213.976 122.037V122.161L214.078 122.094Z" fill="#F0F6FA"/>
<path d="M248.584 121.957L248.324 122.093L248.584 122.24V121.957Z" fill="#F0F6FA"/>
<path d="M265.977 122.093L265.615 121.889V122.308L265.977 122.093Z" fill="#F0F6FA"/>
<path d="M300.426 121.742L299.816 122.093L300.426 122.456V121.742Z" fill="#F0F6FA"/>
<path d="M318.012 122.094L317.199 121.629V122.569L318.012 122.094Z" fill="#F0F6FA"/>
<path d="M352.314 121.48L351.253 122.092L352.314 122.716V121.48Z" fill="#F0F6FA"/>
<path d="M370.012 122.093L368.792 121.391V122.807L370.012 122.093Z" fill="#F0F6FA"/>
<path d="M404.27 121.096L402.53 122.093L404.27 123.113V121.096Z" fill="#F0F6FA"/>
<path d="M422.352 122.093L420.217 120.857V123.339L422.352 122.093Z" fill="#F0F6FA"/>
<path d="M456.338 120.496L453.571 122.094L456.338 123.714V120.496Z" fill="#F0F6FA"/>
<path d="M474.906 152.066L471.54 150.117V154.015L474.906 152.066Z" fill="#F0F6FA"/>
<path d="M482.541 164.861L478.769 167.048L482.541 169.236V164.861Z" fill="#F0F6FA"/>
<path d="M501.641 197.01L496.965 194.312V199.718L501.641 197.01Z" fill="#F0F6FA"/>
<path d="M508.789 209.137L503.853 211.992L508.789 214.859V209.137Z" fill="#F0F6FA"/>
<path d="M527.629 241.965L522.772 239.154V244.775L527.629 241.965Z" fill="#F0F6FA"/>
<path d="M534.666 254.08L529.708 256.947L534.666 259.814V254.08Z" fill="#F0F6FA"/>
<path d="M554.094 286.908L548.345 283.576V290.239L554.094 286.908Z" fill="#F0F6FA"/>
<path d="M561.051 298.115L554.534 301.889L561.051 305.662V298.115Z" fill="#F0F6FA"/>
<path d="M581.641 331.864L573.362 327.07V336.657L581.641 331.864Z" fill="#F0F6FA"/>
<path d="M587.932 341.291L578.354 346.844L587.932 352.385V341.291Z" fill="#F0F6FA"/>
<path d="M610.746 376.807L597.61 369.203V384.422L610.746 376.807Z" fill="#F0F6FA"/>
<path d="M615.49 383.312L600.841 391.789L615.49 400.277V383.312Z" fill="#F0F6FA"/>
<path d="M638.871 421.761L622.347 412.186V431.326L638.871 421.761Z" fill="#F0F6FA"/>
<path d="M642 427.145L625.431 436.743L642 446.341V427.145Z" fill="#F0F6FA"/>
<path d="M663.99 466.705L648.584 457.775V475.635L663.99 466.705Z" fill="#F0F6FA"/>
<path d="M640.463 489.732L628.491 496.668L640.463 503.614V489.732Z" fill="#F0F6FA"/>
<path d="M634.557 511.661L624.504 505.836V517.485L634.557 511.661Z" fill="#F0F6FA"/>
<path d="M612.893 537.656L606.048 541.623L612.893 545.589V537.656Z" fill="#F0F6FA"/>
<path d="M605.789 556.604L600.085 553.307V559.902L605.789 556.604Z" fill="#F0F6FA"/>
<path d="M585.91 584.549L582.42 586.566L585.91 588.594V584.549Z" fill="#F0F6FA"/>
<path d="M577.652 601.558L575.36 600.221V602.884L577.652 601.558Z" fill="#F0F6FA"/>
<path d="M559.074 631.182L558.487 631.522L559.074 631.862V631.182Z" fill="#F0F6FA"/>
<path d="M84.6875 107.111H84.6767V107.122L84.6875 107.111Z" fill="#F0F6FA"/>
<path d="M119.203 107.055L119.101 107.111L119.203 107.179V107.055Z" fill="#F0F6FA"/>
<path d="M274.438 106.977L274.2 107.113L274.438 107.26V106.977Z" fill="#F0F6FA"/>
<path d="M291.898 107.113L291.458 106.863V107.373L291.898 107.113Z" fill="#F0F6FA"/>
<path d="M326.359 106.646L325.546 107.111L326.359 107.587V106.646Z" fill="#F0F6FA"/>
<path d="M343.99 107.112L343.008 106.557V107.679L343.99 107.112Z" fill="#F0F6FA"/>
<path d="M378.27 106.342L376.925 107.112L378.27 107.894V106.342Z" fill="#F0F6FA"/>
<path d="M396.137 107.113L394.533 106.184V108.053L396.137 107.113Z" fill="#F0F6FA"/>
<path d="M430.281 105.854L428.101 107.111L430.281 108.381V105.854Z" fill="#F0F6FA"/>
<path d="M448.42 107.112L445.98 105.707V108.529L448.42 107.112Z" fill="#F0F6FA"/>
<path d="M474.725 122.093L471.63 120.303V123.895L474.725 122.093Z" fill="#F0F6FA"/>
<path d="M482.406 135.137L479.04 137.086L482.406 139.035V135.137Z" fill="#F0F6FA"/>
<path d="M501.211 167.047L497.179 164.713V169.382L501.211 167.047Z" fill="#F0F6FA"/>
<path d="M508.598 179.502L504.238 182.029L508.598 184.556V179.502Z" fill="#F0F6FA"/>
<path d="M527.336 211.991L522.92 209.441V214.552L527.336 211.991Z" fill="#F0F6FA"/>
<path d="M534.43 224.514L530.172 226.984L534.43 229.443V224.514Z" fill="#F0F6FA"/>
<path d="M552.941 256.946L548.921 254.611V259.269L552.941 256.946Z" fill="#F0F6FA"/>
<path d="M560.26 269.537L556.126 271.928L560.26 274.319V269.537Z" fill="#F0F6FA"/>
<path d="M579.709 301.89L574.321 298.773V305.017L579.709 301.89Z" fill="#F0F6FA"/>
<path d="M586.848 313.223L580.534 316.883L586.848 320.532V313.223Z" fill="#F0F6FA"/>
<path d="M607.799 346.845L599.079 341.791V351.888L607.799 346.845Z" fill="#F0F6FA"/>
<path d="M614.168 355.65L603.495 361.826L614.168 368.002V355.65Z" fill="#F0F6FA"/>
<path d="M637.357 391.789L623.104 383.539V400.05L637.357 391.789Z" fill="#F0F6FA"/>
<path d="M641.637 397.805L626.152 406.768L641.637 415.744V397.805Z" fill="#F0F6FA"/>
<path d="M664.701 436.742L648.222 427.189V446.284L664.701 436.742Z" fill="#F0F6FA"/>
<path d="M667.785 442.262L651.453 451.724L667.785 461.187V442.262Z" fill="#F0F6FA"/>
<path d="M666.869 473.811L653.27 481.686L666.869 489.574V473.811Z" fill="#F0F6FA"/>
<path d="M661.393 496.667L649.883 490.004V503.342L661.393 496.667Z" fill="#F0F6FA"/>
<path d="M639.029 522.188L631.36 526.641L639.029 531.083V522.188Z" fill="#F0F6FA"/>
<path d="M631.834 541.622L625.859 538.166V545.079L631.834 541.622Z" fill="#F0F6FA"/>
<path d="M611.82 569.488L608.195 571.585L611.82 573.681V569.488Z" fill="#F0F6FA"/>
<path d="M603.699 586.567L601.135 585.094V588.051L603.699 586.567Z" fill="#F0F6FA"/>
<path d="M585.029 616.053L584.182 616.54L585.029 617.027V616.053Z" fill="#F0F6FA"/>
<path d="M576.275 631.52L576.05 631.385V631.644L576.275 631.52Z" fill="#F0F6FA"/>
<path d="M265.797 92.1311L265.707 92.0859V92.1875L265.797 92.1311Z" fill="#F0F6FA"/>
<path d="M300.371 91.8809L299.931 92.1302L300.371 92.3908V91.8809Z" fill="#F0F6FA"/>
<path d="M317.865 92.131L317.267 91.791V92.4823L317.865 92.131Z" fill="#F0F6FA"/>
<path d="M352.281 91.5762L351.31 92.1315L352.281 92.6981V91.5762Z" fill="#F0F6FA"/>
<path d="M369.957 92.1299L368.828 91.4727V92.7872L369.957 92.1299Z" fill="#F0F6FA"/>
<path d="M404.225 91.2012L402.609 92.1304L404.225 93.071V91.2012Z" fill="#F0F6FA"/>
<path d="M422.205 92.1301L420.296 91.0195V93.2406L422.205 92.1301Z" fill="#F0F6FA"/>
<path d="M456.213 90.748L453.818 92.1306L456.213 93.5244V90.748Z" fill="#F0F6FA"/>
<path d="M474.375 92.131L471.8 90.6465V93.6155L474.375 92.131Z" fill="#F0F6FA"/>
<path d="M482.27 105.4L479.31 107.112L482.27 108.834V105.4Z" fill="#F0F6FA"/>
<path d="M500.951 137.086L497.314 134.979V139.183L500.951 137.086Z" fill="#F0F6FA"/>
<path d="M508.451 149.801L504.543 152.067L508.451 154.322V149.801Z" fill="#F0F6FA"/>
<path d="M527.121 182.029L523.021 179.66V184.397L527.121 182.029Z" fill="#F0F6FA"/>
<path d="M534.338 194.709L530.362 197.009L534.338 199.31V194.709Z" fill="#F0F6FA"/>
<path d="M552.535 226.983L549.124 225V228.955L552.535 226.983Z" fill="#F0F6FA"/>
<path d="M559.922 240.152L556.793 241.966L559.922 243.767V240.152Z" fill="#F0F6FA"/>
<path d="M578.23 271.928L575.068 270.092V273.763L578.23 271.928Z" fill="#F0F6FA"/>
<path d="M585.943 284.834L582.352 286.908L585.943 288.993V284.834Z" fill="#F0F6FA"/>
<path d="M605.529 316.883L600.221 313.801V319.954L605.529 316.883Z" fill="#F0F6FA"/>
<path d="M612.77 328.113L606.298 331.864L612.77 335.604V328.113Z" fill="#F0F6FA"/>
<path d="M634.623 361.827L624.469 355.945V367.708L634.623 361.827Z" fill="#F0F6FA"/>
<path d="M640.553 369.713L628.309 376.807L640.553 383.901V369.713Z" fill="#F0F6FA"/>
<path d="M663.957 406.769L648.596 397.873V415.676L663.957 406.769Z" fill="#F0F6FA"/>
<path d="M667.785 412.289L651.442 421.763L667.785 431.225V412.289Z" fill="#F0F6FA"/>
<path d="M690.736 451.724L674.009 442.035V461.413L690.736 451.724Z" fill="#F0F6FA"/>
<path d="M693.514 457.492L677.588 466.705L693.514 475.93V457.492Z" fill="#F0F6FA"/>
<path d="M688.816 481.687L674.969 473.664V489.71L688.816 481.687Z" fill="#F0F6FA"/>
<path d="M665.379 506.367L656.253 511.659L665.379 516.94V506.367Z" fill="#F0F6FA"/>
<path d="M658.479 526.642L651.34 522.506V530.767L658.479 526.642Z" fill="#F0F6FA"/>
<path d="M637.82 554.27L633.788 556.604L637.82 558.938V554.27Z" fill="#F0F6FA"/>
<path d="M629.732 571.585L626.909 569.953V573.217L629.732 571.585Z" fill="#F0F6FA"/>
<path d="M610.904 601.037L610.023 601.558L610.904 602.057V601.037Z" fill="#F0F6FA"/>
<path d="M602.219 616.54L601.869 616.336V616.733L602.219 616.54Z" fill="#F0F6FA"/>
<path d="M274.402 77.082L274.278 77.1498L274.402 77.2175V77.082Z" fill="#F0F6FA"/>
<path d="M291.764 77.1497L291.526 77.0137V77.2856L291.764 77.1497Z" fill="#F0F6FA"/>
<path d="M326.291 76.7988L325.692 77.1501L326.291 77.5014V76.7988Z" fill="#F0F6FA"/>
<path d="M343.9 77.1494L343.053 76.6621V77.648L343.9 77.1494Z" fill="#F0F6FA"/>
<path d="M378.234 76.4355L377.003 77.1495L378.234 77.8634V76.4355Z" fill="#F0F6FA"/>
<path d="M396.047 77.1487L394.579 76.2988V77.9987L396.047 77.1487Z" fill="#F0F6FA"/>
<path d="M430.18 76.0625L428.305 77.1504L430.18 78.2383V76.0625Z" fill="#F0F6FA"/>
<path d="M448.205 77.1497L446.093 75.9258V78.3735L448.205 77.1497Z" fill="#F0F6FA"/>
<path d="M482.123 75.6992L479.604 77.1497L482.123 78.6003V75.6992Z" fill="#F0F6FA"/>
<path d="M500.668 107.112L497.449 105.254V108.982L500.668 107.112Z" fill="#F0F6FA"/>
<path d="M508.316 120.076L504.815 122.093L508.316 124.122V120.076Z" fill="#F0F6FA"/>
<path d="M526.906 152.066L523.134 149.879V154.242L526.906 152.066Z" fill="#F0F6FA"/>
<path d="M534.236 164.918L530.554 167.048L534.236 169.179V164.918Z" fill="#F0F6FA"/>
<path d="M552.455 197.011L549.157 195.107V198.926L552.455 197.011Z" fill="#F0F6FA"/>
<path d="M559.863 210.281L556.893 211.992L559.863 213.715V210.281Z" fill="#F0F6FA"/>
<path d="M577.609 241.966L575.384 240.674V243.246L577.609 241.966Z" fill="#F0F6FA"/>
<path d="M585.447 255.723L583.335 256.947L585.447 258.17V255.723Z" fill="#F0F6FA"/>
<path d="M603.744 286.909L601.112 285.391V288.439L603.744 286.909Z" fill="#F0F6FA"/>
<path d="M611.74 299.93L608.352 301.89L611.74 303.862V299.93Z" fill="#F0F6FA"/>
<path d="M631.652 331.864L625.949 328.566V335.162L631.652 331.864Z" fill="#F0F6FA"/>
<path d="M638.938 342.561L631.551 346.844L638.938 351.128V342.561Z" fill="#F0F6FA"/>
<path d="M661.697 376.807L649.725 369.883V383.742L661.697 376.807Z" fill="#F0F6FA"/>
<path d="M666.971 383.742L653.067 391.788L666.971 399.845V383.742Z" fill="#F0F6FA"/>
<path d="M690.746 421.761L673.996 412.061V431.45L690.746 421.761Z" fill="#F0F6FA"/>
<path d="M693.943 426.771L676.73 436.744L693.943 446.716V426.771Z" fill="#F0F6FA"/>
<path d="M716.42 466.706L699.964 457.176V476.237L716.42 466.706Z" fill="#F0F6FA"/>
<path d="M692.102 489.891L680.4 496.667L692.102 503.455V489.891Z" fill="#F0F6FA"/>
<path d="M685.664 511.659L676.538 506.367V516.94L685.664 511.659Z" fill="#F0F6FA"/>
<path d="M663.967 538.789L659.076 541.622L663.967 544.455V538.789Z" fill="#F0F6FA"/>
<path d="M656.039 556.603L652.549 554.586V558.62L656.039 556.603Z" fill="#F0F6FA"/>
<path d="M636.916 585.783L635.572 586.565L636.916 587.347V585.783Z" fill="#F0F6FA"/>
<path d="M628.164 601.559L627.701 601.275V601.831L628.164 601.559Z" fill="#F0F6FA"/>
<path d="M265.752 62.1675L265.741 62.1562V62.1787L265.752 62.1675Z" fill="#F0F6FA"/>
<path d="M300.348 61.9648L299.986 62.1688L300.348 62.3728V61.9648Z" fill="#F0F6FA"/>
<path d="M317.787 62.1685L317.313 61.8965V62.4404L317.787 62.1685Z" fill="#F0F6FA"/>
<path d="M352.234 61.6699L351.387 62.1685L352.234 62.6558V61.6699Z" fill="#F0F6FA"/>
<path d="M369.934 62.1678L368.838 61.5332V62.8024L369.934 62.1678Z" fill="#F0F6FA"/>
<path d="M404.18 61.3066L402.7 62.1679L404.18 63.0291V61.3066Z" fill="#F0F6FA"/>
<path d="M422.082 62.1691L420.354 61.1719V63.1663L422.082 62.1691Z" fill="#F0F6FA"/>
<path d="M456.123 60.9453L454.011 62.1692L456.123 63.3931V60.9453Z" fill="#F0F6FA"/>
<path d="M474.172 62.1681L471.902 60.8535V63.4826L474.172 62.1681Z" fill="#F0F6FA"/>
<path d="M500.285 77.149L497.642 75.6191V78.6788L500.285 77.149Z" fill="#F0F6FA"/>
<path d="M508.135 90.4316L505.187 92.1315L508.135 93.8426V90.4316Z" fill="#F0F6FA"/>
<path d="M526.715 122.093L523.225 120.076V124.11L526.715 122.093Z" fill="#F0F6FA"/>
<path d="M534.18 135.057L530.678 137.085L534.18 139.102V135.057Z" fill="#F0F6FA"/>
<path d="M552.443 167.048L549.157 165.145V168.952L552.443 167.048Z" fill="#F0F6FA"/>
<path d="M559.887 180.273L556.86 182.03L559.887 183.786V180.273Z" fill="#F0F6FA"/>
<path d="M577.631 211.992L575.361 210.678V213.318L577.631 211.992Z" fill="#F0F6FA"/>
<path d="M585.346 225.93L583.527 226.984L585.346 228.037V225.93Z" fill="#F0F6FA"/>
<path d="M602.795 256.947L601.586 256.244V257.649L602.795 256.947Z" fill="#F0F6FA"/>
<path d="M611.074 271.111L609.674 271.927L611.074 272.743V271.111Z" fill="#F0F6FA"/>
<path d="M629.621 301.889L626.967 300.359V303.43L629.621 301.889Z" fill="#F0F6FA"/>
<path d="M637.742 314.672L633.936 316.882L637.742 319.08V314.672Z" fill="#F0F6FA"/>
<path d="M658.365 346.844L651.396 342.799V350.879L658.365 346.844Z" fill="#F0F6FA"/>
<path d="M665.492 356.352L656.039 361.825L665.492 367.298V356.352Z" fill="#F0F6FA"/>
<path d="M688.984 391.788L674.877 383.617V399.958L688.984 391.788Z" fill="#F0F6FA"/>
<path d="M693.504 397.568L677.612 406.77L693.504 415.983V397.568Z" fill="#F0F6FA"/>
<path d="M717.277 436.743L699.533 426.453V447.021L717.277 436.743Z" fill="#F0F6FA"/>
<path d="M720 441.412L702.211 451.724L720 462.025V441.412Z" fill="#F0F6FA"/>
<path d="M719.039 473.051L704.13 481.686L719.039 490.321V473.051Z" fill="#F0F6FA"/>
<path d="M713.551 496.668L701.398 489.631V503.717L713.551 496.668Z" fill="#F0F6FA"/>
<path d="M690.488 522.664L683.632 526.642L690.488 530.608V522.664Z" fill="#F0F6FA"/>
<path d="M682.75 541.623L677.995 538.869V544.377L682.75 541.623Z" fill="#F0F6FA"/>
<path d="M662.973 570.475L661.064 571.585L662.973 572.696V570.475Z" fill="#F0F6FA"/>
<path d="M654.355 586.567L653.395 586.012V587.134L654.355 586.567Z" fill="#F0F6FA"/>
<path d="M274.404 47.1191L274.28 47.1869L274.404 47.2546V47.1191Z" fill="#F0F6FA"/>
<path d="M291.764 47.1868L291.526 47.0508V47.3228L291.764 47.1868Z" fill="#F0F6FA"/>
<path d="M326.291 46.8359L325.692 47.1872L326.291 47.5272V46.8359Z" fill="#F0F6FA"/>
<path d="M343.82 47.1869L343.097 46.7676V47.6062L343.82 47.1869Z" fill="#F0F6FA"/>
<path d="M378.189 46.5527L377.083 47.1873L378.189 47.8219V46.5527Z" fill="#F0F6FA"/>
<path d="M395.969 47.1878L394.613 46.3945V47.9697L395.969 47.1878Z" fill="#F0F6FA"/>
<path d="M430.135 46.1797L428.395 47.1883L430.135 48.1968V46.1797Z" fill="#F0F6FA"/>
<path d="M448.047 47.1875L446.172 46.0996V48.2754L448.047 47.1875Z" fill="#F0F6FA"/>
<path d="M482.01 45.9297L479.83 47.1876L482.01 48.4454V45.9297Z" fill="#F0F6FA"/>
<path d="M500.059 47.1868L497.754 45.8496V48.5127L500.059 47.1868Z" fill="#F0F6FA"/>
<path d="M507.988 60.707L505.47 62.1689L507.988 63.6307V60.707Z" fill="#F0F6FA"/>
<path d="M526.365 92.1311L523.406 90.4199V93.8536L526.365 92.1311Z" fill="#F0F6FA"/>
<path d="M534.09 105.242L530.86 107.112L534.09 108.982V105.242Z" fill="#F0F6FA"/>
<path d="M552.41 137.086L549.18 135.205V138.956L552.41 137.086Z" fill="#F0F6FA"/>
<path d="M559.91 150.275L556.815 152.066L559.91 153.856V150.275Z" fill="#F0F6FA"/>
<path d="M577.766 182.029L575.292 180.602V183.457L577.766 182.029Z" fill="#F0F6FA"/>
<path d="M585.436 195.809L583.357 197.01L585.436 198.222V195.809Z" fill="#F0F6FA"/>
<path d="M602.75 226.983L601.609 226.326V227.641L602.75 226.983Z" fill="#F0F6FA"/>
<path d="M610.848 241.545L610.136 241.964L610.848 242.372V241.545Z" fill="#F0F6FA"/>
<path d="M628.344 271.927L627.598 271.496V272.357L628.344 271.927Z" fill="#F0F6FA"/>
<path d="M636.859 286.229L635.696 286.908L636.859 287.588V286.229Z" fill="#F0F6FA"/>
<path d="M655.891 316.882L652.626 314.979V318.775L655.891 316.882Z" fill="#F0F6FA"/>
<path d="M663.922 329.121L659.178 331.864L663.922 334.606V329.121Z" fill="#F0F6FA"/>
<path d="M685.834 361.827L676.459 356.398V367.255L685.834 361.827Z" fill="#F0F6FA"/>
<path d="M692.215 369.85L680.197 376.808L692.215 383.777V369.85Z" fill="#F0F6FA"/>
<path d="M716.273 406.769L700.032 397.363V416.175L716.273 406.769Z" fill="#F0F6FA"/>
<path d="M719.967 411.494L702.268 421.761L719.967 432.017V411.494Z" fill="#F0F6FA"/>
<path d="M717.334 505.982L707.542 511.66L717.334 517.326V505.982Z" fill="#F0F6FA"/>
<path d="M710.207 526.642L703.069 522.506V530.767L710.207 526.642Z" fill="#F0F6FA"/>
<path d="M689.234 554.803L686.14 556.605L689.234 558.406V554.803Z" fill="#F0F6FA"/>
<path d="M680.74 571.585L679.001 570.588V572.594L680.74 571.585Z" fill="#F0F6FA"/>
<path d="M248.504 32.1953L248.493 32.2061H248.504V32.1953Z" fill="#F0F6FA"/>
<path d="M265.82 32.206L265.696 32.127V32.2737L265.82 32.206Z" fill="#F0F6FA"/>
<path d="M300.348 31.9902L299.975 32.2055L300.348 32.4209V31.9902Z" fill="#F0F6FA"/>
<path d="M317.865 32.2068L317.267 31.8555V32.5467L317.865 32.2068Z" fill="#F0F6FA"/>
<path d="M352.234 31.707L351.387 32.2056L352.234 32.6929V31.707Z" fill="#F0F6FA"/>
<path d="M369.934 32.2065L368.838 31.5605V32.8411L369.934 32.2065Z" fill="#F0F6FA"/>
<path d="M404.156 31.3906L402.756 32.2065L404.156 33.0111V31.3906Z" fill="#F0F6FA"/>
<path d="M422.014 32.2062L420.399 31.2656V33.1354L422.014 32.2062Z" fill="#F0F6FA"/>
<path d="M456.055 31.0957L454.146 32.2063L456.055 33.3055V31.0957Z" fill="#F0F6FA"/>
<path d="M474.025 32.2055L471.981 31.0156V33.3841L474.025 32.2055Z" fill="#F0F6FA"/>
<path d="M507.92 30.8691L505.616 32.2063L507.92 33.5322V30.8691Z" fill="#F0F6FA"/>
<path d="M526.105 62.1681L523.542 60.6836V63.6526L526.105 62.1681Z" fill="#F0F6FA"/>
<path d="M533.943 75.541L531.165 77.1502L533.943 78.7594V75.541Z" fill="#F0F6FA"/>
<path d="M552.32 107.113L549.226 105.322V108.915L552.32 107.113Z" fill="#F0F6FA"/>
<path d="M559.91 120.303L556.815 122.093L559.91 123.895V120.303Z" fill="#F0F6FA"/>
<path d="M577.936 152.067L575.214 150.492V153.631L577.936 152.067Z" fill="#F0F6FA"/>
<path d="M585.559 165.619L583.096 167.047L585.559 168.475V165.619Z" fill="#F0F6FA"/>
<path d="M603.043 197.01L601.462 196.092V197.928L603.043 197.01Z" fill="#F0F6FA"/>
<path d="M610.973 211.369L609.888 211.992L610.973 212.627V211.369Z" fill="#F0F6FA"/>
<path d="M627.982 241.964L627.79 241.852V242.077L627.982 241.964Z" fill="#F0F6FA"/>
<path d="M636.521 256.867L636.386 256.946L636.521 257.025V256.867Z" fill="#F0F6FA"/>
<path d="M654.197 286.91L653.474 286.49V287.329L654.197 286.91Z" fill="#F0F6FA"/>
<path d="M662.883 300.938L661.245 301.889L662.883 302.853V300.938Z" fill="#F0F6FA"/>
<path d="M682.592 331.864L678.074 329.246V334.482L682.592 331.864Z" fill="#F0F6FA"/>
<path d="M690.408 343.025L683.801 346.844L690.408 350.663V343.025Z" fill="#F0F6FA"/>
<path d="M713.596 376.807L701.375 369.725V383.89L713.596 376.807Z" fill="#F0F6FA"/>
<path d="M718.984 383.244L704.234 391.789L718.984 400.344V383.244Z" fill="#F0F6FA"/>
<path d="M715.742 538.711L710.716 541.623L715.742 544.536V538.711Z" fill="#F0F6FA"/>
<path d="M707.598 556.604L704.379 554.734V558.474L707.598 556.604Z" fill="#F0F6FA"/>
<path d="M688.42 586.191L687.776 586.565L688.42 586.939V586.191Z" fill="#F0F6FA"/>
<path d="M239.887 17.2237L239.876 17.2129V17.2237H239.887Z" fill="#F0F6FA"/>
<path d="M274.438 17.0781L274.2 17.2254L274.438 17.3614V17.0781Z" fill="#F0F6FA"/>
<path d="M291.842 17.2251L291.48 17.0098V17.4291L291.842 17.2251Z" fill="#F0F6FA"/>
<path d="M326.291 16.873L325.692 17.2243L326.291 17.5643V16.873Z" fill="#F0F6FA"/>
<path d="M343.9 17.2252L343.053 16.7266V17.7125L343.9 17.2252Z" fill="#F0F6FA"/>
<path d="M378.223 16.5117L377.014 17.2256L378.223 17.9282V16.5117Z" fill="#F0F6FA"/>
<path d="M395.969 17.2249L394.613 16.4316V18.0068L395.969 17.2249Z" fill="#F0F6FA"/>
<path d="M430.09 16.2852L428.475 17.2257L430.09 18.155V16.2852Z" fill="#F0F6FA"/>
<path d="M447.98 17.2242L446.207 16.1816V18.2554L447.98 17.2242Z" fill="#F0F6FA"/>
<path d="M482 15.9785L479.865 17.2251L482 18.4603V15.9785Z" fill="#F0F6FA"/>
<path d="M500.037 17.2247L497.778 15.9102V18.5279L500.037 17.2247Z" fill="#F0F6FA"/>
<path d="M525.992 32.2064L523.598 30.8125V33.5889L525.992 32.2064Z" fill="#F0F6FA"/>
<path d="M533.854 45.7246L531.324 47.1865L533.854 48.6483V45.7246Z" fill="#F0F6FA"/>
<path d="M552.117 77.1498L549.327 75.5293V78.7703L552.117 77.1498Z" fill="#F0F6FA"/>
<path d="M559.854 90.4531L556.939 92.1303L559.854 93.8188V90.4531Z" fill="#F0F6FA"/>
<path d="M578.094 122.094L575.135 120.383V123.816L578.094 122.094Z" fill="#F0F6FA"/>
<path d="M585.65 135.51L582.928 137.085L585.65 138.649V135.51Z" fill="#F0F6FA"/>
<path d="M603.371 167.049L601.293 165.848V168.25L603.371 167.049Z" fill="#F0F6FA"/>
<path d="M611.131 181.111L609.55 182.029L611.131 182.947V181.111Z" fill="#F0F6FA"/>
<path d="M628.254 211.992L627.655 211.652V212.344L628.254 211.992Z" fill="#F0F6FA"/>
<path d="M636.543 226.859L636.328 226.984L636.543 227.108V226.859Z" fill="#F0F6FA"/>
<path d="M662.34 271.928H662.329L662.34 271.938V271.928Z" fill="#F0F6FA"/>
<path d="M680.547 301.89L679.101 301.062V302.728L680.547 301.89Z" fill="#F0F6FA"/>
<path d="M689.086 315.342L686.432 316.883L689.086 318.413V315.342Z" fill="#F0F6FA"/>
<path d="M709.869 346.846L703.239 343.004V350.687L709.869 346.846Z" fill="#F0F6FA"/>
<path d="M717.244 356.307L707.711 361.825L717.244 367.344V356.307Z" fill="#F0F6FA"/>
<path d="M714.691 570.508L712.828 571.584L714.691 572.672V570.508Z" fill="#F0F6FA"/>
<path d="M705.928 586.566L705.205 586.158V586.985L705.928 586.566Z" fill="#F0F6FA"/>
<path d="M248.504 2.2207L248.482 2.23191L248.504 2.25432V2.2207Z" fill="#F0F6FA"/>
<path d="M265.832 2.23137L265.696 2.15234V2.3104L265.832 2.23137Z" fill="#F0F6FA"/>
<path d="M300.393 1.96094L299.907 2.23291L300.393 2.51622V1.96094Z" fill="#F0F6FA"/>
<path d="M317.865 2.23216L317.267 1.88086V2.58346L317.865 2.23216Z" fill="#F0F6FA"/>
<path d="M352.279 1.66602L351.308 2.23263L352.279 2.79924V1.66602Z" fill="#F0F6FA"/>
<path d="M369.934 2.23226L368.838 1.59766V2.87819L369.934 2.23226Z" fill="#F0F6FA"/>
<path d="M404.145 1.45117L402.778 2.23309L404.145 3.02635V1.45117Z" fill="#F0F6FA"/>
<path d="M422.014 2.23197L420.399 1.30273V3.17255L422.014 2.23197Z" fill="#F0F6FA"/>
<path d="M456.043 1.15625L454.168 2.23281L456.043 3.3207V1.15625Z" fill="#F0F6FA"/>
<path d="M473.992 2.23206L471.993 1.07617V3.39927L473.992 2.23206Z" fill="#F0F6FA"/>
<path d="M507.908 0.917969L505.638 2.2325L507.908 3.54704V0.917969Z" fill="#F0F6FA"/>
<path d="M525.992 2.23214L523.598 0.849609V3.626L525.992 2.23214Z" fill="#F0F6FA"/>
<path d="M533.854 15.752L531.324 17.2251L533.854 18.687V15.752Z" fill="#F0F6FA"/>
<path d="M552.025 47.1877L549.371 45.6465V48.7175L552.025 47.1877Z" fill="#F0F6FA"/>
<path d="M559.773 60.6055L557.074 62.1693L559.773 63.7332V60.6055Z" fill="#F0F6FA"/>
<path d="M578.004 92.1299L575.18 90.498V93.7731L578.004 92.1299Z" fill="#F0F6FA"/>
<path d="M585.719 105.436L582.805 107.113L585.719 108.801V105.436Z" fill="#F0F6FA"/>
<path d="M603.664 137.086L601.145 135.613V138.548L603.664 137.086Z" fill="#F0F6FA"/>
<path d="M611.334 150.809L609.165 152.066L611.334 153.313V150.809Z" fill="#F0F6FA"/>
<path d="M628.705 182.029L627.417 181.281V182.777L628.705 182.029Z" fill="#F0F6FA"/>
<path d="M636.736 196.557L635.946 197.01L636.736 197.475V196.557Z" fill="#F0F6FA"/>
<path d="M688.285 286.773L688.037 286.909L688.285 287.057V286.773Z" fill="#F0F6FA"/>
<path d="M707.158 316.883L704.594 315.398V318.367L707.158 316.883Z" fill="#F0F6FA"/>
<path d="M715.516 329.348L711.19 331.863L715.516 334.368V329.348Z" fill="#F0F6FA"/>
<path d="M552.025 17.2244L549.371 15.6719V18.7542L552.025 17.2244Z" fill="#F0F6FA"/>
<path d="M559.762 30.6641L557.107 32.2052L559.762 33.7351V30.6641Z" fill="#F0F6FA"/>
<path d="M577.98 62.1693L575.191 60.5488V63.7898L577.98 62.1693Z" fill="#F0F6FA"/>
<path d="M585.684 75.5059L582.86 77.149L585.684 78.7922V75.5059Z" fill="#F0F6FA"/>
<path d="M603.879 107.112L601.044 105.48V108.755L603.879 107.112Z" fill="#F0F6FA"/>
<path d="M611.492 120.562L608.838 122.092L611.492 123.645V120.562Z" fill="#F0F6FA"/>
<path d="M629.146 152.067L627.204 150.945V153.189L629.146 152.067Z" fill="#F0F6FA"/>
<path d="M636.984 166.164L635.46 167.048L636.984 167.932V166.164Z" fill="#F0F6FA"/>
<path d="M654.176 197.01L653.487 196.613V197.407L654.176 197.01Z" fill="#F0F6FA"/>
<path d="M662.441 211.822L662.136 211.992L662.441 212.174V211.822Z" fill="#F0F6FA"/>
<path d="M705.555 286.909L705.397 286.818V287.01L705.555 286.909Z" fill="#F0F6FA"/>
<path d="M714.465 301.209L713.279 301.889L714.465 302.58V301.209Z" fill="#F0F6FA"/>
<path d="M559.773 0.667969L557.074 2.23181L559.773 3.79566V0.667969Z" fill="#F0F6FA"/>
<path d="M577.98 32.2064L575.191 30.5859V33.8156L577.98 32.2064Z" fill="#F0F6FA"/>
<path d="M585.672 45.5664L582.882 47.1869L585.672 48.7961V45.5664Z" fill="#F0F6FA"/>
<path d="M603.926 77.1494L601.023 75.4609V78.8379L603.926 77.1494Z" fill="#F0F6FA"/>
<path d="M611.549 90.498L608.725 92.1299L611.549 93.7731V90.498Z" fill="#F0F6FA"/>
<path d="M629.541 122.093L627.011 120.631V123.566L629.541 122.093Z" fill="#F0F6FA"/>
<path d="M637.211 135.805L635.008 137.085L637.211 138.354V135.805Z" fill="#F0F6FA"/>
<path d="M654.705 167.049L653.214 166.188V167.91L654.705 167.049Z" fill="#F0F6FA"/>
<path d="M662.713 181.383L661.595 182.029L662.713 182.675V181.383Z" fill="#F0F6FA"/>
<path d="M679.779 211.992L679.486 211.822V212.174L679.779 211.992Z" fill="#F0F6FA"/>
<path d="M578.004 2.2334L575.18 0.601562V3.87657L578.004 2.2334Z" fill="#F0F6FA"/>
<path d="M585.719 15.5371L582.805 17.2256L585.719 18.9028V15.5371Z" fill="#F0F6FA"/>
<path d="M603.936 47.1881L601.01 45.4883V48.8766L603.936 47.1881Z" fill="#F0F6FA"/>
<path d="M611.582 60.4805L608.657 62.169L611.582 63.8575V60.4805Z" fill="#F0F6FA"/>
<path d="M629.744 92.1299L626.909 90.498V93.7731L629.744 92.1299Z" fill="#F0F6FA"/>
<path d="M637.379 105.549L634.668 107.113L637.379 108.688V105.549Z" fill="#F0F6FA"/>
<path d="M655.156 137.086L652.999 135.828V138.333L655.156 137.086Z" fill="#F0F6FA"/>
<path d="M662.973 150.967L661.075 152.066L662.973 153.165V150.967Z" fill="#F0F6FA"/>
<path d="M680.332 182.028L679.203 181.371V182.686L680.332 182.028Z" fill="#F0F6FA"/>
<path d="M688.453 196.592L687.708 197.011L688.453 197.442V196.592Z" fill="#F0F6FA"/>
<path d="M604.027 17.2245L600.966 15.4453V18.9923L604.027 17.2245Z" fill="#F0F6FA"/>
<path d="M611.629 30.4277L608.568 32.2069L611.629 33.9747V30.4277Z" fill="#F0F6FA"/>
<path d="M629.891 62.1682L626.83 60.4004V63.936L629.891 62.1682Z" fill="#F0F6FA"/>
<path d="M637.459 75.4375L634.5 77.1487L637.459 78.8712V75.4375Z" fill="#F0F6FA"/>
<path d="M655.574 107.111L652.784 105.502V108.732L655.574 107.111Z" fill="#F0F6FA"/>
<path d="M663.188 120.619L660.646 122.092L663.188 123.566V120.619Z" fill="#F0F6FA"/>
<path d="M680.91 152.066L678.922 150.91V153.222L680.91 152.066Z" fill="#F0F6FA"/>
<path d="M688.748 166.096L687.122 167.048L688.748 168V166.096Z" fill="#F0F6FA"/>
<path d="M705.949 197.011L705.192 196.58V197.453L705.949 197.011Z" fill="#F0F6FA"/>
<path d="M714.207 211.766L713.812 211.992L714.207 212.23V211.766Z" fill="#F0F6FA"/>
<path d="M611.639 0.441406L608.544 2.23189L611.639 4.03371V0.441406Z" fill="#F0F6FA"/>
<path d="M629.982 32.2061L626.786 30.3477V34.0533L629.982 32.2061Z" fill="#F0F6FA"/>
<path d="M637.537 45.3398L634.352 47.187L637.537 49.0341V45.3398Z" fill="#F0F6FA"/>
<path d="M655.756 77.1487L652.695 75.3809V78.9165L655.756 77.1487Z" fill="#F0F6FA"/>
<path d="M663.334 90.4082L660.352 92.1307L663.334 93.8645V90.4082Z" fill="#F0F6FA"/>
<path d="M681.371 122.094L678.694 120.553V123.646L681.371 122.094Z" fill="#F0F6FA"/>
<path d="M688.996 135.703L686.613 137.086L688.996 138.468V135.703Z" fill="#F0F6FA"/>
<path d="M706.627 167.047L704.865 166.027V168.067L706.627 167.047Z" fill="#F0F6FA"/>
<path d="M714.5 181.293L713.224 182.03L714.5 182.766V181.293Z" fill="#F0F6FA"/>
<path d="M629.98 2.23191L626.784 0.384766V4.07906L629.98 2.23191Z" fill="#F0F6FA"/>
<path d="M637.582 15.2988L634.261 17.2253L637.582 19.1404V15.2988Z" fill="#F0F6FA"/>
<path d="M655.938 47.1882L652.606 45.2617V49.1147L655.938 47.1882Z" fill="#F0F6FA"/>
<path d="M663.402 60.3223L660.206 62.1694L663.402 64.0166V60.3223Z" fill="#F0F6FA"/>
<path d="M681.621 92.1311L678.56 90.3633V93.8989L681.621 92.1311Z" fill="#F0F6FA"/>
<path d="M689.188 105.412L686.24 107.112L689.188 108.823V105.412Z" fill="#F0F6FA"/>
<path d="M707.066 137.085L704.638 135.68V138.49L707.066 137.085Z" fill="#F0F6FA"/>
<path d="M714.781 150.82L712.647 152.067L714.781 153.302V150.82Z" fill="#F0F6FA"/>
<path d="M656.016 17.2245L652.571 15.2188V19.219L656.016 17.2245Z" fill="#F0F6FA"/>
<path d="M663.492 30.2012L660.036 32.207L663.492 34.2014V30.2012Z" fill="#F0F6FA"/>
<path d="M681.801 62.1687L678.469 60.2422V64.0951L681.801 62.1687Z" fill="#F0F6FA"/>
<path d="M689.312 75.2227L685.992 77.1491L689.312 79.0756V75.2227Z" fill="#F0F6FA"/>
<path d="M707.484 107.112L704.424 105.344V108.891L707.484 107.112Z" fill="#F0F6FA"/>
<path d="M715.008 120.473L712.195 122.093L715.008 123.725V120.473Z" fill="#F0F6FA"/>
<path d="M663.492 0.238281L660.036 2.23275L663.492 4.23855V0.238281Z" fill="#F0F6FA"/>
<path d="M681.971 32.2066L678.39 30.1328V34.2691L681.971 32.2066Z" fill="#F0F6FA"/>
<path d="M689.369 45.1582L685.868 47.1867L689.369 49.2151V45.1582Z" fill="#F0F6FA"/>
<path d="M707.666 77.1491L704.334 75.2227V79.0756L707.666 77.1491Z" fill="#F0F6FA"/>
<path d="M715.178 90.2051L711.857 92.1316L715.178 94.058V90.2051Z" fill="#F0F6FA"/>
<path d="M681.982 2.232L678.391 0.158203V4.31712L681.982 2.232Z" fill="#F0F6FA"/>
<path d="M689.438 15.0723L685.733 17.2254L689.438 19.3672V15.0723Z" fill="#F0F6FA"/>
<path d="M707.848 47.1867L704.245 45.1016V49.2605L707.848 47.1867Z" fill="#F0F6FA"/>
<path d="M715.268 60.0938L711.687 62.1675L715.268 64.2413V60.0938Z" fill="#F0F6FA"/>
<path d="M707.926 17.225L704.21 15.0605V19.3781L707.926 17.225Z" fill="#F0F6FA"/>
<path d="M715.312 30.041L711.585 32.2055L715.312 34.3586V30.041Z" fill="#F0F6FA"/>
<path d="M715.357 0L711.495 2.23244L715.357 4.46489V0Z" fill="#F0F6FA"/>
<path d="M260.975 587.824L260.76 587.948L260.975 588.073V587.824Z" fill="#F0F6FA"/>
<path d="M209.211 527.955L209.098 528.012L209.211 528.079V527.955Z" fill="#F0F6FA"/>
<path d="M200.615 513.031L200.514 512.975V513.099L200.615 513.031Z" fill="#F0F6FA"/>
<path d="M157.48 468.031L157.379 468.088L157.48 468.144V468.031Z" fill="#F0F6FA"/>
<path d="M148.83 453.106L148.819 453.096V453.106H148.83Z" fill="#F0F6FA"/>
<path d="M123.033 438.124L122.92 438.057V438.181L123.033 438.124Z" fill="#F0F6FA"/>
</svg>
