<svg width="640" height="344" viewBox="0 0 640 344" fill="none" xmlns="http://www.w3.org/2000/svg">
<g clip-path="url(#clip0_837_5257)">
<path d="M196.018 277.093C199.257 277.499 206.071 276.829 209.711 274.617C205.213 275.28 200.476 271.174 198.478 270.381C194.17 268.666 188.954 269.784 190.685 271.544C188.893 271.194 182.374 275.3 196.018 277.093Z" fill="#FFB35B"/>
<path d="M444.164 223.019C451.016 221.901 452.514 219.848 452.859 218.393C453.415 216.137 450.632 215.844 448.918 217.149C447.064 218.58 447.766 220.649 444.164 223.019Z" fill="#FFB35B"/>
<path d="M400.094 246.471C414.433 246.569 416.286 244.943 416.759 243.996C417.316 242.882 415.886 242.004 414.449 242.134C412.206 242.333 411.605 244.333 400.094 246.471Z" fill="#FFB35B"/>
<path d="M435.172 241.616C441.178 239.1 444.813 236.49 446.093 234.771C447.674 232.649 445.414 233.104 445.091 233.242C445.258 232.986 444.59 232.023 441.473 233.551C438.083 235.214 435.69 240.259 435.172 241.616Z" fill="#FFB35B"/>
<path d="M322.023 63.0136C328.881 61.8957 330.373 59.8469 330.724 58.3875C331.28 56.1314 328.497 55.8387 326.783 57.168C324.924 58.5745 325.63 60.6437 322.023 63.0136Z" fill="#FFB35B"/>
<path d="M482.297 159.613C488.303 157.092 491.943 154.487 493.218 152.767C494.799 150.641 492.539 151.096 492.222 151.234C492.383 150.978 491.715 150.015 488.598 151.543C485.208 153.214 482.815 158.251 482.297 159.613Z" fill="#FFB35B"/>
<path d="M396.914 173.38C402.92 170.86 406.561 168.254 407.835 166.535C409.416 164.409 407.156 164.864 406.839 165.002C407 164.746 406.332 163.783 403.215 165.311C399.825 166.974 397.437 172.018 396.914 173.38Z" fill="#FFB35B"/>
<path d="M422.046 257.629C413.591 258.17 408.036 259.974 406.305 261.336C404.162 263.023 407.852 263.003 408.308 262.962C408.086 263.174 407.418 264.788 411.787 264.275C416.547 263.727 421.373 258.881 422.046 257.629Z" fill="#FFB35B"/>
<path d="M366.531 29.8249C369.387 32.1176 374.452 33.1054 377.313 32.6989C380.893 32.1867 377.87 30.6948 377.519 30.5607C377.864 30.4915 379.707 29.646 376.584 28.8208C373.957 28.1257 368.023 29.3615 366.531 29.8249Z" fill="#FFB35B"/>
<path d="M169.483 125.721C166.321 127.713 165.586 130.875 166.655 132.542C168.019 134.627 169.895 132.627 170.045 132.404C170.212 132.603 171.838 133.623 172.645 131.635C173.324 129.973 170.446 126.554 169.483 125.721Z" fill="#FFB35B"/>
<path d="M224.405 84.1602C221.243 86.152 220.508 89.3147 221.577 90.9814C222.941 93.0668 224.811 91.0627 224.967 90.8432C225.134 91.0424 226.759 92.0627 227.567 90.0749C228.229 88.4122 225.351 84.9935 224.405 84.1602Z" fill="#FFB35B"/>
<path d="M130.053 119.928C129.468 120.77 129.25 121.723 129.427 122.659C129.604 123.594 130.168 124.468 131.044 125.164C132.925 126.464 133.37 124.798 133.387 124.619C133.593 124.737 135.179 125.237 134.89 123.729C134.639 122.444 131.105 120.395 130.053 119.928Z" fill="#FFB35B"/>
<path d="M132.974 187.502C131.693 190.49 132.873 193.278 134.154 194.132C135.434 194.986 135.896 193.665 135.924 193.514C136.057 193.604 137.037 193.921 137.126 192.636C137.215 191.352 134.232 188.437 132.974 187.502Z" fill="#FFB35B"/>
<path d="M412.731 52.3984C411.451 55.3863 412.631 58.1749 413.912 59.0286C415.192 59.8823 415.654 58.5652 415.687 58.4107C415.815 58.5001 416.801 58.8172 416.884 57.5326C416.968 56.2481 413.962 53.3497 412.731 52.3984Z" fill="#FFB35B"/>
<path d="M247.628 49.0537C248.574 46.2082 246.515 43.1065 244.182 41.9845C241.265 40.578 241.399 43.0049 241.46 43.2569C241.154 43.135 238.944 42.7854 239.946 44.826C240.798 46.5456 246.119 48.635 247.628 49.0537Z" fill="#FFB35B"/>
<path d="M381.242 106.627C380.396 109.473 382.556 112.558 384.921 113.651C387.883 115.017 387.666 112.59 387.599 112.342C387.911 112.46 390.132 112.782 389.063 110.753C388.155 109.042 382.773 107.025 381.242 106.627Z" fill="#FFB35B"/>
<path d="M304.398 230.99C305.779 233.881 308.629 235.494 310.588 235.84C313.015 236.247 312.703 234.962 312.626 234.807C312.926 234.844 315.147 234.763 314.117 233.312C312.998 231.734 306.13 230.978 304.398 230.99Z" fill="#FFB35B"/>
<path d="M267.867 251.354C268.279 253.967 270.283 255.642 271.869 256.142C273.829 256.76 273.901 255.618 273.879 255.476C274.124 255.541 276.039 255.703 275.549 254.358C275.003 252.894 269.342 251.528 267.867 251.354Z" fill="#FFB35B"/>
<path d="M202.141 252.881C208.82 253.238 212.422 251.982 213.407 251.06C214.392 250.137 213.09 249.763 212.917 249.73C213.034 249.625 213.474 248.808 211.898 248.568C209.867 248.263 204.178 251.389 202.141 252.881Z" fill="#FFB35B"/>
<path d="M146.477 245.022C152.11 244.929 155.26 245.807 156.568 246.596C158.205 247.579 157.064 248.067 156.886 248.112C157.103 248.258 158.472 249.624 156.446 250.124C153.457 250.856 147.378 246.165 146.477 245.022Z" fill="#FFB35B"/>
<path d="M119.258 258.065C106.065 259.471 103.06 249.15 105.937 244.914C105.937 244.914 105.381 250.28 112.728 251.699C120.076 253.117 120.566 257.926 119.258 258.065Z" fill="#FFB35B"/>
<path d="M98.4994 204.937C89.7435 200.595 96.0447 194.526 101.021 193.604C101.021 193.604 96.5234 195.961 99.6684 199.421C102.813 202.88 99.3678 205.368 98.4994 204.937Z" fill="#FFB35B"/>
<path d="M472.9 58.2654C479.474 58.7167 474.164 48.2734 474.164 48.2734C474.164 48.2734 468.681 57.9768 472.9 58.2654Z" fill="#FFB35B"/>
<path d="M473.525 112.968C478.646 115.615 483.211 105.029 483.211 105.029C483.211 105.029 470.241 111.245 473.525 112.968Z" fill="#FFB35B"/>
<path d="M276.86 237.535C276.86 237.535 260.033 225.018 255.98 223.945C251.928 222.872 239.487 218.717 237.327 216.884C237.327 216.884 229.418 218.388 225.755 210.486L222.359 199.709C222.359 199.709 233.069 208.412 235.546 208.124C238.023 207.835 236.526 204.685 236.526 204.685C236.526 204.685 249.456 214.225 254.271 216.254C259.086 218.282 271.321 220.973 274.967 222.726C275.941 223.193 282.899 221.823 286.779 223.713C288.204 224.425 276.86 237.535 276.86 237.535Z" fill="#065A92"/>
<path d="M235.622 208.202C237.119 205.389 227.272 196.466 229.755 186.389L230.195 186.458C228.447 192.933 233.98 201.824 240.164 207.287L235.622 208.202Z" fill="#00090E"/>
<path d="M238.328 206.938C237.889 191.084 255.684 172.002 256.358 163.714C257.093 154.628 251.348 137.246 233.992 127.103L234.176 126.904C251.721 137.148 258.824 154.466 257.883 164.124C257.07 172.506 239.33 193.145 241.841 208.507L238.328 206.938Z" fill="#00090E"/>
<path d="M174.375 222.023V221.616C182.313 221.462 190.273 219.218 193.913 217.762C197.932 216.136 198.967 215.97 205.424 216.193C211.881 216.417 229.916 216.222 227.295 212.994L237.353 216.897C227.111 218.21 214.125 217.303 207.573 217.063C201.021 216.823 198.071 216.97 194.214 218.502C188.642 220.734 180.732 221.913 174.375 222.023Z" fill="#00090E"/>
<path d="M195.717 217.076C184.851 215.58 181.244 209.019 172.266 206.596L172.522 206.332C182.586 209.048 184.439 214.828 197.81 216.409L195.717 217.076Z" fill="#00090E"/>
<path d="M227.286 210.881C219.037 209.661 213.453 204.45 201.413 200.604C192.09 197.629 187.286 197.706 182.888 198.458C173.565 200.047 159.877 195.153 155.736 189.458C153.988 187.059 151.533 183.767 146.039 182.75L146.089 182.588C151.811 183.645 153.743 186.295 155.552 188.771C159.877 194.714 174.094 198.982 183.328 197.409C187.781 196.645 192.791 195.962 202.287 198.986C214.06 202.747 215.764 201.795 217.573 201.426L227.286 210.881Z" fill="#00090E"/>
<path d="M200.971 199.099C200.843 198.965 191.948 187.457 182.858 183.095C174.292 178.985 167.829 179.477 160.593 179.896C153.356 180.314 146.76 179.205 141.5 175.14L141.667 175.018C146.777 178.969 153.624 179.416 160.682 179.005C167.64 178.599 175.154 178.034 183.877 182.217C193.045 186.615 206.821 200.542 206.949 200.68L200.971 199.099Z" fill="#00090E"/>
<path d="M163.182 179.083C157.46 173.798 140.916 170.664 135.172 163.782L135.4 163.672C141.178 170.217 159.224 173.863 165.592 178.997L163.182 179.083Z" fill="#00090E"/>
<path d="M174.973 198.023C168.967 200.983 155.752 200.133 149.117 204.337L149.251 204.463C155.797 200.532 170.292 201.271 176.71 198.56L174.973 198.023Z" fill="#00090E"/>
<path d="M155.867 189.45C152.45 187.515 148.019 187.616 147.969 187.612V187.486C148.175 187.486 152.94 187.486 155.35 188.767L155.867 189.45Z" fill="#00090E"/>
<path d="M185.789 213.052C184.589 211.141 183.837 209.096 183.562 207.003L184.03 206.922C184.275 208.93 185.789 212.243 188.16 214.17L185.789 213.052Z" fill="#00090E"/>
<path d="M226.563 210.674C216.46 203.483 209.663 199.088 209.212 191.239C208.967 187.044 201.208 182.759 201.525 172.974C201.522 170.3 201.762 167.629 202.243 164.978C203.64 163.547 206.641 161.633 206.167 155.966C207.325 154.177 208.344 153.36 210.103 152.576C213.164 151.21 213.871 148.047 214.417 145.202C217.239 130.49 229.056 121.624 245.171 113.701L245.461 114.018C229.53 121.872 219.399 131.384 216.95 146.62C216.449 149.787 214.456 153.189 212.997 154.344C210.392 156.376 207.142 169.291 207.036 172.34C206.785 179.657 215.029 184.031 215.742 187.304C216.415 190.381 216.237 194.751 224.225 201.214L226.563 210.674Z" fill="#00090E"/>
<path d="M337.472 253.796C342.36 251.577 357.623 242.414 359.66 235.857C361.697 229.3 349.596 218.527 349.596 218.527C349.596 218.527 338.591 224.564 335.463 224.686C332.335 224.808 328.867 222.121 325.95 221.84C323.033 221.56 304.241 229.308 301.091 229.227C297.94 229.145 288.288 223.06 284.948 223.588C281.608 224.117 277.127 226.706 277.127 226.706C277.127 226.706 273.787 235.609 277.539 238.06C299.988 252.715 309.735 266.402 337.472 253.796Z" fill="#065A92"/>
<path d="M306.294 265.585C305.609 259.894 299.498 252.374 298.824 246.41C298.234 241.17 302.531 238.54 308.671 238.439C314.811 238.337 298.707 233.613 293.308 237.272C285.031 242.878 295.095 253.227 297.666 258.041C300.238 262.854 306.968 271.15 306.294 265.585Z" fill="#065A92"/>
<path d="M290.959 245.048C288.103 239.666 284.541 233.971 286.428 232.336C292.434 227.121 302.013 233.926 304.24 232.393C318.056 226.479 334.682 227.698 341.279 234.893C344.062 239.243 312.562 237.093 324.975 265.467C327.079 263.646 330.062 261.024 331.259 261.552C332.584 262.138 332.011 266.097 331.933 268.487C332.985 262.43 336.146 254.849 338.813 253.471C343.522 251.032 356.531 241.58 358.568 235.023C360.605 228.466 349.573 218.527 349.573 218.527C349.573 218.527 338.568 224.564 335.439 224.686C332.311 224.808 328.843 222.121 325.927 221.84C323.01 221.56 304.218 229.308 301.067 229.227C297.917 229.145 288.264 223.06 284.925 223.588C281.585 224.117 277.104 226.706 277.104 226.706C277.104 226.706 273.764 235.609 277.516 238.06C282.731 241.45 287.58 240.881 290.959 245.048Z" fill="#065A92"/>
<path d="M335.822 230.389C332.421 229.23 325.085 229.308 322.853 232.576C320.62 235.844 322.391 238.06 322.391 238.06C322.391 238.06 314.308 233.157 321.728 227.019L327.723 225.633L335.104 228.121L335.822 230.389Z" fill="#065A92"/>
<path d="M356.218 238.621C362.274 233.743 368.397 223.637 370.028 221.165C370.028 221.165 375.561 220.657 377.965 219.165C380.37 217.673 388.157 219.482 386.037 216.36C383.916 213.238 380.977 212.889 382.14 211.95C383.304 211.011 387.595 210.251 388.191 209.364C388.825 208.413 393.1 203.653 395.806 202.661C398.511 201.669 382.931 203.978 381.817 202.279C381.06 201.116 384.907 185.482 394.436 181.807C403.966 178.132 396.997 177.177 394.943 176.27C392.889 175.364 393.206 170.315 393.607 167.669C394.008 165.022 396.524 153.9 396.39 148.603C396.256 143.307 398.906 134.132 398.439 131.762C397.971 129.392 394.776 125.022 396.969 116.627L396.173 115.814C396.173 115.814 392.649 123.465 394.019 128.294C395.037 131.884 392.533 134.351 393.768 139.477C395.004 144.603 388.759 154.851 386.204 156.002C383.649 157.152 384.194 159.945 384.194 159.945C384.194 159.945 376.613 157.876 377.988 165.108C379.363 172.34 379.157 181.262 379.084 182.445C379.084 182.445 369.521 192.929 367.684 201.507C367.684 201.507 361.812 206.194 358.088 204.539C354.364 202.885 349.85 199.084 350.852 208.889C350.852 208.889 348.313 208.385 349.855 212.316C351.397 216.247 346.398 220.218 346.398 220.218C353.217 219.295 359.836 229.092 356.218 238.621Z" fill="#065A92"/>
<path d="M302.595 230.08C305.245 230.182 321.036 224.629 323.486 224.938C327.749 225.471 330.054 226.158 334.618 224.641C331.729 224.32 328.161 221.174 325.517 220.905C322.601 220.617 304.287 229.296 301.12 229.215C300.41 229.151 299.723 228.991 299.094 228.743C300.535 229.499 301.81 230.044 302.595 230.08Z" fill="#00090E"/>
<path d="M354.235 234.921C352.648 241.4 341.187 251.543 337.285 253.921C333.383 256.299 334.763 255.953 339.512 253.514C344.26 251.075 360.77 239.108 362.801 232.559C364.833 226.01 355.459 229.904 354.235 234.921Z" fill="#00090E"/>
<path d="M279.098 238.825C275.942 236.386 268.327 227.983 272.034 230.43C294.216 245.06 297.962 253.483 279.098 238.825Z" fill="#00090E"/>
<path d="M351.139 203.576C350.71 204.548 350.181 205.853 350.449 208.54C350.449 208.54 347.91 208.365 349.458 212.3C351.005 216.235 346.391 220.219 346.391 220.219C348.617 218.658 351.345 215.686 354.323 213.015C352.931 210.836 350.994 205.914 351.139 203.576Z" fill="#00090E"/>
<path d="M377.258 168.355C378.928 174.25 378.655 181.152 378.571 182.177C378.571 182.177 369.52 192.937 367.683 201.514C367.683 201.514 361.811 206.201 358.087 204.547C357.057 204.092 355.972 203.47 354.953 203.018C362.106 210.108 366.81 201.449 369.426 202.445C369.554 198.315 370.895 195.738 373.233 191.303C375.46 187.116 378.532 183.986 380.887 183.319C380.063 180.982 379.49 176.136 380.72 173.88C381.449 171.746 379.312 170.502 377.258 168.355Z" fill="#00090E"/>
<path d="M380.594 159.799H380.688C380.633 159.778 380.594 159.783 380.594 159.799Z" fill="#00090E"/>
<path d="M247.785 175.749C245.914 164.074 240.326 161.522 233.613 159.619L233.562 159.371C239.574 161.253 246.465 162.465 248.636 173.753L247.785 175.749Z" fill="#00090E"/>
<path d="M205.695 146.303C199.305 139.144 194.562 138.807 189.319 139.149L189.18 138.998C193.928 138.803 198.949 137.966 205.361 144.803L205.695 146.303Z" fill="#00090E"/>
<path d="M302.681 231.068C302.369 230.454 296.63 224.698 294.782 223.507C292.801 222.231 290.073 224.979 290.986 225.719C301.329 234.109 302.993 231.67 302.681 231.068Z" fill="#00090E"/>
<path d="M376.18 219.799L378.217 214.324C381.228 214.368 434.337 230.824 455.373 181.803C457.955 175.787 460.889 168.128 466.539 163.75L466.912 164.03C461.345 168.344 458.657 176.226 456.469 182.287C438.751 231.413 386.661 217.226 376.18 219.799Z" fill="#065A92"/>
<path d="M466.543 163.746C460.893 168.124 457.959 175.783 455.377 181.799C438.583 220.942 402.001 217.881 386.22 215.198C385.763 215.121 384.222 214.881 384.411 215.198C385.218 216.56 392.521 217.657 392.888 218.125C393.579 219.003 391.107 219.665 388.992 219.21C385.702 218.499 377.859 217.584 375.555 217.905V220.08C386.036 217.507 438.739 231.405 456.456 182.275C458.644 176.206 461.333 168.332 466.899 164.018L466.543 163.746Z" fill="#00090E"/>
<path d="M449.648 194.418L450.066 192.206C456.907 188.426 464.06 179.158 476.924 178.275V178.682C463.386 179.527 456.668 190.532 449.648 194.418Z" fill="#00090E"/>
<path d="M296.875 195.965L297.304 196.184C294.816 199.058 283.7 212.355 300.599 230.977C301.156 231.616 298.673 231.238 297.783 230.876C296.636 230.408 295.411 229.185 294.81 228.29C291.504 223.364 285.047 208.445 296.875 195.965Z" fill="#065A92"/>
<path d="M294.48 228.201C295.069 228.87 295.718 229.51 296.422 230.116C295.052 228.159 293.96 226.105 293.166 223.985C291.942 220.766 291.63 218.12 292.175 216.831C290.24 209.72 292.083 202.339 297.33 196.184L296.901 195.965C285.045 208.445 291.168 223.274 294.48 228.201Z" fill="#00090E"/>
<path d="M387.914 207.686L390.786 203.295C401.257 201.316 411.382 196.478 417.939 189.933C421.162 186.706 424.251 183.104 427.73 181.661C431.015 180.295 434.917 176.425 435.2 171.344H435.707C435.418 176.563 431.582 181.149 428.181 182.559C424.78 183.97 422.058 188.124 418.88 191.324C412.256 197.929 398.496 205.677 387.914 207.686Z" fill="#065A92"/>
<path d="M435.205 171.339C434.921 176.42 431.019 180.282 427.735 181.656C424.256 183.099 421.166 186.701 417.944 189.929C411.403 196.473 402.118 200.526 391.654 202.502L390.791 203.291C394.069 203.839 396.357 202.441 395.923 203.896C395.65 204.774 389.766 206.453 388.336 207.754L390.006 208.161C390.089 207.6 398.667 204.86 406.304 200.64C411.073 197.962 415.312 194.816 418.901 191.29C422.096 188.091 424.812 183.937 428.202 182.526C431.592 181.116 435.439 176.53 435.728 171.311L435.205 171.339Z" fill="#00090E"/>
<path d="M394.625 181.262L394.469 176.506C408.073 176.506 415.91 162.993 425.351 157.806C440.057 149.725 442.657 136.595 439.629 124.383L440.915 124.127C442.896 132.086 445.045 148.339 427.077 158.843C417.925 164.209 416.166 177.075 394.625 181.262Z" fill="#065A92"/>
<path d="M440.938 124.145L439.652 124.401C442.68 136.596 440.081 149.742 425.375 157.824C418.316 161.702 412.06 170.149 403.705 174.21C401.478 175.304 399.324 176.064 396.691 176.324C396.31 176.337 395.93 176.284 395.583 176.168C395.235 176.053 394.93 175.879 394.693 175.661C395.344 176.454 395.116 176.881 393.195 176.991C399.53 179.145 407.907 171.706 411.052 171.58C412.65 171.511 409.817 174.426 407.1 176.052C404.99 177.308 400.721 177.548 397.788 178.678C396.24 179.275 395.739 180.609 394.665 181.405C393.719 182.105 396.496 181.629 396.98 181.405C399.836 180.096 404.217 178.637 406.772 177.275C417.398 171.629 420.07 162.97 427.1 158.86C445.041 148.356 442.892 132.104 440.938 124.145Z" fill="#00090E"/>
<path d="M440.308 125.741C437.152 118.192 426.08 117.834 419.963 112.005C416.478 108.68 416.528 100.216 420.558 91.834L420.887 91.8584C416.885 100.98 417.274 108.387 420.648 111.603C426.693 117.367 437.063 116.928 440.731 124.172L440.308 125.741Z" fill="#00090E"/>
<path d="M418.526 109.546C414.853 106.265 412.96 102.078 412.125 98.1309L412.47 98.1593C413.301 101.654 415.204 104.965 418.036 107.846L418.526 109.546Z" fill="#00090E"/>
<path d="M440.881 125.86L440.174 124.791C441.805 121.291 440.731 115.632 439.656 112.595L439.962 112.551C441.042 115.632 442.54 122.283 440.881 125.86Z" fill="#00090E"/>
<path d="M248.23 223.055L249.104 223.331C246.983 224.063 244.729 226.319 244.545 228.616L244.289 228.579C244.712 224.945 246.555 223.945 248.23 223.055Z" fill="#00090E"/>
<path d="M425.781 183.262L424.039 183.986C428.492 177.628 425.932 170.872 427.24 164.799L427.624 164.868C426.199 171.506 429.884 177.413 425.781 183.262Z" fill="#00090E"/>
<path d="M324.099 53.2928C303.13 48.1992 306.754 38.2072 308.14 32.386L307.895 32.3535C306.236 37.3576 303.019 48.496 321.16 53.3619L324.099 53.2928Z" fill="#00090E"/>
<path d="M249.359 181.047L246.632 183.649C246.66 183.551 249.092 172.648 246.404 162.819C244.84 157.128 237.125 151.746 232.516 149.404L232.633 149.254C237.319 151.644 245.853 156.847 247.801 163.254C250.812 173.132 249.387 180.949 249.359 181.047Z" fill="#00090E"/>
<path d="M393.841 127.818C392.232 119.078 385.563 103.147 382.341 100.635C379.118 98.1225 371.564 94.7119 369.961 90.472L370.167 90.4395C371.714 94.5045 380.153 98.1631 383.393 100.683C386.632 103.204 393.256 116.513 394.882 125.289L393.841 127.818Z" fill="#00090E"/>
<path d="M396.007 123.208L393.875 117.082C396.346 104.021 398.885 97.9235 406.026 94.3869C411.854 91.4926 427.062 81.4355 429.455 68.7768C430.942 60.9068 436.135 52.8254 436.196 52.7441L436.653 52.9108C433.434 58.0042 431.313 63.43 430.363 68.9964C428.136 81.7933 413.034 92.4926 407.156 95.4194C400.265 98.8504 398.467 110.123 396.007 123.208Z" fill="#00090E"/>
<path d="M399.281 104.562C396.175 101.399 391.321 94.6473 393.609 84.9236C395.563 76.6389 403.172 65.0494 403.25 64.9355L403.723 65.0982C403.65 65.212 396.91 75.7162 394.978 83.9358C392.751 93.505 397.728 99.253 400.778 102.359L399.281 104.562Z" fill="#00090E"/>
<path d="M395.767 118.351L394.186 123.266L391.898 118.278C391.487 109.253 389.394 99.0539 385.809 93.4807C382.736 88.7083 376.997 78.0334 376.285 72.9357C375.661 68.4641 370.006 60.6754 361.884 57.6388C337.392 48.468 321.528 57.9722 308.002 51.4761C300.871 48.0493 289.789 39.228 289.672 39.1427L290.017 38.8906C290.128 38.976 301.706 47.9273 308.865 51.2078C320.554 56.529 337.76 47.3948 363.081 56.8014C371.37 59.8827 377.348 68.1064 377.982 72.6553C378.695 77.7163 384.662 88.005 387.696 92.749C391.325 98.3588 395.344 109.265 395.767 118.351Z" fill="#00090E"/>
<path d="M376.679 69.6593L374.786 65.7568C376.144 57.838 372.298 49.8338 367.733 45.9801C363.625 42.5167 363.364 35.3255 365.462 28.0938L365.807 28.1954C364.31 34.1101 363.47 41.4516 369.041 45.8582C374.391 50.0981 377.937 62.2771 376.679 69.6593Z" fill="#00090E"/>
<path d="M362.29 56.9892C356.946 52.2737 351.536 50.6395 344.917 48.1923C337.714 45.5216 329.37 42.237 321.75 35.1149L321.967 34.9727C329.899 42.1516 338.766 45.3305 345.93 47.9809C352.321 50.3671 360.225 53.3103 365.635 58.0908L362.29 56.9892Z" fill="#00090E"/>
<path d="M396.476 77.8135C396.844 71.5573 394.679 68.4637 394.656 68.4637L394.918 68.3418C395.007 68.4597 397.105 71.2646 397.144 76.3582L396.476 77.8135Z" fill="#00090E"/>
<path d="M343.276 47.4152C338.411 43.2648 337.548 40.3623 337.543 40.3379H337.281C337.309 40.4517 338.022 43.1428 341.734 46.6469L343.276 47.4152Z" fill="#00090E"/>
<path d="M364.421 35.9032C362.523 31.517 359.84 30.0414 359.812 30.0414L359.968 29.8828C360.074 29.9397 362.618 31.2609 364.421 34.7325V35.9032Z" fill="#00090E"/>
<path d="M326.079 57.8828C321.52 61.8991 321.32 65.0008 321.32 65.0292L321.008 64.9845C321.008 64.8666 321.091 61.9764 324.504 58.5414L326.079 57.8828Z" fill="#00090E"/>
<path d="M429.648 70.582L429.888 69.1186C433.044 66.8495 436.984 65.2479 441.288 64.4844L441.388 64.6876C434.714 65.8137 429.699 70.5373 429.648 70.582Z" fill="#00090E"/>
<path d="M441.414 123.619V122.48C441.587 122.224 443.401 120.131 445.823 119.334L445.923 119.48C444.348 119.968 441.865 122.253 441.414 123.619Z" fill="#00090E"/>
<path d="M415.967 106.124L415.338 104.993C415.232 104.937 412.738 103.558 410.367 103.262V103.4C411.837 103.575 414.742 105.091 415.967 106.124Z" fill="#00090E"/>
<path d="M418.957 162.535L417.07 164.482C417.07 164.417 420.41 157.039 419.469 149.937L419.67 149.848C421.078 156.059 418.98 162.47 418.957 162.535Z" fill="#00090E"/>
<path d="M395.656 152.295L395.834 154.384C397.314 150.992 400.421 148.105 404.585 146.254L404.501 146.1C398.84 148.152 395.684 152.25 395.656 152.295Z" fill="#00090E"/>
<path d="M398.637 149.783L397.641 150.718C400.184 149.691 403.151 149.375 405.99 149.827L406.029 149.738C403.602 149.278 401.053 149.294 398.637 149.783V149.783Z" fill="#00090E"/>
<path d="M394.29 132.669L393.354 134.921C393.42 131.239 391.599 127.673 388.25 124.921L388.384 124.705C393.07 127.648 394.278 132.62 394.29 132.669Z" fill="#00090E"/>
<path d="M441.297 205.676L443.156 203.237C445.455 202.424 453.688 201.729 457.022 202.672L456.749 202.827C447.515 201.811 443.607 204.144 441.297 205.676Z" fill="#00090E"/>
<path d="M290.513 218.011L290.368 215.076C288.899 213.45 282.281 209.621 278.891 209.182L279.024 209.43C287.485 212.1 289.444 215.73 290.513 218.011Z" fill="#00090E"/>
<path d="M347.57 247.247L351.116 244.682C354.339 244.275 364.704 245.719 368.261 247.841L367.854 247.962C357.15 244.109 351.183 245.962 347.57 247.247Z" fill="#00090E"/>
<path d="M248.725 167.847L248.102 166.51C248.475 164.643 249.644 162.91 251.441 161.555L251.592 161.669C248.658 163.994 248.742 167.799 248.725 167.847Z" fill="#00090E"/>
<path d="M208.825 153.29L206.186 156.7C206.448 145.2 203.96 141.712 195.966 136.375C192.209 133.867 191.023 130.379 191.196 126.708C191.368 123.2 193.578 119.879 196.963 118.037L197.274 118.346C194.007 120.122 191.875 123.334 191.708 126.728C191.541 130.285 193.823 133.322 197.464 135.749C205.596 141.167 207.099 142.533 208.825 153.29Z" fill="#00090E"/>
<path d="M204.666 182.379C192.899 172.383 173.238 167.282 163.113 165.778C153.361 164.33 146.97 157.111 144.516 151.387L145.011 151.273C147.644 157.339 154.262 163.623 163.18 164.944C173.355 166.457 191.056 165.891 205.017 176.099L204.666 182.379Z" fill="#00090E"/>
<path d="M173.329 167.88C163.487 166.336 145.692 170.266 140.203 160.344L140.687 160.197C146.048 169.884 161.172 165.327 171.302 166.913L173.329 167.88Z" fill="#00090E"/>
<path d="M192.632 170.819C192.442 166.457 189.292 148.087 184.933 140.014C176.896 125.107 189.581 109.631 186.392 93.3548C184.889 85.6961 187.572 64.8991 191.285 60.2324L192.242 60.5454C188.574 65.1552 186.603 85.7693 188.101 93.3873C190.928 107.774 180.959 127.282 188.34 140.518C190.672 144.701 194.647 157.266 197.497 164.941C198.398 167.38 199.367 170.498 200.425 170.896C200.798 171.035 201.538 170.539 201.638 169.929L202.891 172.165L202.334 175.604L192.632 170.819Z" fill="#00090E"/>
<path d="M185.336 140.204C175.795 130.419 175.199 114.87 160.794 107.87C154.348 104.74 137.704 97.6426 134.698 88.5775C131.086 77.6871 134.548 67.6951 144.941 58.9023L145.219 59.0812C134.943 67.8049 132.294 77.5448 135.867 88.3092C138.818 97.1914 156.719 104.244 163.143 107.37C177.715 114.448 179.753 129.545 185.141 134.379L185.336 140.204Z" fill="#00090E"/>
<path d="M145.626 99.554C131.71 94.5255 126.967 86.3547 126.906 86.2815L127.268 86.2246C127.329 86.2978 131.259 92.997 143.861 97.5296L145.626 99.554Z" fill="#00090E"/>
<path d="M187.314 103.924C185.772 97.0869 176.594 86.9932 170.415 82.4403C165.767 79.0053 153.682 74.3508 148.055 67.3751L148.478 67.1719C154.968 74.4077 167.509 78.9281 172.135 82.3428C178.352 86.9404 184.765 92.1315 187.582 96.4812L187.314 103.924Z" fill="#00090E"/>
<path d="M188.725 68.6599L187.668 72.9689C188.325 51.0174 170 60.1679 169.188 34.6839L169.566 34.627C170.189 58.4362 187.2 50.8304 188.725 68.6599Z" fill="#00090E"/>
<path d="M188.331 145.897L186.895 141.567C180.404 132.279 164.752 122.693 138.328 123.466L138.517 123.933C166.811 123.043 181.367 135.116 188.331 145.897Z" fill="#00090E"/>
<path d="M217.727 72.8183L218.567 74.4443C217.66 70.6191 221.551 64.8182 221.595 64.7694L221.339 64.623C221.2 64.8263 218.25 68.6068 217.727 72.8183Z" fill="#00090E"/>
<path d="M219.291 133.953C218.762 127.876 220.833 118.042 225.937 112.481C233.096 104.68 227.296 93.2005 227.24 93.0704L227.73 92.9688C227.785 93.1029 233.619 105.884 227.663 112.603C222.944 117.905 220.959 124.259 222.063 130.53L219.291 133.953Z" fill="#00090E"/>
<path d="M225.367 115.213L226.436 113.445C233.043 112.03 242.334 107.648 246.291 101.981C249.297 97.6801 263.914 95.0703 266.759 86.1759C267.438 84.0539 267.271 80.5986 267.076 76.6108C266.714 68.9562 266.252 59.4805 271.724 54.4316L272.119 54.6674C266.759 59.6187 267.699 69.0863 268.067 76.6758C268.262 80.6962 268.69 84.3995 267.995 86.5906C265.106 95.6232 249.909 98.3468 246.286 103.518C242.261 109.31 233.795 113.428 225.367 115.213Z" fill="#00090E"/>
<path d="M229.422 108.729L229.561 106.952C234.07 102.952 239.085 92.4723 237.911 83.0861L238.328 83.0332C239.48 92.5008 234.526 103.851 229.422 108.729Z" fill="#00090E"/>
<path d="M177.876 88.2946L180.136 90.2702C177.514 85.7986 174.831 74.0098 178.266 65.9447L177.943 65.8105C174.475 73.9448 175.683 83.9124 177.876 88.2946Z" fill="#00090E"/>
<path d="M161.156 126.258L162.77 126.538C160.059 125.388 154.532 121.49 152.751 117.758H152.578C154.376 121.538 158.657 125.055 161.156 126.258Z" fill="#00090E"/>
<path d="M232.266 121.318L233.646 120.326C239.541 120.188 249.288 118.375 255.984 114.676L256.307 114.773C250.523 118.44 239.19 121.042 232.266 121.318Z" fill="#00090E"/>
<path d="M333.981 53.0584L332.15 52.8633C324.88 60.5422 311.42 62.091 311.281 62.1073L311.432 62.5138C311.571 62.4894 325.887 60.404 333.981 53.0584Z" fill="#00090E"/>
<path d="M309.724 52.0907L308.46 51.359C298.246 54.4322 287.136 51.1517 287.019 51.1191L286.891 51.4525C287.002 51.485 299.087 54.6598 309.724 52.0907Z" fill="#00090E"/>
<path d="M264.484 91.3637L265.598 89.0954C267.986 87.6645 271.721 84.323 273.513 75.0465C275.278 65.9651 287.357 66.5545 287.485 66.5464V66.6724C287.362 66.6724 275.628 66.2659 273.936 75.7782C272.467 84.1319 268.091 89.819 264.484 91.3637Z" fill="#00090E"/>
<path d="M383.014 100.891C382.497 99.5343 382.387 98.1118 382.691 96.7207L382.992 96.7776C382.741 98.3345 383.125 99.7736 384.45 101.749L383.014 100.891Z" fill="#00090E"/>
<path d="M417.883 101.091C419.453 98.1764 423.032 95.7454 425.486 94.4568L425.364 94.2129C422.524 95.6425 420.085 97.4556 418.178 99.5544L417.883 101.091Z" fill="#00090E"/>
<path d="M272.328 80.9608L272.79 79.3916C274.872 79.4607 276.898 74.3387 284.73 73.5176L284.78 73.7249C277.182 74.5217 275.774 79.6355 272.328 80.9608Z" fill="#00090E"/>
<path d="M185.516 112.421L186.122 110.795C192.579 108.892 200.929 104.213 203.484 98.9654C205.438 94.9572 219.587 91.3555 220.333 83.3229C220.517 81.3757 219.515 78.2903 218.346 74.6805C216.069 67.6317 213.164 58.6641 217.661 53.4648L218.14 53.6722C213.743 58.7657 217.127 67.6805 219.376 74.6643C220.55 78.2944 221.87 81.5993 221.68 83.5872C220.912 91.7417 206.239 95.4775 203.868 100.282C201.291 105.652 193.743 110.006 185.516 112.421Z" fill="#00090E"/>
<path d="M202.485 101.18L203.476 99.1716C202.719 97.139 202.457 93.2081 208.719 86.0373C214.982 78.8665 204.456 73.9436 204.372 73.8867L204.255 73.968C204.355 74.0249 214.447 78.8908 207.762 86.3381C202.001 92.7284 200.865 98.513 202.485 101.18Z" fill="#00090E"/>
<path d="M204.737 90.6361L205.667 89.3556C203.914 88.4694 206.524 84.0262 200.819 80.0059L200.602 80.1278C206.14 84.0303 203.045 88.1726 204.737 90.6361Z" fill="#00090E"/>
<path d="M170.209 129.669L168.255 129.047C166.941 130.161 160.184 128.392 154.172 131.986L154.356 132.124C160.189 128.636 166.518 130.714 170.209 129.669Z" fill="#00090E"/>
<path d="M198.861 137.522L197.747 136.237C198.861 135.465 195.471 131.034 198.677 127.412L198.877 127.542C195.782 131.054 199.434 135.225 198.861 137.522Z" fill="#00090E"/>
<path d="M254.824 150.594L253.633 148.464C256.193 147.192 251.557 137.444 259.722 130.984L260.062 131.293C252.147 137.562 257.073 146.127 254.824 150.594Z" fill="#00090E"/>
<path d="M344.211 241.597C350.406 238.585 351.954 236.003 352.666 231.39C352.761 227.556 355.527 225.633 357.008 224.418C357.008 224.418 353.796 229.471 355.065 231.694C356.335 233.918 357.954 233.028 357.954 233.028L356.212 238.621L344.211 241.597Z" fill="#00090E"/>
<path d="M389.273 217.214C389.273 217.214 397.879 219.092 399.794 220.242C400.117 219.87 400.257 219.428 400.189 218.989C400.121 218.551 399.85 218.142 399.421 217.832C398.664 217.259 394.957 216.998 389.273 217.214Z" fill="#065A92"/>
<path d="M395.294 139.265C394.309 140.7 394.181 136.725 394.114 135.891C394.048 135.058 394.671 132.781 395.105 132.391C398.278 129.403 399.024 133.867 395.294 139.265Z" fill="#065A92"/>
<path d="M392.133 149.661C392.133 150.474 394.966 147.978 395.161 147.628C395.885 146.36 395.896 143.441 395.718 143.189C395.3 142.478 392.127 148.945 392.133 149.661Z" fill="#065A92"/>
<path d="M373.94 193.745C373.801 194.831 379.323 192.985 379.813 192.664C382.718 190.766 381.833 185.188 381.722 184.806C381.416 183.737 374.597 188.721 373.94 193.745Z" fill="#065A92"/>
<path d="M394.953 141.462C394.953 141.868 396.556 141.076 396.684 140.889C397.191 140.145 397.191 135.986 397.096 135.689C396.807 134.803 394.937 141.059 394.953 141.462Z" fill="#065A92"/>
<path d="M390.555 175.385C391.189 176.511 393.928 177.925 398.08 176.864L393.928 175.893C394.846 176.616 391.957 176.702 390.555 175.385Z" fill="#00090E"/>
<path d="M381.004 212.563C378.872 211.669 377.08 210.905 375.438 209.246C377.965 210.689 379.434 211.279 381.939 211.612L381.004 212.563Z" fill="#00090E"/>
<path d="M331.529 223.584C327.388 225.848 323.18 229.921 323.18 229.921C327.122 227.468 331.699 225.618 336.639 224.482C334.847 224.599 333.052 224.283 331.529 223.584V223.584Z" fill="#00090E"/>
<path d="M296.584 242.58C294.235 245.539 297.575 248.6 299.239 258.381L294.43 248.861C296.116 249.34 293.734 244.609 296.584 242.58Z" fill="#00090E"/>
<path d="M251.755 217.975C254.249 217.194 265.939 219.796 273.665 222.625C277.823 224.146 281.124 222.845 287.659 223.967C283.033 221.43 276.108 222.902 275.134 222.434C271.488 220.682 259.198 218.068 254.377 216.036C249.557 214.003 236.526 204.702 236.526 204.702C236.526 204.702 238.018 207.849 235.546 208.141C233.075 208.434 222.359 199.727 222.359 199.727L225.755 210.503C229.418 218.406 237.327 216.902 237.327 216.902C239.487 218.735 251.31 223.471 255.379 224.524C273.32 235.499 270.815 239.768 270.815 239.768C270.815 239.768 277.717 237.658 278.224 237.239C273.531 232.861 247.024 219.475 251.755 217.975Z" fill="#00090E"/>
<path d="M355.044 229.019C355.495 226.372 362.035 216.555 363.499 220.636C364.701 223.87 364.186 227.315 362.058 230.283C361.668 230.799 353.435 238.482 355.044 229.019Z" fill="#065A92"/>
<path d="M287.759 230.043C283.862 229.974 267.202 226.567 272.106 224.303C274.366 223.258 284.302 223.421 287.514 224.275C288.343 224.502 301.569 230.299 287.759 230.043Z" fill="#065A92"/>
<path d="M270.055 223.816C274.625 222.84 278.02 223.568 282.017 223.409L279.345 222.438C275.014 222.539 272.214 222.746 270.055 223.816Z" fill="#00090E"/>
<path d="M293.539 226.384C290.095 224.825 286.231 223.829 282.211 223.465L284.755 222.908C288.796 223.945 291.802 224.868 293.539 226.384Z" fill="#00090E"/>
<path d="M284.193 231.283C283.843 233.633 288.374 238.629 289.376 239.535L284.627 239.194C283.575 237.641 283.408 232.889 284.193 231.283Z" fill="#00090E"/>
<path d="M357.672 68.3418L357.461 68.5816C365.321 72.5695 377.272 80.4395 381.953 86.8339C381.908 86.2526 381.68 84.7038 381.664 84.155C376.32 78.4395 364.853 71.976 357.672 68.3418Z" fill="#00090E"/>
<path d="M374.098 27.4277L374.248 27.5985C370.959 30.8505 366.272 37.1148 365.003 42.0377C364.925 41.6068 364.769 40.4441 364.68 40.0336C366.405 35.5904 371.092 30.3831 374.098 27.4277Z" fill="#00090E"/>
<path d="M389.581 152.59C389.23 152.216 390.845 148.432 390.767 146.83C390.728 145.968 393.294 145.48 393.294 145.48C393.294 145.48 391.112 151.237 389.581 152.59Z" fill="#00090E"/>
<path d="M344.9 232.889C341.978 229.828 341.705 225.222 344.594 223.052C346.487 221.629 350.673 219.625 351.574 221.251C354.313 226.214 349.916 238.174 344.9 232.889Z" fill="#065A92"/>
<path d="M349.891 213.165C351.961 220.043 336.587 224.816 332.523 224.19L330.297 226.393C332.523 225.507 338.029 223.783 339.815 227.637C339.71 225.023 347.981 218.946 355.568 212.938L349.891 213.165Z" fill="#00090E"/>
<path d="M341.861 232.199C339.996 230.223 340.675 228.02 341.772 226.613C341.026 229.821 342.145 230.105 341.861 232.199Z" fill="#00090E"/>
<path d="M396.655 130.4C395.887 132.083 393.561 127.921 393.872 126.067C394.178 124.327 394.986 122.701 395.269 122.851C395.553 123.002 397.145 129.331 396.655 130.4Z" fill="#065A92"/>
<path d="M366.911 222.791L368.787 221.783C368.787 221.783 368.231 216.137 369.901 211.84C369.884 211.84 366.065 217.958 366.911 222.791Z" fill="#00090E"/>
<path d="M354.547 202.246C354.547 202.246 357.525 205.323 359.134 206.214C360.466 206.89 362.081 207.205 363.698 207.104C360.375 206.726 356.328 203.693 354.547 202.246Z" fill="#00090E"/>
<path d="M369.693 197.393C369.693 197.393 370.016 201.051 369.554 202.417C369.136 203.484 368.189 204.4 366.898 204.986C369.075 203.332 369.576 199.271 369.693 197.393Z" fill="#00090E"/>
<path d="M341.712 235.734C343.894 239.913 336.029 250.478 331.531 255.495L343.349 247.576C348.971 239.917 341.712 235.734 341.712 235.734Z" fill="#00090E"/>
<path d="M256.006 219.929C254.781 220.628 248.986 221.283 241.099 217.267C238.277 215.828 226.765 209.47 227.183 208.413C227.556 207.458 236.534 209.319 239.429 210.1C243.888 211.303 258.221 218.661 256.006 219.929Z" fill="#065A92"/>
<path d="M230.417 211.145C227.272 209.519 215.065 206.003 214.692 204.117C214.319 202.23 222.641 202.836 223.192 202.942C225.335 203.348 228.446 207.905 235.516 209.198C237.019 209.474 230.673 211.275 230.417 211.145Z" fill="#065A92"/>
<path d="M230.961 209.758C234.006 209.547 239.622 210.091 242.456 211.091C242.456 211.091 239.088 208.868 236.333 208.709C234.427 208.573 232.519 208.946 230.961 209.758V209.758Z" fill="#00090E"/>
<path d="M256.762 223.178C254.747 221.552 250.829 219.897 249.281 217.08C249.523 218.827 250.565 220.464 252.237 221.726L256.762 223.178Z" fill="#00090E"/>
<path d="M318.617 255.771C329.06 254.145 335.801 244.539 333.518 241.478C331.292 238.523 327.295 244.413 326.744 248.048C325.959 253.214 318.617 255.771 318.617 255.771Z" fill="#065A92"/>
<path d="M365.633 207.031C375.975 206.299 383.484 197.417 381.319 194.478C379.231 191.633 374.166 196.653 373.526 199.905C372.585 204.543 365.633 207.031 365.633 207.031Z" fill="#065A92"/>
<path d="M302.336 250.223C303.516 255.101 308.915 261.987 313.396 262.125C317.877 262.263 324.229 256.251 324.229 256.251C324.229 256.251 316.157 261.593 312.261 260.723C307.529 259.629 302.336 250.223 302.336 250.223Z" fill="#065A92"/>
<path d="M222.546 201.666C224.494 203.117 217.837 202.251 216.796 201.373C215.365 200.178 211.096 195.3 212.343 193.243C213.589 191.186 220.135 199.865 222.546 201.666Z" fill="#065A92"/>
<path d="M368.335 211.828C366.359 215.596 362.507 228.645 360.475 227.112C358.444 225.58 358.093 213.291 360.08 210.393C362.067 207.494 371.185 206.389 368.335 211.828Z" fill="#065A92"/>
<path d="M253.729 222.807C249.688 221.889 246.915 222.901 244.951 223.913C242.986 224.925 238.939 226.421 237.286 226.214L237.258 226.47C239.189 226.718 243.937 225.133 245.808 224.177C247.678 223.222 251.374 223.218 255.182 224.088L253.729 222.807Z" fill="#00090E"/>
<path d="M385.513 180.043C383.843 183.884 383.899 188.616 383.933 191.515L386.064 186.283C384.322 184.458 385.513 180.043 385.513 180.043Z" fill="#00090E"/>
<path d="M304.656 234.788C308.937 235.386 312.885 236.887 316.012 239.105C315.672 238.272 315.083 237.505 314.286 236.86C313.49 236.214 312.507 235.706 311.408 235.373C307.545 234.109 304.656 234.788 304.656 234.788Z" fill="#065A92"/>
<path d="M387.109 209.339L389.692 207.685C389.78 206.631 390.266 205.615 391.095 204.75C390.071 205.449 387.505 207.299 387.109 209.339Z" fill="#00090E"/>
<path d="M403.152 178.416C400.091 179.514 393.478 181.388 390.539 181.579C390.539 181.579 394.658 180.636 396.862 179.14C399.067 177.644 403.152 178.416 403.152 178.416Z" fill="#00090E"/>
<path d="M376.328 166.465C378.349 169.514 381.071 170.172 382.379 171.749C382.902 172.375 383.954 175.282 383.954 175.282C383.954 175.282 381.995 172.006 380.375 171.453C379.241 170.989 378.273 170.337 377.547 169.55L376.328 166.465Z" fill="#00090E"/>
<path d="M379.234 204.083C381.522 204.917 387.673 203.238 391.642 203.185C390.522 202.89 389.336 202.752 388.146 202.779C386.448 202.949 382.719 204.311 379.234 204.083Z" fill="#00090E"/>
<path d="M267.658 222.861C269.762 224.894 269.945 226.951 267.886 226.373C265.826 225.796 254.766 221.089 253.586 219.987C251.326 217.914 266.121 221.369 267.658 222.861Z" fill="#065A92"/>
<path d="M355.573 223.421C354.459 223.9 353.118 218.319 353.747 216.319C354.253 214.693 357.276 212.339 358.874 213.128C360.471 213.916 357.243 222.701 355.573 223.421Z" fill="#065A92"/>
<path d="M353.55 213.876C352.437 215.718 352.041 219.161 352.921 220.909C353.951 222.966 352.531 221.336 352.247 220.759C351.236 219.108 350.76 217.309 350.856 215.502C351.095 212.828 353.55 213.876 353.55 213.876Z" fill="#00090E"/>
<path d="M235.183 245.535C232.79 243.502 229.567 243.364 224.802 240.71C220.794 238.478 219.314 236.754 218.234 234.933C215.862 230.962 208.537 226.896 203.761 226.803C201.635 226.766 198.573 226.693 195.412 224.449L195.328 224.522C198.612 226.856 201.067 226.892 203.277 226.929C208.287 227.002 214.783 231.644 217.193 235.604C218.306 237.47 218.167 240.405 222.431 242.653C227.301 245.226 226.121 246.807 226.494 247.486L235.183 245.535Z" fill="#00090E"/>
<path d="M221.065 240.206C219.245 239.231 214.224 240.178 209.932 238.922C205.885 237.739 204.238 236.727 202.1 234.58C199.963 232.434 197.503 230.922 194.508 230.625V230.71C197.413 230.979 199.724 232.767 201.822 234.873C203.921 236.979 206.086 239.231 210.205 240.438C214.53 241.706 223.364 241.426 223.447 241.422L221.065 240.206Z" fill="#00090E"/>
<path d="M202.701 235.547C199.155 235.515 192.898 231.783 188.812 232.21L188.851 232.303C192.837 231.99 199.739 235.986 203.435 236.25L202.701 235.547Z" fill="#00090E"/>
<path d="M215.404 232.104C214.742 228.905 209.576 223.73 209.281 219.738L209.398 219.763C209.821 223.637 215.349 229.34 216.261 232.604L215.404 232.104Z" fill="#00090E"/>
<path d="M189.077 246.364C188.32 246.527 179.547 243.799 173.836 249.112C173.87 249.136 173.908 249.158 173.947 249.177C180.588 243.657 188.158 247.36 192.762 247.799L189.077 246.364Z" fill="#00090E"/>
<path d="M229.793 243.325C229.509 242.609 223.598 239.117 224.973 232.02L225.056 232.044C223.943 240.003 229.866 241.654 232.265 244.381L229.793 243.325Z" fill="#00090E"/>
<path d="M227.678 241.116L227.327 240.458C226.431 240.214 224.806 238.941 223.987 237.043L223.859 237.104C225.229 240.076 226.526 240.632 227.678 241.116Z" fill="#00090E"/>
<path d="M195.31 222.467C192.761 223.759 191.509 226.194 191.82 227.613C192.216 229.39 193.924 227.975 194.08 227.812C194.141 227.987 194.96 228.93 195.962 227.438C196.808 226.186 195.739 223.215 195.31 222.467Z" fill="#FFB35B"/>
<path d="M426.531 258.377L430.01 260.409C430.631 265.995 433.635 271.299 438.599 275.572C441.059 277.605 443.859 279.674 444.722 281.597C445.557 283.418 448.513 285.914 452.944 286.82L452.905 287.072C448.357 286.146 444.767 283.568 443.904 281.686C443.041 279.804 439.724 277.869 437.291 275.832C432.281 271.629 427.099 263.804 426.531 258.377Z" fill="#065A92"/>
<path d="M452.956 286.825C448.502 285.918 445.569 283.422 444.734 281.601C443.855 279.678 441.055 277.63 438.611 275.577C433.651 271.422 431.163 266.304 430.607 260.942L430.05 260.414C429.215 261.93 430.167 263.26 428.937 262.825C428.207 262.568 426.988 260.06 426.025 259.166L425.914 259.32C426.387 259.438 427.807 263.999 430.612 268.325C432.391 271.033 434.648 273.56 437.325 275.841C439.758 277.874 443.081 279.821 443.938 281.695C444.795 283.569 448.391 286.166 452.939 287.081L452.956 286.825Z" fill="#00090E"/>
<path d="M443.555 280.405L443.109 279.441C448.18 282.584 454.392 282.324 459.591 283.876L459.491 284.055C453.802 282.356 448.214 283.295 443.555 280.405Z" fill="#00090E"/>
<path d="M395.715 243.051C400.169 247.01 406.893 249.754 411.162 249.819C415.432 249.884 425.123 251.498 427.516 253.811C427.516 253.811 434.608 256.327 436.127 258.588C437.647 260.848 452.86 267.124 462.746 264.766C471.791 262.612 475.738 256.279 494.296 254.937C494.347 254.991 494.393 255.046 494.435 255.104C476.745 256.953 472.659 263.193 464.332 266.08C462.25 266.795 457.035 268.775 447.037 267.201C444.093 266.734 432.47 261.006 430.817 261.331C429.025 261.681 430.26 263.624 430.26 263.624C430.26 263.624 426.87 263.027 425.807 261.88C424.744 260.734 420.859 256.018 416.767 254.811C412.676 253.604 399.545 253.344 392.019 250.339C384.494 247.335 395.715 243.051 395.715 243.051Z" fill="#065A92"/>
<path d="M405.522 250.799C405.745 249.645 395.208 245.921 394.462 243.238C394.898 242.964 395.249 242.626 395.492 242.246C399.917 246.205 406.892 249.758 411.161 249.823C415.431 249.888 425.122 251.502 427.515 253.815C427.515 253.815 434.607 256.332 436.126 258.592C437.646 260.852 452.859 267.128 462.745 264.771C471.79 262.616 475.737 256.283 494.295 254.941C494.346 254.995 494.392 255.051 494.434 255.108C476.744 256.958 472.659 263.198 464.331 266.084C462.249 266.799 457.034 268.779 447.037 267.206C444.092 266.738 432.469 261.011 430.816 261.336C429.024 261.685 430.259 263.628 430.259 263.628C430.259 263.628 426.87 263.031 425.806 261.885C424.743 260.738 420.635 256.258 416.544 255.051C412.453 253.844 401.097 253.726 391.401 250.531C390.222 250.05 389.157 249.432 388.25 248.701C395.503 249.555 405.316 251.872 405.522 250.799Z" fill="#00090E"/>
<path d="M417.125 250.87C419.352 251.109 423.248 252.26 423.193 252.658C423.137 253.057 420.231 253.374 418.033 253.138C415.834 252.902 412.205 251.378 412.282 250.983C412.36 250.589 414.927 250.634 417.125 250.87Z" fill="#065A92"/>
<path d="M453.887 267.649C455.329 268.787 473.982 272.121 476.709 284.694C476.637 284.698 476.564 284.698 476.492 284.694C472.345 270.8 455.223 270.625 445.766 266.832L453.887 267.649Z" fill="#00090E"/>
<path d="M425.789 261.865C428.951 265.239 434.773 273.89 435.352 277.524C435.931 281.158 435.113 283.26 437.707 283.792C437.707 283.792 438.887 276.678 437.317 273.983C435.747 271.288 429.942 264.296 429.524 261.894C429.107 259.491 425.789 261.865 425.789 261.865Z" fill="#00090E"/>
<path d="M436.734 281.856C437.547 285.072 446.008 293.738 456.907 297.137C473.333 302.263 482.768 307.82 485.14 314.478L485.529 314.405C483.108 307.608 474.474 301.661 457.864 296.482C447.149 293.141 438.538 282.982 437.747 279.84L436.734 281.856Z" fill="#00090E"/>
<path d="M477.73 305.711C490.11 308.557 493.583 314.76 495.281 321.297L495.532 321.353C493.99 316.244 492.821 308.569 476.094 304.561L477.73 305.711Z" fill="#00090E"/>
<path d="M416.406 310.561L416.729 310.923C436.59 300.939 435.042 297.362 436.44 278.809L434.697 275.402C433.295 293.805 436.061 301.228 416.406 310.561Z" fill="#00090E"/>
<path d="M458.227 267.309C466.186 269.801 481.945 270.488 487.934 271.146C501.477 272.63 517.436 284.065 528.012 299.354L528.569 299.211C517.848 283.707 502.095 271.24 488.352 269.736C482.396 269.085 468.775 268.227 461.121 266.357L458.227 267.309Z" fill="#00090E"/>
<path d="M483.664 307.102L484.438 307.537C485.456 307.191 488.156 307.13 490.11 308.281L490.232 308.212C488.379 306.716 484.916 306.683 483.664 307.102Z" fill="#00090E"/>
<path d="M461.68 270.572L463.21 271.544C465.788 271.544 471.098 272.963 474.827 275.747L475.095 275.58C469.038 271.243 465.17 270.881 461.68 270.572Z" fill="#00090E"/>
<path d="M476.796 259.312L475.227 259.54C476.813 258.097 479.229 254.34 479.04 251.527L479.351 251.475C479.39 255.893 478.082 257.406 476.796 259.312Z" fill="#00090E"/>
<path d="M518.684 287.698L517.57 286.689C518.411 288.409 519.396 291.462 517.804 295.596L518.049 295.763C519.858 291.055 519.196 289.474 518.684 287.698Z" fill="#00090E"/>
<path d="M435.135 310.889L435.324 310.8C435.28 310.751 431.016 303.43 433.949 297.133L432.068 300.064C431.478 303.369 433.654 309.161 435.135 310.889Z" fill="#00090E"/>
<path d="M514.141 283.548C518.288 284.032 524.093 286.056 524.16 286.08L524.288 285.901C524.054 285.808 518.488 283.617 514.235 283.125L514.141 283.548Z" fill="#00090E"/>
<path d="M378.888 230.207C376.339 233.837 366.715 246.089 364.828 244.524C362.941 242.959 364.221 230.926 366.659 228.138C369.097 225.349 382.579 224.959 378.888 230.207Z" fill="#00090E"/>
<path d="M250.478 336.834C248.658 337.691 246.517 338.111 244.355 338.033C242.868 337.948 241.391 338.275 240.219 338.948H251.908L250.478 336.834Z" fill="#065A92"/>
<path d="M282.265 248.028C282.265 248.028 258.541 249.422 254.433 250.435C250.325 251.447 237.01 253.788 233.837 253.321C233.837 253.321 228.638 258.093 219.431 253.516L208.109 246.516C208.109 246.516 224.781 248.646 226.551 247.292C228.321 245.939 227.146 243.768 227.146 243.768C227.146 243.768 241.535 245.707 247.03 245.126C252.524 244.544 264.525 241.113 268.844 240.849C269.996 240.776 274.767 237.3 279.175 236.264C312.045 243.548 282.265 248.028 282.265 248.028Z" fill="#065A92"/>
<path d="M136.771 219.413C132.652 219.267 124.775 228.999 110.965 230.527L110.898 230.198C119.844 229.332 129.229 222.6 133.982 216.531L136.771 219.413Z" fill="#00090E"/>
<path d="M134.196 217.926C114.062 223.313 82.9848 216.914 71.9522 219.109C59.7841 221.508 38.977 231.264 31.9355 247L31.6016 246.935C38.7154 231.048 58.9436 220.353 71.9355 217.894C83.1518 215.772 112.531 221.426 131.268 214.764L134.196 217.926Z" fill="#00090E"/>
<path d="M187.261 285.78L186.922 285.475C193.162 281.784 197.76 276.438 199.524 273.662C201.478 270.585 202.163 269.975 207.534 267.231C212.906 264.487 227.267 256.17 222.619 254.8L233.824 253.32C226.588 259.011 215.405 264.154 209.95 266.938C204.495 269.723 202.235 271.162 200.376 274.097C197.693 278.353 192.254 282.825 187.261 285.78Z" fill="#00090E"/>
<path d="M200.471 272.292C190.546 276.028 182.413 272.516 173.234 274.687V274.353C183.504 271.914 189.622 275.613 201.623 270.812L200.471 272.292Z" fill="#00090E"/>
<path d="M220.956 253.116C213.313 255.888 204.669 254.335 191.871 256.746C181.952 258.632 178.145 260.88 175.206 263.47C168.977 268.953 154.003 271.311 146.038 268.705C142.698 267.608 138.006 266.124 132.745 267.823L132.656 267.677C138.134 265.905 141.857 267.12 145.325 268.254C153.642 270.97 168.537 267.88 174.705 262.445C177.699 259.807 181.184 256.994 191.27 255.075C203.789 252.697 204.407 251.165 205.576 250.051L220.956 253.116Z" fill="#00090E"/>
<path d="M101.822 251.031C101.6 251.031 83.8263 249.649 73.6787 252.601C64.099 255.389 60.7926 259.625 56.9796 264.231C53.1666 268.836 48.0344 272.223 40.453 273.036L40.4141 272.865C47.7895 272.052 52.3261 268.182 56.0556 263.654C59.7294 259.182 63.5702 254.304 73.3114 251.458C83.5535 248.479 106.838 248.328 107.06 248.328L101.822 251.031Z" fill="#00090E"/>
<path d="M57.6325 262.195C48.4145 262.565 35.1554 270.793 24.1562 270.248V270.049C34.8214 270.37 49.5222 261.537 58.9406 260.699L57.6325 262.195Z" fill="#00090E"/>
<path d="M168.48 266.719C166.036 271.772 154.725 277.089 152.805 283.386L153.011 283.427C155.081 277.39 167.333 271.41 170.311 266.354L168.48 266.719Z" fill="#00090E"/>
<path d="M146.137 268.662C141.807 268.691 138.344 270.784 138.283 270.8L138.172 270.707C138.339 270.617 142.157 268.434 145.158 268.361L146.137 268.662Z" fill="#00090E"/>
<path d="M247.334 198.877C243.866 196.983 242.731 193.804 242.708 193.771L242.547 193.8C242.603 193.942 243.944 197.337 246.304 198.678L247.334 198.877Z" fill="#00090E"/>
<path d="M189.26 273.63C186.78 272.67 184.547 271.402 182.664 269.882L182.97 269.605C184.779 271.073 188.653 272.988 192.099 273.423L189.26 273.63Z" fill="#00090E"/>
<path d="M220.199 253.283C206.317 252.181 194.037 253.137 187.358 247.112C183.779 243.86 171.004 244.877 163.311 236.897C161.435 234.95 163.311 231.051 161.53 228.576C161.496 226.779 164.519 223.189 159.492 218.819C158.936 216.831 159.131 215.697 159.921 214.246C161.296 211.718 159.275 208.811 157.377 206.234C147.525 192.852 149.885 180.002 156.565 165.811L157.071 165.937C150.464 179.969 150.03 192.583 160.617 206.218C162.804 209.039 163.957 212.722 163.723 214.348C163.261 217.193 171.165 229.141 173.564 231.641C179.286 237.616 189.523 237.356 192.74 239.645C195.757 241.795 199.125 245.336 210.753 246.852L220.199 253.283Z" fill="#00090E"/>
<path d="M246.055 338.947H251.916C251.916 338.947 259.754 334.724 265.075 334.435C270.396 334.147 276.731 338.947 276.731 338.947H286.038C286.038 338.947 273.458 332.561 265.292 333.114C255.056 333.801 246.055 338.947 246.055 338.947Z" fill="#065A92"/>
<path d="M210.291 338.899H238.491C238.491 338.899 241.174 335.366 245.471 334.976C249.768 334.586 258.919 338.899 258.919 338.899H410.636C410.636 338.899 413.319 337.33 416.002 337.33C418.685 337.33 419.765 339.289 422.721 338.899C425.677 338.509 438.563 335.171 442.86 335.761C447.157 336.35 455.212 338.899 455.212 338.899H463.005C463.005 338.899 446.089 333.208 442.599 333.208C439.108 333.208 424.602 337.521 422.454 337.127C420.305 336.732 415.652 333.663 412.434 333.663C409.217 333.663 391.839 337.391 381.374 335.167C374.605 333.732 356.665 328.696 350.759 326.147C344.853 323.598 337.316 318.11 334.9 308.907C332.484 299.703 331.41 295.179 329.262 292.646C329.262 292.646 333.826 272.837 338.93 270.695C344.035 268.553 360.951 260.496 363.907 254.219C366.862 247.943 355.847 236.963 355.847 236.963C355.847 236.963 343.762 242.455 340.539 242.455C337.316 242.455 334.099 239.707 331.143 239.317C328.187 238.926 308.048 245.788 304.825 245.593C301.602 245.398 292.468 239.121 288.978 239.495C285.488 239.869 280.628 242.239 280.628 242.239C280.628 242.239 277.349 246.402 280.895 248.91C302.047 263.87 304.274 288.134 295.128 294.801C289.217 315.004 283.222 315.46 281.881 322.716C280.539 329.972 270.609 335.236 263.289 333.797C253.609 331.903 252.379 328.647 248.07 328.57C240.728 328.44 234.594 333.854 231.238 335.48C228.499 336.83 208.143 337.395 210.291 338.899Z" fill="#065A92"/>
<path d="M297.637 292.939C301.806 286.097 305.925 286.053 305.891 280.744C305.858 275.268 300.531 267.853 300.531 262.097C300.531 257.024 305.207 254.646 311.475 254.78C317.742 254.914 301.889 249.739 295.961 253.081C286.921 258.178 295.961 268.528 298.021 273.215C300.08 277.902 299.991 285.293 297.637 292.939Z" fill="#065A92"/>
<path d="M292.699 260.474C290.4 255.189 287.422 249.539 289.521 248.027C296.234 243.189 305.196 250.145 307.689 248.746C322.435 240.482 343.565 246.807 349.409 254.031C357.375 263.905 331.502 268.023 324.834 281.324C327.188 279.669 330.534 277.279 331.68 277.828C332.955 278.438 331.886 282.198 331.513 284.474C333.328 278.734 337.475 271.596 340.364 270.377C345.468 268.218 359.969 259.588 362.924 253.303C365.88 247.019 355.85 236.896 355.85 236.896C355.85 236.896 343.765 242.388 340.542 242.388C337.319 242.388 334.102 239.64 331.146 239.25C328.19 238.86 308.051 245.722 304.828 245.527C301.605 245.332 292.471 239.055 288.981 239.429C285.491 239.803 280.631 242.173 280.631 242.173C280.631 242.173 277.353 246.336 280.898 248.844C285.66 252.234 289.644 256.161 292.699 260.474V260.474Z" fill="#065A92"/>
<path d="M340.191 247.97C336.851 246.717 329.336 246.522 326.653 249.596C323.97 252.669 325.54 254.88 325.54 254.88C325.54 254.88 317.886 249.831 326.208 244.144L332.487 243.051L339.723 245.746L340.191 247.97Z" fill="#065A92"/>
<path d="M345.656 250.897C355.72 251.844 372.186 249.632 376.321 249.173C376.321 249.173 380.775 252.486 384.281 253.141C387.788 253.795 390.994 260.019 393.332 256.71C395.67 253.401 394.05 251.238 396.021 251.425C397.991 251.612 401.91 253.962 403.413 253.803C405.033 253.632 413.883 253.498 417.012 254.665C420.14 255.832 406.363 247.006 407.671 245.218C408.567 243.998 430.627 236.766 441.938 240.746C453.249 244.726 449.536 239.527 449.213 237.612C448.89 235.697 455.459 232.709 459.06 231.303C462.662 229.896 478.542 224.518 485.172 221.067C491.802 217.616 505.45 213.486 508.161 211.648C510.872 209.811 514.167 204.831 526.63 200.868L527.087 199.807C527.087 199.807 514.668 202.4 509.441 206.441C505.545 209.437 500.596 209.347 494.93 213.469C489.263 217.591 471.779 219.933 468.529 218.986C465.278 218.039 462.094 220.181 462.094 220.181C462.094 220.181 459.311 213.827 451.189 219.339C443.068 224.852 431.802 230.335 430.265 231.014C430.265 231.014 410.544 231.283 398.693 235.437C398.693 235.437 388.84 234.502 388.267 231.027C387.944 229.12 388.395 227.124 386.981 226.848C385.829 226.616 380.268 225.929 378.342 230.592C378.342 230.592 376.744 227.014 373.026 230.478C369.308 233.941 361.031 233.132 361.031 233.132C346.452 239.754 359.672 247.397 345.656 250.897Z" fill="#065A92"/>
<path d="M444.476 333.748C440.98 333.748 424.665 338.016 422.522 337.622C420.379 337.228 414.206 334.618 411.172 335.415C399.221 338.553 374.2 337.72 361.492 338.899H410.638C410.638 338.899 413.321 337.329 416.004 337.329C418.687 337.329 419.767 339.289 422.722 338.899C425.678 338.508 438.564 335.171 442.862 335.76C447.159 336.35 455.213 338.899 455.213 338.899H463.006C463.006 338.899 447.966 333.748 444.476 333.748Z" fill="#065A92"/>
<path d="M334.899 308.907C332.483 299.691 331.409 295.179 329.26 292.646C329.26 292.646 330.435 287.553 332.255 282.252C322.681 301.764 304.017 298.626 296.964 293.069C296.461 293.699 295.854 294.28 295.155 294.801C289.244 315.004 283.249 315.46 281.907 322.716C280.566 329.972 272.016 338.602 264.651 337.163C254.971 335.269 251.771 331.261 247.462 331.183C240.12 331.053 234.571 333.899 231.214 335.529C228.476 336.862 208.119 337.427 210.268 338.931H238.489C238.489 338.931 241.172 335.399 245.47 335.009C249.767 334.618 258.918 338.899 258.918 338.899H274.749C275.834 331.935 284.562 332.801 286.31 325.757C288.353 317.492 304.234 322.326 307.59 324.383C311.737 326.927 311.487 332.232 302.219 330.48C294.699 329.041 289.667 337.249 282.113 338.915H314.398C307.435 332.517 324.562 313.907 349.917 325.789C344.15 323.078 337.204 317.683 334.899 308.907Z" fill="#065A92"/>
<path d="M295.294 296.094L293.68 300.606C300.977 303.204 316.836 299.87 318.389 297.488C318.817 296.83 301.228 301.785 295.294 296.094Z" fill="#065A92"/>
<path d="M301.812 332.426C295.049 332.426 288.286 338.885 288.258 338.893H314.976C310.128 338.532 307.306 332.426 301.812 332.426Z" fill="#00090E"/>
<path d="M351.945 336.85C345.182 336.85 338.418 338.882 338.391 338.882H365.109C360.261 338.533 357.444 336.85 351.945 336.85Z" fill="#00090E"/>
<path d="M305.924 246.004C308.618 246.199 326.392 240.719 328.863 241.093C333.166 241.768 334.814 243.646 339.656 242.333C336.728 241.926 333.467 238.707 330.784 238.353C327.833 237.947 308.05 245.74 304.828 245.544C304.116 245.457 303.433 245.275 302.812 245.008C303.684 245.567 304.771 245.915 305.924 246.004V246.004Z" fill="#065A92"/>
<path d="M358.473 253.044C356.001 259.264 342.998 268.609 338.735 270.743C334.471 272.877 328.125 292.646 328.125 292.646C329.923 295.17 330.068 300.073 332.088 309.199C334.109 318.325 338.584 322.545 343.221 325.35C354.432 332.114 373.38 334.699 380.944 335.081C374.176 333.642 357.454 328.683 351.548 326.138C345.642 323.594 338.128 318.11 335.74 308.906C333.352 299.703 332.25 295.179 330.101 292.646C330.101 292.646 335.94 272.642 341.045 270.483C346.149 268.325 364.607 257.39 367.563 251.117C370.519 244.845 360.388 248.231 358.473 253.044Z" fill="#00090E"/>
<path d="M442.959 334.805C442.402 334.805 431.976 335.671 430 337.475C433.896 336.74 440.815 335.703 442.803 335.979C447.1 336.569 455.188 338.898 455.188 338.898H461.667C461.667 338.898 446.449 334.805 442.959 334.805Z" fill="#00090E"/>
<path d="M280.882 322.682C279.936 327.841 274.141 332.325 268.586 333.788C272.171 334.337 283.665 330.471 284.895 322.495C286.009 315.308 290.941 315.853 295.822 295.849C305.318 286.532 301.389 264.413 283.871 249.596C280.943 247.112 271.57 243.137 275.076 245.645C295.995 260.604 303.381 288.442 294.353 295.113C288.514 315.312 282.207 315.41 280.882 322.682Z" fill="#00090E"/>
<path d="M422.016 338.081C420.313 337.963 418.404 336.455 415.593 336.39C410.883 336.297 406.903 338.577 404.883 338.898H410.65C410.65 338.898 413.333 337.329 416.016 337.329C418.699 337.329 419.778 339.289 422.734 338.898C423.764 338.76 432.08 337.065 434.746 336.504C434.457 336.447 434.396 335.963 433.789 336.057C430.138 336.61 423.335 338.175 422.016 338.081Z" fill="#00090E"/>
<path d="M245.558 333.012C240.108 333.54 239.29 336.219 236.54 337.483C233.317 338.955 212.705 337.727 210.289 338.906H238.845C241.511 335.573 244.929 334.983 245.469 334.983C249.727 334.983 255.338 337.223 258.9 338.906H267.4C255.577 337.768 251.124 332.483 245.558 333.012Z" fill="#00090E"/>
<path d="M475.568 214.727C474.911 215.015 470.219 216.015 469.039 217.166C469.039 217.166 467.369 216.072 466.156 218.072C464.942 220.072 460.984 220.511 460.984 220.511C462.71 220.434 465.36 219.918 467.976 219.584C468.404 218.369 474.11 216.743 475.568 214.727Z" fill="#00090E"/>
<path d="M446.594 220.918C440.399 225.743 431.604 229.918 430.274 230.503C430.274 230.503 410.569 231.284 398.718 235.438C398.718 235.438 388.865 234.503 388.292 231.028C388.13 230.068 388.131 228.967 387.969 228.016C384.295 237.13 398.189 234.825 398.779 237.154C403.945 234.658 408.058 233.93 415.189 232.682C421.918 231.516 427.991 231.593 430.474 232.723C432.801 230.69 438.434 227.28 442.13 226.67C445.319 225.837 445.364 223.633 446.594 220.918Z" fill="#00090E"/>
<path d="M459.711 217.693L459.8 217.741C459.761 217.701 459.733 217.681 459.711 217.693Z" fill="#00090E"/>
<path d="M526.632 200.893L527.088 199.832C527.088 199.832 515.065 201.661 509.832 205.698C505.936 208.694 500.592 209.357 494.925 213.495C489.259 217.633 471.775 219.958 468.524 219.011C465.273 218.064 462.095 220.182 462.095 220.182C461.64 219.231 460.84 218.388 459.779 217.743C460.074 218.084 460.737 220.218 460.676 222.755C461.9 223.714 484.667 218.34 485.485 219.637C486.303 220.934 468.229 226.727 463.492 228.324C461.83 228.892 460.036 229.224 458.204 229.304C457.579 229.957 456.799 230.523 455.9 230.975C443.943 236.954 451.775 239.393 447.439 240.613C441.755 242.182 434.146 236.91 427.171 238.097C424.472 238.56 413.45 244.231 405.585 243.182C405.841 246.719 415.488 252.609 412.71 253.121C406.03 254.341 397.831 250.564 394.28 249.516C394.97 251.487 393.762 256.02 392.421 256.333C390.567 256.788 383.592 250.585 381.238 247.914C379.701 247.609 377.063 247.304 375.938 246.491C373.905 247.076 371.818 247.557 369.693 247.93C360.971 249.516 356.334 256.353 374.647 251.117C374.647 251.117 380.87 253.125 384.366 253.784C387.862 254.442 391.736 260.91 394.074 257.601C396.412 254.292 394.146 251.91 396.117 252.105C398.087 252.3 401.577 254.638 403.08 254.479C404.694 254.308 413.879 253.487 416.996 254.654C420.113 255.82 407.205 247.146 408.34 245.304C409.476 243.463 431.057 237.987 442.368 241.975C453.679 245.963 449.999 239.637 449.682 237.706C449.365 235.776 456.362 232.751 459.985 231.349C463.609 229.946 478.51 224.536 485.156 221.084C491.803 217.633 505.435 213.503 508.146 211.666C510.856 209.828 514.168 204.84 526.632 200.893Z" fill="#00090E"/>
<path d="M90.7284 221.283C76.2225 226.385 74.9366 231.157 74.8865 236.548L74.5859 236.661C74.8476 231.783 73.9291 226.531 87.8284 221.344L90.7284 221.283Z" fill="#00090E"/>
<path d="M470.406 244.677L477.297 242.043C479.886 243.096 511.542 271.031 559.374 241.258C565.408 237.502 572.883 232.575 580.069 231.096L580.147 231.437C573.067 232.909 565.63 238.075 559.858 242.006C514.581 272.698 481.144 246.137 470.406 244.677Z" fill="#00090E"/>
<path d="M580.069 231.08C572.883 232.572 565.407 237.499 559.373 241.243C520.998 265.129 493.69 251.641 482.039 244.377C481.7 244.166 480.52 243.454 480.475 243.775C480.314 245.129 485.869 248.401 485.891 248.889C485.891 249.796 483.403 249.507 481.889 248.458C479.512 246.832 473.283 243.475 471.035 242.942L469.688 244.686C480.436 246.153 514.58 272.686 559.863 241.966C565.635 238.048 573.072 232.881 580.152 231.397L580.069 231.08Z" fill="#00090E"/>
<path d="M544.383 250.467L546.403 249.125C554.018 249.207 566.108 245.694 575.154 250.064L574.842 250.329C565.368 245.682 552.209 250.544 544.383 250.467Z" fill="#00090E"/>
<path d="M485.199 197.115L484.754 197.144C485.177 199.823 486.852 212.185 463.557 220.067C462.755 220.339 464.932 220.811 465.828 220.823C467.155 220.747 468.436 220.433 469.557 219.908C474.807 217.481 487.876 209.091 485.199 197.115Z" fill="#00090E"/>
<path d="M472.514 218.833C471.818 219.154 465.901 220.072 465.211 219.999C467.81 219.479 471.25 218.747 473.16 217.43C475.854 215.564 477.518 213.833 477.774 212.784C480.389 210.689 482.363 208.212 483.567 205.517C484.77 202.822 485.175 199.971 484.755 197.153L485.2 197.125C487.877 209.093 477.769 216.398 472.514 218.833Z" fill="#00090E"/>
<path d="M436.93 239.49L442.774 235.555C455.733 244.873 479.691 239.564 494.347 241.84C516.451 245.279 534.675 237.035 547.595 225.641L548.897 226.32C540.453 233.763 522.101 247.425 494.531 243.775C479.975 241.832 462.507 250.637 436.93 239.49Z" fill="#065A92"/>
<path d="M548.896 226.32L548.066 225.889C535.147 237.271 516.449 245.279 494.345 241.84C483.424 240.145 467.309 242.535 454.507 240.08C451.723 239.539 450.816 236.641 450.95 235.454C450.582 236.543 442.923 236.291 440.93 235.047C444.376 241.145 461.576 240.982 464.643 242.999C466.179 244.011 459.956 244.401 455.419 243.848C451.874 243.417 447.515 240.71 443.279 239.596C441.053 239.007 438.86 239.726 436.806 239.621C434.996 239.527 438.32 241.064 439.071 241.218C443.48 242.129 449.486 243.938 453.588 244.592C470.326 247.247 483.402 242.316 494.551 243.779C522.099 247.426 540.452 233.763 548.896 226.32Z" fill="#00090E"/>
<path d="M512.977 242.482C523.269 237.758 519.656 228.661 526.241 221.994C529.999 218.189 543.007 215.742 557.413 216.575L557.502 216.851C541.955 216.266 530.783 218.75 527.121 222.437C520.614 229.018 525.178 237.327 515.532 242.376L512.977 242.482Z" fill="#00090E"/>
<path d="M504.5 254.027C514.113 259.462 524.578 253.853 535.405 256.06C541.589 257.328 549.209 265.41 553.083 275.572L552.761 275.727C548.168 264.865 541.121 258.048 535.132 256.816C524.433 254.617 515.315 260.605 505.508 255.731L504.5 254.027Z" fill="#00090E"/>
<path d="M538.906 257.641C545.23 258.775 550.74 261.73 555.093 265.023L554.748 265.181C550.88 262.332 546.13 260.205 540.899 258.978L538.906 257.641Z" fill="#00090E"/>
<path d="M503.867 254.238L505.465 254.868C507.085 259.043 513.113 263.812 516.809 266.125L516.57 266.328C512.823 263.994 505.509 258.498 503.867 254.238Z" fill="#00090E"/>
<path d="M483.394 207.985C482.887 207.306 485.147 201.233 476.157 197.416C476.137 197.435 476.118 197.456 476.102 197.477C485.726 202.001 481.434 206.88 481.913 210.465L483.394 207.985Z" fill="#00090E"/>
<path d="M390.562 257.373C392.177 258.157 395.706 269.373 414.676 269.844C414.691 269.8 414.7 269.755 414.704 269.71C393.836 268.491 394.793 257.515 393.719 253.287L390.562 257.373Z" fill="#00090E"/>
<path d="M394.375 261.914L395.728 262.768C395.522 264.361 397.231 267.512 401.177 269.552L400.899 269.731C394.781 266.402 394.553 264.044 394.375 261.914Z" fill="#00090E"/>
<path d="M296.857 276.25C295.059 275.722 288.508 265.275 269.793 267.58C269.788 267.624 269.788 267.669 269.793 267.714C290.573 265.86 292.348 276.385 298.739 281.023L296.857 276.25Z" fill="#00090E"/>
<path d="M359.547 262.971L361.167 263.528C361.556 265.101 364.362 267.8 368.915 268.991L368.715 269.219C361.601 267.202 360.504 264.975 359.547 262.971Z" fill="#00090E"/>
<path d="M291.876 272.365L290.318 271.727C290.073 270.138 287.535 267.304 283.109 265.886L283.326 265.666C290.234 268.028 291.114 270.288 291.876 272.365Z" fill="#00090E"/>
<path d="M264.935 239.544L265.876 239.41C264.15 238.321 262.909 235.67 263.649 233.312H263.393C262.341 237.056 263.694 238.369 264.935 239.544Z" fill="#00090E"/>
<path d="M443.727 224.449C445.953 217.303 461.884 203.848 464.517 200.425C469.042 194.534 471.692 189.225 474.275 187.612C475.945 186.563 478.093 187.612 479.324 176.498C479.808 172.124 477.654 161.68 482.48 153.867L483.704 153.814C479.78 159.912 482.496 171.778 482.101 176.213C481.11 187.364 479.251 187.856 477.704 188.876C475.65 190.234 473.93 195.656 470.05 201.579C465.97 207.803 456.646 215.807 463.37 220.201L443.727 224.449Z" fill="#065A92"/>
<path d="M447.064 221.222C451.322 213.904 466.613 199.551 468.929 200.896C470.042 201.53 465.929 205.473 462.939 210.376C459.767 215.579 457.456 221.002 461.13 222.616L463.875 220.136C457.15 215.73 466.329 207.994 470.409 201.77C474.306 195.847 475.647 190.225 477.701 188.868C479.249 187.847 481.108 187.355 482.099 176.205C482.494 171.77 479.989 159.538 483.913 153.44L482.388 153.318C477.551 161.131 479.805 172.128 479.321 176.489C478.091 187.595 475.425 186.319 473.755 187.368C471.172 188.994 468.667 194.404 464.142 200.295C461.509 203.717 445.032 217.811 442.789 224.957L445.678 224.018C446.066 223.067 446.529 222.134 447.064 221.222V221.222Z" fill="#00090E"/>
<path d="M482.266 153.945C484.147 151.396 490.337 147.888 500.078 147.803V148.051C489.235 148.27 484.069 152.896 482.321 155.262L482.266 153.945Z" fill="#00090E"/>
<path d="M484.212 148.363C486.594 142.53 489.711 139.229 494.231 133.591C500.087 126.274 506.933 119.119 507.668 111.77L508.225 111.802C507.485 119.253 500.989 126.762 495.11 134.115C490.613 139.729 486.694 147.059 484.34 152.839L483.555 152.652L484.212 148.363Z" fill="#00090E"/>
<path d="M481.418 155.096C489.312 137.828 474.06 132.864 465.398 129.73L465.526 129.543C473.319 131.921 490.186 137.543 483.951 152.791L481.418 155.096Z" fill="#00090E"/>
<path d="M556.165 109.6C547.459 91.9287 563.34 87.4897 572.101 84.3961L571.962 84.2051C564.091 86.5384 546.98 92.0629 553.916 107.657L556.165 109.6Z" fill="#00090E"/>
<path d="M467.557 134.355L467.406 134.103C467.562 134.05 472.01 132.737 474.776 133.229L476.697 134.367C472.956 132.624 467.59 134.343 467.557 134.355Z" fill="#00090E"/>
<path d="M488.586 149.937C489.599 148.483 490.856 147.125 492.327 145.896L492.516 145.982C491.252 147.003 490.314 148.216 489.772 149.535L488.586 149.937Z" fill="#00090E"/>
<path d="M97.0139 218.467L101.361 219.548C101.222 219.548 86.2262 221.357 74.4033 226.438C67.5343 229.394 63.3039 236.601 61.9012 240.666L61.6562 240.63C63.0812 236.524 66.7829 228.78 74.4589 225.316C86.2151 219.991 96.8747 218.475 97.0139 218.467Z" fill="#00090E"/>
<path d="M509.898 206.034C519.99 199.298 535.804 184.432 536.723 180.611C537.641 176.79 536.595 169.457 540.942 165.57L541.137 165.688C536.945 169.424 538.354 177.514 537.413 181.351C536.472 185.188 524.031 198.335 513.862 205.107L509.898 206.034Z" fill="#00090E"/>
<path d="M517.398 204.514L523.766 199.112C542.514 192.266 552.339 190.002 562.174 192.494C570.246 194.526 594.704 198.246 613.324 191.538C624.98 187.339 639.742 185.526 639.887 185.506L640.004 185.912C630.865 187.079 622.015 189.23 613.741 192.295C595.038 199.205 569.806 195.99 561.673 193.921C552.116 191.522 536.096 197.685 517.398 204.514Z" fill="#00090E"/>
<path d="M543.922 194.596C545.787 190.438 551.069 182.734 565.503 177.869C577.866 173.702 598.862 171.161 599.074 171.137L599.207 171.572C599.001 171.596 580.076 174.011 567.807 178.141C553.591 182.93 549.722 190.076 547.885 194.17L543.922 194.596Z" fill="#00090E"/>
<path d="M523.486 201.201L516.016 203.343L520.797 198.575C532.192 192.424 543.931 184.347 548.601 178.249C552.603 173.03 562.4 162.078 568.64 158.184C574.079 154.777 580.246 145.704 578.292 138.147C572.37 115.289 548.145 111.061 546.764 97.4961C546.035 90.3294 549.514 76.7398 549.547 76.6016L550.104 76.6625C550.104 76.8008 546.764 90.7887 547.727 97.8986C549.291 109.423 574.062 114.842 580.257 138.411C582.278 146.115 575.804 155.692 570.238 159.164C564.081 163.017 554.919 173.863 550.928 179.062C546.236 185.172 534.952 195.014 523.486 201.201Z" fill="#00090E"/>
<path d="M573.227 156.254L577.006 152.356C588.523 147.957 596.349 139.937 598.114 134.213C599.706 129.063 609.163 123.977 620.457 120.457L620.58 120.762C611.49 123.794 601.008 128.234 599.238 135.026C597.546 141.539 583.942 152.161 573.227 156.254Z" fill="#00090E"/>
<path d="M579.421 137.977C581.748 131.16 579.922 126.376 578.308 120.221C576.532 113.51 574.751 105.587 578.575 95.5215L578.926 95.5743C575.241 105.896 577.567 114.091 579.332 120.778C580.907 126.729 582.805 134.099 580.445 141.01L579.421 137.977Z" fill="#00090E"/>
<path d="M577 175.104C585.556 171.193 588.038 167.677 588.06 167.645L588.417 167.742C588.328 167.88 586.146 171.173 579.427 174.592L577 175.104Z" fill="#00090E"/>
<path d="M578.109 118.574C580.035 112.436 583.264 109.863 583.291 109.839L583.08 109.672C582.952 109.769 579.89 112.111 577.992 117.03L578.109 118.574Z" fill="#00090E"/>
<path d="M609.172 125.095C613.664 120.798 613.658 117.944 613.658 117.92H613.987C613.987 118.03 614.109 120.672 610.775 124.278L609.172 125.095Z" fill="#00090E"/>
<path d="M551.579 114.067C542.957 113.726 538.737 115.693 538.698 115.718L538.531 115.478C538.693 115.397 542.539 113.486 549.558 113.445L551.579 114.067Z" fill="#00090E"/>
<path d="M611.062 192.856L613.2 192.043C618.55 192.69 623.59 194.31 627.856 196.754L627.656 196.958C621.193 193.157 611.152 192.86 611.062 192.856Z" fill="#00090E"/>
<path d="M505.371 256.641L506.406 257.702C506.473 258.031 506.668 260.99 505.159 263.043L504.953 262.97C505.927 261.661 506.172 258.169 505.371 256.641Z" fill="#00090E"/>
<path d="M544.359 259.508L545.99 260.223C546.141 260.223 549.67 260.183 552.113 259.191L551.996 259.053C550.455 259.719 546.419 259.833 544.359 259.508Z" fill="#00090E"/>
<path d="M482.963 241.235L478.883 241.491C478.983 241.458 491.057 237.926 499.161 231.734L499.451 231.799C492.871 237.629 483.069 241.202 482.963 241.235Z" fill="#00090E"/>
<path d="M479.941 222.937L477.414 224.384C480.153 223.775 486.281 222.815 494.041 225.039L494.174 224.884C487.478 222.421 480.019 222.929 479.941 222.937Z" fill="#00090E"/>
<path d="M485.257 223.319L483.359 223.254C486.437 224.273 488.941 226.034 490.451 228.242L490.59 228.213C489.407 226.279 487.572 224.596 485.257 223.319V223.319Z" fill="#00090E"/>
<path d="M503.99 209.467L500.422 210.28C502.827 209.085 508.098 205.995 509.579 200.414L509.963 200.369C509.562 205.414 504.046 209.43 503.99 209.467Z" fill="#00090E"/>
<path d="M476.647 188.84L475.812 191.092C477.516 189.413 481.668 185.978 489.806 184.365V184.182C482.314 185.145 476.703 188.804 476.647 188.84Z" fill="#00090E"/>
<path d="M452.664 227.629L454.991 225.275C457.518 224.539 466.224 224.165 469.552 225.218L469.246 225.365C459.767 224.031 455.314 226.198 452.664 227.629Z" fill="#00090E"/>
<path d="M524.938 240.613L529.023 238.06C532.786 237.686 544.954 239.28 549.168 241.455L548.689 241.577C536.076 237.54 529.129 239.345 524.938 240.613Z" fill="#00090E"/>
<path d="M478.453 214.08L480.123 212.104C482.16 211.401 489.419 210.702 492.336 211.385L492.096 211.515C483.997 210.893 480.513 212.824 478.453 214.08Z" fill="#00090E"/>
<path d="M78.4062 270.64L79.3637 270.937C83.8168 264.84 105.025 237.067 167.312 238.518C169.456 238.567 166.043 235.835 164.273 235.108C161.991 234.169 157.788 233.933 155 234.128C139.664 235.197 96.8588 242.876 78.4062 270.64Z" fill="#00090E"/>
<path d="M154.454 233.807C155.868 233.706 158.779 234.051 161.067 234.214C154.9 234.573 148.797 235.377 142.848 236.616C133.758 238.482 126.995 240.885 124.396 242.93C95.2835 250.747 82.6868 266.426 79.3637 270.938L78.4062 270.641C96.8588 242.877 139.124 234.872 154.454 233.807Z" fill="#00090E"/>
<path d="M125.604 239.613L118.318 242.527C112.852 242.43 96.9375 238.174 92.4844 234.421L93.2247 234.332C108.193 242.072 118.986 240.686 125.604 239.613Z" fill="#00090E"/>
<path d="M350.055 264.726L354.007 262.389C357.347 262.116 367.756 263.905 371.118 266.084L370.678 266.19C360.23 262.064 353.907 263.625 350.055 264.726Z" fill="#00090E"/>
<path d="M80.1075 223.165L78.5934 224.039C75.984 224.376 73.2959 224.107 70.9062 223.271L71.0009 223.129C75.1144 224.462 80.0462 223.174 80.1075 223.165Z" fill="#00090E"/>
<path d="M132.396 165.408C131.997 163.146 132.131 160.852 132.791 158.623L133.014 158.672C133.014 158.712 131.94 162.989 133.214 166.2L132.396 165.408Z" fill="#00090E"/>
<path d="M159.483 215.409L160.129 219.396C150.883 209.929 145.968 208.23 135.002 207.583C129.842 207.278 125.962 204.978 123.034 201.892C120.251 198.929 119.266 195.16 120.502 192.055L121.019 192.164C119.828 195.156 120.769 198.799 123.48 201.669C126.307 204.665 130.716 206.087 135.726 206.38C146.847 207.039 149.213 207.457 159.483 215.409Z" fill="#00090E"/>
<path d="M176.995 238.089C159.222 240.288 143.001 248.381 135.882 254.064C129.029 259.544 117.234 259.804 109.219 258.361L109.347 257.979C117.847 259.508 128.684 258.593 134.952 253.589C142.11 247.869 150.861 236.215 170.087 232.723L176.995 238.089Z" fill="#00090E"/>
<path d="M107.74 240.344C97.4701 240.051 80.3535 246.157 72.6719 237.043L73.1283 236.84C80.6207 245.734 94.9096 239.344 105.475 239.645L107.74 240.344Z" fill="#00090E"/>
<path d="M160.656 237.039C156.938 233.616 139.254 220.234 129.012 215.689C109.986 207.25 107.358 188.567 90.9208 176.526C83.1279 170.835 67.4418 151.993 66.4844 146.261L67.5531 146.07C68.505 151.741 84.6141 170.075 92.3569 175.745C106.896 186.396 115.135 207.144 132.212 214.522C137.584 216.848 152.129 223.795 160.745 228.677C163.473 230.226 170.08 233.405 170.08 233.405L172.44 236.413L160.656 237.039Z" fill="#00090E"/>
<path d="M129.489 215.648C113.531 212.095 99.9876 199.619 82.2253 200.607C74.2709 201.042 54.5548 202.985 44.2737 196.9C31.8607 189.554 26.0049 179.566 26.8732 167.225L27.2629 167.245C26.4056 179.44 32.7123 188.855 44.9862 196.107C55.0614 202.071 75.7794 199.505 83.7115 199.071C101.663 198.087 115.997 209.534 124.463 210.981L129.489 215.648Z" fill="#00090E"/>
<path d="M62.6972 200.848C46.9722 203.222 36.0176 198.693 35.9062 198.661L36.1512 198.445C36.2625 198.478 45.28 202.169 59.53 200.002L62.6972 200.848Z" fill="#00090E"/>
<path d="M100.661 184.892C93.592 179.929 77.3994 175.831 68.4097 174.933C61.6132 174.25 47.6137 176.071 36.8984 172.88L37.071 172.51C48.7214 175.51 62.9825 173.359 69.7456 174.038C78.8244 174.945 88.5544 176.258 94.5828 178.563L100.661 184.892Z" fill="#00090E"/>
<path d="M71.6747 154.648L74.4579 158.802C55.9775 139.834 48.7189 156.363 25.6797 135.005L25.9469 134.777C47.3997 154.806 54.9199 140.204 71.6747 154.648Z" fill="#00090E"/>
<path d="M68.225 219.226L63.5436 220.491C47.9578 221.133 22.6586 213.381 0.03125 185.958L0.710348 185.791C24.8295 215.198 50.6352 220.539 68.225 219.226Z" fill="#00090E"/>
<path d="M34.6774 213.71L36.6089 214.722C31.7161 213.063 22.3924 214.072 22.3145 214.088L22.2031 213.876C22.526 213.82 28.7548 212.885 34.6774 213.71Z" fill="#00090E"/>
<path d="M155.245 201.396C148.994 197.177 140.99 188.733 139.342 181.806C137.021 172.05 121.479 166.526 121.312 166.457L121.574 166.115C121.747 166.184 138.585 172.668 140.734 180.961C142.345 187.404 147.041 193.219 153.982 197.368L155.245 201.396Z" fill="#00090E"/>
<path d="M96.5754 180.486L94.95 178.888C96.453 174.034 95.657 165.916 90.6806 160.42C86.8955 156.237 90.8532 145.656 81.3514 139.058C79.0747 137.477 74.733 135.701 69.7065 133.644C60.0433 129.688 47.9976 124.77 44.3906 118.497L44.886 118.371C48.4318 124.518 60.6834 129.131 70.2743 133.054C75.3341 135.123 80.1379 136.884 82.4647 138.501C92.1335 145.213 88.031 156.209 92.5565 161.233C97.633 166.843 98.5181 174.303 96.5754 180.486Z" fill="#00090E"/>
<path d="M138.238 177.108L136.607 175.701C136.051 170.225 129.477 159.542 119.352 153.026L119.613 152.758C129.822 159.331 137.27 170.644 138.238 177.108Z" fill="#00090E"/>
<path d="M79.5731 176.31L83.1356 176.896C77.1295 174.384 64.7666 165.749 60.6419 157.318L60.2578 157.363C64.4103 165.863 74.0123 173.68 79.5731 176.31Z" fill="#00090E"/>
<path d="M152.281 178.23L152.593 176.758C157.336 173.872 163.876 167.778 166.336 161.526L166.687 161.457C164.95 167.25 157.759 174.758 152.281 178.23Z" fill="#00090E"/>
<path d="M500.922 126.46L501.751 124.834C516.981 120.858 527.217 109.752 527.357 109.639L527.824 109.891C527.691 109.992 516.185 121.667 500.922 126.46Z" fill="#00090E"/>
<path d="M563.765 116.12L562.652 114.746C547.183 115.067 535.282 107.022 535.16 106.961L534.742 107.335C534.887 107.416 548.124 115.652 563.765 116.12Z" fill="#00090E"/>
<path d="M547.19 99.0625L547.223 97.7007C535.684 92.9202 531.838 83.1762 531.799 83.0664L531.242 83.2087C531.309 83.3184 536.001 93.6478 547.19 99.0625Z" fill="#00090E"/>
<path d="M86.6212 143.286L84.3946 141.367C83.8046 139.091 81.5279 134.924 70.9629 128.716C60.5705 122.619 67.2669 115.265 67.3225 115.18L67.484 115.237C67.4283 115.318 61.1216 122.554 72.0874 128.838C81.6448 134.343 86.482 140.204 86.6212 143.286Z" fill="#00090E"/>
<path d="M536.885 181.235C538.738 179.414 541.939 178.32 542.084 178.275L542.229 178.515C540.002 179.369 538.427 180.576 536.812 182.767L536.885 181.235Z" fill="#00090E"/>
<path d="M547.149 265.324C548.346 268.946 547.255 273.202 546.164 275.755L546.504 275.922C547.815 273.023 548.409 269.977 548.257 266.926L547.149 265.324Z" fill="#00090E"/>
<path d="M77.6713 132.704L75.968 131.554C77.0813 130.273 71.7431 126.188 74.5876 120.777L74.8714 120.859C72.1105 126.111 77.7159 129.79 77.6713 132.704Z" fill="#00090E"/>
<path d="M109.78 196.092L109.223 193.547C110.581 190.917 111.901 185.86 106.852 176.766C101.77 167.608 114.74 161.038 114.868 160.957L114.979 161.059C114.856 161.136 102.388 167.656 107.854 177.144C112.524 185.246 112.257 192.644 109.78 196.092Z" fill="#00090E"/>
<path d="M110.042 182.616L109.352 180.99C111.522 179.807 109.797 174.136 117.144 168.795L117.35 168.945C110.22 174.128 112.558 179.413 110.042 182.616Z" fill="#00090E"/>
<path d="M325.859 338.899H333.201C333.201 338.899 334.142 333.07 348.275 333.403C351.314 333.472 359.564 336.859 366.16 336.615C359.747 335.891 351.96 332.611 349.249 332.245C335.228 330.35 325.859 338.899 325.859 338.899Z" fill="#065A92"/>
<path d="M201.929 312.931C204.451 313.313 209.75 312.687 212.583 310.691C209.082 311.293 205.386 307.606 203.833 306.895C200.493 305.358 196.419 306.37 197.755 307.947C196.385 307.634 191.32 311.346 201.929 312.931Z" fill="#FFB35B"/>
<path d="M354.859 258.218C356.713 256.011 357.726 253.877 358.333 250.149C358.94 246.421 361.016 244.051 362.697 242.941C362.697 242.941 358.734 247.746 359.741 249.954C360.749 252.161 362.524 251.36 362.524 251.36L360.003 256.722L354.859 258.218Z" fill="#00090E"/>
<path d="M396.969 237.084C396.969 237.084 405.597 239.247 407.411 240.442C407.794 240.107 408 239.683 407.993 239.247C407.986 238.811 407.766 238.392 407.372 238.064C406.643 237.478 402.847 237.084 396.969 237.084Z" fill="#065A92"/>
<path d="M466.447 199.8C463.185 200.576 471.674 191.625 474.201 190.576C476.628 189.564 472.258 196.312 471.724 196.922C471.189 197.531 468.078 199.413 466.447 199.8Z" fill="#065A92"/>
<path d="M496.283 214.389C493.744 214.649 498.726 212.003 499.751 211.426C500.775 210.848 504.142 209.82 504.944 209.844C511.078 210.035 505.868 213.409 496.283 214.389Z" fill="#065A92"/>
<path d="M480.764 218.913C479.751 219.434 484.927 219.726 485.506 219.637C487.644 219.307 491.368 217.45 491.579 217.198C492.18 216.442 481.671 218.45 480.764 218.913Z" fill="#065A92"/>
<path d="M412.661 234.715C411.225 235.296 417.387 237.784 418.128 237.906C422.52 238.641 428.821 234.56 429.216 234.247C430.329 233.369 419.341 231.995 412.661 234.715Z" fill="#065A92"/>
<path d="M493.223 215.555C492.695 215.839 494.86 216.368 495.194 216.339C496.508 216.205 501.823 213.538 502.135 213.282C503.07 212.522 493.719 215.282 493.223 215.555Z" fill="#065A92"/>
<path d="M447.212 234.166C446.255 235.296 446.422 237.999 450.691 240.085L448.966 236.723C448.732 237.788 446.561 235.934 447.212 234.166Z" fill="#00090E"/>
<path d="M388.96 232.483C387.112 233.666 385.542 234.654 382.898 235.203C385.576 233.943 386.834 233.126 388.092 231.459L388.96 232.483Z" fill="#00090E"/>
<path d="M336.641 241.189C332.115 243.242 327.289 247.047 327.289 247.047C334.002 243.45 343.092 242.665 343.092 242.665C340.806 242.576 338.588 242.068 336.641 241.189V241.189Z" fill="#00090E"/>
<path d="M319.281 299.032C319.281 299.032 327.631 295.959 329.935 291.954L330.581 287.223C327.892 292.361 325.571 295.211 319.281 299.032Z" fill="#00090E"/>
<path d="M331.141 326.248C336.379 325.219 342.618 325.561 348.736 328.138L345.752 325.467C339.668 323.748 334.558 325.02 331.141 326.248Z" fill="#00090E"/>
<path d="M298.687 258.309C295.959 261.069 299.004 264.142 299.572 273.581L295.781 264.272C297.44 264.796 295.559 260.154 298.687 258.309Z" fill="#00090E"/>
<path d="M243.892 248.63C245.295 246.878 259.244 242.617 267.705 241.349C272.259 240.666 273.917 238.134 280.085 236.064C274.363 236.154 269.898 240.471 268.746 240.536C264.432 240.804 252.437 244.317 246.943 244.898C241.449 245.479 224.36 242.735 224.36 242.735C224.36 242.735 227.249 245.845 225.473 247.207C223.697 248.569 208.117 246.532 208.117 246.532L219.4 253.516C228.607 258.093 233.806 253.321 233.806 253.321C236.99 253.788 253.7 255.967 257.814 254.947C261.927 253.926 292.993 261.223 292.993 261.223C292.993 261.223 281.649 247.304 281.744 246.748C274.557 245.418 241.215 251.947 243.892 248.63Z" fill="#00090E"/>
<path d="M360.08 247.353C360.887 244.792 368.924 235.438 369.887 239.487C370.657 242.749 369.659 246.102 367.104 248.837C366.637 249.333 357.191 256.467 360.08 247.353Z" fill="#065A92"/>
<path d="M291.131 245.861C287.19 245.65 270.575 241.727 275.818 239.707C278.234 238.776 288.348 239.3 291.527 240.247C292.35 240.491 305.186 246.613 291.131 245.861Z" fill="#065A92"/>
<path d="M272.281 239.515C281.076 236.617 288.001 239.832 294.268 240.596L279.133 235.454C274.708 235.401 273.395 237.767 272.281 239.515Z" fill="#00090E"/>
<path d="M297.443 242.499C293.547 240.467 284.641 238.556 282.375 238.32L288.877 238.796C292.879 239.95 295.846 240.975 297.443 242.499Z" fill="#00090E"/>
<path d="M279.706 241.771C280.051 245.247 283.18 248.772 284.504 250.137L281.393 248.877C279.897 246.679 279.31 244.209 279.706 241.771V241.771Z" fill="#00090E"/>
<path d="M451.859 225.136C458.639 226.62 461.473 222.006 468.102 221.762C463.304 222.461 459.519 220.543 457.994 217.6C456.697 221.1 458.339 225.531 451.859 225.136Z" fill="#00090E"/>
<path d="M561.005 142.502L560.532 142.522C561.049 150.514 559.452 163.848 554.492 171.262C555.221 170.856 557.092 169.669 557.799 169.295C561.383 161.876 561.484 149.803 561.005 142.502Z" fill="#00090E"/>
<path d="M627.819 125.896L627.696 126.116C620.866 126.087 608.921 127.181 601.367 129.673C601.89 129.327 603.332 128.429 603.816 128.091C611.069 126.229 621.584 125.868 627.819 125.896Z" fill="#00090E"/>
<path d="M475.227 219.067C475.449 218.595 481.4 217.258 483.387 216.185C484.456 215.603 486.91 216.998 486.91 216.998C486.91 216.998 478.038 219.238 475.227 219.067Z" fill="#00090E"/>
<path d="M457.292 207.71C457.064 207.239 460.571 203.483 461.188 201.739C461.528 200.8 464.645 200.775 464.645 200.775C464.645 200.775 459.624 206.552 457.292 207.71Z" fill="#00090E"/>
<path d="M351.935 252.881C350.404 251.059 349.775 245.97 351.69 244.75C352.948 243.97 355.648 242.901 356.065 243.86C357.345 246.791 354.562 255.994 351.935 252.881Z" fill="#065A92"/>
<path d="M360.228 231.335C356.771 237.027 341.725 242.876 337.606 242.185L335.023 244.071C337.395 243.364 343.451 241.986 344.486 245.441C358.33 233.583 370.876 238.002 376.955 228.648L360.228 231.335Z" fill="#00090E"/>
<path d="M346.138 249.962C344.468 247.975 345.459 245.857 346.761 244.527C345.587 247.609 346.7 247.93 346.138 249.962Z" fill="#00090E"/>
<path d="M508.609 209.589C505.899 210.158 509.567 205.93 512.189 204.938C514.649 204.019 517.31 203.495 517.337 203.8C517.365 204.105 510.335 209.227 508.609 209.589Z" fill="#065A92"/>
<path d="M373.073 241.718L375.144 240.804C375.144 240.804 374.621 233.942 379.408 229.312C379.408 229.312 375.294 227.446 373.975 230.068C373.034 231.925 372.995 239.743 373.073 241.718Z" fill="#00090E"/>
<path d="M387.456 227.028C385.792 226.365 383.889 226.092 382.006 226.247C380.122 226.402 378.35 226.977 376.93 227.894C376.012 228.467 376.585 231.174 376.156 232.772C377.442 230.426 385.152 227.951 387.456 227.028Z" fill="#00090E"/>
<path d="M368.273 243.332C368.273 243.332 368.919 246.938 368.557 248.332C368.34 249.169 367.661 250.141 366.047 251.113C368.123 249.279 368.296 245.206 368.273 243.332Z" fill="#00090E"/>
<path d="M343.228 257.768C344.931 261.886 337.661 269.601 332.484 274.243L340.216 268.597C346.918 261.43 343.228 257.768 343.228 257.768Z" fill="#065A92"/>
<path d="M251.287 247.234C250.848 248.344 246.684 251.491 237.154 251.893C233.737 252.039 219.414 252.238 218.908 251.21C218.451 250.287 227.191 247.677 230.141 246.982C234.705 245.897 252.089 245.222 251.287 247.234Z" fill="#065A92"/>
<path d="M223.691 251.9C219.861 252.047 207.209 254.811 205.4 253.486C203.591 252.161 210.805 248.856 211.328 248.689C213.388 248.039 219.527 250.234 226.268 248.043C227.704 247.579 224.003 251.892 223.691 251.9Z" fill="#065A92"/>
<path d="M223.031 250.563C225.325 249.011 230.295 246.885 233.374 246.389C233.374 246.389 228.893 246.157 226.538 247.291C224.888 248.054 223.649 249.21 223.031 250.563V250.563Z" fill="#00090E"/>
<path d="M253.434 250.853C251.018 249.633 246.704 248.662 244.461 246.219C245.141 247.855 246.59 249.263 248.552 250.194L253.434 250.853Z" fill="#00090E"/>
<path d="M319.523 271.824C330.333 270.645 338.388 261.661 336.445 258.633C334.558 255.69 329.727 261.23 328.725 264.731C327.289 269.661 319.523 271.824 319.523 271.824Z" fill="#065A92"/>
<path d="M389.969 237.276C398.101 243.613 414.294 243.028 416.403 239.772C418.452 236.617 408.7 236.414 404.23 238.016C397.884 240.296 389.969 237.276 389.969 237.276Z" fill="#065A92"/>
<path d="M303.656 265.877C304.285 270.613 308.955 277.393 313.475 277.698C317.995 278.003 325.165 272.495 325.165 272.495C325.165 272.495 316.331 277.296 312.49 276.3C307.831 275.092 303.656 265.877 303.656 265.877Z" fill="#065A92"/>
<path d="M307.195 294.735C309.121 295.584 316.285 296.767 321.963 291.889C327.641 287.011 323.021 289.007 319.903 291.629C314.309 296.337 307.195 294.735 307.195 294.735Z" fill="#065A92"/>
<path d="M209.793 247.97C212.521 248.238 206.454 250.579 204.906 250.36C202.797 250.063 195.443 248.132 194.82 245.941C194.196 243.75 206.398 247.64 209.793 247.97Z" fill="#065A92"/>
<path d="M270.053 240.702C265.834 240.962 263.602 239.483 262.138 238.137C260.674 236.792 257.407 234.605 255.742 234.544L255.82 234.279C257.763 234.348 261.676 236.743 263.056 238.011C264.437 239.279 267.966 239.901 271.963 239.637L270.053 240.702Z" fill="#00090E"/>
<path d="M437.851 233.75C431.884 235.047 426.045 238.055 422.477 239.892L430.47 238.026C431.477 235.734 437.851 233.75 437.851 233.75Z" fill="#00090E"/>
<path d="M307.812 251.08C310.501 251.511 315.416 252.869 318.878 255.678C318.878 255.678 318.422 253.259 314.631 251.897C310.841 250.536 307.812 251.08 307.812 251.08Z" fill="#065A92"/>
<path d="M380.271 250.75L381.384 248.262C380.747 247.296 380.485 246.22 380.627 245.152C380.21 246.181 379.241 248.831 380.271 250.75Z" fill="#00090E"/>
<path d="M452.32 233.044C454.664 231.011 460.492 227.023 464.077 225.775C464.077 225.775 460.102 228.072 459.506 230.105C458.911 232.137 452.32 233.044 452.32 233.044Z" fill="#00090E"/>
<path d="M452.355 244.413C448.809 243.072 441.779 239.868 439.469 238.039C439.469 238.039 443.56 240.177 446.983 240.702C450.407 241.226 452.355 244.413 452.355 244.413Z" fill="#00090E"/>
<path d="M448.296 219.1C445.908 222.352 447.01 224.592 445.981 226.445C445.569 227.189 442.68 229.722 442.68 229.722C442.68 229.722 445.385 226.356 444.906 224.933C444.428 223.51 445.285 221.856 445.285 221.856L448.296 219.1Z" fill="#00090E"/>
<path d="M399.704 239.479C398.368 242.186 406.384 243.95 408.465 246.572C408.465 246.572 409.078 244.788 407.987 243.633C406.612 242.743 400.739 242.141 399.704 239.479Z" fill="#00090E"/>
<path d="M269.707 241.425C273.091 241.803 275.067 243.177 273.047 243.827C271.026 244.478 258.697 246.852 256.843 246.673C253.314 246.372 267.236 241.148 269.707 241.425Z" fill="#065A92"/>
<path d="M423.711 286.547C432.617 287.649 436.046 285.458 437.627 283.629C440.104 280.783 437.109 279.348 434.053 280.462C430.741 281.669 429.862 284.714 423.711 286.547Z" fill="#FFB35B"/>
<path d="M516 271.015C527.133 268.779 527.984 267.027 528.018 266.104C528.04 265.884 527.985 265.663 527.857 265.463C527.729 265.263 527.534 265.091 527.289 264.961C527.044 264.832 526.758 264.751 526.457 264.725C526.157 264.7 525.853 264.731 525.574 264.815C523.915 265.36 524.155 267.242 516 271.015Z" fill="#FFB35B"/>
<path d="M519.291 250.463C524.635 247.544 526.383 245.646 526.611 244.564C526.873 243.345 525.565 243.402 525.386 243.463C525.386 243.308 524.563 242.56 522.553 243.251C519.698 244.235 519.252 249.007 519.291 250.463Z" fill="#FFB35B"/>
<path d="M448.397 299.654C439.786 300.024 434.036 301.963 432.187 303.508C429.9 305.415 433.646 305.504 434.108 305.484C433.869 305.723 433.084 307.593 437.548 307.11C442.413 306.622 447.623 301.097 448.397 299.654Z" fill="#FFB35B"/>
<path d="M53.2891 233.064C54.1463 235.357 57.2468 237.04 59.49 237.247C62.2732 237.504 60.9094 235.796 60.7369 235.621C61.0152 235.621 62.763 235.308 60.9651 234.105C59.451 233.105 54.5805 232.975 53.2891 233.064Z" fill="#FFB35B"/>
<path d="M64.3203 243.137C66.4467 246.413 70.2652 248.332 72.1132 248.474C73.9613 248.616 72.976 247.222 72.8369 247.072C73.0317 247.072 74.1338 246.885 72.8369 245.714C71.5399 244.543 66.2463 243.377 64.3203 243.137Z" fill="#FFB35B"/>
<path d="M623.823 144.592C618.891 146.315 616.03 149.389 615.813 150.897C615.595 152.405 617.705 151.584 617.928 151.474C617.928 151.633 618.217 152.515 619.976 151.474C621.735 150.433 623.466 146.141 623.823 144.592Z" fill="#FFB35B"/>
<path d="M235.234 173.084C232.851 174.71 232.256 177.491 233.052 179.039C234.042 180.974 235.467 179.283 235.584 179.092C235.707 179.279 236.903 180.263 237.527 178.539C238.05 177.088 235.94 173.881 235.234 173.084Z" fill="#FFB35B"/>
<path d="M314.68 263.072C316.088 266.463 318.982 268.357 320.975 268.764C323.441 269.26 323.118 267.727 323.04 267.544C323.347 267.589 325.595 267.487 324.549 265.788C323.413 263.93 316.433 263.056 314.68 263.072Z" fill="#FFB35B"/>
<path d="M277.656 286.986C278.085 290.047 280.122 292.011 281.731 292.596C283.718 293.32 283.796 291.974 283.768 291.812C284.019 291.885 285.961 292.076 285.438 290.499C284.904 288.787 279.154 287.19 277.656 286.986Z" fill="#FFB35B"/>
<path d="M210.945 288.865C217.731 289.271 221.377 287.796 222.379 286.714C223.381 285.633 222.05 285.194 221.878 285.157C221.995 285.035 222.434 284.072 220.842 283.791C218.788 283.438 213.027 287.113 210.945 288.865Z" fill="#FFB35B"/>
<path d="M154.422 279.724C160.133 279.61 163.328 280.63 164.664 281.553C166.334 282.707 165.176 283.281 164.992 283.329C165.215 283.504 166.607 285.106 164.553 285.691C161.547 286.549 155.385 281.061 154.422 279.724Z" fill="#FFB35B"/>
<path d="M113.16 285.58C99.8009 287.247 96.6782 275.149 99.6005 270.182C99.6005 270.182 99.0717 276.474 106.514 278.129C113.956 279.783 114.491 285.414 113.16 285.58Z" fill="#FFB35B"/>
<path d="M82.7228 205.576C73.8165 200.502 80.2012 193.38 85.2554 192.291C83.9566 193.125 83.1067 194.269 82.8578 195.519C82.609 196.769 82.9774 198.043 83.8973 199.112C87.0979 203.165 83.6078 206.08 82.7228 205.576Z" fill="#FFB35B"/>
<path d="M390.359 256.189C392.692 253.962 394.707 249.49 394.222 247.022C393.666 244.12 394.946 246.531 395.096 247.344C395.247 248.157 396.26 251.047 394.812 254.543C393.365 258.039 390.359 256.189 390.359 256.189Z" fill="#00090E"/>
<path d="M509.721 176.961C513.618 180.758 520.108 170.303 520.108 170.303C520.108 170.303 506.682 174.01 509.721 176.961Z" fill="#FFB35B"/>
<path d="M116.133 337.789H561.671C561.671 337.789 473.656 344.001 323.848 344.001C163.18 344.001 116.133 337.789 116.133 337.789Z" fill="#FFB35B"/>
<path d="M384.232 234.665C386.214 233.153 386.459 230.697 384.923 229.502C383.386 228.307 380.781 229.563 380.781 229.563L383.453 226.161C383.453 226.161 387.505 225.531 388.368 226.665C389.231 227.799 388.886 232.271 388.886 232.271C388.886 232.271 387.16 234.226 384.232 234.665Z" fill="#00090E"/>
</g>
<defs>
<clipPath id="clip0_837_5257">
<rect width="640" height="344" fill="white"/>
</clipPath>
</defs>
</svg>
