<svg viewBox="0 0 712 620" fill="none" xmlns="http://www.w3.org/2000/svg">
<path d="M481.075 213.368C471.978 211.086 463.014 210.781 454.107 214.396C451.018 215.651 448.214 217.135 446.936 220.198C442.225 231.441 432.27 235.303 421.704 238.309C399.79 244.529 384.265 269.165 387.889 291.746C388.938 298.347 392.581 300.231 398.569 299.07C404.202 297.962 409.436 295.374 413.732 291.575C416.986 288.467 421.169 286.504 425.645 285.985C430.12 285.467 434.643 286.421 438.525 288.702C443.98 291.656 450.059 293.273 456.264 293.422C462.468 293.571 468.619 292.247 474.209 289.558C481.839 286.268 490.448 286.043 498.24 288.931C508.291 292.26 517.922 291.385 528.031 288.626C550.917 282.405 573.804 275.728 597.854 276.851C603.976 277.136 608.668 271.334 615.896 273.293C610.422 279.229 604.128 283.471 596.995 283.813C575.768 284.821 556.544 293.154 536.575 298.823C531.731 300.212 527.039 301.905 520.936 303.845C534.286 310.427 547.427 311.835 560.854 312.425C575.291 313.034 589.862 310.522 604.186 314.536C608.095 315.64 611.223 318.969 615.629 318.455C615.438 320.89 619.443 320.89 618.375 324.657C589.424 311.341 557.802 324.752 528.298 315.431L520.535 312.672L514.47 310.085C512.448 308.374 509.926 307.36 507.28 307.193L492.518 304.092C490.713 303.375 488.772 303.06 486.832 303.168C484.892 303.277 482.999 303.806 481.285 304.72C471.348 306.718 461.85 310.732 451.532 310.96L448.614 310.77C444.38 309.476 440.032 308.506 435.97 306.813C433.793 305.79 431.352 305.467 428.984 305.89C426.616 306.313 424.438 307.46 422.753 309.172C417.864 313.729 411.682 316.666 405.054 317.58C396.3 318.931 393.61 324.714 392.771 332.076C392.159 336.794 392.456 341.586 393.649 346.192C395.619 353.493 396.079 361.118 395.003 368.602C393.751 377.972 395.737 387.489 400.631 395.584C405.526 403.678 413.039 409.869 421.932 413.136C424.629 414.196 427.628 414.196 430.324 413.136C453.669 403.967 474.553 410.606 494.273 423.219C499.594 426.624 503.599 427.024 508.806 423.447C513.375 420.6 518.128 418.058 523.034 415.838C536.384 408.932 549.887 408.932 563.085 416.161C577.37 423.999 591.693 425.407 606.799 418.501C612.654 415.8 618.242 416.922 626.138 421.202C617.699 420.287 609.19 422.115 601.878 426.415C589.424 432.978 576.855 431.818 564.325 426.225C553.606 421.431 542.735 418.786 531.502 425.007C547.866 439.408 547.866 439.484 570.085 438.133C576.112 437.772 581.128 439.256 585.095 443.841C579.677 441.444 573.658 440.748 567.834 441.843C561.884 443.213 555.933 442.338 549.582 442.794C560.339 450.176 580.632 446.295 578.61 468.495C575.196 455.978 566.385 452.858 554.922 452.42C548.076 452.173 543.346 446.371 538.864 441.348C529.423 430.79 523.034 429.573 510.79 436.098C506.16 439.01 500.65 440.202 495.227 439.465C498.869 444.278 503.733 444.43 508.577 447.075C506.403 447.303 504.763 448.026 503.981 447.493C493.949 441.063 483.612 445.8 473.37 446.295C471.692 446.39 470.013 446.295 469.804 448.197C469.773 448.595 469.828 448.996 469.965 449.371C470.102 449.747 470.317 450.089 470.597 450.375C470.877 450.661 471.214 450.885 471.587 451.031C471.96 451.177 472.36 451.242 472.76 451.222C474.611 450.997 476.446 450.654 478.253 450.194C489.429 448.844 500.338 448.292 509.683 456.625C515.653 461.989 522.919 461.666 530.377 459.878C543.46 456.72 550.479 459.725 551.795 472.319C553.244 486.378 555.208 499.561 564.992 510.652C554.217 505.782 549.163 499.104 547.236 488.47C546.626 485.065 546.302 481.565 545.329 478.216C542.754 468.933 538.845 466.403 530.071 470.398C519.505 475.23 510.618 473.993 502.035 466.593C494.578 460.163 486.225 464.538 478.253 465.014C474.438 465.242 476.155 468.02 476.631 470.036C479.206 480.956 489.81 485.959 502.016 482.04C517.274 477.094 517.408 477.056 526.314 490.62C528.108 493.229 530.666 495.222 533.638 496.327C538.687 498.27 542.982 501.769 545.901 506.314C537.471 501.083 525.685 501.749 520.516 490.791C517.827 485.084 513.326 484.133 507.795 487.766C512.887 498.248 519.658 505.515 532.131 508.35C548.457 512.155 553.244 519.212 552.271 533.785C546.454 518.68 535.736 514.533 520.631 517.177C529.595 520.982 529.576 529.942 533.523 536.619C539.054 545.96 528.107 550.278 527.134 557.926C523.72 556.594 523.778 554.654 524.331 553.474C526.753 548.338 531.75 544.191 526.238 537.475C522.748 533.233 521.565 527.26 515.481 524.958C511.667 523.474 510.275 519.745 509.264 515.921C505.449 501.406 500.357 497.564 482.563 497.507C498.145 505.458 500.185 519.631 506.289 533.1C501.12 531.197 500.567 527.221 498.088 525.015C497.534 523.664 496.981 522.313 496.409 520.963L494.502 517.158C490.573 506.086 478.176 505.382 471.234 497.392C469.327 503.099 472.588 505.877 475.907 508.35C481.247 512.326 486.74 516.074 492.156 519.916L494.273 522.941L496.333 526.499C498.946 534.641 498.908 543.106 499.537 551.515C499.899 556.271 502.245 560.418 504.343 564.603L502.798 565.859C494.902 560.018 493.396 551.001 492.156 542.402C491.827 538.956 490.616 535.653 488.639 532.808C486.662 529.963 483.985 527.673 480.865 526.156C476.743 523.791 472.843 521.059 469.212 517.995C457.044 508.141 454.813 497.468 462.842 483.847C465.417 479.472 464.749 477.037 461.316 474.336C459.562 472.966 457.903 471.482 456.205 470.055C445.506 461.076 445.506 461.076 441.691 449.738C433.528 454.779 426.681 461.152 419.701 467.411C416.516 470.227 417.107 473.365 418.881 476.923C422.695 484.266 428.646 489.269 435.512 493.397C438.295 494.867 440.659 497.017 442.383 499.645C444.107 502.273 445.136 505.294 445.372 508.426C446.783 520.525 458.15 524.748 466.351 531.255C469.479 533.709 473.751 534.755 477.547 536.315C484.527 539.187 487.75 544.514 487.827 551.857C487.827 559.695 487.827 567.552 487.827 576.246C480.808 567.152 484.26 556.061 479.893 546.721C474.362 555.11 472.436 562.948 480.217 571.09C473.771 566.981 466.58 564.108 469.537 555.015C473.809 548.756 473.809 548.756 468.259 543.601C467.973 546.987 467.725 550.031 467.477 553.113C464.296 563.483 464.144 574.543 467.038 584.996C463.535 581.491 461.032 577.116 459.789 572.325C458.545 567.533 458.605 562.496 459.962 557.735C462.651 546.835 457.006 539.568 450.865 532.187C447.604 528.249 445.811 530.284 444.495 533.937C442.588 539.035 444.609 543.24 447.546 547.254C452.906 554.387 454.279 561.826 450.75 570.367C447.674 577.749 447.007 585.909 448.843 593.69C449.778 597.742 449.93 601.832 446.459 605.447C444.132 591.655 439.384 578.319 445.181 564.413C446.974 560.094 443.618 556.575 441.1 553.36C438.364 550.118 436.454 546.264 435.531 542.128C434.608 537.991 434.699 533.693 435.798 529.599C437.877 519.84 436.37 509.472 425.9 503.099C420.922 500.075 416.688 495.851 410.947 491.248C412.416 504.051 413.789 514.837 422.39 523.207C430.992 531.578 433.242 541.223 430.534 552.77C428.76 560.38 428.188 568.122 426.128 575.789C424.112 567.458 423.969 558.785 425.709 550.392C427.158 543.449 424.278 539.111 417.889 535.059C424.679 546.683 405.321 555.7 413.236 562.758C422.486 571.014 410.966 585.149 424.679 589.524C417.164 589.524 413.445 586.138 414.494 578.643C414.876 575.808 415.925 572.84 413.941 570.424C412.606 568.807 410.451 566.867 408.658 566.867C405.95 566.867 406.198 569.968 405.931 572.041C404.882 580.659 407.667 588.173 412.435 595.25C415.486 599.778 417.889 604.629 411.557 611.059C413.236 604.99 411.882 601.433 408.792 597.952C396.929 584.635 395.67 569.416 403.795 553.969C407.915 546.074 410.661 538.978 405.817 530.265C403.776 526.613 403.68 521.743 403.223 517.348C402.174 507.075 400.839 497.202 389.987 491.856C388.079 490.867 386.954 487.918 385.581 485.807C384.208 483.695 384.513 479.015 380.489 480.613C379.765 480.98 379.122 481.488 378.599 482.108C378.077 482.727 377.684 483.445 377.446 484.219C377.207 484.994 377.127 485.808 377.211 486.613C377.295 487.419 377.54 488.199 377.933 488.908C385.448 502.224 385.562 517.557 390.959 531.388C396.357 545.218 398.111 558.896 392.027 572.897C391.265 574.629 390.12 576.227 391.322 578.205C397.52 588.326 391.532 597.59 390.197 607.368C385.753 606.531 386.554 604.058 387.393 602.175C389.548 597.324 388.861 592.244 388.842 587.241C388.842 585.757 389.033 583.855 387.088 583.284C385.142 582.714 384.284 584.464 383.273 585.567C375.091 595.079 366.814 604.686 363.114 620C361.998 615.953 361.769 611.714 362.444 607.571C363.119 603.428 364.681 599.479 367.024 595.992C370.342 590.608 374.138 585.51 377.723 580.298C385.753 568.56 388.346 555.909 383.083 542.459C379.126 533.189 375.825 523.654 373.203 513.924C372.498 510.937 363.324 506.031 363.324 506.031C356.681 503.743 353.915 504.897 348.066 506.031C343.847 506.848 338.988 508.902 337.653 509.586C337.386 509.765 337.157 509.995 336.981 510.263C336.804 510.531 336.682 510.831 336.623 511.146C334.067 526.156 324.569 539.054 323.272 554.406C322.204 566.562 328.079 576.246 334.906 585.662C341.734 595.079 349.077 604.363 345.873 619.391C341.238 603.678 332.694 592.758 321.995 582.295C317.608 590.399 321.861 598.522 319 607.178C316.521 597.077 312.63 588.154 317.36 578.738C317.817 577.743 318.015 576.65 317.935 575.559C317.855 574.468 317.5 573.415 316.902 572.498C311.848 561.578 312.192 550.183 315.625 539.13C319.057 528.078 322.3 516.739 324.817 505.306C325.908 499.028 328.812 493.204 333.171 488.546C336.203 485.579 336.28 481.584 332.999 479.472C328.536 476.599 328.174 481.508 327.049 484.095C325.008 488.832 322.891 493.607 317.513 495.319C309.579 497.925 307.347 504.146 306.546 511.451C305.593 520.259 305.001 529.181 300.634 537.19C298.402 541.299 300.539 544.514 302.369 547.767C312.611 566.068 314.118 583.722 298.555 600.044C295.999 602.708 296.991 605.923 296.419 609.556C291.212 604.781 293.291 600.33 296.057 596.24C300.558 589.467 303.914 582.409 303.018 574.077C302.751 571.566 304.162 567.228 300.195 567.209C299.295 567.2 298.404 567.399 297.593 567.789C296.782 568.179 296.072 568.751 295.518 569.46C294.964 570.168 294.582 570.995 294.401 571.875C294.22 572.755 294.245 573.665 294.474 574.533C297.43 585.301 290.201 589.182 282.84 593.234L281.581 592.245C288.428 586.937 293.882 581.021 290.64 571.318C302.35 561.54 293.787 552.124 290.24 542.555C289.98 541.012 289.98 539.437 290.24 537.894C290.487 536.828 291.288 535.135 290.888 534.793C289.61 533.671 289.21 535.516 288.39 536.068C282.477 540.69 282.401 546.683 284.194 553.189C286.635 562.187 287.245 571.147 281.943 580.164C283.221 567.571 278.586 556.613 274.009 545.541C265.789 553.893 262.051 562.529 266.094 574.495C269.508 584.597 263.138 594.87 262.814 605.523C261.59 604.095 260.713 602.404 260.25 600.583C259.787 598.762 259.75 596.859 260.144 595.022C261.842 585.961 260.977 576.607 257.645 568.008C256.408 565.067 255.956 561.856 256.334 558.689C256.711 555.521 257.906 552.505 259.8 549.936C261.231 547.862 262.432 545.617 263.71 543.449C266.514 538.712 266.209 532.967 262.146 530.608C258.618 528.572 256.577 534.412 254.327 537.171C249.196 543.43 248.052 550.488 249.215 558.535C250.589 568.046 250.856 577.863 241.358 584.616C247.766 570.615 241.243 557.089 241.186 542.764C235.464 548.262 235.159 548.471 238.573 554.559C240.747 558.477 240.957 563.29 238.096 564.926C231.497 568.731 232.375 574.438 231.822 580.145C229.914 574.267 225.223 568.275 233.729 563.424C234.261 563.211 234.728 562.865 235.087 562.419C235.446 561.974 235.684 561.443 235.778 560.88C235.872 560.316 235.818 559.737 235.623 559.2C235.428 558.663 235.098 558.185 234.663 557.812C231.536 555.053 231.955 550.963 229.762 546.759C223.468 557.279 230.048 571.014 218.872 579.213C222.991 570.006 220.779 560.494 221.275 551.096C221.637 543.791 225.337 538.16 232.451 536.144C243.99 532.891 251.618 524.159 260.792 517.538C264.301 514.989 264.092 511.356 264.092 508.16C264.092 501.635 267.162 497.506 272.502 494.425C279.521 490.373 284.48 484.247 289.534 478.083C294.588 471.92 294.569 468.153 286.997 464.044C280.532 460.505 272.483 459.155 267.486 451.127C267.2 461.323 259.724 465.071 253.449 469.96C247.175 474.849 245.592 480.385 248.548 488.318C253.621 501.996 250.703 509.929 239.203 519.022C238.485 519.646 237.706 520.194 236.876 520.658C223.811 527.107 216.144 536.733 215.038 552.028C214.485 559.638 211.033 567.4 201.688 569.549L201.859 569.701C209.679 556.956 210.213 542.478 211.815 528.268L213.722 524.463C219.768 514.095 235.503 512.573 239.489 497.43C228.045 505.687 215.114 509.358 211.91 523.055L210.003 526.651C208.649 528.382 207.447 530.455 204.281 529.143C209.259 519.631 210.861 508.217 220.626 501.216C211.09 497.564 202.145 502.472 200.181 513.334C198.998 519.992 196.367 524.463 190.321 527.183C185.4 529.39 185.686 535.478 182.368 538.598C177.027 543.563 181.586 547.063 183.169 551.077C184.523 554.482 184.923 557.754 181.586 562.739C182.158 552.789 171.268 546.949 174.319 539.91C177.371 532.872 177.905 523.626 186.659 519.232C170.276 514.628 161.579 519.003 156.62 534.451C153.149 526.442 156.239 520.982 161.198 516.207C166.08 511.583 172.237 508.522 178.877 507.418C183.124 506.877 187.159 505.254 190.593 502.705C194.027 500.155 196.745 496.767 198.484 492.865C199.304 491.191 202.985 490.22 200.391 487.633C199.439 486.764 198.257 486.188 196.985 485.972C195.713 485.756 194.406 485.91 193.22 486.416C190.702 487.329 189.405 489.555 187.975 491.685C182.959 499.295 174.739 503.632 162.494 504.716C173.213 497.906 183.092 492.693 188.719 482.154C191.141 477.665 197.606 478.35 201.878 480.537C208.306 483.733 214.638 482.763 221.256 482.592C229.838 482.345 230.925 475.762 231.745 470.265C232.718 463.644 225.871 464.9 222.209 463.815C216.068 462.027 210.461 463.816 205.407 468.02C198.636 473.575 191.37 475.629 182.52 471.977C169.17 466.536 165.355 468.724 162.227 483.048C159.996 493.017 158.28 503.023 148.686 509.092L147.275 507.589C152.098 500.516 154.846 492.241 155.209 483.695C155.387 478.324 156.571 473.033 158.699 468.096C162.247 460.372 167.625 456.682 176.093 459.478C180.689 461.214 185.676 461.651 190.504 460.742C195.333 459.832 199.817 457.611 203.461 454.323C211.529 447.683 221.389 449.396 230.811 450.651C237.658 451.545 244.447 452.553 251.084 450.309C241.072 448.311 230.696 448.996 221.713 443.156C220.779 442.547 218.681 442.147 218.223 442.642C211.224 450.385 201.306 446.066 193.162 448.844C192.838 448.483 192.495 448.14 192.133 447.817C194.764 443.803 198.751 444.202 202.813 444.316C206.875 444.43 210.976 444.754 213.417 440.511C214.104 440.302 215.324 440.245 214.676 439.218C214.027 438.191 213.226 439.047 212.769 439.941C207.047 440.968 202.279 438.552 197.511 436.022C186.907 430.486 179.64 431.247 172.05 439.827C164.84 448.064 157.097 454.132 145.349 453.866C139.856 453.733 136.156 457.5 133.753 462.427C132.189 465.661 131.426 469.694 127.421 470.702C128.718 450.898 144.586 448.102 159.538 443.803C145.997 443.422 132.837 439.617 122.214 444.183C128.889 436.402 139.379 438.305 149.869 439.579C161.827 441.025 169.418 432.807 177.828 425.654C173.921 423.084 169.4 421.593 164.726 421.332C160.053 421.072 155.394 422.051 151.223 424.17C133.638 432.369 116.645 433.834 99.6328 423.048C95.4178 420.365 90.3637 421.697 84.9663 420.746C92.2709 415.705 99.0797 416.941 105.946 419.852C117.389 424.722 129.233 425.35 139.894 419.015C160.664 406.668 179.945 410.131 198.712 422.667C205.292 427.081 210.156 426.472 216.602 422.458C235.541 410.454 255.128 407.049 278.186 412.223C293.444 415.628 308.835 404.214 322.967 397.004C328.861 394.018 328.25 383.916 327.773 376.592C327.068 365.178 326.648 354.353 330.234 342.92C332.601 336.365 333.424 329.354 332.637 322.431C328.25 294.447 313.431 280.807 284.365 281.359C257.512 281.854 230.963 284.403 206.627 297.358C196.672 302.647 185.972 303.065 175.12 301.163C165.095 299.645 154.943 299.123 144.815 299.603C136.022 299.85 127.325 299.603 118.934 295.665C108.921 290.966 97.9544 290.966 87.1596 291.86C83.3452 292.184 79.5307 293.23 75.8879 291.594C91.1456 285.088 97.6874 284.365 111.534 287.675H111.705C119.01 288.969 126.257 290.605 133.619 291.366C137.968 291.822 143.575 293.154 144.776 286.153L144.586 286.267C151.127 284.764 157.135 288.455 163.563 288.17C177.104 293.591 190.492 293.173 197.892 287.485C181.586 269.507 158.07 270.63 136.862 265.246L137.033 265.36C134.134 261.213 129.404 262.335 125.418 261.422C115.882 259.216 100.625 248.258 100.625 248.258C100.625 248.258 101.382 247.537 101.693 247.117L110.618 251.113L111.934 251.72C111.934 251.72 118.214 254.912 121.737 254.783C138.368 254.46 153.645 262.393 170.123 262.507H170.543C178.6 262.19 186.496 264.822 192.743 269.907C203.843 278.582 215.515 281.721 228.732 274.701C237.143 270.211 246.45 270.782 255.605 270.249C259.247 270.04 262.795 268.1 266.38 266.958C272.274 267.776 275.115 261.67 280.284 260.833C281.485 261.08 282.439 262.735 283.889 261.441C283.786 261.73 283.722 262.03 283.698 262.335C295.98 267.852 309.102 269.545 322.319 270.154C325.313 270.287 327.335 266.54 327.926 263.192C328.326 261.628 328.14 259.972 327.402 258.536C326.665 257.1 325.427 255.982 323.921 255.392C309.502 249.171 298.46 236.615 285.09 230.661C267.086 222.595 246.564 217.192 225.966 218.181C217.823 218.562 211.528 218.904 202.164 220.75C197.25 221.719 194.11 221.406 189.215 222.462C181.376 224.151 149.087 227.314 168.788 223.604C188.49 219.894 208.725 216.26 227.359 211.618C231.173 212.893 234.93 211.904 237.448 211.239C239.965 210.573 262.585 219.038 278.491 217.44C274.963 210.515 270.443 204.675 269.165 197.446C268.631 194.402 266.075 194.877 263.939 194.611C246.774 192.537 229.514 190.978 213.837 182.721C213.551 182.569 213.188 182.227 213.017 182.322C195.68 190.616 177.657 179.297 160.244 184.224C158.817 184.751 157.444 185.414 156.143 186.203H155.915H133.638C151.738 186.374 168.35 172.886 187.651 181.18C193.029 183.501 199.285 179.887 205.922 177.832C201.211 169.595 193.296 168.492 186.01 166.418C176.665 163.812 166.938 162.119 159.176 155.67L161.083 154.852C164.65 157.705 169.227 156.754 173.213 158.124L175.502 158.295C180.136 161.624 185.801 160.901 190.969 161.833C197.55 162.707 203.729 165.485 208.744 169.823L210.88 171.726C227.073 181.618 245.515 182.379 263.615 184.395C269.661 185.08 269.794 181.447 268.001 177.223C266.037 173.228 263.107 169.783 259.476 167.198C255.299 163.812 250.417 161.053 247.899 156.088C243.15 146.69 234.816 143.989 225.223 143.342L221.103 139.69L211.949 128.865C212.959 128.523 214.085 127.838 214.371 128.085C226.768 139.176 247.651 136.303 256.463 153.444C256.61 153.885 256.858 154.286 257.186 154.616C257.514 154.947 257.986 154.967 258.427 155.118C260.357 155.998 263.443 158.257 265.045 159.645L265.865 160.464L276.832 171.649L279.845 177.49C277.251 206.025 297.983 220.084 316.082 235.74C319.439 238.632 324.264 240.553 328.422 237.643C332.58 234.732 331.76 229.919 330.653 225.449C329.077 217.967 325.052 211.221 319.21 206.273C311.581 200.071 308.306 192.127 307 185C304.654 172.197 313.031 166.817 309.235 159.398L308.587 153.044C308.874 150.256 303.781 137.445 303.781 137.445C302.115 135.467 294.664 112.314 294.664 111.363C294.664 111.363 294.785 109.461 295.618 109.461C296.571 109.461 301.244 118.44 301.244 118.44L303.247 122.777C303.247 122.777 314.722 153.14 316.654 168.035C314.261 149.581 319.523 153.164 322.319 136.02L326.267 121.769L327.773 111.477C327.773 111.477 329.26 104.563 329.681 100.063C330.511 91.1756 328.021 84.8443 328.536 77.2348C328.937 71.3375 324.436 64.3375 331.531 59.6387V59.714C331.383 61.6239 331.505 63.545 331.893 65.4211C339.522 86.5564 340.688 96.1444 335.5 118.44C334.246 123.83 331 130.92 331 135C331 142.686 324.373 154.327 324.5 162C324.627 169.673 323.598 172.711 321.5 178C317.209 186.123 325.466 191.339 333.228 197.389C343.851 205.664 347.875 217.687 348.867 230.775C349.191 234.846 349.306 238.917 349.649 245.309C354.875 236.615 356.591 229.653 356.382 222.291C356.134 213.787 350.126 218.697 349.649 210.212C352.033 209.204 349.706 206.217 352.472 205.456C353.826 211.715 358.556 214.017 358.556 214.017L362.37 220.749C362.37 220.749 362.294 220.616 362.256 221.244C361.588 233.001 359.223 243.94 352.472 254.193C347.914 261.118 349.878 269.412 354.379 276.546C356.286 279.457 358.193 282.862 362.16 282.672C366.738 282.443 366.776 277.954 367.596 274.872C370.638 264.3 374.72 254.053 379.783 244.282C383.064 237.548 389.949 232.982 390.94 225.03C391.229 224.996 391.493 224.853 391.678 224.63C391.863 224.406 391.954 224.12 391.932 223.831C394.411 201.003 388.718 192.886 389.5 170C390.053 154.42 383.748 124.627 383.5 108C383 105 385.066 104.933 385.066 103.868C388.022 103.24 389.415 104.743 389.071 107.406C386.992 123.196 393.134 137.083 399.847 151.656C409.686 143.293 420.724 136.445 432.594 131.338C435.588 130.121 437.82 125.821 439.326 122.473C443.351 113.475 450.255 108.282 459.352 105.352C464.845 103.602 469.403 100.139 474.743 95.84C474.743 104.229 469.517 108.11 464.196 110.679C456.3 114.483 450.464 119.525 448.061 128.066C445.83 135.98 439.841 140.375 433.338 144.598C433.338 144.598 406.427 163.127 407.876 172.905C410.165 188.257 407.438 204.066 413.274 219.171C415.181 223.965 416.63 225.144 421.074 224.174C427.826 222.69 433.948 219.989 437.247 213.654C442.454 203.685 451.094 200.604 461.526 200.337C469.155 200.109 476.04 199.139 481.914 192.557C488.475 185.194 497.687 186.431 506.708 188.485C511.171 189.513 516.209 188.572 519.715 184.604C520.603 183.6 521.622 181.751 521.622 181.751L524.159 179.582C527.764 177.09 530.911 174.522 535.679 173.552C542.106 172.258 548.552 169.386 546.95 160.464L546.817 160.616C551.394 153.006 558.451 148.631 567.338 146.139C558.851 153.501 550.65 160.996 551.528 173.419L551.718 173.742C543.441 178.65 532.951 180.838 527.478 189.189C521.108 198.91 513.059 200.375 502.989 197.712C498.526 196.532 494.159 196.342 490.363 199.367C487.445 201.707 485.881 204.484 491.069 205.873C499.976 208.232 507.948 212.741 516.301 216.412C520.516 218.315 525.456 219.19 528.813 215.784C535.431 209.05 544.07 207.852 552.405 205.721C557.726 208.517 563.009 210.515 567.911 204.941C575.234 200.546 582.939 197.731 591.808 199.424C582.52 201.688 573.937 204.789 567.243 212.227C564.573 215.195 559.805 215.023 555.571 214.129C547.942 212.607 540.962 213.768 535.488 219.608C530.434 224.973 523.682 225.03 517.236 226.209C516.587 226.989 515.92 227.75 515.329 228.53C507.7 221.168 499.194 215.214 487.77 215.784C486.549 215.842 485.329 215.658 484.18 215.243C483.032 214.828 481.976 214.191 481.075 213.368ZM217.67 435.946C219.92 437.164 222.275 438.176 224.708 438.971C235.808 441.348 247.327 447.455 256.654 434.747C259.591 430.752 264.397 430.943 268.917 432.331C274.572 434.37 279.924 437.167 284.823 440.645C297.315 448.616 302.617 447.113 308.549 433.967C312.134 426.015 310.647 423.79 301.778 425.102C293.253 426.377 284.747 427.861 276.412 424.874C254.727 417.131 236.246 425.293 217.67 435.965V435.946ZM402.517 424.532C403.261 426.757 403.909 428.527 404.424 430.239C408.601 444.012 414.8 446.485 427.711 439.522C431.335 437.62 434.863 435.432 438.582 433.682C444.876 430.714 450.541 430.239 455.232 437.03C457.464 440.264 461.088 443.955 465.341 442.737C473.732 440.245 483.44 442.737 490.401 435.908C473.103 423.086 455.48 419.585 435.55 425.711C427.725 428.455 419.173 428.314 411.443 425.312C410.079 424.604 408.588 424.172 407.056 424.041C405.524 423.911 403.982 424.084 402.517 424.551V424.532ZM275.268 535.44C287.283 522.332 299.737 509.587 298.307 488.66C291.898 495.679 284.602 501.837 276.603 506.98C275.48 508.029 274.798 509.463 274.696 510.994C273.628 519.308 270.347 527.64 275.268 535.459V535.44ZM411.252 490.563C407.807 483.801 402.669 478.042 396.338 473.841C398.512 483.372 406.866 485.312 411.252 490.582V490.563ZM313.05 473.708C306.375 478.787 302.198 483.01 299.699 488.699C304.2 484.761 311.123 483.163 313.05 473.727V473.708Z" fill="#065A92"/>
<path d="M537.05 87.8328C530.781 88.5117 526.292 91.8076 521.433 94.6375C515.42 98.138 503.93 96.0684 503.185 90.7419C502.441 85.4153 508.179 82.124 512.708 79.6698C520.085 75.7125 528.199 78.4335 537.05 87.8328Z" fill="#065A92"/>
<path d="M499.184 80.0303C495.548 81.9494 493.624 85.0265 491.363 87.9103C488.564 91.478 481.1 92.9868 479.361 89.9374C477.622 86.888 480.305 83.5132 482.457 80.9365C485.972 76.7638 491.547 76.4618 499.184 80.0303Z" fill="#065A92"/>
<path d="M535.421 199.88C531.785 201.799 529.861 204.876 527.6 207.76C524.802 211.328 517.337 212.836 515.598 209.787C513.859 206.738 516.542 203.363 518.694 200.786C522.209 196.613 527.784 196.311 535.421 199.88Z" fill="#065A92"/>
<path d="M564.029 192.271C560.393 194.19 558.469 197.267 556.208 200.151C553.41 203.718 545.945 205.227 544.206 202.178C542.468 199.128 545.15 195.753 547.302 193.177C550.817 189.004 556.392 188.702 564.029 192.271Z" fill="#065A92"/>
<path d="M408.826 1.29505C417.302 19.1369 414.358 29.7142 400.532 35.271C397.078 36.6644 395.364 36.4751 394.555 32.5558C393.103 25.4941 392.456 18.9463 399.553 13.9727C403.623 11.0911 406.067 6.51846 408.826 1.29505Z" fill="#065A92"/>
<path d="M576.264 114.731C571.264 117.461 567.074 121.457 564.115 126.317C559.862 133.622 553.549 134.459 546.207 131.871C544.852 131.396 542.068 132.556 543.06 129.113C544.967 122.417 546.76 115.454 554.236 112.791C561.369 110.261 568.483 111.535 576.264 114.731Z" fill="#065A92"/>
<path d="M712 325.419C706.278 321.614 700.08 320.948 693.996 319.94C693.055 319.828 692.128 319.618 691.23 319.312C688.405 318.191 686.049 316.14 684.55 313.501C683.052 310.861 682.502 307.791 682.991 304.797C683.544 299.642 689.762 302.229 693.328 302.153C704.753 301.963 710.646 309.268 712 325.419Z" fill="#065A92"/>
<path d="M660.267 188.429C648.822 212.378 635.274 218.293 617.738 208.639C613.352 206.231 612.095 204.289 615.502 200.122C621.647 192.621 627.938 186.393 639.156 189.549C645.62 191.334 652.47 189.994 660.267 188.429Z" fill="#065A92"/>
<path d="M0 324.287C4.62679 321.081 8.66553 317.104 11.9392 312.53C12.9039 310.917 14.2047 309.528 15.7536 308.459C20.8649 305.435 26.72 305.473 30.8587 309.125C34.6731 312.492 30.4391 316.639 28.57 319.835C23.4777 328.662 13.8464 330.203 0 324.287Z" fill="#065A92"/>
<path d="M111.476 336.22C114.279 331.346 116.22 326.026 117.213 320.495C117.392 318.624 117.97 316.814 118.911 315.186C122.23 310.268 127.536 307.8 132.845 309.332C137.738 310.744 135.694 316.301 135.378 319.987C134.569 330.139 126.528 335.648 111.476 336.22Z" fill="#065A92"/>
<path d="M64.3728 322.086C67.0298 319.701 69.2553 316.878 70.9516 313.739C71.4304 312.647 72.1386 311.67 73.0284 310.874C76.005 308.565 79.6937 308.125 82.59 310.096C85.2595 311.913 82.9246 314.859 82.0027 317.019C79.5005 322.98 73.5604 324.713 64.3728 322.086Z" fill="#065A92"/>
<path d="M143.147 342.105C145.95 337.231 147.891 331.911 148.884 326.379C149.063 324.509 149.642 322.699 150.582 321.071C153.901 316.153 159.208 313.685 164.516 315.216C169.409 316.629 167.365 322.185 167.049 325.872C166.24 336.024 158.199 341.533 143.147 342.105Z" fill="#065A92"/>
<path d="M487.716 58.5202C488.484 61.394 488.941 63.7604 493.337 63.3733C506.696 62.4075 512.401 54.4092 511.298 34.3474C504.925 44.8214 489.277 40.85 487.7 55.0156L487.716 58.5202Z" fill="#065A92"/>
<path d="M639.984 131.965C638.801 151.673 631.115 159.53 616.315 157.761C612.615 157.323 611.204 156.334 612.387 152.51C614.523 145.624 617.116 139.574 625.737 138.623C630.696 138.052 635.044 135.218 639.984 131.965Z" fill="#065A92"/>
<path d="M252.629 79.2889C254.804 81.3244 256.444 83.0936 259.972 80.4493C270.805 72.5925 271.415 62.7953 259.858 46.3398C259.991 58.5911 244.6 63.4612 250.76 76.3212L252.629 79.2889Z" fill="#065A92"/>
<path d="M156.487 76.9492C161.884 88.2493 179.373 93.9754 168.197 109.974C151.127 106.322 146.741 95.4973 156.487 76.9492Z" fill="#065A92"/>
<path d="M71.6347 163.107C90.0742 156.869 98.81 159.859 103.518 172.099C105.477 177.141 104.698 179.336 99.1252 180.268C92.9308 181.312 87.8265 180.4 84.2887 174.765C81.2558 169.768 76.8694 165.726 71.6347 163.107Z" fill="#065A92"/>
<path d="M367.977 46.949C365.803 48.9846 364.163 50.7538 360.634 48.1095C349.801 40.2527 349.191 30.4555 360.749 14C360.615 26.2513 376.006 31.1213 369.846 43.9813L367.977 46.949Z" fill="#065A92"/>
<path d="M318.93 120.459C316.756 122.494 315.115 124.264 311.587 121.619C300.754 113.762 300.144 103.965 311.701 87.5098C311.568 99.761 326.959 104.631 320.799 117.491L318.93 120.459Z" fill="#065A92"/>
<path d="M566.021 355.45C549.18 360.494 539.854 356.406 535.851 343.289C534.236 337.951 535.746 336.124 541.132 335.769C546.518 335.414 551.344 335.768 554.263 340.896C557.174 346.478 561.171 351.425 566.021 355.45Z" fill="#065A92"/>
<path d="M457.654 34.9453C461.469 52.0666 456.701 61.0458 443.293 64.0706C437.838 65.2881 436.122 63.6521 436.16 58.2684C436.198 52.8847 436.904 48.1097 442.244 45.5796C448.038 43.0909 453.277 39.4758 457.654 34.9453Z" fill="#065A92"/>
<path d="M710.361 274.703C705.458 277.757 701.3 281.865 698.193 286.726C697.287 288.384 696.023 289.82 694.493 290.931C692.157 292.547 689.395 293.441 686.553 293.502C683.711 293.563 680.914 292.788 678.51 291.273C673.952 288.077 679.407 283.987 680.837 280.867C685.452 270.842 694.283 269.129 710.361 274.703Z" fill="#065A92"/>
<path d="M201.688 324.81C208.268 311.056 214.18 306.3 223.792 308.012C228.103 308.792 234.606 309.115 233.977 315.317C233.776 318.222 232.445 320.934 230.268 322.874C228.091 324.815 225.24 325.83 222.324 325.704C215.439 325.704 208.573 325.038 201.688 324.658V324.81Z" fill="#065A92"/>
<path d="M287.874 37.4373C285.7 39.4729 284.06 41.2421 280.532 38.5978C269.699 30.741 269.088 20.9438 280.646 4.48828C280.513 16.7395 295.904 21.6096 289.743 34.4696L287.874 37.4373Z" fill="#065A92"/>
<path d="M63.3662 239.58C75.6798 230.558 83.1433 229.153 90.8044 235.191C94.234 237.91 99.8129 241.259 96.3209 246.429C94.7677 248.895 92.3104 250.657 89.4727 251.342C86.6351 252.026 83.6418 251.578 81.1308 250.092C75.0625 246.848 69.3263 243.026 63.4382 239.446L63.3662 239.58Z" fill="#065A92"/>
<path d="M181.578 110.68C184.131 112.217 186.106 113.605 189.002 110.283C197.947 100.339 196.489 90.6315 181.736 76.9516C184.436 88.904 170.407 96.8776 179.128 108.168L181.578 110.68Z" fill="#065A92"/>
<path d="M208.512 124.904C211.065 126.441 213.04 127.829 215.935 124.507C224.881 114.564 223.423 104.856 208.67 91.1762C211.37 103.129 197.341 111.102 206.062 122.392L208.512 124.904Z" fill="#065A92"/>
<path d="M309.121 0C326.076 12.0991 327.259 19.9749 315.358 34.9275C306.413 29.8101 302.675 22.9045 307.595 12.8981C309.464 9.20747 308.72 4.88909 309.121 0Z" fill="#065A92"/>
<path d="M302.491 201.08C319.127 206.72 321.833 212.648 315.306 227.142C306.808 225.162 302.209 220.583 304.067 211.581C304.797 208.248 303.235 205.02 302.491 201.08Z" fill="#065A92"/>
<path d="M139.589 106.953C156.582 107.067 163.944 115.019 162.151 130.01C161.655 134.119 160.587 135.565 156.429 134.423C149.888 132.635 144.853 129.858 144.319 122.039C143.891 116.721 142.275 111.566 139.589 106.953Z" fill="#065A92"/>
<path d="M670.5 249.022C676.927 237.513 681.581 236.067 699.699 240.595C689.972 248.204 686.539 264.698 669.184 257.906C669.603 254.939 670.042 251.99 670.5 249.022Z" fill="#065A92"/>
<path d="M469.537 325.762C486.549 321.557 494.197 325.876 499.232 345.47C488.895 338.869 472.131 347.106 468.603 328.996C468.927 327.911 469.232 326.903 469.537 325.762Z" fill="#065A92"/>
<path d="M416.139 73.0714C404.067 60.0802 405.244 49.1241 420.137 39.259C421.106 51.1023 434.302 63.2121 418.14 73.9882L416.139 73.0714Z" fill="#065A92"/>
<path d="M397.492 97.3458C389.512 88.7582 390.29 81.5158 400.135 74.9946C400.776 82.8235 409.499 90.8285 398.815 97.9519L397.492 97.3458Z" fill="#065A92"/>
<path d="M338.368 53.59C330.388 45.0023 331.166 37.76 341.011 31.2387C341.652 39.0676 350.375 47.0726 339.691 54.1961L338.368 53.59Z" fill="#065A92"/>
<path d="M285.859 295.802C282.573 307.043 275.943 310.098 265.277 305.024C271.681 300.453 274.085 288.876 285.701 294.359L285.859 295.802Z" fill="#065A92"/>
<path d="M622.046 335.752C625.333 346.993 631.962 350.047 642.629 344.973C636.224 340.403 633.82 328.825 622.205 334.308L622.046 335.752Z" fill="#065A92"/>
<path d="M265.894 131.588C257.914 123 258.692 115.758 268.537 109.237C269.178 117.066 277.901 125.071 267.217 132.194L265.894 131.588Z" fill="#065A92"/>
<path d="M243.944 176.302C232.562 173.436 229.26 166.939 233.955 156.122C238.767 162.339 250.454 164.314 245.384 176.092L243.944 176.302Z" fill="#065A92"/>
<path d="M306.882 263.812C295.5 260.946 292.198 254.449 296.893 243.631C301.706 249.849 313.392 251.823 308.322 263.602L306.882 263.812Z" fill="#065A92"/>
<path d="M189.739 288.449C181.899 292.283 176.894 290.181 174.343 281.791C180.071 283.011 187.653 278.525 190.454 287.639L189.739 288.449Z" fill="#065A92"/>
<path d="M232.803 255.823C221.34 253.299 215.469 257.631 214.807 269.401C221.903 265.993 233.238 269.451 233.996 256.655L232.803 255.823Z" fill="#065A92"/>
<path d="M536.754 111.96C534.009 129.284 526.273 135.895 512.687 133.806C507.165 132.944 506.169 130.794 508.184 125.799C510.198 120.804 512.61 116.62 518.508 116.219C524.813 116.022 531.016 114.574 536.754 111.96Z" fill="#065A92"/>
<path d="M249.845 237.109C268.307 230.889 277.976 233.97 282.267 246.431C283.507 250.026 284.175 253.146 278.548 254.193C272.426 255.334 267.219 255.201 263.386 249.608C260.005 244.366 255.346 240.066 249.845 237.109Z" fill="#065A92"/>
<path d="M301.186 79.7646C298.61 77.6737 296.763 74.8232 295.91 71.6212C295.057 68.4193 295.242 65.0302 296.438 61.9394C297.696 57.8683 297.143 53.2456 297.448 48.3945C305.707 51.5905 312.229 56.4796 313.049 65.5159C313.641 72.041 312.267 78.6422 304.867 81.648H305.001L301.091 79.5934L301.186 79.7646Z" fill="#065A92"/>
<path d="M450.2 243.048C447.739 241.368 445.653 240.152 447.482 236.145C452.841 223.902 462.302 221.197 480.901 228.911C468.878 231.42 467.425 247.46 453.508 244.229L450.2 243.048Z" fill="#065A92"/>
<path d="M430.997 191.226L436.433 186.432C442.936 201.917 438.454 212.304 424.074 216.375C419.077 217.802 418.696 216.375 417.971 212.019C416.693 204.409 419.687 199.349 425.6 195.278C427.821 194.603 429.732 193.168 430.997 191.226Z" fill="#065A92"/>
<path d="M413.832 261.614L419.268 256.82C425.771 272.306 421.289 282.693 406.909 286.764C401.912 288.19 401.531 286.764 400.806 282.407C399.528 274.798 402.522 269.737 408.435 265.666C410.656 264.992 412.568 263.557 413.832 261.614Z" fill="#065A92"/>
<path d="M275.986 72.291C289.336 80.4332 293.456 87.6812 290.137 96.4892C288.63 100.522 287.105 107.314 282.07 105.83C276.176 104.099 271.141 98.753 273.201 91.0674C274.746 85.2842 277.054 79.6722 275.986 72.291Z" fill="#065A92"/>
<path d="M513.993 242.002C508.799 240.713 503.458 240.112 498.106 240.213C496.214 240.34 494.315 240.094 492.518 239.49C490.152 238.549 488.118 236.93 486.673 234.838C485.227 232.746 484.434 230.274 484.393 227.734C484.107 222.635 490.115 223.72 493.224 222.978C503.58 220.524 511.457 227.486 514.794 241.241L513.993 242.002Z" fill="#065A92"/>
<path d="M58.3231 238.503C45.1443 245.028 38.3545 242.403 33.3195 228.211C42.0736 231.312 54.8138 223.303 58.3231 238.503Z" fill="#065A92"/>
<path d="M44.0758 295.647C30.8969 302.172 24.1072 299.547 19.0721 285.355C27.8262 288.456 40.5665 280.447 44.0758 295.647Z" fill="#065A92"/>
<path d="M595.584 345.926C588.623 343.796 582.52 341.227 581.49 333.428C580.975 329.623 580.803 324.03 585.304 323.402C590.092 322.736 594.173 326.18 594.612 331.963C594.936 336.167 595.203 340.485 595.584 345.926Z" fill="#065A92"/>
<path d="M547.599 230.682C553.015 217.575 558.031 215.578 572.908 221.399C564.44 225.47 561.026 239.395 547.599 230.682Z" fill="#065A92"/>
<path d="M545.463 305.346C550.879 292.239 555.895 290.242 570.771 296.063C562.303 300.134 558.889 314.059 545.463 305.346Z" fill="#065A92"/>
<path d="M234.587 268.746C238.63 260.528 239.927 250.654 251.657 251.13C251.752 265.778 249.597 268.099 234.587 268.746Z" fill="#065A92"/>
<path d="M215.267 201.345C208.859 204.617 202.66 202.867 195.966 200.66C199.628 193.184 204.72 190.178 212.845 192.632C218.662 194.401 216.202 197.958 215.305 201.326L215.267 201.345Z" fill="#065A92"/>
<path d="M219.372 197.451C226.241 195.227 231.784 194.572 236.063 199.806C238.148 202.357 240.858 206.363 238.084 208.841C235.31 211.318 230.774 210.736 227.804 207.555C224.986 204.619 222.53 201.314 219.372 197.451Z" fill="#065A92"/>
<path d="M150.097 234.416C151.907 227.442 154.332 222.427 161.056 221.64C164.333 221.256 169.177 221.13 169.781 224.794C170.385 228.458 167.456 231.962 163.17 232.751C159.174 233.544 155.06 233.834 150.097 234.416Z" fill="#065A92"/>
<path d="M418.246 184.999C411.84 172.474 412.154 170.612 421.958 163.249C425.645 177.232 425.645 177.232 418.476 185.091L418.246 184.999Z" fill="#065A92"/>
<path d="M253.714 197.335C260.715 199.103 265.756 201.495 266.581 208.198C266.983 211.465 267.136 216.295 263.465 216.917C259.795 217.539 256.267 214.636 255.453 210.366C254.636 206.384 254.323 202.282 253.714 197.335Z" fill="#065A92"/>
<path d="M513.193 220.676C517.813 224.317 523.335 226.326 529.022 226.434C535.526 226.957 542.125 228.297 547.37 233.992C535.927 227.439 528.298 234.944 514.947 228.285C515.691 227.448 512.468 221.513 513.193 220.676Z" fill="#065A92"/>
<path d="M50.1975 285.26C57.2733 285.393 62.2892 286.287 63.1856 293.307C63.4145 295.209 63.8913 297.739 61.2784 297.796C53.6305 297.987 53.9356 290.567 50.1975 285.26Z" fill="#065A92"/>
<path d="M55.3091 310.324C58.7015 304.129 61.8172 300.107 68.4708 302.563C70.2675 303.241 72.7368 303.99 71.5785 306.327C68.2088 313.178 61.756 309.475 55.3091 310.324Z" fill="#065A92"/>
<path d="M98.9274 313.092C100.51 310.79 101.941 308.355 103.695 306.186C105.851 303.58 109.245 301.906 111.839 304.113C114.776 306.586 112.697 310.239 110.466 312.236C107.052 315.28 103.047 317.905 98.9274 313.092Z" fill="#065A92"/>
<path d="M283.068 592.075C282.496 594.681 281.943 597.288 281.161 600.522C279.807 596.831 278.873 593.825 281.733 591.01L283.068 592.075Z" fill="#065A92"/>
<path d="M585.037 442.947L586.773 444.602L587.498 443.423L585.114 442.985L585.037 442.947Z" fill="#065A92"/>
<path d="M148.877 507.932C148.773 508.274 148.584 508.584 148.326 508.832C148.069 509.08 147.752 509.258 147.406 509.35C147.06 509.441 146.697 509.443 146.35 509.355C146.003 509.266 145.685 509.091 145.425 508.845L147.466 506.41C147.942 506.924 148.514 507.418 148.877 507.932Z" fill="#065A92"/>
<path d="M201.688 324.658V325.077C201.696 324.994 201.696 324.912 201.688 324.829V324.658Z" fill="#065A92"/>
<path d="M77.7759 334.268V334.914C77.8168 334.745 77.8486 334.574 77.8711 334.401L77.7759 334.268Z" fill="#065A92"/>
<path d="M193.354 447.683C192.591 447.798 191.313 448.235 191.179 448.007C190.531 446.904 191.656 446.885 192.324 446.656C192.686 446.979 193.03 447.322 193.354 447.683Z" fill="#065A92"/>
<path d="M98.9269 245.271L98.7747 245.462L98.9269 245.271Z" fill="#065A92"/>
<path d="M508.977 140.7L509.588 139.844C509.588 140.034 509.588 140.319 509.588 140.376C509.364 140.473 509.125 140.531 508.882 140.548L508.977 140.7Z" fill="#065A92"/>
<path d="M504.439 563.73L504.553 565.975L502.894 564.967L504.439 563.73Z" fill="#065A92"/>
<path d="M201.916 568.352L201.382 569.645C200.181 568.352 201.535 568.694 202.088 568.523L201.916 568.352Z" fill="#065A92"/>
<path d="M354.066 267.699C355.29 269.844 356.16 271.655 359.491 270.206C369.658 265.975 372.348 257.985 367.119 241.918C364.451 252.098 351.429 252.895 353.29 264.847L354.066 267.699Z" fill="#065A92"/>
<path d="M379.058 151.885L379.993 151.105C379.764 151.448 379.554 151.79 379.345 152.133L379.058 151.885Z" fill="#065A92"/>
<path d="M360.61 83.0936C353.215 77.5249 352.813 71.7898 359.555 65.3609C361.142 71.3554 369.033 76.3686 361.721 83.3816L360.61 83.0936Z" fill="#065A92"/>
<path d="M354.341 96.6444C346.946 91.0757 346.544 85.3406 353.287 78.9117C354.873 84.9061 362.764 89.9194 355.453 96.9324L354.341 96.6444Z" fill="#065A92"/>
<path d="M350.615 113.832C343.22 108.263 342.818 102.528 349.561 96.0992C351.147 102.094 359.038 107.107 351.727 114.12L350.615 113.832Z" fill="#065A92"/>
<path d="M386.904 41.8523C392.299 60.8485 387.638 70.793 373.081 73.9879C369.443 74.7911 367.784 74.3211 367.637 70.3222C367.378 63.1182 367.828 56.554 375.653 52.822C380.146 50.6531 383.315 46.5475 386.904 41.8523Z" fill="#065A92"/>
<path d="M385.312 76.3026C382.675 86.2625 377.934 89.4929 370.546 87.0697C368.698 86.4663 368.078 85.8155 369.077 83.9809C370.88 80.6775 372.831 77.8491 377.338 78.2469C379.934 78.4637 382.45 77.4598 385.312 76.3026Z" fill="#065A92"/>
<path d="M379.662 88.7284C377.025 98.6883 372.283 101.919 364.896 99.4955C363.048 98.8921 362.428 98.2413 363.427 96.4067C365.23 93.1032 367.18 90.2749 371.688 90.6727C374.283 90.8894 376.8 89.8856 379.662 88.7284Z" fill="#065A92"/>
<path d="M376.888 104.178C374.251 114.137 369.509 117.368 362.121 114.945C360.274 114.341 359.654 113.691 360.653 111.856C362.455 108.552 364.406 105.724 368.914 106.122C371.509 106.339 374.026 105.335 376.888 104.178Z" fill="#065A92"/>
<path d="M368.159 79.6504C368.159 79.6504 361.552 92.4011 358.635 101.035C355.231 111.108 359.334 119.121 352.834 127.462C350.082 130.994 344.251 135.072 344.251 135.072" stroke="#065A92" stroke-linecap="round"/>
<path d="M192.712 250.536C191.607 259.712 186.841 262.944 177.878 260.366C182.274 255.983 182.648 246.658 192.402 249.433L192.712 250.536Z" fill="#065A92"/>
<path d="M207.604 249.124C206.499 258.3 201.733 261.532 192.77 258.954C197.166 254.571 197.54 245.246 207.294 248.021L207.604 249.124Z" fill="#065A92"/>
<path d="M224.372 243.688C223.268 252.865 218.501 256.097 209.538 253.518C213.934 249.135 214.308 239.811 224.062 242.585L224.372 243.688Z" fill="#065A92"/>
<path d="M143.749 248.618C157.493 234.41 168.454 233.425 178.546 244.367C181.073 247.098 181.5 248.765 178.109 250.904C171.998 254.751 166.084 257.666 158.914 252.798C154.774 250.016 149.623 249.35 143.749 248.618Z" fill="#065A92"/>
<path d="M174.4 232.659C184.356 229.921 189.54 232.384 191.157 239.971C191.564 241.868 191.312 242.729 189.22 242.791C185.451 242.899 182.019 242.641 180.096 238.555C178.978 236.208 176.842 234.544 174.4 232.659Z" fill="#065A92"/>
<path d="M188.007 231.28C197.963 228.542 203.148 231.005 204.765 238.592C205.172 240.489 204.92 241.35 202.828 241.412C199.058 241.52 195.627 241.262 193.703 237.176C192.585 234.829 190.45 233.165 188.007 231.28Z" fill="#065A92"/>
<path d="M202.787 225.899C212.743 223.162 217.928 225.624 219.545 233.212C219.952 235.108 219.7 235.97 217.608 236.031C213.838 236.139 210.407 235.881 208.483 231.795C207.366 229.449 205.23 227.784 202.787 225.899Z" fill="#065A92"/>
<path d="M185.928 245.762C185.928 245.762 200.299 245.043 209.248 243.214C219.688 241.08 224.566 233.511 235.064 234.919C239.508 235.515 245.974 238.489 245.974 238.489" stroke="#065A92" stroke-linecap="round"/>
<path d="M556.152 266.119C556.855 275.335 561.476 278.771 570.542 276.585C566.342 272.015 566.377 262.683 556.51 265.031L556.152 266.119Z" fill="#065A92"/>
<path d="M541.336 264.061C542.038 273.276 546.659 276.713 555.726 274.527C551.526 269.956 551.56 260.624 541.694 262.972L541.336 264.061Z" fill="#065A92"/>
<path d="M524.821 257.901C525.523 267.116 530.144 270.552 539.211 268.366C535.011 263.796 535.045 254.464 525.178 256.812L524.821 257.901Z" fill="#065A92"/>
<path d="M605.152 266.332C592.042 251.54 581.134 250.079 570.574 260.572C567.931 263.191 567.431 264.838 570.725 267.122C576.662 271.231 582.443 274.4 589.819 269.849C594.077 267.249 599.252 266.808 605.152 266.332Z" fill="#065A92"/>
<path d="M575.229 249.057C565.401 245.889 560.114 248.123 558.167 255.634C557.678 257.51 557.892 258.382 559.979 258.535C563.74 258.807 567.18 258.698 569.28 254.699C570.499 252.404 572.706 250.834 575.229 249.057Z" fill="#065A92"/>
<path d="M561.694 247.086C551.867 243.918 546.58 246.153 544.633 253.663C544.143 255.54 544.358 256.412 546.445 256.564C550.206 256.836 553.646 256.727 555.746 252.729C556.965 250.433 559.171 248.863 561.694 247.086Z" fill="#065A92"/>
<path d="M547.163 241.067C537.336 237.899 532.049 240.133 530.102 247.644C529.612 249.52 529.826 250.392 531.914 250.545C535.675 250.817 539.115 250.707 541.215 246.709C542.434 244.414 544.64 242.844 547.163 241.067Z" fill="#065A92"/>
<path d="M563.138 261.643C563.138 261.643 548.812 260.299 539.952 258.083C529.615 255.498 525.072 247.724 514.523 248.674C510.057 249.076 503.466 251.766 503.466 251.766" stroke="#065A92" stroke-linecap="round"/>
<path d="M487.493 277.532C488.195 286.747 492.816 290.183 501.883 287.997C497.683 283.427 497.717 274.095 487.851 276.443L487.493 277.532Z" fill="#065A92"/>
<path d="M472.677 275.473C473.379 284.688 478 288.125 487.067 285.939C482.867 281.368 482.901 272.037 473.035 274.384L472.677 275.473Z" fill="#065A92"/>
<path d="M456.161 269.313C456.864 278.528 461.485 281.964 470.551 279.779C466.351 275.208 466.385 265.876 456.519 268.224L456.161 269.313Z" fill="#065A92"/>
<path d="M536.493 277.744C523.382 262.952 512.475 261.491 501.914 271.984C499.271 274.603 498.771 276.25 502.065 278.534C508.003 282.643 513.784 285.812 521.16 281.261C525.417 278.661 530.593 278.22 536.493 277.744Z" fill="#065A92"/>
<path d="M506.569 260.469C496.742 257.301 491.455 259.536 489.508 267.046C489.018 268.923 489.233 269.794 491.32 269.947C495.081 270.219 498.521 270.11 500.621 266.111C501.84 263.816 504.046 262.246 506.569 260.469Z" fill="#065A92"/>
<path d="M493.035 258.498C483.208 255.33 477.921 257.565 475.973 265.075C475.484 266.952 475.698 267.824 477.786 267.976C481.546 268.248 484.986 268.139 487.086 264.141C488.306 261.845 490.512 260.275 493.035 258.498Z" fill="#065A92"/>
<path d="M478.504 252.479C468.677 249.311 463.39 251.545 461.442 259.056C460.953 260.932 461.167 261.804 463.255 261.957C467.015 262.229 470.455 262.12 472.555 258.121C473.775 255.826 475.981 254.256 478.504 252.479Z" fill="#065A92"/>
<path d="M494.479 273.055C494.479 273.055 480.152 271.712 471.292 269.496C460.956 266.91 456.413 259.136 445.864 260.086C441.397 260.488 434.807 263.178 434.807 263.178" stroke="#065A92" stroke-linecap="round"/>
<path d="M152.244 207.766C149.385 215.104 144.766 216.764 137.918 212.744C142.476 210.056 144.763 202.441 152.223 206.79L152.244 207.766Z" fill="#065A92"/>
<path d="M164.832 209.75C161.973 217.088 157.354 218.748 150.506 214.728C155.063 212.04 157.351 204.425 164.81 208.775L164.832 209.75Z" fill="#065A92"/>
<path d="M179.821 208.807C176.962 216.145 172.343 217.805 165.495 213.785C170.052 211.097 172.34 203.482 179.799 207.831L179.821 208.807Z" fill="#065A92"/>
<path d="M112.253 195.848C126.609 187.028 135.862 188.529 141.866 199.689C143.371 202.476 143.37 203.942 140.118 204.99C134.259 206.874 128.761 208.03 123.878 202.499C121.053 199.329 116.944 197.692 112.253 195.848Z" fill="#065A92"/>
<path d="M140.929 189.15C149.725 188.993 153.48 192.12 153.204 198.722C153.137 200.372 152.746 201.03 151.007 200.639C147.874 199.932 145.097 198.994 144.378 195.217C143.953 193.045 142.544 191.221 140.929 189.15Z" fill="#065A92"/>
<path d="M152.45 190.884C161.246 190.728 165.001 193.854 164.725 200.456C164.658 202.107 164.267 202.765 162.528 202.374C159.395 201.667 156.618 200.729 155.899 196.951C155.474 194.779 154.065 192.955 152.45 190.884Z" fill="#065A92"/>
<path d="M165.787 189.57C174.583 189.413 178.338 192.54 178.062 199.142C177.995 200.792 177.604 201.45 175.865 201.059C172.732 200.352 169.955 199.414 169.236 195.637C168.811 193.465 167.402 191.641 165.787 189.57Z" fill="#065A92"/>
<path d="M147.661 202.396C147.661 202.396 159.671 204.838 167.443 205.219C176.509 205.664 182.141 200.449 190.504 203.827C194.044 205.257 198.749 209.077 198.749 209.077" stroke="#065A92" stroke-linecap="round"/>
<path d="M96.3914 221.093C91.3496 228.023 86.0309 228.495 79.9426 222.378C85.4815 220.807 89.9988 213.429 96.6393 220.061L96.3914 221.093Z" fill="#065A92"/>
<path d="M109.083 226.652C104.041 233.582 98.7225 234.054 92.6342 227.937C98.1731 226.366 102.69 218.988 109.331 225.62L109.083 226.652Z" fill="#065A92"/>
<path d="M125.112 229.791C120.07 236.72 114.751 237.193 108.663 231.075C114.202 229.505 118.719 222.126 125.36 228.758L125.112 229.791Z" fill="#065A92"/>
<path d="M57.6316 197.521C75.1777 192.203 84.4941 196.335 87.716 209.73C88.5256 213.077 88.1182 214.618 84.4073 214.824C77.7219 215.189 71.6182 214.888 68.0156 207.724C65.9227 203.611 62.0546 200.755 57.6316 197.521Z" fill="#065A92"/>
<path d="M89.6518 198.39C98.9471 200.652 102.03 204.976 99.9092 211.845C99.3812 213.562 98.7877 214.146 97.0666 213.255C93.9673 211.648 91.3066 209.895 91.5971 205.723C91.7529 203.322 90.7766 201.014 89.6518 198.39Z" fill="#065A92"/>
<path d="M101.289 203.39C110.584 205.652 113.667 209.976 111.546 216.845C111.018 218.562 110.425 219.146 108.704 218.255C105.604 216.648 102.944 214.895 103.234 210.723C103.39 208.322 102.414 206.014 101.289 203.39Z" fill="#065A92"/>
<path d="M115.683 205.687C124.978 207.949 128.061 212.273 125.94 219.142C125.412 220.859 124.818 221.443 123.097 220.552C119.998 218.945 117.337 217.192 117.628 213.02C117.784 210.619 116.807 208.311 115.683 205.687Z" fill="#065A92"/>
<path d="M93.0599 214.18C93.0599 214.18 105.016 220.061 113.085 222.605C122.499 225.574 129.868 221.642 137.728 227.502C141.056 229.983 144.945 235.298 144.945 235.298" stroke="#065A92" stroke-linecap="round"/>
<path d="M617.183 247.096C617.886 256.312 622.507 259.748 631.573 257.562C627.373 252.991 627.407 243.66 617.541 246.007L617.183 247.096Z" fill="#065A92"/>
<path d="M602.367 245.037C603.069 254.253 607.69 257.689 616.757 255.503C612.557 250.933 612.591 241.601 602.725 243.949L602.367 245.037Z" fill="#065A92"/>
<path d="M585.851 238.877C586.554 248.093 591.175 251.529 600.242 249.343C596.042 244.773 596.076 235.441 586.209 237.788L585.851 238.877Z" fill="#065A92"/>
<path d="M666.183 247.309C653.073 232.516 642.165 231.056 631.604 241.548C628.961 244.168 628.461 245.814 631.755 248.098C637.693 252.208 643.474 255.376 650.85 250.825C655.107 248.226 660.283 247.784 666.183 247.309Z" fill="#065A92"/>
<path d="M636.259 230.033C626.432 226.866 621.145 229.1 619.198 236.61C618.709 238.487 618.923 239.359 621.01 239.512C624.771 239.783 628.211 239.674 630.311 235.676C631.53 233.38 633.737 231.811 636.259 230.033Z" fill="#065A92"/>
<path d="M622.725 228.063C612.898 224.895 607.611 227.129 605.663 234.64C605.174 236.516 605.388 237.388 607.476 237.541C611.237 237.813 614.677 237.704 616.776 233.705C617.996 231.41 620.202 229.84 622.725 228.063Z" fill="#065A92"/>
<path d="M608.194 222.043C598.367 218.875 593.08 221.11 591.132 228.62C590.643 230.497 590.857 231.369 592.945 231.521C596.706 231.793 600.146 231.684 602.245 227.686C603.465 225.39 605.671 223.82 608.194 222.043Z" fill="#065A92"/>
<path d="M624.169 242.619C624.169 242.619 609.843 241.276 600.983 239.06C590.646 236.475 586.103 228.701 575.554 229.65C571.088 230.052 564.497 232.743 564.497 232.743" stroke="#065A92" stroke-linecap="round"/>
<path d="M239.462 89.1764C246.365 83.0108 246.285 77.2623 239.027 71.4178C237.949 77.5235 230.505 83.1769 238.378 89.556L239.462 89.1764Z" fill="#065A92"/>
<path d="M246.845 102.155C253.747 95.9893 253.667 90.2408 246.41 84.3963C245.331 90.502 237.888 96.1554 245.761 102.535L246.845 102.155Z" fill="#065A92"/>
<path d="M251.997 118.975C258.899 112.81 258.82 107.061 251.562 101.217C250.483 107.322 243.04 112.976 250.913 119.355L251.997 118.975Z" fill="#065A92"/>
<path d="M209.805 50.2699C206.02 69.6493 211.497 79.1706 226.272 81.141C229.964 81.6382 231.578 81.0315 231.39 77.0344C231.044 69.834 230.046 63.3302 221.936 60.2635C217.277 58.4767 213.775 54.6495 209.805 50.2699Z" fill="#065A92"/>
<path d="M214.277 84.467C217.739 94.1723 222.735 96.9962 229.894 93.9656C231.685 93.2104 232.248 92.5102 231.098 90.7653C229.025 87.6237 226.845 84.9678 222.386 85.7399C219.818 86.1722 217.226 85.3816 214.277 84.467Z" fill="#065A92"/>
<path d="M220.949 96.3791C224.411 106.084 229.406 108.908 236.566 105.878C238.356 105.123 238.919 104.422 237.77 102.677C235.697 99.5358 233.516 96.8799 229.058 97.652C226.49 98.0843 223.898 97.2937 220.949 96.3791Z" fill="#065A92"/>
<path d="M225.008 111.539C228.47 121.245 233.465 124.068 240.624 121.038C242.415 120.283 242.978 119.582 241.829 117.838C239.756 114.696 237.575 112.04 233.116 112.812C230.548 113.244 227.957 112.454 225.008 111.539Z" fill="#065A92"/>
<path d="M231.651 86.373C231.651 86.373 239.303 98.5284 242.934 106.889C247.169 116.643 243.751 124.97 250.928 132.74C253.966 136.03 260.118 139.608 260.118 139.608" stroke="#065A92" stroke-linecap="round"/>
<path d="M140.148 152.222C142.779 145.054 140.482 140.895 132.916 139.446C134.508 144.315 131.283 151.319 139.506 152.919L140.148 152.222Z" fill="#065A92"/>
<path d="M150.583 158.824C153.213 151.656 150.917 147.496 143.351 146.048C144.942 150.916 141.718 157.921 149.94 159.52L150.583 158.824Z" fill="#065A92"/>
<path d="M160.887 169.087C163.518 161.919 161.222 157.76 153.656 156.312C155.247 161.18 152.023 168.184 160.245 169.784L160.887 169.087Z" fill="#065A92"/>
<path d="M103.382 135.355C108.169 150.947 115.869 155.765 127.405 151.478C130.29 150.41 131.23 149.342 129.537 146.502C126.481 141.387 123.221 137.034 116.115 137.94C112.024 138.442 107.981 137.009 103.382 135.355Z" fill="#065A92"/>
<path d="M119.957 158.55C126.26 164.283 131.001 164.406 135.039 159.424C136.05 158.18 136.188 157.451 134.671 156.625C131.936 155.138 129.313 154.047 126.363 156.337C124.66 157.646 122.463 158.074 119.957 158.55Z" fill="#065A92"/>
<path d="M129.458 164.644C135.76 170.377 140.501 170.5 144.539 165.518C145.55 164.273 145.688 163.545 144.171 162.718C141.437 161.231 138.813 160.14 135.864 162.43C134.161 163.74 131.964 164.168 129.458 164.644Z" fill="#065A92"/>
<path d="M138.318 174.122C144.621 179.855 149.362 179.978 153.4 174.996C154.411 173.752 154.549 173.023 153.032 172.197C150.297 170.71 147.674 169.619 144.725 171.909C143.021 173.219 140.824 173.647 138.318 174.122Z" fill="#065A92"/>
<path d="M133.362 153.207C133.362 153.207 143.673 159.103 149.575 163.79C156.46 169.259 157.211 176.653 165.467 179.536C168.963 180.757 174.84 180.982 174.84 180.982" stroke="#065A92" stroke-linecap="round"/>
<path d="M297.124 153.869C304.867 150.979 306.671 146.175 302.54 138.968C299.657 143.694 291.631 145.983 296.1 153.834L297.124 153.869Z" fill="#065A92"/>
<path d="M299.037 167.045C306.78 164.155 308.585 159.351 304.454 152.144C301.571 156.869 293.544 159.159 298.013 167.01L299.037 167.045Z" fill="#065A92"/>
<path d="M297.848 182.693C305.591 179.803 307.395 174.999 303.264 167.792C300.381 172.518 292.355 174.807 296.824 182.658L297.848 182.693Z" fill="#065A92"/>
<path d="M285.132 111.93C275.681 126.812 277.136 136.499 288.775 142.919C291.682 144.528 293.221 144.546 294.365 141.163C296.42 135.066 297.706 129.337 291.963 124.163C288.672 121.169 287.007 116.855 285.132 111.93Z" fill="#065A92"/>
<path d="M277.723 141.804C277.443 150.991 280.676 154.955 287.613 154.754C289.347 154.706 290.043 154.306 289.655 152.484C288.954 149.201 288.006 146.288 284.049 145.486C281.773 145.015 279.876 143.518 277.723 141.804Z" fill="#065A92"/>
<path d="M279.393 153.86C279.113 163.048 282.346 167.012 289.283 166.811C291.017 166.762 291.713 166.363 291.325 164.54C290.624 161.258 289.676 158.345 285.719 157.543C283.444 157.071 281.546 155.575 279.393 153.86Z" fill="#065A92"/>
<path d="M277.833 167.774C277.553 176.962 280.786 180.926 287.723 180.725C289.457 180.676 290.153 180.277 289.765 178.454C289.064 175.172 288.116 172.259 284.159 171.457C281.884 170.985 279.987 169.489 277.833 167.774Z" fill="#065A92"/>
<path d="M291.544 149.012C291.544 149.012 293.95 161.592 294.247 169.716C294.594 179.195 289.044 185.01 292.481 193.791C293.936 197.509 297.885 202.474 297.885 202.474" stroke="#065A92" stroke-linecap="round"/>
<path d="M624.812 311.776C625.515 320.991 630.135 324.427 639.202 322.241C635.002 317.671 635.036 308.339 625.17 310.687L624.812 311.776Z" fill="#065A92"/>
<path d="M609.996 309.717C610.698 318.933 615.319 322.369 624.386 320.183C620.186 315.613 620.22 306.281 610.354 308.628L609.996 309.717Z" fill="#065A92"/>
<path d="M593.48 303.557C594.183 312.772 598.804 316.209 607.87 314.023C603.67 309.452 603.705 300.121 593.838 302.468L593.48 303.557Z" fill="#065A92"/>
<path d="M673.812 311.988C660.701 297.196 649.794 295.735 639.233 306.228C636.59 308.847 636.09 310.494 639.384 312.778C645.322 316.887 651.103 320.056 658.479 315.505C662.736 312.905 667.912 312.464 673.812 311.988Z" fill="#065A92"/>
<path d="M643.888 294.713C634.061 291.545 628.774 293.78 626.827 301.29C626.338 303.167 626.552 304.039 628.639 304.191C632.4 304.463 635.84 304.354 637.94 300.356C639.159 298.06 641.366 296.49 643.888 294.713Z" fill="#065A92"/>
<path d="M630.354 292.742C620.527 289.575 615.24 291.809 613.292 299.319C612.803 301.196 613.017 302.068 615.105 302.221C618.866 302.492 622.305 302.383 624.405 298.385C625.625 296.089 627.831 294.52 630.354 292.742Z" fill="#065A92"/>
<path d="M615.823 286.723C605.996 283.555 600.709 285.79 598.761 293.3C598.272 295.176 598.486 296.048 600.574 296.201C604.335 296.473 607.774 296.364 609.874 292.365C611.094 290.07 613.3 288.5 615.823 286.723Z" fill="#065A92"/>
<path d="M631.798 307.299C631.798 307.299 617.471 305.956 608.612 303.74C598.275 301.154 593.732 293.38 583.183 294.33C578.716 294.732 572.126 297.422 572.126 297.422" stroke="#065A92" stroke-linecap="round"/>
<path d="M455.205 145.844C455.258 140.52 457.783 138.369 463.078 139.282C460.838 142.069 461.213 147.432 455.452 146.456L455.205 145.844Z" fill="#065A92"/>
<path d="M446.765 147.59C446.817 142.266 449.343 140.115 454.638 141.028C452.398 143.815 452.773 149.178 447.012 148.202L446.765 147.59Z" fill="#065A92"/>
<path d="M437.507 151.756C437.56 146.432 440.085 144.281 445.38 145.194C443.14 147.981 443.515 153.344 437.754 152.368L437.507 151.756Z" fill="#065A92"/>
<path d="M483.363 143.867C476.39 152.867 470.175 154.12 463.705 148.489C462.086 147.083 461.736 146.156 463.542 144.718C466.799 142.131 470.001 140.09 474.415 142.427C476.961 143.76 479.953 143.817 483.363 143.867Z" fill="#065A92"/>
<path d="M466.82 154.933C461.292 157.126 458.168 156.042 456.762 151.799C456.409 150.738 456.499 150.229 457.693 150.062C459.845 149.763 461.826 149.696 463.186 151.915C463.974 153.188 465.302 154.007 466.82 154.933Z" fill="#065A92"/>
<path d="M459.114 156.577C453.586 158.771 450.462 157.687 449.056 153.443C448.704 152.383 448.793 151.874 449.988 151.707C452.139 151.408 454.121 151.34 455.48 153.559C456.268 154.832 457.597 155.651 459.114 156.577Z" fill="#065A92"/>
<path d="M450.99 160.587C445.461 162.78 442.337 161.696 440.932 157.453C440.579 156.393 440.669 155.883 441.863 155.716C444.014 155.418 445.996 155.35 447.355 157.569C448.144 158.842 449.472 159.661 450.99 160.587Z" fill="#065A92"/>
<path d="M459.39 148.154C459.39 148.154 451.205 149.469 446.197 151.079C440.353 152.957 438.038 157.598 431.937 157.452C429.355 157.39 425.464 156.093 425.464 156.093" stroke="#065A92" stroke-linecap="round"/>
<path d="M192.395 148.824C186.442 152.738 182.17 151.552 179.233 145.02C183.999 145.416 189.675 141 192.89 148.094L192.395 148.824Z" fill="#065A92"/>
<path d="M200.631 156.849C194.678 160.763 190.406 159.577 187.469 153.045C192.235 153.442 197.911 149.026 201.126 156.119L200.631 156.849Z" fill="#065A92"/>
<path d="M212.165 163.969C206.213 167.883 201.941 166.697 199.004 160.164C203.77 160.561 209.446 156.145 212.661 163.238L212.165 163.969Z" fill="#065A92"/>
<path d="M169.187 119.188C184.385 120.178 190.414 126.11 188.987 137.461C188.634 140.299 187.865 141.378 184.921 140.454C179.617 138.786 174.962 136.77 174.264 130.15C173.844 126.342 171.676 122.993 169.187 119.188Z" fill="#065A92"/>
<path d="M193.82 129.212C200.381 133.684 201.508 137.945 197.844 142.664C196.93 143.845 196.297 144.125 195.221 142.93C193.284 140.776 191.73 138.637 193.18 135.479C194.006 133.658 193.924 131.58 193.82 129.212Z" fill="#065A92"/>
<path d="M201.397 136.499C207.958 140.971 209.085 145.232 205.421 149.951C204.506 151.132 203.874 151.412 202.797 150.217C200.86 148.063 199.307 145.924 200.756 142.766C201.582 140.945 201.501 138.867 201.397 136.499Z" fill="#065A92"/>
<path d="M211.913 142.479C218.474 146.951 219.601 151.212 215.937 155.931C215.023 157.112 214.39 157.393 213.314 156.198C211.376 154.043 209.823 151.904 211.273 148.747C212.099 146.926 212.017 144.847 211.913 142.479Z" fill="#065A92"/>
<path d="M191.836 142.477C191.836 142.477 199.403 150.539 204.928 154.872C211.373 159.928 218.255 159.023 222.644 165.873C224.503 168.773 225.966 174.04 225.966 174.04" stroke="#065A92" stroke-linecap="round"/>
<path d="M375.923 214.814C372.31 212.85 371.821 210 374.496 205.98C375.53 208.825 379.336 210.452 376.437 214.832L375.923 214.814Z" fill="#065A92"/>
<path d="M373.845 222.377C370.231 220.413 369.742 217.563 372.417 213.543C373.451 216.388 377.257 218.014 374.359 222.394L373.845 222.377Z" fill="#065A92"/>
<path d="M373.1 231.486C369.487 229.522 368.997 226.672 371.673 222.652C372.707 225.497 376.513 227.124 373.614 231.504L373.1 231.486Z" fill="#065A92"/>
<path d="M385.485 190.974C388.926 199.948 387.373 205.505 381.022 208.788C379.435 209.611 378.666 209.564 378.385 207.561C377.881 203.953 377.729 200.586 381.034 197.804C382.931 196.194 384.13 193.757 385.485 190.974Z" fill="#065A92"/>
<path d="M386.628 208.552C385.983 213.884 384.032 216.059 380.59 215.683C379.73 215.59 379.417 215.333 379.766 214.291C380.396 212.416 381.118 210.764 383.159 210.448C384.334 210.26 385.408 209.464 386.628 208.552Z" fill="#065A92"/>
<path d="M384.764 215.474C384.119 220.806 382.168 222.981 378.727 222.605C377.867 222.512 377.554 222.254 377.903 221.213C378.533 219.338 379.254 217.686 381.296 217.37C382.471 217.182 383.544 216.386 384.764 215.474Z" fill="#065A92"/>
<path d="M384.354 223.597C383.709 228.929 381.758 231.104 378.316 230.728C377.456 230.635 377.143 230.377 377.492 229.336C378.122 227.461 378.844 225.809 380.885 225.493C382.06 225.305 383.134 224.509 384.354 223.597Z" fill="#065A92"/>
<path d="M379.122 212.211C379.122 212.211 376.847 219.408 376.005 224.103C375.022 229.58 377.293 233.156 374.829 238.114C373.786 240.213 371.393 242.941 371.393 242.941" stroke="#065A92" stroke-linecap="round"/>
<path d="M610.419 178.086C610.214 173.213 612.826 170.974 618.567 171.234C616.293 174.024 616.96 178.885 610.715 178.619L610.419 178.086Z" fill="#065A92"/>
<path d="M601.425 180.601C601.22 175.729 603.832 173.489 609.573 173.749C607.299 176.539 607.966 181.401 601.721 181.134L601.425 180.601Z" fill="#065A92"/>
<path d="M591.669 185.414C591.465 180.542 594.076 178.302 599.817 178.562C597.544 181.352 598.21 186.213 591.965 185.947L591.669 185.414Z" fill="#065A92"/>
<path d="M640.612 173.224C633.553 182.207 626.929 184.027 619.692 179.582C617.881 178.473 617.459 177.663 619.332 176.152C622.708 173.434 626.053 171.221 630.916 172.878C633.72 173.82 636.942 173.548 640.612 173.224Z" fill="#065A92"/>
<path d="M623.359 185.136C617.519 187.741 614.105 187.089 612.385 183.363C611.953 182.432 612.025 181.956 613.301 181.674C615.601 181.168 617.73 180.891 619.301 182.771C620.211 183.85 621.68 184.454 623.359 185.136Z" fill="#065A92"/>
<path d="M615.151 187.472C609.312 190.077 605.897 189.425 604.177 185.699C603.746 184.768 603.817 184.292 605.094 184.01C607.394 183.504 609.522 183.227 611.093 185.107C612.004 186.186 613.473 186.79 615.151 187.472Z" fill="#065A92"/>
<path d="M606.607 192.021C600.768 194.626 597.353 193.974 595.633 190.247C595.202 189.316 595.274 188.841 596.55 188.559C598.85 188.052 600.978 187.776 602.549 189.656C603.46 190.735 604.929 191.339 606.607 192.021Z" fill="#065A92"/>
<path d="M615.035 179.744C615.035 179.744 606.295 181.834 600.986 183.849C594.792 186.2 592.528 190.694 585.959 191.222C583.178 191.446 578.928 190.683 578.928 190.683" stroke="#065A92" stroke-linecap="round"/>
<path d="M115.663 264.337C115.93 257.968 112.516 255.04 105.01 255.379C107.982 259.027 107.111 265.383 115.276 265.034L115.663 264.337Z" fill="#065A92"/>
<path d="M127.42 267.627C127.687 261.257 124.274 258.329 116.768 258.668C119.74 262.316 118.869 268.672 127.033 268.323L127.42 267.627Z" fill="#065A92"/>
<path d="M140.174 273.916C140.441 267.546 137.027 264.618 129.521 264.957C132.493 268.605 131.622 274.961 139.787 274.612L140.174 273.916Z" fill="#065A92"/>
<path d="M76.1887 257.981C85.4181 269.726 94.0775 272.105 103.538 266.293C105.906 264.843 106.458 263.784 104.009 261.81C99.5949 258.256 95.222 255.363 88.8653 257.529C85.1988 258.761 80.9872 258.405 76.1887 257.981Z" fill="#065A92"/>
<path d="M98.7452 273.553C106.379 276.958 110.843 276.106 113.092 271.235C113.656 270.018 113.562 269.396 111.893 269.027C108.887 268.365 106.104 268.003 104.05 270.462C102.86 271.872 100.939 272.662 98.7452 273.553Z" fill="#065A92"/>
<path d="M109.476 276.608C117.11 280.013 121.574 279.161 123.823 274.289C124.387 273.072 124.293 272.451 122.624 272.082C119.617 271.42 116.835 271.058 114.781 273.517C113.591 274.926 111.67 275.716 109.476 276.608Z" fill="#065A92"/>
<path d="M120.645 282.555C128.279 285.96 132.743 285.108 134.992 280.237C135.556 279.02 135.462 278.398 133.793 278.029C130.787 277.367 128.004 277.005 125.95 279.464C124.76 280.874 122.839 281.664 120.645 282.555Z" fill="#065A92"/>
<path d="M109.628 266.506C109.628 266.506 121.054 269.239 127.995 271.873C136.093 274.946 139.051 280.82 147.64 281.511C151.276 281.804 156.831 280.806 156.831 280.806" stroke="#065A92" stroke-linecap="round"/>
<path d="M50.0319 271.274C47.3347 275.342 43.9029 275.63 39.4038 272.063C42.8851 271.132 45.2014 266.803 50.1052 270.67L50.0319 271.274Z" fill="#065A92"/>
<path d="M58.7953 274.497C56.0981 278.564 52.6664 278.853 48.1673 275.286C51.6485 274.354 53.9649 270.025 58.8687 273.892L58.7953 274.497Z" fill="#065A92"/>
<path d="M69.5276 276.298C66.8304 280.365 63.3987 280.654 58.8996 277.087C62.3808 276.155 64.6972 271.826 69.601 275.693L69.5276 276.298Z" fill="#065A92"/>
<path d="M22.7088 257.564C33.7073 254.412 40.1437 256.809 43.3955 264.642C44.211 266.599 44.0772 267.502 41.6723 267.631C37.3392 267.86 33.3288 267.698 30.3626 263.513C28.6436 261.11 25.8735 259.447 22.7088 257.564Z" fill="#065A92"/>
<path d="M43.687 258C49.9491 259.302 52.3325 261.827 51.5369 265.851C51.3395 266.858 51.0021 267.201 49.8021 266.684C47.641 265.75 45.7537 264.73 45.5857 262.287C45.4815 260.881 44.6463 259.533 43.687 258Z" fill="#065A92"/>
<path d="M51.7117 260.902C57.9739 262.205 60.3573 264.729 59.5617 268.754C59.3643 269.76 59.0269 270.104 57.8269 269.586C55.6658 268.652 53.7785 267.632 53.6104 265.19C53.5062 263.784 52.671 262.435 51.7117 260.902Z" fill="#065A92"/>
<path d="M61.3068 262.212C67.569 263.515 69.9524 266.039 69.1568 270.064C68.9594 271.071 68.622 271.414 67.422 270.896C65.2608 269.962 63.3736 268.943 63.2055 266.5C63.1013 265.094 62.2661 263.746 61.3068 262.212Z" fill="#065A92"/>
<path d="M47.2644 267.234C47.2644 267.234 55.5742 270.65 61.0598 272.121C67.4599 273.837 71.9338 271.519 77.5673 274.931C79.9524 276.376 82.9471 279.478 82.9471 279.478" stroke="#065A92" stroke-linecap="round"/>
<path d="M648.561 265.367C649.749 260.636 652.89 259.226 658.322 261.098C655.349 263.131 654.607 267.982 648.694 265.961L648.561 265.367Z" fill="#065A92"/>
<path d="M639.222 265.232C640.41 260.501 643.551 259.092 648.983 260.963C646.01 262.997 645.268 267.847 639.354 265.827L639.222 265.232Z" fill="#065A92"/>
<path d="M628.499 267.089C629.687 262.359 632.828 260.949 638.26 262.821C635.287 264.854 634.545 269.705 628.631 267.684L628.499 267.089Z" fill="#065A92"/>
<path d="M678.899 269.234C669.577 275.854 662.707 275.727 657.03 269.419C655.609 267.843 655.434 266.947 657.659 266.028C661.669 264.376 665.506 263.199 669.698 266.162C672.12 267.858 675.287 268.508 678.899 269.234Z" fill="#065A92"/>
<path d="M658.969 275.781C652.629 276.629 649.54 275.039 648.949 270.979C648.8 269.964 649.003 269.529 650.308 269.619C652.657 269.783 654.777 270.119 655.749 272.367C656.316 273.659 657.553 274.653 658.969 275.781Z" fill="#065A92"/>
<path d="M650.434 275.703C644.093 276.551 641.004 274.961 640.413 270.901C640.264 269.886 640.468 269.451 641.772 269.541C644.121 269.705 646.241 270.041 647.214 272.289C647.781 273.58 649.018 274.575 650.434 275.703Z" fill="#065A92"/>
<path d="M640.948 277.652C634.607 278.5 631.518 276.91 630.927 272.85C630.778 271.836 630.982 271.4 632.286 271.49C634.636 271.654 636.755 271.99 637.728 274.238C638.295 275.53 639.532 276.524 640.948 277.652Z" fill="#065A92"/>
<path d="M652.517 268.26C652.517 268.26 643.542 267.794 637.878 268.226C631.27 268.73 627.823 272.399 621.373 271.049C618.642 270.478 614.783 268.545 614.783 268.545" stroke="#065A92" stroke-linecap="round"/>
<path d="M487.259 108.864C486 101.865 488.777 98.4162 495.953 98.2998C493.709 102.512 495.539 109.457 487.736 109.606L487.259 108.864Z" fill="#065A92"/>
<path d="M476.619 113.249C475.36 106.25 478.138 102.801 485.314 102.685C483.069 106.897 484.9 113.841 477.096 113.991L476.619 113.249Z" fill="#065A92"/>
<path d="M465.51 121.015C464.251 114.015 467.028 110.567 474.204 110.45C471.96 114.663 473.79 121.607 465.987 121.757L465.51 121.015Z" fill="#065A92"/>
<path d="M523.714 99.2796C516.81 112.82 508.968 116.008 499.072 110.224C496.597 108.781 495.906 107.651 497.918 105.316C501.546 101.113 505.239 97.6398 511.613 99.6106C515.287 100.728 519.228 100.061 523.714 99.2796Z" fill="#065A92"/>
<path d="M504.768 117.908C498.061 122.158 493.69 121.511 490.787 116.292C490.06 114.988 490.051 114.297 491.576 113.782C494.325 112.856 496.908 112.275 499.246 114.849C500.598 116.325 502.545 117.069 504.768 117.908Z" fill="#065A92"/>
<path d="M495.067 121.98C488.36 126.231 483.989 125.583 481.086 120.364C480.359 119.06 480.35 118.37 481.875 117.854C484.624 116.928 487.207 116.347 489.545 118.922C490.897 120.397 492.844 121.142 495.067 121.98Z" fill="#065A92"/>
<path d="M485.406 129.257C478.699 133.508 474.328 132.861 471.425 127.641C470.698 126.338 470.689 125.647 472.214 125.132C474.963 124.206 477.546 123.625 479.884 126.199C481.236 127.674 483.183 128.419 485.406 129.257Z" fill="#065A92"/>
<path d="M493.327 110.857C493.327 110.857 482.915 114.615 476.744 117.97C469.545 121.885 467.664 128.55 459.623 129.872C456.219 130.432 450.789 129.696 450.789 129.696" stroke="#065A92" stroke-linecap="round"/>
<path d="M482.82 177.035C488.667 181.105 492.969 180.031 496.078 173.579C491.303 173.85 485.746 169.286 482.344 176.292L482.82 177.035Z" fill="#065A92"/>
<path d="M474.375 184.838C480.222 188.907 484.524 187.834 487.633 181.382C482.858 181.652 477.301 177.089 473.899 184.095L474.375 184.838Z" fill="#065A92"/>
<path d="M462.656 191.654C468.502 195.724 472.805 194.651 475.913 188.198C471.139 188.469 465.581 183.905 462.179 190.911L462.656 191.654Z" fill="#065A92"/>
<path d="M506.804 148.021C491.585 148.61 485.402 154.381 486.527 165.765C486.805 168.612 487.545 169.711 490.513 168.865C495.859 167.337 500.566 165.445 501.439 158.845C501.959 155.049 504.216 151.759 506.804 148.021Z" fill="#065A92"/>
<path d="M481.915 157.391C475.238 161.688 473.998 165.918 477.536 170.732C478.419 171.937 479.044 172.234 480.151 171.068C482.145 168.965 483.754 166.868 482.389 163.673C481.611 161.831 481.748 159.755 481.915 157.391Z" fill="#065A92"/>
<path d="M474.148 164.473C467.471 168.77 466.231 173 469.769 177.814C470.652 179.019 471.277 179.316 472.384 178.15C474.378 176.047 475.988 173.95 474.622 170.755C473.844 168.913 473.981 166.837 474.148 164.473Z" fill="#065A92"/>
<path d="M463.477 170.18C456.8 174.478 455.561 178.707 459.098 183.522C459.981 184.726 460.606 185.023 461.714 183.857C463.707 181.754 465.317 179.657 463.951 176.462C463.174 174.62 463.31 172.544 463.477 170.18Z" fill="#065A92"/>
<path d="M483.547 170.705C483.547 170.705 475.769 178.565 470.131 182.751C463.554 187.636 456.699 186.55 452.13 193.282C450.195 196.132 448.593 201.358 448.593 201.358" stroke="#065A92" stroke-linecap="round"/>
<path d="M467.696 77.6114C474.424 79.9632 478.279 77.7759 479.534 70.7273C475.008 72.2685 468.425 69.3629 467.037 77.0236L467.696 77.6114Z" fill="#065A92"/>
<path d="M461.665 87.3907C468.393 89.7425 472.248 87.5552 473.503 80.5066C468.977 82.0478 462.394 79.1422 461.006 86.8029L461.665 87.3907Z" fill="#065A92"/>
<path d="M452.214 97.0997C458.942 99.4515 462.797 97.2642 464.052 90.2156C459.526 91.7568 452.943 88.8512 451.555 96.5119L452.214 97.0997Z" fill="#065A92"/>
<path d="M482.977 43.2336C468.477 47.8822 464.076 55.0987 468.229 65.7626C469.264 68.4295 470.273 69.2894 472.904 67.679C477.641 64.7739 481.665 61.6887 480.727 55.0982C480.205 51.3027 481.491 47.5279 482.977 43.2336Z" fill="#065A92"/>
<path d="M461.529 58.9321C456.256 64.8621 456.203 69.2687 460.908 72.9568C462.083 73.8801 462.765 73.9989 463.517 72.5786C464.87 70.0187 465.856 67.5669 463.679 64.8561C462.434 63.2901 462.006 61.2542 461.529 58.9321Z" fill="#065A92"/>
<path d="M455.958 67.8384C450.685 73.7683 450.631 78.175 455.336 81.863C456.511 82.7864 457.193 82.9052 457.946 81.4848C459.299 78.925 460.284 76.4732 458.108 73.7624C456.862 72.1964 456.435 70.1605 455.958 67.8384Z" fill="#065A92"/>
<path d="M447.218 76.1958C441.945 82.1257 441.891 86.5324 446.596 90.2204C447.771 91.1438 448.453 91.2626 449.206 89.8422C450.559 87.2824 451.544 84.8306 449.367 82.1198C448.122 80.5538 447.694 78.5179 447.218 76.1958Z" fill="#065A92"/>
<path d="M466.69 71.3203C466.69 71.3203 461.317 80.9768 457.016 86.5207C451.997 92.9888 445.101 93.7819 442.515 101.491C441.42 104.755 441.286 110.218 441.286 110.218" stroke="#065A92" stroke-linecap="round"/>
<path d="M580.312 150.692C576.19 142.404 578.185 137.291 586.644 134.972C585.568 140.87 590.346 148.917 581.156 151.467L580.312 150.692Z" fill="#065A92"/>
<path d="M569.355 159.35C565.233 151.062 567.228 145.949 575.688 143.631C574.611 149.528 579.389 157.575 570.199 160.125L569.355 159.35Z" fill="#065A92"/>
<path d="M559.106 172.333C554.985 164.045 556.98 158.932 565.439 156.613C564.363 162.511 569.14 170.558 559.951 173.108L559.106 172.333Z" fill="#065A92"/>
<path d="M619.906 127.775C616.812 146.639 608.718 152.963 594.819 148.797C591.344 147.761 590.101 146.57 591.607 143.068C594.327 136.762 597.398 131.342 605.691 131.852C610.464 132.122 614.883 130.102 619.906 127.775Z" fill="#065A92"/>
<path d="M604.455 156.585C598.105 163.882 592.683 164.405 587.282 158.82C585.931 157.425 585.66 156.573 587.274 155.472C590.183 153.492 593.026 151.99 596.763 154.47C598.919 155.888 601.506 156.22 604.455 156.585Z" fill="#065A92"/>
<path d="M594.491 164.569C588.141 171.867 582.719 172.389 577.318 166.804C575.967 165.41 575.696 164.557 577.31 163.456C580.219 161.476 583.062 159.974 586.799 162.455C588.955 163.872 591.542 164.205 594.491 164.569Z" fill="#065A92"/>
<path d="M585.78 176.511C579.43 183.808 574.009 184.331 568.608 178.745C567.256 177.351 566.985 176.498 568.599 175.398C571.508 173.418 574.351 171.916 578.088 174.396C580.245 175.814 582.832 176.146 585.78 176.511Z" fill="#065A92"/>
<path d="M588.249 151.32C588.249 151.32 577.324 159.129 571.272 165.155C564.213 172.185 564.489 181.01 555.457 185.084C551.634 186.809 544.924 187.543 544.924 187.543" stroke="#065A92" stroke-linecap="round"/>
<path d="M426.938 104.78C434.012 105.66 437.316 102.709 437.049 95.5549C432.952 98.0157 425.902 96.564 426.169 104.344L426.938 104.78Z" fill="#065A92"/>
<path d="M423.116 115.61C430.191 116.49 433.495 113.539 433.228 106.385C429.131 108.846 422.081 107.394 422.348 115.174L423.116 115.61Z" fill="#065A92"/>
<path d="M415.936 127.092C423.011 127.972 426.315 125.021 426.047 117.867C421.95 120.328 414.9 118.876 415.167 126.657L415.936 127.092Z" fill="#065A92"/>
<path d="M434.586 67.9548C421.399 75.556 418.628 83.5374 424.947 93.0845C426.524 95.473 427.692 96.1007 429.922 93.9719C433.936 90.1335 437.216 86.2694 434.902 80.0257C433.587 76.4261 434.044 72.4654 434.586 67.9548Z" fill="#065A92"/>
<path d="M416.951 87.8251C413.054 94.7329 413.936 99.0513 419.316 101.664C420.66 102.319 421.352 102.291 421.787 100.744C422.567 97.9565 423.01 95.3523 420.308 93.1618C418.759 91.8938 417.909 89.9942 416.951 87.8251Z" fill="#065A92"/>
<path d="M413.393 97.704C409.496 104.612 410.378 108.93 415.758 111.543C417.102 112.197 417.794 112.17 418.229 110.623C419.009 107.835 419.452 105.231 416.75 103.041C415.201 101.773 414.351 99.8731 413.393 97.704Z" fill="#065A92"/>
<path d="M406.623 107.714C402.726 114.622 403.607 118.94 408.988 121.552C410.332 122.207 411.024 122.179 411.458 120.632C412.238 117.845 412.681 115.241 409.979 113.05C408.43 111.782 407.581 109.883 406.623 107.714Z" fill="#065A92"/>
<path d="M424.621 98.8398C424.621 98.8398 421.416 109.411 418.387 115.737C414.852 123.117 408.281 125.346 407.387 133.426C407.008 136.847 408.035 142.216 408.035 142.216" stroke="#065A92" stroke-linecap="round"/>
<path d="M524.781 152.971C522.321 146.667 524.281 142.94 530.959 141.522C529.637 145.864 532.619 152.013 525.362 153.577L524.781 152.971Z" fill="#065A92"/>
<path d="M515.653 159.01C513.194 152.706 515.154 148.98 521.832 147.561C520.509 151.903 523.492 158.052 516.235 159.616L515.653 159.01Z" fill="#065A92"/>
<path d="M506.707 168.284C504.248 161.979 506.208 158.253 512.886 156.834C511.563 161.176 514.546 167.325 507.289 168.89L506.707 168.284Z" fill="#065A92"/>
<path d="M560.21 135.571C556.249 149.472 549.513 153.879 539.214 150.287C536.638 149.392 535.786 148.463 537.235 145.916C539.851 141.329 542.661 137.413 548.974 138.089C552.608 138.461 556.165 137.119 560.21 135.571Z" fill="#065A92"/>
<path d="M542.785 158.216C537.303 163.409 533.105 163.603 529.437 159.26C528.519 158.176 528.384 157.533 529.713 156.773C532.109 155.407 534.414 154.393 537.069 156.37C538.602 157.5 540.556 157.84 542.785 158.216Z" fill="#065A92"/>
<path d="M534.476 163.787C528.995 168.979 524.796 169.173 521.128 164.831C520.21 163.746 520.075 163.103 521.404 162.344C523.8 160.977 526.106 159.964 528.76 161.94C530.293 163.07 532.247 163.41 534.476 163.787Z" fill="#065A92"/>
<path d="M526.795 172.343C521.314 177.536 517.115 177.73 513.447 173.387C512.529 172.303 512.394 171.66 513.723 170.9C516.119 169.534 518.424 168.52 521.079 170.497C522.612 171.627 524.566 171.967 526.795 172.343Z" fill="#065A92"/>
<path d="M530.811 153.725C530.811 153.725 522.37 158.811 517.618 162.912C512.074 167.696 505.01 176.785 505.01 176.785" stroke="#065A92" stroke-linecap="round"/>
<path d="M490.72 148.852C484.314 136.327 484.628 134.465 494.433 127.103C498.12 141.086 498.12 141.086 490.95 148.944L490.72 148.852Z" fill="#065A92"/>
<path d="M431.215 182.37C445.277 181.385 446.715 180.157 447.982 167.981C434.07 172.041 434.07 172.041 431.018 182.221L431.215 182.37Z" fill="#065A92"/>
<path d="M381.204 131.22C373.279 128.46 371.339 123.625 375.369 116.216C378.402 120.948 386.6 123.091 382.243 131.161L381.204 131.22Z" fill="#065A92"/>
<path d="M381.214 150.169C376.875 144.631 369.292 144.126 362.91 146.191C361.973 146.515 361.006 146.751 360.022 146.897C358.895 147.156 357.743 147.306 356.585 147.345C354.862 147.408 352.86 147.345 351.263 146.558C350.885 146.454 350.477 146.332 350.034 146.191C343.648 144.126 336.066 144.622 331.727 150.169C327.025 156.169 326.091 164.292 328.086 171.455C329.192 175.409 331.342 179.005 333.657 182.406C335.856 185.628 338.058 188.995 340.622 191.957C340.738 192.092 340.855 192.227 340.978 192.359C343.17 194.775 346.655 195.634 348.414 195.565C350.574 195.481 351.37 193.651 353.701 194.856C354.102 195.063 354.622 195.358 355.146 195.594C355.534 195.783 355.953 195.902 356.385 195.945H356.592C357.005 195.904 357.408 195.793 357.782 195.616C358.309 195.38 358.826 195.085 359.227 194.878C361.558 193.673 362.354 195.506 364.513 195.587C366.289 195.656 369.774 194.797 371.95 192.381C372.07 192.249 372.19 192.114 372.306 191.979C374.87 189.017 377.072 185.65 379.267 182.428C381.586 179.027 383.736 175.431 384.839 171.471C386.853 164.292 385.919 156.169 381.214 150.169Z" fill="#FFB35B"/>
<path d="M356.493 195.945L356.442 195.768V195.945H356.336C355.905 195.898 355.486 195.778 355.099 195.59L354.993 195.528C354.649 195.372 354.315 195.191 354.029 195.032L353.666 194.842C352.333 194.154 351.549 194.531 350.637 194.945C349.983 195.301 349.257 195.513 348.51 195.568C346.763 195.63 343.213 194.814 340.938 192.321C340.816 192.191 340.697 192.053 340.582 191.919C338.333 189.336 336.373 186.433 334.478 183.622L333.659 182.416C331.558 179.338 329.258 175.63 328.101 171.486C325.946 163.802 327.311 155.845 331.738 150.199C336.332 144.341 344.25 144.279 350.132 146.186C350.576 146.329 350.974 146.447 351.344 146.547C352.988 147.351 355.003 147.382 356.577 147.323C357.714 147.287 358.846 147.14 359.953 146.884C360.926 146.741 361.882 146.507 362.809 146.186C368.688 144.285 376.622 144.338 381.2 150.199C385.627 155.845 386.983 163.802 384.85 171.486C383.693 175.627 381.39 179.338 379.289 182.416L378.47 183.622C376.565 186.426 374.595 189.336 372.366 191.919C372.247 192.053 372.128 192.191 372.009 192.321C369.761 194.814 366.182 195.63 364.46 195.568C363.712 195.513 362.985 195.3 362.33 194.945C361.421 194.521 360.637 194.154 359.304 194.842L358.941 195.032C358.642 195.191 358.299 195.372 357.977 195.528L357.871 195.59C357.473 195.78 357.044 195.899 356.602 195.942L356.493 195.945ZM356.442 195.587H356.545C356.908 195.553 357.264 195.459 357.595 195.309L357.695 195.25C358.064 195.088 358.433 194.892 358.758 194.717L359.124 194.524C360.621 193.752 361.527 194.175 362.484 194.624C363.094 194.955 363.77 195.155 364.466 195.21C366.114 195.278 369.549 194.481 371.727 192.094C371.846 191.963 371.961 191.832 372.077 191.698C374.297 189.134 376.253 186.236 378.161 183.435L378.98 182.229C381.065 179.173 383.349 175.496 384.493 171.402C386.607 163.824 385.267 155.985 380.908 150.423C376.433 144.718 368.684 144.674 362.918 146.535C361.98 146.861 361.012 147.099 360.027 147.245C358.902 147.503 357.754 147.653 356.599 147.691C354.993 147.75 352.905 147.715 351.218 146.89C350.874 146.799 350.473 146.681 350.02 146.535C344.263 144.665 336.528 144.718 332.03 150.423C327.674 155.975 326.334 163.815 328.435 171.393C329.589 175.496 331.873 179.163 333.958 182.22L334.777 183.426C336.679 186.23 338.632 189.125 340.88 191.689C340.996 191.823 341.112 191.954 341.231 192.085C343.405 194.481 346.846 195.269 348.488 195.2C349.184 195.147 349.861 194.947 350.47 194.615C351.433 194.166 352.333 193.742 353.833 194.515L354.199 194.708C354.521 194.883 354.89 195.079 355.26 195.241L355.369 195.3C355.691 195.449 356.038 195.543 356.394 195.577L356.442 195.587Z" fill="#FFB35B"/>
<path d="M354.375 139.794C354.736 136.83 357.213 136.555 357.981 136.593C358.749 136.631 360.552 138.802 359.02 143.145C357.487 147.489 357.217 149.934 358.435 153.766C359.272 156.451 361.504 158.317 362.763 159.191C362.022 159.445 361.265 159.659 360.495 159.832L360.361 159.854C360.26 159.854 360.156 159.883 360.051 159.889C359.488 159.932 358.922 159.899 358.371 159.79C357.812 158.714 357.184 157.666 356.492 156.653C354.137 153.11 354.851 148.331 355.457 144.919C356.063 141.506 354.278 140.437 354.375 139.794Z" fill="#FFB35B"/>
<path d="M371.855 539.828C369.735 526.949 354.856 511.868 353.415 514.25C351.923 511.868 342.139 527.501 334.974 539.828C327.788 552.19 331.99 564.43 334.84 567.966C338.192 572.191 349.711 585.074 353.415 586C357.055 585.074 367.142 574.567 372.124 567.966C374.605 564.244 374.734 557.316 371.855 539.828Z" fill="#FFB35B"/>
</svg>
