<svg  viewBox="0 0 712 638" fill="none" xmlns="http://www.w3.org/2000/svg">
<path d="M481.075 231.368C471.978 229.086 463.014 228.781 454.107 232.396C451.018 233.651 448.214 235.135 446.936 238.198C442.225 249.441 432.27 253.303 421.704 256.309C399.79 262.529 384.265 287.165 387.889 309.746C388.938 316.347 392.581 318.231 398.569 317.07C404.202 315.962 409.436 313.374 413.732 309.575C416.986 306.467 421.169 304.504 425.645 303.985C430.12 303.467 434.643 304.421 438.525 306.702C443.98 309.656 450.059 311.273 456.264 311.422C462.468 311.571 468.619 310.247 474.209 307.558C481.839 304.268 490.448 304.043 498.24 306.931C508.291 310.26 517.922 309.385 528.031 306.626C550.917 300.405 573.804 293.728 597.854 294.851C603.976 295.136 608.668 289.334 615.896 291.293C610.422 297.229 604.128 301.471 596.995 301.813C575.768 302.821 556.544 311.154 536.575 316.823C531.731 318.212 527.039 319.905 520.936 321.845C534.286 328.427 547.427 329.835 560.854 330.425C575.291 331.034 589.863 328.522 604.186 332.536C608.095 333.64 611.223 336.969 615.629 336.455C615.438 338.89 619.443 338.89 618.375 342.657C589.424 329.341 557.802 342.752 528.298 333.431L520.535 330.672L514.47 328.085C512.448 326.374 509.926 325.36 507.28 325.193L492.518 322.092C490.713 321.375 488.772 321.06 486.832 321.168C484.892 321.277 482.999 321.806 481.285 322.72C471.348 324.718 461.85 328.732 451.532 328.96L448.614 328.77C444.38 327.476 440.032 326.506 435.97 324.813C433.793 323.79 431.352 323.467 428.984 323.89C426.616 324.313 424.438 325.46 422.753 327.172C417.864 331.729 411.682 334.666 405.054 335.58C396.3 336.931 393.61 342.714 392.771 350.076C392.159 354.794 392.456 359.586 393.649 364.192C395.619 371.493 396.079 379.118 395.003 386.602C393.751 395.972 395.737 405.489 400.631 413.584C405.526 421.678 413.039 427.869 421.932 431.136C424.629 432.196 427.628 432.196 430.324 431.136C453.669 421.967 474.553 428.606 494.273 441.219C499.594 444.624 503.599 445.024 508.806 441.447C513.375 438.6 518.128 436.058 523.034 433.838C536.384 426.932 549.887 426.932 563.085 434.161C577.37 441.999 591.693 443.407 606.799 436.501C612.654 433.8 618.242 434.922 626.138 439.202C617.699 438.287 609.19 440.115 601.878 444.415C589.424 450.978 576.855 449.818 564.325 444.225C553.606 439.431 542.735 436.786 531.502 443.007C547.866 457.408 547.866 457.484 570.085 456.133C576.112 455.772 581.128 457.256 585.095 461.841C579.677 459.444 573.658 458.748 567.834 459.843C561.884 461.213 555.933 460.338 549.582 460.794C560.339 468.176 580.632 464.295 578.61 486.495C575.196 473.978 566.385 470.858 554.922 470.42C548.076 470.173 543.346 464.371 538.864 459.348C529.423 448.79 523.034 447.573 510.79 454.098C506.16 457.01 500.65 458.202 495.227 457.465C498.869 462.278 503.733 462.43 508.577 465.075C506.403 465.303 504.763 466.026 503.981 465.493C493.949 459.063 483.612 463.8 473.37 464.295C471.692 464.39 470.013 464.295 469.804 466.197C469.773 466.595 469.828 466.996 469.965 467.371C470.102 467.747 470.317 468.089 470.597 468.375C470.877 468.661 471.214 468.885 471.587 469.031C471.96 469.177 472.36 469.242 472.76 469.222C474.611 468.997 476.446 468.654 478.253 468.194C489.429 466.844 500.338 466.292 509.683 474.625C515.653 479.989 522.919 479.666 530.377 477.878C543.46 474.72 550.479 477.725 551.795 490.319C553.244 504.378 555.208 517.561 564.992 528.652C554.217 523.782 549.163 517.104 547.236 506.47C546.626 503.065 546.302 499.565 545.329 496.216C542.754 486.933 538.845 484.403 530.071 488.398C519.505 493.23 510.618 491.993 502.035 484.593C494.578 478.163 486.225 482.538 478.253 483.014C474.438 483.242 476.155 486.02 476.631 488.036C479.206 498.956 489.81 503.959 502.016 500.04C517.274 495.094 517.408 495.056 526.314 508.62C528.108 511.229 530.666 513.222 533.638 514.327C538.687 516.27 542.982 519.769 545.901 524.314C537.471 519.083 525.685 519.749 520.516 508.791C517.827 503.084 513.326 502.133 507.795 505.766C512.887 516.248 519.658 523.515 532.131 526.35C548.457 530.155 553.244 537.212 552.271 551.785C546.454 536.68 535.736 532.533 520.631 535.177C529.595 538.982 529.576 547.942 533.523 554.619C539.054 563.96 528.107 568.278 527.134 575.926C523.72 574.594 523.778 572.654 524.331 571.474C526.753 566.338 531.75 562.191 526.238 555.475C522.748 551.233 521.565 545.26 515.481 542.958C511.667 541.474 510.275 537.745 509.264 533.921C505.449 519.406 500.357 515.564 482.563 515.507C498.145 523.458 500.185 537.631 506.289 551.1C501.12 549.197 500.567 545.221 498.088 543.015C497.534 541.664 496.981 540.313 496.409 538.963L494.502 535.158C490.573 524.086 478.176 523.382 471.234 515.392C469.327 521.099 472.588 523.877 475.907 526.35C481.247 530.326 486.74 534.074 492.156 537.916L494.273 540.941L496.333 544.499C498.946 552.641 498.908 561.106 499.537 569.515C499.899 574.271 502.245 578.418 504.343 582.603L502.798 583.859C494.902 578.018 493.396 569.001 492.156 560.402C491.827 556.956 490.616 553.653 488.639 550.808C486.662 547.963 483.985 545.673 480.865 544.156C476.743 541.791 472.843 539.059 469.212 535.995C457.044 526.141 454.813 515.468 462.842 501.847C465.417 497.472 464.749 495.037 461.316 492.336C459.562 490.966 457.903 489.482 456.205 488.055C445.506 479.076 445.506 479.076 441.691 467.738C433.528 472.779 426.681 479.152 419.701 485.411C416.516 488.226 417.107 491.365 418.881 494.923C422.695 502.266 428.646 507.269 435.512 511.397C438.295 512.867 440.659 515.017 442.383 517.645C444.107 520.273 445.136 523.294 445.372 526.426C446.783 538.525 458.15 542.748 466.351 549.255C469.479 551.709 473.751 552.755 477.547 554.315C484.527 557.187 487.75 562.514 487.827 569.857C487.827 577.695 487.827 585.552 487.827 594.246C480.808 585.152 484.26 574.061 479.893 564.721C474.362 573.11 472.436 580.948 480.217 589.09C473.771 584.981 466.58 582.108 469.537 573.015C473.809 566.756 473.809 566.756 468.259 561.601C467.973 564.987 467.725 568.031 467.477 571.113C464.296 581.483 464.144 592.543 467.038 602.996C463.535 599.491 461.032 595.116 459.789 590.325C458.545 585.533 458.605 580.497 459.962 575.735C462.651 564.835 457.006 557.568 450.865 550.187C447.604 546.249 445.811 548.284 444.495 551.937C442.588 557.035 444.609 561.24 447.546 565.254C452.906 572.387 454.279 579.826 450.75 588.367C447.674 595.749 447.007 603.909 448.843 611.69C449.778 615.742 449.93 619.832 446.459 623.447C444.132 609.655 439.384 596.319 445.181 582.413C446.974 578.094 443.618 574.575 441.1 571.36C438.364 568.118 436.454 564.264 435.531 560.128C434.608 555.991 434.699 551.693 435.798 547.599C437.877 537.84 436.37 527.472 425.9 521.099C420.922 518.075 416.688 513.851 410.947 509.248C412.416 522.051 413.789 532.837 422.39 541.207C430.992 549.578 433.242 559.223 430.534 570.77C428.76 578.38 428.188 586.123 426.128 593.789C424.112 585.458 423.969 576.785 425.709 568.392C427.158 561.449 424.278 557.111 417.889 553.059C424.679 564.683 405.321 573.7 413.236 580.758C422.486 589.014 410.966 603.149 424.679 607.524C417.164 607.524 413.445 604.138 414.494 596.643C414.876 593.808 415.925 590.84 413.941 588.424C412.606 586.807 410.451 584.867 408.658 584.867C405.95 584.867 406.198 587.968 405.931 590.041C404.882 598.659 407.667 606.173 412.435 613.25C415.486 617.778 417.889 622.629 411.557 629.059C413.236 622.99 411.882 619.433 408.792 615.952C396.929 602.635 395.67 587.416 403.795 571.969C407.915 564.074 410.661 556.978 405.817 548.265C403.776 544.613 403.68 539.743 403.223 535.348C402.174 525.075 400.839 515.202 389.987 509.856C388.079 508.867 386.954 505.918 385.581 503.807C384.208 501.695 384.513 497.015 380.489 498.613C379.765 498.98 379.122 499.488 378.599 500.108C378.077 500.727 377.684 501.445 377.446 502.219C377.207 502.994 377.127 503.808 377.211 504.613C377.295 505.419 377.541 506.199 377.933 506.908C385.448 520.224 385.562 535.557 390.959 549.388C396.357 563.218 398.111 576.896 392.027 590.897C391.265 592.629 390.12 594.226 391.322 596.205C397.52 606.326 391.532 615.59 390.197 625.368C385.753 624.531 386.554 622.058 387.393 620.175C389.548 615.324 388.861 610.244 388.842 605.241C388.842 603.757 389.033 601.855 387.088 601.284C385.142 600.714 384.284 602.464 383.273 603.567C375.091 613.079 366.814 622.686 363.114 638C361.998 633.953 361.769 629.714 362.444 625.571C363.119 621.428 364.681 617.479 367.024 613.992C370.342 608.608 374.138 603.51 377.723 598.298C385.753 586.56 388.346 573.909 383.083 560.459C379.126 551.189 375.825 541.654 373.203 531.924C372.498 528.937 363.324 524.031 363.324 524.031C356.681 521.743 353.915 522.897 348.066 524.031C343.847 524.848 338.988 526.902 337.653 527.586C337.386 527.765 337.157 527.995 336.981 528.263C336.804 528.531 336.682 528.831 336.623 529.146C334.067 544.156 324.569 557.054 323.272 572.406C322.204 584.562 328.079 594.246 334.906 603.662C341.734 613.079 349.077 622.363 345.873 637.391C341.238 621.678 332.694 610.758 321.995 600.295C317.608 608.399 321.861 616.522 319 625.178C316.521 615.077 312.63 606.154 317.36 596.738C317.817 595.743 318.015 594.65 317.935 593.559C317.855 592.468 317.5 591.415 316.902 590.498C311.848 579.578 312.192 568.183 315.625 557.13C319.057 546.078 322.3 534.739 324.817 523.306C325.908 517.028 328.812 511.204 333.171 506.546C336.203 503.579 336.28 499.584 332.999 497.472C328.536 494.599 328.174 499.508 327.049 502.095C325.008 506.832 322.891 511.607 317.513 513.319C309.579 515.925 307.347 522.146 306.546 529.451C305.593 538.259 305.001 547.181 300.634 555.19C298.402 559.299 300.539 562.514 302.369 565.767C312.611 584.068 314.118 601.722 298.555 618.044C295.999 620.708 296.991 623.923 296.419 627.556C291.212 622.781 293.291 618.33 296.057 614.24C300.558 607.467 303.914 600.409 303.018 592.077C302.751 589.566 304.162 585.228 300.195 585.209C299.295 585.2 298.404 585.399 297.593 585.789C296.782 586.179 296.072 586.751 295.518 587.46C294.964 588.168 294.582 588.995 294.401 589.875C294.22 590.755 294.245 591.665 294.474 592.533C297.43 603.301 290.201 607.182 282.84 611.234L281.581 610.245C288.428 604.937 293.882 599.021 290.64 589.318C302.35 579.54 293.787 570.124 290.24 560.555C289.98 559.012 289.98 557.437 290.24 555.894C290.487 554.828 291.288 553.135 290.888 552.793C289.61 551.671 289.21 553.516 288.39 554.068C282.477 558.69 282.401 564.683 284.194 571.189C286.635 580.187 287.245 589.147 281.943 598.164C283.221 585.571 278.586 574.613 274.009 563.541C265.789 571.893 262.051 580.529 266.094 592.495C269.508 602.597 263.138 612.87 262.814 623.523C261.59 622.095 260.713 620.404 260.25 618.583C259.787 616.762 259.75 614.859 260.144 613.022C261.842 603.961 260.977 594.607 257.645 586.008C256.408 583.067 255.956 579.856 256.334 576.689C256.711 573.521 257.906 570.505 259.8 567.936C261.231 565.862 262.432 563.617 263.71 561.449C266.514 556.712 266.209 550.967 262.146 548.608C258.618 546.572 256.577 552.412 254.327 555.171C249.196 561.43 248.052 568.488 249.215 576.535C250.589 586.046 250.856 595.863 241.358 602.616C247.766 588.615 241.243 575.089 241.186 560.764C235.464 566.262 235.159 566.471 238.573 572.559C240.747 576.477 240.957 581.29 238.096 582.926C231.497 586.731 232.375 592.438 231.822 598.145C229.914 592.267 225.223 586.275 233.729 581.424C234.261 581.211 234.728 580.865 235.087 580.419C235.446 579.974 235.684 579.443 235.778 578.88C235.872 578.316 235.818 577.737 235.623 577.2C235.428 576.663 235.098 576.185 234.663 575.812C231.536 573.053 231.955 568.963 229.762 564.759C223.468 575.279 230.048 589.014 218.872 597.213C222.991 588.006 220.779 578.494 221.275 569.096C221.637 561.791 225.337 556.16 232.451 554.144C243.99 550.891 251.618 542.159 260.792 535.538C264.301 532.989 264.092 529.356 264.092 526.16C264.092 519.635 267.162 515.506 272.502 512.425C279.521 508.373 284.48 502.247 289.534 496.083C294.588 489.92 294.569 486.153 286.997 482.044C280.532 478.505 272.483 477.155 267.486 469.127C267.2 479.323 259.724 483.071 253.449 487.96C247.175 492.849 245.592 498.385 248.548 506.318C253.621 519.996 250.703 527.929 239.203 537.022C238.485 537.646 237.706 538.194 236.876 538.658C223.811 545.107 216.144 554.733 215.038 570.028C214.485 577.638 211.033 585.4 201.688 587.549L201.859 587.701C209.679 574.956 210.213 560.478 211.815 546.268L213.722 542.463C219.768 532.095 235.503 530.573 239.489 515.43C228.045 523.687 215.114 527.358 211.91 541.055L210.003 544.651C208.649 546.382 207.447 548.455 204.281 547.143C209.259 537.631 210.861 526.217 220.626 519.216C211.09 515.564 202.145 520.472 200.181 531.334C198.998 537.992 196.367 542.463 190.321 545.183C185.4 547.39 185.686 553.478 182.368 556.598C177.027 561.563 181.586 565.063 183.169 569.077C184.523 572.482 184.923 575.754 181.586 580.739C182.158 570.789 171.268 564.949 174.319 557.91C177.371 550.872 177.905 541.626 186.659 537.232C170.276 532.628 161.579 537.003 156.62 552.451C153.149 544.442 156.239 538.982 161.198 534.207C166.08 529.583 172.237 526.522 178.877 525.418C183.124 524.877 187.159 523.254 190.593 520.705C194.027 518.155 196.745 514.767 198.484 510.865C199.304 509.191 202.985 508.22 200.391 505.633C199.439 504.764 198.257 504.188 196.985 503.972C195.713 503.756 194.406 503.91 193.22 504.416C190.702 505.329 189.405 507.555 187.975 509.685C182.959 517.295 174.739 521.632 162.494 522.716C173.213 515.906 183.092 510.693 188.719 500.154C191.141 495.665 197.606 496.35 201.878 498.537C208.306 501.733 214.638 500.763 221.256 500.592C229.838 500.345 230.925 493.762 231.745 488.265C232.718 481.644 225.871 482.9 222.209 481.815C216.068 480.027 210.461 481.816 205.407 486.02C198.636 491.575 191.37 493.629 182.52 489.977C169.17 484.536 165.355 486.724 162.227 501.048C159.996 511.017 158.28 521.023 148.686 527.092L147.275 525.589C152.098 518.516 154.846 510.241 155.209 501.695C155.387 496.324 156.571 491.033 158.699 486.096C162.247 478.372 167.625 474.682 176.093 477.478C180.689 479.214 185.676 479.651 190.504 478.742C195.333 477.832 199.817 475.611 203.461 472.323C211.529 465.683 221.389 467.396 230.811 468.651C237.658 469.545 244.447 470.553 251.084 468.309C241.072 466.311 230.696 466.996 221.713 461.156C220.779 460.547 218.681 460.147 218.223 460.642C211.224 468.385 201.306 464.066 193.162 466.844C192.838 466.483 192.495 466.14 192.133 465.817C194.764 461.803 198.751 462.202 202.813 462.316C206.875 462.43 210.976 462.754 213.417 458.511C214.104 458.302 215.324 458.245 214.676 457.218C214.027 456.191 213.226 457.047 212.769 457.941C207.047 458.968 202.279 456.552 197.511 454.022C186.907 448.486 179.64 449.247 172.05 457.827C164.84 466.064 157.097 472.132 145.349 471.866C139.856 471.733 136.156 475.5 133.753 480.427C132.189 483.661 131.426 487.694 127.421 488.702C128.718 468.898 144.586 466.102 159.538 461.803C145.997 461.422 132.837 457.617 122.214 462.183C128.889 454.402 139.379 456.305 149.869 457.579C161.827 459.025 169.418 450.807 177.828 443.654C173.921 441.084 169.4 439.593 164.726 439.332C160.053 439.072 155.394 440.051 151.223 442.17C133.638 450.369 116.645 451.834 99.6328 441.048C95.4178 438.365 90.3637 439.697 84.9663 438.746C92.2709 433.705 99.0797 434.941 105.946 437.852C117.389 442.722 129.233 443.35 139.894 437.015C160.664 424.668 179.945 428.131 198.712 440.667C205.292 445.081 210.156 444.472 216.602 440.458C235.541 428.454 255.128 425.049 278.186 430.223C293.444 433.628 308.835 422.214 322.967 415.004C328.861 412.018 328.25 401.916 327.773 394.592C327.068 383.178 326.648 372.353 330.234 360.92C332.601 354.365 333.424 347.354 332.637 340.431C328.25 312.447 313.431 298.807 284.365 299.359C257.512 299.854 230.963 302.403 206.627 315.358C196.672 320.647 185.972 321.065 175.12 319.163C165.095 317.645 154.943 317.123 144.815 317.603C136.022 317.85 127.325 317.603 118.934 313.665C108.921 308.966 97.9544 308.966 87.1596 309.86C83.3452 310.184 79.5307 311.23 75.8879 309.594C91.1456 303.088 97.6874 302.365 111.534 305.675H111.705C119.01 306.969 126.257 308.605 133.619 309.366C137.968 309.822 143.575 311.154 144.776 304.153L144.586 304.267C151.127 302.764 157.135 306.455 163.563 306.17C177.104 311.591 190.492 311.173 197.892 305.485C181.586 287.507 158.07 288.63 136.862 283.246L137.033 283.36C134.134 279.213 129.404 280.335 125.418 279.422C115.882 277.216 100.625 266.258 100.625 266.258C100.625 266.258 101.382 265.537 101.693 265.117L110.618 269.113L111.934 269.72C111.934 269.72 118.214 272.912 121.737 272.783C138.368 272.46 153.645 280.392 170.123 280.507H170.543C178.6 280.19 186.496 282.822 192.743 287.907C203.843 296.582 215.515 299.721 228.732 292.701C237.143 288.211 246.45 288.782 255.605 288.249C259.247 288.04 262.795 286.1 266.38 284.958C272.274 285.776 275.115 279.67 280.284 278.833C281.485 279.08 282.439 280.735 283.889 279.441C283.786 279.73 283.722 280.03 283.698 280.335C295.98 285.852 309.102 287.545 322.319 288.154C325.313 288.287 327.335 284.54 327.926 281.192C328.326 279.628 328.14 277.972 327.402 276.536C326.665 275.1 325.427 273.982 323.921 273.392C309.502 267.171 298.46 254.615 285.09 248.661C267.086 240.595 246.564 235.192 225.966 236.181C217.823 236.562 211.528 236.904 202.164 238.75C197.25 239.719 194.11 239.406 189.215 240.462C181.376 242.151 149.087 245.314 168.788 241.604C188.49 237.894 208.725 234.26 227.359 229.618C231.173 230.893 234.93 229.904 237.448 229.239C239.965 228.573 262.585 237.038 278.491 235.44C274.963 228.515 270.443 222.675 269.165 215.446C268.631 212.402 266.075 212.877 263.939 212.611C246.774 210.537 229.514 208.978 213.837 200.721C213.551 200.569 213.188 200.227 213.017 200.322C195.68 208.616 177.657 197.297 160.244 202.224C158.817 202.751 157.444 203.414 156.143 204.203H155.915H133.638C151.738 204.374 168.35 190.886 187.651 199.18C193.029 201.501 199.285 197.887 205.922 195.832C201.211 187.595 193.296 186.492 186.01 184.418C176.665 181.812 166.938 180.119 159.176 173.67L161.083 172.852C164.65 175.705 169.227 174.754 173.213 176.124L175.502 176.295C180.136 179.624 185.801 178.901 190.969 179.833C197.55 180.707 203.729 183.485 208.744 187.823L210.88 189.726C227.073 199.618 245.515 200.379 263.615 202.395C269.661 203.08 269.794 199.447 268.001 195.223C266.037 191.228 263.107 187.783 259.476 185.198C255.299 181.812 250.417 179.053 247.899 174.088C243.15 164.69 234.816 161.989 225.223 161.342L221.103 157.69L211.949 146.865C212.959 146.523 214.085 145.838 214.371 146.085C226.768 157.176 247.651 154.303 256.463 171.444C256.61 171.885 256.858 172.286 257.186 172.616C257.514 172.947 257.986 172.967 258.427 173.118C260.357 173.998 263.443 176.257 265.045 177.645L265.865 178.464L276.832 189.649L279.845 195.49C277.251 224.025 297.983 238.084 316.082 253.74C319.439 256.632 324.264 258.553 328.422 255.643C332.58 252.732 331.76 247.919 330.653 243.449C329.077 235.967 325.052 229.221 319.21 224.273C311.581 218.071 308.306 210.127 307 203C304.654 190.197 313.031 184.817 309.235 177.398L308.587 171.044C308.874 168.256 303.781 155.445 303.781 155.445C302.115 153.467 294.664 130.314 294.664 129.363C294.664 129.363 294.785 127.461 295.618 127.461C296.571 127.461 301.244 136.44 301.244 136.44L303.247 140.777C303.247 140.777 314.722 171.14 316.654 186.035C314.261 167.581 319.523 171.164 322.319 154.02L326.267 139.769L327.773 129.477C327.773 129.477 329.26 122.563 329.681 118.063C330.511 109.176 328.021 102.844 328.536 95.2348C328.937 89.3375 324.436 82.3375 331.531 77.6387V77.714C331.383 79.6239 331.505 81.545 331.893 83.4211C339.522 104.556 340.688 114.144 335.5 136.44C334.246 141.83 331 148.92 331 153C331 160.686 324.373 172.327 324.5 180C324.627 187.673 323.598 190.711 321.5 196C317.209 204.123 325.466 209.339 333.228 215.389C343.851 223.664 347.875 235.687 348.867 248.775C349.191 252.846 349.306 256.917 349.649 263.309C354.875 254.615 356.591 247.653 356.382 240.291C356.134 231.787 350.126 236.697 349.649 228.212C352.033 227.204 349.706 224.217 352.472 223.456C353.826 229.715 358.556 232.017 358.556 232.017L362.37 238.749C362.37 238.749 362.294 238.616 362.256 239.244C361.588 251.001 359.223 261.94 352.472 272.193C347.914 279.118 349.878 287.412 354.379 294.546C356.286 297.457 358.193 300.862 362.16 300.672C366.738 300.443 366.776 295.954 367.596 292.872C370.638 282.3 374.72 272.053 379.783 262.282C383.064 255.548 389.949 250.982 390.94 243.03C391.229 242.996 391.493 242.853 391.678 242.63C391.863 242.406 391.954 242.12 391.932 241.831C394.411 219.003 388.718 210.886 389.5 188C390.053 172.42 383.748 142.627 383.5 126C383 123 385.066 122.933 385.066 121.868C388.022 121.24 389.415 122.743 389.071 125.406C386.992 141.196 393.134 155.083 399.847 169.656C409.686 161.293 420.724 154.445 432.594 149.338C435.588 148.121 437.82 143.821 439.326 140.473C443.351 131.475 450.255 126.282 459.352 123.352C464.845 121.602 469.403 118.139 474.743 113.84C474.743 122.229 469.517 126.11 464.196 128.679C456.3 132.483 450.464 137.525 448.061 146.066C445.83 153.98 439.841 158.375 433.338 162.598C433.338 162.598 406.427 181.127 407.876 190.905C410.165 206.257 407.438 222.066 413.274 237.171C415.181 241.965 416.63 243.144 421.074 242.174C427.826 240.69 433.948 237.989 437.247 231.654C442.454 221.685 451.094 218.604 461.526 218.337C469.155 218.109 476.04 217.139 481.914 210.557C488.475 203.194 497.687 204.431 506.708 206.485C511.171 207.513 516.209 206.572 519.715 202.604C520.603 201.6 521.622 199.751 521.622 199.751L524.159 197.582C527.764 195.09 530.911 192.522 535.679 191.552C542.106 190.258 548.552 187.386 546.95 178.464L546.817 178.616C551.394 171.006 558.451 166.631 567.338 164.139C558.851 171.501 550.65 178.996 551.528 191.419L551.718 191.742C543.441 196.65 532.951 198.838 527.478 207.189C521.108 216.91 513.059 218.375 502.989 215.712C498.526 214.532 494.159 214.342 490.363 217.367C487.445 219.707 485.881 222.484 491.069 223.873C499.976 226.232 507.948 230.741 516.301 234.412C520.516 236.315 525.456 237.19 528.813 233.784C535.431 227.05 544.07 225.852 552.405 223.721C557.726 226.517 563.009 228.515 567.911 222.941C575.234 218.546 582.939 215.731 591.808 217.424C582.52 219.688 573.937 222.789 567.243 230.227C564.573 233.195 559.805 233.023 555.571 232.129C547.942 230.607 540.962 231.768 535.488 237.608C530.434 242.973 523.682 243.03 517.236 244.209C516.587 244.989 515.92 245.75 515.329 246.53C507.7 239.168 499.194 233.214 487.77 233.784C486.549 233.842 485.329 233.658 484.18 233.243C483.032 232.828 481.976 232.191 481.075 231.368ZM217.67 453.946C219.92 455.164 222.275 456.176 224.708 456.971C235.808 459.348 247.327 465.455 256.654 452.747C259.591 448.752 264.397 448.943 268.917 450.331C274.572 452.37 279.924 455.167 284.823 458.645C297.315 466.616 302.617 465.113 308.549 451.967C312.134 444.015 310.647 441.79 301.778 443.102C293.253 444.377 284.747 445.861 276.412 442.874C254.727 435.131 236.246 443.293 217.67 453.965V453.946ZM402.517 442.532C403.261 444.757 403.909 446.527 404.424 448.239C408.601 462.012 414.8 464.485 427.711 457.522C431.335 455.62 434.863 453.432 438.582 451.682C444.876 448.714 450.541 448.239 455.232 455.03C457.464 458.264 461.088 461.955 465.341 460.737C473.732 458.245 483.44 460.737 490.401 453.908C473.103 441.086 455.48 437.585 435.55 443.711C427.725 446.455 419.173 446.314 411.443 443.312C410.079 442.604 408.588 442.172 407.056 442.041C405.524 441.911 403.982 442.084 402.517 442.551V442.532ZM275.268 553.44C287.283 540.332 299.737 527.587 298.307 506.66C291.898 513.679 284.602 519.837 276.603 524.98C275.48 526.029 274.798 527.463 274.696 528.994C273.628 537.308 270.347 545.64 275.268 553.459V553.44ZM411.252 508.563C407.807 501.801 402.669 496.042 396.338 491.841C398.512 501.372 406.866 503.312 411.252 508.582V508.563ZM313.05 491.708C306.375 496.787 302.198 501.01 299.699 506.699C304.2 502.761 311.123 501.163 313.05 491.727V491.708Z" fill="#065A92"/>
<path d="M537.05 105.833C530.781 106.512 526.292 109.808 521.433 112.637C515.42 116.138 503.93 114.068 503.185 108.742C502.441 103.415 508.179 100.124 512.708 97.6698C520.085 93.7125 528.199 96.4335 537.05 105.833Z" fill="#065A92"/>
<path d="M499.184 98.0303C495.548 99.9494 493.624 103.027 491.363 105.91C488.564 109.478 481.1 110.987 479.361 107.937C477.622 104.888 480.305 101.513 482.457 98.9365C485.972 94.7638 491.547 94.4618 499.184 98.0303Z" fill="#065A92"/>
<path d="M535.421 217.88C531.785 219.799 529.861 222.876 527.6 225.76C524.802 229.328 517.337 230.836 515.598 227.787C513.859 224.738 516.542 221.363 518.694 218.786C522.209 214.613 527.784 214.311 535.421 217.88Z" fill="#065A92"/>
<path d="M564.029 210.271C560.393 212.19 558.469 215.267 556.208 218.151C553.41 221.718 545.945 223.227 544.206 220.178C542.468 217.128 545.15 213.753 547.302 211.177C550.817 207.004 556.392 206.702 564.029 210.271Z" fill="#065A92"/>
<path d="M408.826 19.2951C417.302 37.1369 414.358 47.7142 400.532 53.271C397.078 54.6644 395.364 54.4751 394.555 50.5558C393.103 43.4941 392.456 36.9463 399.553 31.9727C403.623 29.0911 406.067 24.5185 408.826 19.2951Z" fill="#065A92"/>
<path d="M576.264 132.731C571.264 135.461 567.074 139.457 564.115 144.317C559.862 151.622 553.549 152.459 546.207 149.871C544.852 149.396 542.068 150.556 543.06 147.113C544.967 140.417 546.76 133.454 554.236 130.791C561.369 128.261 568.483 129.535 576.264 132.731Z" fill="#065A92"/>
<path d="M712 343.419C706.278 339.614 700.08 338.948 693.996 337.94C693.055 337.828 692.128 337.618 691.23 337.312C688.405 336.191 686.049 334.14 684.55 331.501C683.052 328.861 682.502 325.791 682.991 322.797C683.544 317.642 689.762 320.229 693.328 320.153C704.753 319.963 710.646 327.268 712 343.419Z" fill="#065A92"/>
<path d="M660.267 206.429C648.822 230.378 635.274 236.293 617.738 226.639C613.352 224.231 612.095 222.289 615.502 218.122C621.647 210.621 627.938 204.393 639.156 207.549C645.62 209.334 652.47 207.994 660.267 206.429Z" fill="#065A92"/>
<path d="M0 342.287C4.62679 339.081 8.66554 335.104 11.9392 330.53C12.9039 328.917 14.2047 327.528 15.7536 326.459C20.8649 323.435 26.72 323.473 30.8587 327.125C34.6731 330.492 30.4391 334.639 28.57 337.835C23.4777 346.662 13.8464 348.203 0 342.287Z" fill="#065A92"/>
<path d="M111.476 354.22C114.279 349.346 116.22 344.026 117.213 338.495C117.392 336.624 117.97 334.814 118.911 333.186C122.23 328.268 127.536 325.8 132.845 327.332C137.738 328.744 135.694 334.301 135.378 337.987C134.569 348.139 126.528 353.648 111.476 354.22Z" fill="#065A92"/>
<path d="M64.3728 340.086C67.0298 337.701 69.2553 334.878 70.9516 331.739C71.4304 330.647 72.1386 329.67 73.0284 328.874C76.005 326.565 79.6937 326.125 82.59 328.096C85.2595 329.913 82.9246 332.859 82.0027 335.019C79.5005 340.98 73.5604 342.713 64.3728 340.086Z" fill="#065A92"/>
<path d="M143.147 360.105C145.95 355.231 147.891 349.911 148.884 344.379C149.063 342.509 149.642 340.699 150.582 339.071C153.901 334.153 159.208 331.685 164.516 333.216C169.409 334.629 167.365 340.185 167.049 343.872C166.24 354.024 158.199 359.533 143.147 360.105Z" fill="#065A92"/>
<path d="M487.716 76.5202C488.484 79.394 488.941 81.7604 493.337 81.3733C506.696 80.4075 512.401 72.4092 511.298 52.3474C504.925 62.8214 489.277 58.85 487.7 73.0156L487.716 76.5202Z" fill="#065A92"/>
<path d="M639.984 149.965C638.801 169.673 631.115 177.53 616.315 175.761C612.615 175.323 611.204 174.334 612.387 170.51C614.523 163.624 617.116 157.574 625.737 156.623C630.696 156.052 635.044 153.218 639.984 149.965Z" fill="#065A92"/>
<path d="M252.629 97.2889C254.804 99.3244 256.444 101.094 259.972 98.4493C270.805 90.5925 271.415 80.7953 259.858 64.3398C259.991 76.5911 244.6 81.4612 250.76 94.3212L252.629 97.2889Z" fill="#065A92"/>
<path d="M156.487 94.9492C161.884 106.249 179.373 111.975 168.197 127.974C151.127 124.322 146.741 113.497 156.487 94.9492Z" fill="#065A92"/>
<path d="M71.6347 181.107C90.0742 174.869 98.81 177.859 103.518 190.099C105.477 195.141 104.698 197.336 99.1252 198.268C92.9308 199.312 87.8265 198.4 84.2887 192.765C81.2558 187.768 76.8694 183.726 71.6347 181.107Z" fill="#065A92"/>
<path d="M367.977 64.949C365.803 66.9846 364.163 68.7538 360.634 66.1095C349.801 58.2527 349.191 48.4555 360.749 32C360.615 44.2513 376.006 49.1213 369.846 61.9813L367.977 64.949Z" fill="#065A92"/>
<path d="M318.93 138.459C316.756 140.494 315.115 142.264 311.587 139.619C300.754 131.762 300.144 121.965 311.701 105.51C311.568 117.761 326.959 122.631 320.799 135.491L318.93 138.459Z" fill="#065A92"/>
<path d="M566.021 373.45C549.18 378.494 539.854 374.406 535.851 361.289C534.236 355.951 535.746 354.124 541.132 353.769C546.518 353.414 551.344 353.768 554.263 358.896C557.174 364.478 561.171 369.425 566.021 373.45Z" fill="#065A92"/>
<path d="M457.654 52.9453C461.469 70.0666 456.701 79.0458 443.293 82.0706C437.838 83.2881 436.122 81.6521 436.16 76.2684C436.198 70.8847 436.904 66.1097 442.244 63.5796C448.038 61.0909 453.277 57.4758 457.654 52.9453Z" fill="#065A92"/>
<path d="M710.361 292.703C705.458 295.757 701.3 299.865 698.193 304.726C697.287 306.384 696.023 307.82 694.493 308.931C692.157 310.547 689.395 311.441 686.553 311.502C683.711 311.563 680.914 310.788 678.51 309.273C673.952 306.077 679.407 301.987 680.837 298.867C685.452 288.842 694.283 287.129 710.361 292.703Z" fill="#065A92"/>
<path d="M201.688 342.81C208.268 329.056 214.18 324.3 223.792 326.012C228.103 326.792 234.606 327.115 233.977 333.317C233.776 336.222 232.445 338.934 230.268 340.874C228.091 342.815 225.24 343.83 222.324 343.704C215.439 343.704 208.573 343.038 201.688 342.658V342.81Z" fill="#065A92"/>
<path d="M287.874 55.4373C285.7 57.4729 284.06 59.2421 280.532 56.5978C269.699 48.741 269.088 38.9438 280.646 22.4883C280.513 34.7395 295.904 39.6096 289.743 52.4696L287.874 55.4373Z" fill="#065A92"/>
<path d="M63.3662 257.58C75.6798 248.558 83.1433 247.153 90.8044 253.191C94.234 255.91 99.8129 259.259 96.3209 264.429C94.7677 266.895 92.3104 268.657 89.4727 269.342C86.6351 270.026 83.6418 269.578 81.1308 268.092C75.0625 264.848 69.3263 261.026 63.4382 257.446L63.3662 257.58Z" fill="#065A92"/>
<path d="M181.578 128.68C184.131 130.217 186.106 131.605 189.002 128.283C197.947 118.339 196.489 108.632 181.736 94.9516C184.436 106.904 170.407 114.878 179.128 126.168L181.578 128.68Z" fill="#065A92"/>
<path d="M208.512 142.904C211.065 144.441 213.04 145.829 215.935 142.507C224.881 132.564 223.423 122.856 208.67 109.176C211.37 121.129 197.341 129.102 206.062 140.392L208.512 142.904Z" fill="#065A92"/>
<path d="M309.121 18C326.076 30.0991 327.259 37.9749 315.358 52.9275C306.413 47.8101 302.675 40.9045 307.595 30.8981C309.464 27.2075 308.72 22.8891 309.121 18Z" fill="#065A92"/>
<path d="M302.491 219.08C319.127 224.72 321.833 230.648 315.306 245.142C306.808 243.162 302.209 238.583 304.067 229.581C304.797 226.248 303.235 223.02 302.491 219.08Z" fill="#065A92"/>
<path d="M139.589 124.953C156.582 125.067 163.944 133.019 162.151 148.01C161.655 152.119 160.587 153.565 156.429 152.423C149.888 150.635 144.853 147.858 144.319 140.039C143.891 134.721 142.275 129.566 139.589 124.953Z" fill="#065A92"/>
<path d="M670.5 267.022C676.927 255.513 681.581 254.067 699.699 258.595C689.972 266.204 686.539 282.698 669.184 275.906C669.603 272.939 670.042 269.99 670.5 267.022Z" fill="#065A92"/>
<path d="M469.537 343.762C486.549 339.557 494.197 343.876 499.232 363.47C488.895 356.869 472.131 365.106 468.603 346.996C468.927 345.911 469.232 344.903 469.537 343.762Z" fill="#065A92"/>
<path d="M416.139 91.0714C404.067 78.0802 405.244 67.1241 420.137 57.259C421.106 69.1023 434.302 81.2121 418.14 91.9882L416.139 91.0714Z" fill="#065A92"/>
<path d="M397.492 115.346C389.512 106.758 390.29 99.5158 400.135 92.9946C400.776 100.823 409.499 108.828 398.815 115.952L397.492 115.346Z" fill="#065A92"/>
<path d="M338.368 71.59C330.388 63.0023 331.166 55.76 341.011 49.2387C341.652 57.0676 350.375 65.0726 339.691 72.1961L338.368 71.59Z" fill="#065A92"/>
<path d="M285.859 313.802C282.573 325.043 275.943 328.098 265.277 323.024C271.681 318.453 274.085 306.876 285.701 312.359L285.859 313.802Z" fill="#065A92"/>
<path d="M622.046 353.752C625.333 364.993 631.962 368.047 642.629 362.973C636.224 358.403 633.82 346.825 622.205 352.308L622.046 353.752Z" fill="#065A92"/>
<path d="M265.894 149.588C257.914 141 258.692 133.758 268.537 127.237C269.178 135.066 277.901 143.071 267.217 150.194L265.894 149.588Z" fill="#065A92"/>
<path d="M243.944 194.302C232.562 191.436 229.26 184.939 233.955 174.122C238.767 180.339 250.454 182.314 245.384 194.092L243.944 194.302Z" fill="#065A92"/>
<path d="M306.882 281.812C295.5 278.946 292.198 272.449 296.893 261.631C301.706 267.849 313.392 269.823 308.322 281.602L306.882 281.812Z" fill="#065A92"/>
<path d="M189.739 306.449C181.899 310.283 176.894 308.181 174.343 299.791C180.071 301.011 187.653 296.525 190.454 305.639L189.739 306.449Z" fill="#065A92"/>
<path d="M232.803 273.823C221.34 271.299 215.469 275.631 214.807 287.401C221.903 283.993 233.238 287.451 233.996 274.655L232.803 273.823Z" fill="#065A92"/>
<path d="M536.754 129.96C534.009 147.284 526.273 153.895 512.687 151.806C507.165 150.944 506.169 148.794 508.184 143.799C510.198 138.804 512.61 134.62 518.508 134.219C524.813 134.022 531.016 132.574 536.754 129.96Z" fill="#065A92"/>
<path d="M249.845 255.109C268.307 248.889 277.976 251.97 282.267 264.431C283.507 268.026 284.175 271.146 278.548 272.193C272.426 273.334 267.219 273.201 263.386 267.608C260.005 262.366 255.346 258.066 249.845 255.109V255.109Z" fill="#065A92"/>
<path d="M301.186 97.7646C298.61 95.6737 296.763 92.8232 295.91 89.6212C295.057 86.4193 295.242 83.0302 296.438 79.9394C297.696 75.8683 297.143 71.2456 297.448 66.3945C305.707 69.5905 312.229 74.4796 313.049 83.5159C313.641 90.041 312.267 96.6422 304.867 99.648H305.001L301.091 97.5934L301.186 97.7646Z" fill="#065A92"/>
<path d="M450.2 261.048C447.739 259.368 445.653 258.152 447.482 254.145C452.841 241.902 462.302 239.197 480.901 246.911C468.878 249.42 467.425 265.46 453.508 262.229L450.2 261.048Z" fill="#065A92"/>
<path d="M430.997 209.226L436.433 204.432C442.936 219.917 438.454 230.304 424.074 234.375C419.077 235.802 418.696 234.375 417.971 230.019C416.693 222.409 419.687 217.349 425.6 213.278C427.821 212.603 429.732 211.168 430.997 209.226V209.226Z" fill="#065A92"/>
<path d="M413.832 279.614L419.268 274.82C425.771 290.306 421.289 300.693 406.909 304.764C401.912 306.19 401.531 304.764 400.806 300.407C399.528 292.798 402.522 287.737 408.435 283.666C410.656 282.992 412.568 281.557 413.832 279.614V279.614Z" fill="#065A92"/>
<path d="M275.986 90.291C289.336 98.4332 293.456 105.681 290.137 114.489C288.63 118.522 287.105 125.314 282.07 123.83C276.176 122.099 271.141 116.753 273.201 109.067C274.746 103.284 277.054 97.6722 275.986 90.291Z" fill="#065A92"/>
<path d="M513.993 260.002C508.799 258.713 503.458 258.112 498.106 258.213C496.214 258.34 494.315 258.094 492.518 257.49C490.152 256.549 488.118 254.93 486.673 252.838C485.227 250.746 484.434 248.274 484.393 245.734C484.107 240.635 490.115 241.72 493.224 240.978C503.58 238.524 511.457 245.486 514.794 259.241L513.993 260.002Z" fill="#065A92"/>
<path d="M58.3231 256.503C45.1443 263.028 38.3545 260.403 33.3195 246.211C42.0736 249.312 54.8138 241.303 58.3231 256.503Z" fill="#065A92"/>
<path d="M44.0758 313.647C30.8969 320.172 24.1072 317.547 19.0721 303.355C27.8262 306.456 40.5665 298.447 44.0758 313.647Z" fill="#065A92"/>
<path d="M595.584 363.926C588.623 361.796 582.52 359.227 581.49 351.428C580.975 347.623 580.803 342.03 585.304 341.402C590.092 340.736 594.173 344.18 594.612 349.963C594.936 354.167 595.203 358.485 595.584 363.926Z" fill="#065A92"/>
<path d="M547.599 248.682C553.015 235.575 558.031 233.578 572.908 239.399C564.44 243.47 561.026 257.395 547.599 248.682Z" fill="#065A92"/>
<path d="M545.463 323.346C550.879 310.239 555.895 308.242 570.771 314.063C562.303 318.134 558.889 332.059 545.463 323.346Z" fill="#065A92"/>
<path d="M234.587 286.746C238.63 278.528 239.927 268.654 251.657 269.13C251.752 283.778 249.597 286.099 234.587 286.746Z" fill="#065A92"/>
<path d="M215.267 219.345C208.859 222.617 202.66 220.867 195.966 218.66C199.628 211.184 204.72 208.178 212.845 210.632C218.662 212.401 216.202 215.958 215.305 219.326L215.267 219.345Z" fill="#065A92"/>
<path d="M219.372 215.451C226.241 213.227 231.784 212.572 236.063 217.806C238.148 220.357 240.858 224.363 238.084 226.841C235.31 229.318 230.774 228.736 227.804 225.555C224.986 222.619 222.53 219.314 219.372 215.451Z" fill="#065A92"/>
<path d="M150.097 252.416C151.907 245.442 154.332 240.427 161.056 239.64C164.333 239.256 169.177 239.13 169.781 242.794C170.385 246.458 167.456 249.962 163.17 250.751C159.174 251.544 155.06 251.834 150.097 252.416Z" fill="#065A92"/>
<path d="M418.246 202.999C411.84 190.474 412.154 188.612 421.958 181.249C425.645 195.232 425.645 195.232 418.476 203.091L418.246 202.999Z" fill="#065A92"/>
<path d="M253.714 215.335C260.715 217.103 265.756 219.495 266.581 226.198C266.983 229.465 267.136 234.295 263.465 234.917C259.795 235.539 256.267 232.636 255.453 228.366C254.636 224.384 254.323 220.282 253.714 215.335Z" fill="#065A92"/>
<path d="M513.193 238.676C517.813 242.317 523.335 244.326 529.022 244.434C535.526 244.957 542.125 246.297 547.37 251.992C535.927 245.439 528.298 252.944 514.947 246.285C515.691 245.448 512.468 239.513 513.193 238.676Z" fill="#065A92"/>
<path d="M50.1975 303.26C57.2733 303.393 62.2892 304.287 63.1856 311.307C63.4145 313.209 63.8913 315.739 61.2784 315.796C53.6305 315.987 53.9356 308.567 50.1975 303.26Z" fill="#065A92"/>
<path d="M55.3091 328.324C58.7015 322.129 61.8172 318.107 68.4708 320.563C70.2675 321.241 72.7368 321.99 71.5785 324.327C68.2088 331.178 61.756 327.475 55.3091 328.324Z" fill="#065A92"/>
<path d="M98.9274 331.092C100.51 328.79 101.941 326.355 103.695 324.186C105.851 321.58 109.245 319.906 111.839 322.113C114.776 324.586 112.697 328.239 110.466 330.236C107.052 333.28 103.047 335.905 98.9274 331.092Z" fill="#065A92"/>
<path d="M283.068 610.075C282.496 612.681 281.943 615.288 281.161 618.522C279.807 614.831 278.873 611.825 281.733 609.01L283.068 610.075Z" fill="#065A92"/>
<path d="M585.037 460.947L586.773 462.602L587.498 461.423L585.114 460.985L585.037 460.947Z" fill="#065A92"/>
<path d="M148.877 525.932C148.773 526.274 148.584 526.584 148.326 526.832C148.069 527.08 147.752 527.258 147.406 527.35C147.06 527.441 146.697 527.443 146.35 527.355C146.003 527.266 145.685 527.091 145.425 526.845L147.466 524.41C147.942 524.924 148.514 525.418 148.877 525.932Z" fill="#065A92"/>
<path d="M201.688 342.658V343.077C201.696 342.994 201.696 342.912 201.688 342.829V342.658Z" fill="#065A92"/>
<path d="M77.7759 352.268V352.914C77.8168 352.745 77.8486 352.574 77.8711 352.401L77.7759 352.268Z" fill="#065A92"/>
<path d="M193.354 465.683C192.591 465.798 191.313 466.235 191.179 466.007C190.531 464.904 191.656 464.885 192.324 464.656C192.686 464.979 193.03 465.322 193.354 465.683V465.683Z" fill="#065A92"/>
<path d="M98.9269 263.271L98.7747 263.462L98.9269 263.271Z" fill="#065A92"/>
<path d="M508.977 158.7L509.588 157.844C509.588 158.034 509.588 158.319 509.588 158.376C509.364 158.473 509.125 158.531 508.882 158.548L508.977 158.7Z" fill="#065A92"/>
<path d="M504.439 581.73L504.553 583.975L502.894 582.967L504.439 581.73Z" fill="#065A92"/>
<path d="M201.916 586.352L201.382 587.645C200.181 586.352 201.535 586.694 202.088 586.523L201.916 586.352Z" fill="#065A92"/>
<path d="M354.066 285.699C355.29 287.844 356.16 289.655 359.491 288.206C369.658 283.975 372.348 275.985 367.119 259.918C364.451 270.098 351.429 270.895 353.29 282.847L354.066 285.699Z" fill="#065A92"/>
<path d="M379.058 169.885L379.993 169.105C379.764 169.448 379.554 169.79 379.345 170.133L379.058 169.885Z" fill="#065A92"/>
<path d="M360.61 101.094C353.215 95.5249 352.813 89.7898 359.555 83.3609C361.142 89.3554 369.033 94.3686 361.721 101.382L360.61 101.094Z" fill="#065A92"/>
<path d="M354.341 114.644C346.946 109.076 346.544 103.341 353.287 96.9117C354.873 102.906 362.764 107.919 355.453 114.932L354.341 114.644Z" fill="#065A92"/>
<path d="M350.615 131.832C343.22 126.263 342.818 120.528 349.561 114.099C351.147 120.094 359.038 125.107 351.727 132.12L350.615 131.832Z" fill="#065A92"/>
<path d="M386.904 59.8523C392.299 78.8485 387.638 88.793 373.081 91.9879C369.443 92.7911 367.784 92.3211 367.637 88.3222C367.378 81.1182 367.828 74.554 375.653 70.822C380.146 68.6531 383.315 64.5475 386.904 59.8523Z" fill="#065A92"/>
<path d="M385.312 94.3026C382.675 104.262 377.934 107.493 370.546 105.07C368.698 104.466 368.078 103.816 369.077 101.981C370.88 98.6775 372.831 95.8491 377.338 96.2469C379.934 96.4637 382.45 95.4598 385.312 94.3026Z" fill="#065A92"/>
<path d="M379.662 106.728C377.025 116.688 372.283 119.919 364.896 117.495C363.048 116.892 362.428 116.241 363.427 114.407C365.23 111.103 367.18 108.275 371.688 108.673C374.283 108.889 376.8 107.886 379.662 106.728Z" fill="#065A92"/>
<path d="M376.888 122.178C374.251 132.137 369.509 135.368 362.121 132.945C360.274 132.341 359.654 131.691 360.653 129.856C362.455 126.552 364.406 123.724 368.914 124.122C371.509 124.339 374.026 123.335 376.888 122.178Z" fill="#065A92"/>
<path d="M368.159 97.6504C368.159 97.6504 361.552 110.401 358.635 119.035C355.231 129.108 359.334 137.121 352.834 145.462C350.082 148.994 344.251 153.072 344.251 153.072" stroke="#065A92" stroke-linecap="round"/>
<path d="M192.712 268.536C191.607 277.712 186.841 280.944 177.878 278.366C182.274 273.983 182.648 264.658 192.402 267.433L192.712 268.536Z" fill="#065A92"/>
<path d="M207.604 267.124C206.499 276.3 201.733 279.532 192.77 276.954C197.166 272.571 197.54 263.246 207.294 266.021L207.604 267.124Z" fill="#065A92"/>
<path d="M224.372 261.688C223.268 270.865 218.501 274.097 209.538 271.518C213.934 267.135 214.308 257.811 224.062 260.585L224.372 261.688Z" fill="#065A92"/>
<path d="M143.749 266.618C157.493 252.41 168.454 251.425 178.546 262.367C181.073 265.098 181.5 266.765 178.109 268.904C171.998 272.751 166.084 275.666 158.914 270.798C154.774 268.016 149.623 267.35 143.749 266.618Z" fill="#065A92"/>
<path d="M174.4 250.659C184.356 247.921 189.54 250.384 191.157 257.971C191.564 259.868 191.312 260.729 189.22 260.791C185.451 260.899 182.019 260.641 180.096 256.555C178.978 254.208 176.842 252.544 174.4 250.659Z" fill="#065A92"/>
<path d="M188.007 249.28C197.963 246.542 203.148 249.005 204.765 256.592C205.172 258.489 204.92 259.35 202.828 259.412C199.058 259.52 195.627 259.262 193.703 255.176C192.585 252.829 190.45 251.165 188.007 249.28Z" fill="#065A92"/>
<path d="M202.787 243.899C212.743 241.162 217.928 243.624 219.545 251.212C219.952 253.108 219.7 253.97 217.608 254.031C213.838 254.139 210.407 253.881 208.483 249.795C207.366 247.449 205.23 245.784 202.787 243.899Z" fill="#065A92"/>
<path d="M185.928 263.762C185.928 263.762 200.299 263.043 209.248 261.214C219.688 259.08 224.566 251.511 235.064 252.919C239.508 253.515 245.974 256.489 245.974 256.489" stroke="#065A92" stroke-linecap="round"/>
<path d="M556.152 284.119C556.855 293.335 561.476 296.771 570.542 294.585C566.342 290.015 566.377 280.683 556.51 283.031L556.152 284.119Z" fill="#065A92"/>
<path d="M541.336 282.061C542.038 291.276 546.659 294.713 555.726 292.527C551.526 287.956 551.56 278.624 541.694 280.972L541.336 282.061Z" fill="#065A92"/>
<path d="M524.821 275.901C525.523 285.116 530.144 288.552 539.211 286.366C535.011 281.796 535.045 272.464 525.178 274.812L524.821 275.901Z" fill="#065A92"/>
<path d="M605.152 284.332C592.042 269.54 581.134 268.079 570.574 278.572C567.931 281.191 567.431 282.838 570.725 285.122C576.662 289.231 582.443 292.4 589.819 287.849C594.077 285.249 599.252 284.808 605.152 284.332Z" fill="#065A92"/>
<path d="M575.229 267.057C565.401 263.889 560.114 266.123 558.167 273.634C557.678 275.51 557.892 276.382 559.979 276.535C563.74 276.807 567.18 276.698 569.28 272.699C570.499 270.404 572.706 268.834 575.229 267.057Z" fill="#065A92"/>
<path d="M561.694 265.086C551.867 261.918 546.58 264.153 544.633 271.663C544.143 273.54 544.358 274.412 546.445 274.564C550.206 274.836 553.646 274.727 555.746 270.729C556.965 268.433 559.171 266.863 561.694 265.086Z" fill="#065A92"/>
<path d="M547.163 259.067C537.336 255.899 532.049 258.133 530.102 265.644C529.612 267.52 529.826 268.392 531.914 268.545C535.675 268.817 539.115 268.707 541.215 264.709C542.434 262.414 544.64 260.844 547.163 259.067Z" fill="#065A92"/>
<path d="M563.138 279.643C563.138 279.643 548.812 278.299 539.952 276.083C529.615 273.498 525.072 265.724 514.523 266.674C510.057 267.076 503.466 269.766 503.466 269.766" stroke="#065A92" stroke-linecap="round"/>
<path d="M487.493 295.532C488.195 304.747 492.816 308.183 501.883 305.997C497.683 301.427 497.717 292.095 487.851 294.443L487.493 295.532Z" fill="#065A92"/>
<path d="M472.677 293.473C473.379 302.688 478 306.125 487.067 303.939C482.867 299.368 482.901 290.037 473.035 292.384L472.677 293.473Z" fill="#065A92"/>
<path d="M456.161 287.313C456.864 296.528 461.485 299.964 470.551 297.779C466.351 293.208 466.385 283.876 456.519 286.224L456.161 287.313Z" fill="#065A92"/>
<path d="M536.493 295.744C523.382 280.952 512.475 279.491 501.914 289.984C499.271 292.603 498.771 294.25 502.065 296.534C508.003 300.643 513.784 303.812 521.16 299.261C525.417 296.661 530.593 296.22 536.493 295.744Z" fill="#065A92"/>
<path d="M506.569 278.469C496.742 275.301 491.455 277.536 489.508 285.046C489.018 286.923 489.233 287.794 491.32 287.947C495.081 288.219 498.521 288.11 500.621 284.111C501.84 281.816 504.046 280.246 506.569 278.469Z" fill="#065A92"/>
<path d="M493.035 276.498C483.208 273.33 477.921 275.565 475.973 283.075C475.484 284.952 475.698 285.824 477.786 285.976C481.546 286.248 484.986 286.139 487.086 282.141C488.306 279.845 490.512 278.275 493.035 276.498Z" fill="#065A92"/>
<path d="M478.504 270.479C468.677 267.311 463.39 269.545 461.442 277.056C460.953 278.932 461.167 279.804 463.255 279.957C467.015 280.229 470.455 280.12 472.555 276.121C473.775 273.826 475.981 272.256 478.504 270.479Z" fill="#065A92"/>
<path d="M494.479 291.055C494.479 291.055 480.152 289.712 471.292 287.496C460.956 284.91 456.413 277.136 445.864 278.086C441.397 278.488 434.807 281.178 434.807 281.178" stroke="#065A92" stroke-linecap="round"/>
<path d="M152.244 225.766C149.385 233.104 144.766 234.764 137.918 230.744C142.476 228.056 144.763 220.441 152.223 224.79L152.244 225.766Z" fill="#065A92"/>
<path d="M164.832 227.75C161.973 235.088 157.354 236.748 150.506 232.728C155.063 230.04 157.351 222.425 164.81 226.775L164.832 227.75Z" fill="#065A92"/>
<path d="M179.821 226.807C176.962 234.145 172.343 235.805 165.495 231.785C170.052 229.097 172.34 221.482 179.799 225.831L179.821 226.807Z" fill="#065A92"/>
<path d="M112.253 213.848C126.609 205.028 135.862 206.529 141.866 217.689C143.371 220.476 143.37 221.942 140.118 222.99C134.259 224.874 128.761 226.03 123.878 220.499C121.053 217.329 116.944 215.692 112.253 213.848Z" fill="#065A92"/>
<path d="M140.929 207.15C149.725 206.993 153.48 210.12 153.204 216.722C153.137 218.372 152.746 219.03 151.007 218.639C147.874 217.932 145.097 216.994 144.378 213.217C143.953 211.045 142.544 209.221 140.929 207.15Z" fill="#065A92"/>
<path d="M152.45 208.884C161.246 208.728 165.001 211.854 164.725 218.456C164.658 220.107 164.267 220.765 162.528 220.374C159.395 219.667 156.618 218.729 155.899 214.951C155.474 212.779 154.065 210.955 152.45 208.884Z" fill="#065A92"/>
<path d="M165.787 207.57C174.583 207.413 178.338 210.54 178.062 217.142C177.995 218.792 177.604 219.45 175.865 219.059C172.732 218.352 169.955 217.414 169.236 213.637C168.811 211.465 167.402 209.641 165.787 207.57Z" fill="#065A92"/>
<path d="M147.661 220.396C147.661 220.396 159.671 222.838 167.443 223.219C176.509 223.664 182.141 218.449 190.504 221.827C194.044 223.257 198.749 227.077 198.749 227.077" stroke="#065A92" stroke-linecap="round"/>
<path d="M96.3914 239.093C91.3496 246.023 86.0309 246.495 79.9426 240.378C85.4815 238.807 89.9988 231.429 96.6393 238.061L96.3914 239.093Z" fill="#065A92"/>
<path d="M109.083 244.652C104.041 251.582 98.7225 252.054 92.6342 245.937C98.1731 244.366 102.69 236.988 109.331 243.62L109.083 244.652Z" fill="#065A92"/>
<path d="M125.112 247.791C120.07 254.72 114.751 255.193 108.663 249.075C114.202 247.505 118.719 240.126 125.36 246.758L125.112 247.791Z" fill="#065A92"/>
<path d="M57.6316 215.521C75.1777 210.203 84.4941 214.335 87.716 227.73C88.5256 231.077 88.1182 232.618 84.4073 232.824C77.7219 233.189 71.6182 232.888 68.0156 225.724C65.9227 221.611 62.0546 218.755 57.6316 215.521Z" fill="#065A92"/>
<path d="M89.6518 216.39C98.9471 218.652 102.03 222.976 99.9092 229.845C99.3812 231.562 98.7877 232.146 97.0666 231.255C93.9673 229.648 91.3066 227.895 91.5971 223.723C91.7529 221.322 90.7766 219.014 89.6518 216.39Z" fill="#065A92"/>
<path d="M101.289 221.39C110.584 223.652 113.667 227.976 111.546 234.845C111.018 236.562 110.425 237.146 108.704 236.255C105.604 234.648 102.944 232.895 103.234 228.723C103.39 226.322 102.414 224.014 101.289 221.39Z" fill="#065A92"/>
<path d="M115.683 223.687C124.978 225.949 128.061 230.273 125.94 237.142C125.412 238.859 124.818 239.443 123.097 238.552C119.998 236.945 117.337 235.192 117.628 231.02C117.784 228.619 116.807 226.311 115.683 223.687Z" fill="#065A92"/>
<path d="M93.0599 232.18C93.0599 232.18 105.016 238.061 113.085 240.605C122.499 243.574 129.868 239.642 137.728 245.502C141.056 247.983 144.945 253.298 144.945 253.298" stroke="#065A92" stroke-linecap="round"/>
<path d="M617.183 265.096C617.886 274.312 622.507 277.748 631.573 275.562C627.373 270.991 627.407 261.66 617.541 264.007L617.183 265.096Z" fill="#065A92"/>
<path d="M602.367 263.037C603.069 272.253 607.69 275.689 616.757 273.503C612.557 268.933 612.591 259.601 602.725 261.949L602.367 263.037Z" fill="#065A92"/>
<path d="M585.851 256.877C586.554 266.093 591.175 269.529 600.242 267.343C596.042 262.773 596.076 253.441 586.209 255.788L585.851 256.877Z" fill="#065A92"/>
<path d="M666.183 265.309C653.073 250.516 642.165 249.056 631.604 259.548C628.961 262.168 628.461 263.814 631.755 266.098C637.693 270.208 643.474 273.376 650.85 268.825C655.107 266.226 660.283 265.784 666.183 265.309Z" fill="#065A92"/>
<path d="M636.259 248.033C626.432 244.866 621.145 247.1 619.198 254.61C618.709 256.487 618.923 257.359 621.01 257.512C624.771 257.783 628.211 257.674 630.311 253.676C631.53 251.38 633.737 249.811 636.259 248.033Z" fill="#065A92"/>
<path d="M622.725 246.063C612.898 242.895 607.611 245.129 605.663 252.64C605.174 254.516 605.388 255.388 607.476 255.541C611.237 255.813 614.677 255.704 616.776 251.705C617.996 249.41 620.202 247.84 622.725 246.063Z" fill="#065A92"/>
<path d="M608.194 240.043C598.367 236.875 593.08 239.11 591.132 246.62C590.643 248.497 590.857 249.369 592.945 249.521C596.706 249.793 600.146 249.684 602.245 245.686C603.465 243.39 605.671 241.82 608.194 240.043Z" fill="#065A92"/>
<path d="M624.169 260.619C624.169 260.619 609.843 259.276 600.983 257.06C590.646 254.475 586.103 246.701 575.554 247.65C571.088 248.052 564.497 250.743 564.497 250.743" stroke="#065A92" stroke-linecap="round"/>
<path d="M239.462 107.176C246.365 101.011 246.285 95.2623 239.027 89.4178C237.949 95.5235 230.505 101.177 238.378 107.556L239.462 107.176Z" fill="#065A92"/>
<path d="M246.845 120.155C253.747 113.989 253.667 108.241 246.41 102.396C245.331 108.502 237.888 114.155 245.761 120.535L246.845 120.155Z" fill="#065A92"/>
<path d="M251.997 136.975C258.899 130.81 258.82 125.061 251.562 119.217C250.483 125.322 243.04 130.976 250.913 137.355L251.997 136.975Z" fill="#065A92"/>
<path d="M209.805 68.2699C206.02 87.6493 211.497 97.1706 226.272 99.141C229.964 99.6382 231.578 99.0315 231.39 95.0344C231.044 87.834 230.046 81.3302 221.936 78.2635C217.277 76.4767 213.775 72.6495 209.805 68.2699Z" fill="#065A92"/>
<path d="M214.277 102.467C217.739 112.172 222.735 114.996 229.894 111.966C231.685 111.21 232.248 110.51 231.098 108.765C229.025 105.624 226.845 102.968 222.386 103.74C219.818 104.172 217.226 103.382 214.277 102.467Z" fill="#065A92"/>
<path d="M220.949 114.379C224.411 124.084 229.406 126.908 236.566 123.878C238.356 123.123 238.919 122.422 237.77 120.677C235.697 117.536 233.516 114.88 229.058 115.652C226.49 116.084 223.898 115.294 220.949 114.379Z" fill="#065A92"/>
<path d="M225.008 129.539C228.47 139.245 233.465 142.068 240.624 139.038C242.415 138.283 242.978 137.582 241.829 135.838C239.756 132.696 237.575 130.04 233.116 130.812C230.548 131.244 227.957 130.454 225.008 129.539Z" fill="#065A92"/>
<path d="M231.651 104.373C231.651 104.373 239.303 116.528 242.934 124.889C247.169 134.643 243.751 142.97 250.928 150.74C253.966 154.03 260.118 157.608 260.118 157.608" stroke="#065A92" stroke-linecap="round"/>
<path d="M140.148 170.222C142.779 163.054 140.482 158.895 132.916 157.446C134.508 162.315 131.283 169.319 139.506 170.919L140.148 170.222Z" fill="#065A92"/>
<path d="M150.583 176.824C153.213 169.656 150.917 165.496 143.351 164.048C144.942 168.916 141.718 175.921 149.94 177.52L150.583 176.824Z" fill="#065A92"/>
<path d="M160.887 187.087C163.518 179.919 161.222 175.76 153.656 174.312C155.247 179.18 152.023 186.184 160.245 187.784L160.887 187.087Z" fill="#065A92"/>
<path d="M103.382 153.355C108.169 168.947 115.869 173.765 127.405 169.478C130.29 168.41 131.23 167.342 129.537 164.502C126.481 159.387 123.221 155.034 116.115 155.94C112.024 156.442 107.981 155.009 103.382 153.355Z" fill="#065A92"/>
<path d="M119.957 176.55C126.26 182.283 131.001 182.406 135.039 177.424C136.05 176.18 136.188 175.451 134.671 174.625C131.936 173.138 129.313 172.047 126.363 174.337C124.66 175.646 122.463 176.074 119.957 176.55Z" fill="#065A92"/>
<path d="M129.458 182.644C135.76 188.377 140.501 188.5 144.539 183.518C145.55 182.273 145.688 181.545 144.171 180.718C141.437 179.231 138.813 178.14 135.864 180.43C134.161 181.74 131.964 182.168 129.458 182.644Z" fill="#065A92"/>
<path d="M138.318 192.122C144.621 197.855 149.362 197.978 153.4 192.996C154.411 191.752 154.549 191.023 153.032 190.197C150.297 188.71 147.674 187.619 144.725 189.909C143.021 191.219 140.824 191.647 138.318 192.122Z" fill="#065A92"/>
<path d="M133.362 171.207C133.362 171.207 143.673 177.103 149.575 181.79C156.46 187.259 157.211 194.653 165.467 197.536C168.963 198.757 174.84 198.982 174.84 198.982" stroke="#065A92" stroke-linecap="round"/>
<path d="M297.124 171.869C304.867 168.979 306.671 164.175 302.54 156.968C299.657 161.694 291.631 163.983 296.1 171.834L297.124 171.869Z" fill="#065A92"/>
<path d="M299.037 185.045C306.78 182.155 308.585 177.351 304.454 170.144C301.571 174.869 293.544 177.159 298.013 185.01L299.037 185.045Z" fill="#065A92"/>
<path d="M297.848 200.693C305.591 197.803 307.395 192.999 303.264 185.792C300.381 190.518 292.355 192.807 296.824 200.658L297.848 200.693Z" fill="#065A92"/>
<path d="M285.132 129.93C275.681 144.812 277.136 154.499 288.775 160.919C291.682 162.528 293.221 162.546 294.365 159.163C296.42 153.066 297.706 147.337 291.963 142.163C288.672 139.169 287.007 134.855 285.132 129.93Z" fill="#065A92"/>
<path d="M277.723 159.804C277.443 168.991 280.676 172.955 287.613 172.754C289.347 172.706 290.043 172.306 289.655 170.484C288.954 167.201 288.006 164.288 284.049 163.486C281.773 163.015 279.876 161.518 277.723 159.804Z" fill="#065A92"/>
<path d="M279.393 171.86C279.113 181.048 282.346 185.012 289.283 184.811C291.017 184.762 291.713 184.363 291.325 182.54C290.624 179.258 289.676 176.345 285.719 175.543C283.444 175.071 281.546 173.575 279.393 171.86Z" fill="#065A92"/>
<path d="M277.833 185.774C277.553 194.962 280.786 198.926 287.723 198.725C289.457 198.676 290.153 198.277 289.765 196.454C289.064 193.172 288.116 190.259 284.159 189.457C281.884 188.985 279.987 187.489 277.833 185.774Z" fill="#065A92"/>
<path d="M291.544 167.012C291.544 167.012 293.95 179.592 294.247 187.716C294.594 197.195 289.044 203.01 292.481 211.791C293.936 215.509 297.885 220.474 297.885 220.474" stroke="#065A92" stroke-linecap="round"/>
<path d="M624.812 329.776C625.515 338.991 630.135 342.427 639.202 340.241C635.002 335.671 635.036 326.339 625.17 328.687L624.812 329.776Z" fill="#065A92"/>
<path d="M609.996 327.717C610.698 336.933 615.319 340.369 624.386 338.183C620.186 333.613 620.22 324.281 610.354 326.628L609.996 327.717Z" fill="#065A92"/>
<path d="M593.48 321.557C594.183 330.772 598.804 334.209 607.87 332.023C603.67 327.452 603.705 318.121 593.838 320.468L593.48 321.557Z" fill="#065A92"/>
<path d="M673.812 329.988C660.701 315.196 649.794 313.735 639.233 324.228C636.59 326.847 636.09 328.494 639.384 330.778C645.322 334.887 651.103 338.056 658.479 333.505C662.736 330.905 667.912 330.464 673.812 329.988Z" fill="#065A92"/>
<path d="M643.888 312.713C634.061 309.545 628.774 311.78 626.827 319.29C626.338 321.167 626.552 322.039 628.639 322.191C632.4 322.463 635.84 322.354 637.94 318.356C639.159 316.06 641.366 314.49 643.888 312.713Z" fill="#065A92"/>
<path d="M630.354 310.742C620.527 307.575 615.24 309.809 613.292 317.319C612.803 319.196 613.017 320.068 615.105 320.221C618.866 320.492 622.305 320.383 624.405 316.385C625.625 314.089 627.831 312.52 630.354 310.742Z" fill="#065A92"/>
<path d="M615.823 304.723C605.996 301.555 600.709 303.79 598.761 311.3C598.272 313.176 598.486 314.048 600.574 314.201C604.335 314.473 607.774 314.364 609.874 310.365C611.094 308.07 613.3 306.5 615.823 304.723Z" fill="#065A92"/>
<path d="M631.798 325.299C631.798 325.299 617.471 323.956 608.612 321.74C598.275 319.154 593.732 311.38 583.183 312.33C578.716 312.732 572.126 315.422 572.126 315.422" stroke="#065A92" stroke-linecap="round"/>
<path d="M455.205 163.844C455.258 158.52 457.783 156.369 463.078 157.282C460.838 160.069 461.213 165.432 455.452 164.456L455.205 163.844Z" fill="#065A92"/>
<path d="M446.765 165.59C446.817 160.266 449.343 158.115 454.638 159.028C452.398 161.815 452.773 167.178 447.012 166.202L446.765 165.59Z" fill="#065A92"/>
<path d="M437.507 169.756C437.56 164.432 440.085 162.281 445.38 163.194C443.14 165.981 443.515 171.344 437.754 170.368L437.507 169.756Z" fill="#065A92"/>
<path d="M483.363 161.867C476.39 170.867 470.175 172.12 463.705 166.489C462.086 165.083 461.736 164.156 463.542 162.718C466.799 160.131 470.001 158.09 474.415 160.427C476.961 161.76 479.953 161.817 483.363 161.867Z" fill="#065A92"/>
<path d="M466.82 172.933C461.292 175.126 458.168 174.042 456.762 169.799C456.409 168.738 456.499 168.229 457.693 168.062C459.845 167.763 461.826 167.696 463.186 169.915C463.974 171.188 465.302 172.007 466.82 172.933Z" fill="#065A92"/>
<path d="M459.114 174.577C453.586 176.771 450.462 175.687 449.056 171.443C448.704 170.383 448.793 169.874 449.988 169.707C452.139 169.408 454.121 169.34 455.48 171.559C456.268 172.832 457.597 173.651 459.114 174.577Z" fill="#065A92"/>
<path d="M450.99 178.587C445.461 180.78 442.337 179.696 440.932 175.453C440.579 174.393 440.669 173.883 441.863 173.716C444.014 173.418 445.996 173.35 447.355 175.569C448.144 176.842 449.472 177.661 450.99 178.587Z" fill="#065A92"/>
<path d="M459.39 166.154C459.39 166.154 451.205 167.469 446.197 169.079C440.353 170.957 438.038 175.598 431.937 175.452C429.355 175.39 425.464 174.093 425.464 174.093" stroke="#065A92" stroke-linecap="round"/>
<path d="M192.395 166.824C186.442 170.738 182.17 169.552 179.233 163.02C183.999 163.416 189.675 159 192.89 166.094L192.395 166.824Z" fill="#065A92"/>
<path d="M200.631 174.849C194.678 178.763 190.406 177.577 187.469 171.045C192.235 171.442 197.911 167.026 201.126 174.119L200.631 174.849Z" fill="#065A92"/>
<path d="M212.165 181.969C206.213 185.883 201.941 184.697 199.004 178.164C203.77 178.561 209.446 174.145 212.661 181.238L212.165 181.969Z" fill="#065A92"/>
<path d="M169.187 137.188C184.385 138.178 190.414 144.11 188.987 155.461C188.634 158.299 187.865 159.378 184.921 158.454C179.617 156.786 174.962 154.77 174.264 148.15C173.844 144.342 171.676 140.993 169.187 137.188Z" fill="#065A92"/>
<path d="M193.82 147.212C200.381 151.684 201.508 155.945 197.844 160.664C196.93 161.845 196.297 162.125 195.221 160.93C193.284 158.776 191.73 156.637 193.18 153.479C194.006 151.658 193.924 149.58 193.82 147.212Z" fill="#065A92"/>
<path d="M201.397 154.499C207.958 158.971 209.085 163.232 205.421 167.951C204.506 169.132 203.874 169.412 202.797 168.217C200.86 166.063 199.307 163.924 200.756 160.766C201.582 158.945 201.501 156.867 201.397 154.499Z" fill="#065A92"/>
<path d="M211.913 160.479C218.474 164.951 219.601 169.212 215.937 173.931C215.023 175.112 214.39 175.393 213.314 174.198C211.376 172.043 209.823 169.904 211.273 166.747C212.099 164.926 212.017 162.847 211.913 160.479Z" fill="#065A92"/>
<path d="M191.836 160.477C191.836 160.477 199.403 168.539 204.928 172.872C211.373 177.928 218.255 177.023 222.644 183.873C224.503 186.773 225.966 192.04 225.966 192.04" stroke="#065A92" stroke-linecap="round"/>
<path d="M375.923 232.814C372.31 230.85 371.821 228 374.496 223.98C375.53 226.825 379.336 228.452 376.437 232.832L375.923 232.814Z" fill="#065A92"/>
<path d="M373.845 240.377C370.231 238.413 369.742 235.563 372.417 231.543C373.451 234.388 377.257 236.014 374.359 240.394L373.845 240.377Z" fill="#065A92"/>
<path d="M373.1 249.486C369.487 247.522 368.997 244.672 371.673 240.652C372.707 243.497 376.513 245.124 373.614 249.504L373.1 249.486Z" fill="#065A92"/>
<path d="M385.485 208.974C388.926 217.948 387.373 223.505 381.022 226.788C379.435 227.611 378.666 227.564 378.385 225.561C377.881 221.953 377.729 218.586 381.034 215.804C382.931 214.194 384.13 211.757 385.485 208.974Z" fill="#065A92"/>
<path d="M386.628 226.552C385.983 231.884 384.032 234.059 380.59 233.683C379.73 233.59 379.417 233.333 379.766 232.291C380.396 230.416 381.118 228.764 383.159 228.448C384.334 228.26 385.408 227.464 386.628 226.552Z" fill="#065A92"/>
<path d="M384.764 233.474C384.119 238.806 382.168 240.981 378.727 240.605C377.867 240.512 377.554 240.254 377.903 239.213C378.533 237.338 379.254 235.686 381.296 235.37C382.471 235.182 383.544 234.386 384.764 233.474Z" fill="#065A92"/>
<path d="M384.354 241.597C383.709 246.929 381.758 249.104 378.316 248.728C377.456 248.635 377.143 248.377 377.492 247.336C378.122 245.461 378.844 243.809 380.885 243.493C382.06 243.305 383.134 242.509 384.354 241.597Z" fill="#065A92"/>
<path d="M379.122 230.211C379.122 230.211 376.847 237.408 376.005 242.103C375.022 247.58 377.293 251.156 374.829 256.114C373.786 258.213 371.393 260.941 371.393 260.941" stroke="#065A92" stroke-linecap="round"/>
<path d="M610.419 196.086C610.214 191.213 612.826 188.974 618.567 189.234C616.293 192.024 616.96 196.885 610.715 196.619L610.419 196.086Z" fill="#065A92"/>
<path d="M601.425 198.601C601.22 193.729 603.832 191.489 609.573 191.749C607.299 194.539 607.966 199.401 601.721 199.134L601.425 198.601Z" fill="#065A92"/>
<path d="M591.669 203.414C591.465 198.542 594.076 196.302 599.817 196.562C597.544 199.352 598.21 204.213 591.965 203.947L591.669 203.414Z" fill="#065A92"/>
<path d="M640.612 191.224C633.553 200.207 626.929 202.027 619.692 197.582C617.881 196.473 617.459 195.663 619.332 194.152C622.708 191.434 626.053 189.221 630.916 190.878C633.72 191.82 636.942 191.548 640.612 191.224Z" fill="#065A92"/>
<path d="M623.359 203.136C617.519 205.741 614.105 205.089 612.385 201.363C611.953 200.432 612.025 199.956 613.301 199.674C615.601 199.168 617.73 198.891 619.301 200.771C620.211 201.85 621.68 202.454 623.359 203.136Z" fill="#065A92"/>
<path d="M615.151 205.472C609.312 208.077 605.897 207.425 604.177 203.699C603.746 202.768 603.817 202.292 605.094 202.01C607.394 201.504 609.522 201.227 611.093 203.107C612.004 204.186 613.473 204.79 615.151 205.472Z" fill="#065A92"/>
<path d="M606.607 210.021C600.768 212.626 597.353 211.974 595.633 208.247C595.202 207.316 595.274 206.841 596.55 206.559C598.85 206.052 600.978 205.776 602.549 207.656C603.46 208.735 604.929 209.339 606.607 210.021Z" fill="#065A92"/>
<path d="M615.035 197.744C615.035 197.744 606.295 199.834 600.986 201.849C594.792 204.2 592.528 208.694 585.959 209.222C583.178 209.446 578.928 208.683 578.928 208.683" stroke="#065A92" stroke-linecap="round"/>
<path d="M115.663 282.337C115.93 275.968 112.516 273.04 105.01 273.379C107.982 277.027 107.111 283.383 115.276 283.034L115.663 282.337Z" fill="#065A92"/>
<path d="M127.42 285.627C127.687 279.257 124.274 276.329 116.768 276.668C119.74 280.316 118.869 286.672 127.033 286.323L127.42 285.627Z" fill="#065A92"/>
<path d="M140.174 291.916C140.441 285.546 137.027 282.618 129.521 282.957C132.493 286.605 131.622 292.961 139.787 292.612L140.174 291.916Z" fill="#065A92"/>
<path d="M76.1887 275.981C85.4181 287.726 94.0775 290.105 103.538 284.293C105.906 282.843 106.458 281.784 104.009 279.81C99.5949 276.256 95.222 273.363 88.8653 275.529C85.1988 276.761 80.9872 276.405 76.1887 275.981Z" fill="#065A92"/>
<path d="M98.7452 291.553C106.379 294.958 110.843 294.106 113.092 289.235C113.656 288.018 113.562 287.396 111.893 287.027C108.887 286.365 106.104 286.003 104.05 288.462C102.86 289.872 100.939 290.662 98.7452 291.553Z" fill="#065A92"/>
<path d="M109.476 294.608C117.11 298.013 121.574 297.161 123.823 292.289C124.387 291.072 124.293 290.451 122.624 290.082C119.617 289.42 116.835 289.058 114.781 291.517C113.591 292.926 111.67 293.716 109.476 294.608Z" fill="#065A92"/>
<path d="M120.645 300.555C128.279 303.96 132.743 303.108 134.992 298.237C135.556 297.02 135.462 296.398 133.793 296.029C130.787 295.367 128.004 295.005 125.95 297.464C124.76 298.874 122.839 299.664 120.645 300.555Z" fill="#065A92"/>
<path d="M109.628 284.506C109.628 284.506 121.054 287.239 127.995 289.873C136.093 292.946 139.051 298.82 147.64 299.511C151.276 299.804 156.831 298.806 156.831 298.806" stroke="#065A92" stroke-linecap="round"/>
<path d="M50.0319 289.274C47.3347 293.342 43.9029 293.63 39.4038 290.063C42.8851 289.132 45.2014 284.803 50.1052 288.67L50.0319 289.274Z" fill="#065A92"/>
<path d="M58.7953 292.497C56.0981 296.564 52.6664 296.853 48.1673 293.286C51.6485 292.354 53.9649 288.025 58.8687 291.892L58.7953 292.497Z" fill="#065A92"/>
<path d="M69.5276 294.298C66.8304 298.365 63.3987 298.654 58.8996 295.087C62.3808 294.155 64.6972 289.826 69.601 293.693L69.5276 294.298Z" fill="#065A92"/>
<path d="M22.7088 275.564C33.7073 272.412 40.1437 274.809 43.3955 282.642C44.211 284.599 44.0772 285.502 41.6723 285.631C37.3392 285.86 33.3288 285.698 30.3626 281.513C28.6436 279.11 25.8735 277.447 22.7088 275.564Z" fill="#065A92"/>
<path d="M43.687 276C49.9491 277.302 52.3325 279.827 51.5369 283.851C51.3395 284.858 51.0021 285.201 49.8021 284.684C47.641 283.75 45.7537 282.73 45.5857 280.287C45.4815 278.881 44.6463 277.533 43.687 276Z" fill="#065A92"/>
<path d="M51.7117 278.902C57.9739 280.205 60.3573 282.729 59.5617 286.754C59.3643 287.76 59.0269 288.104 57.8269 287.586C55.6658 286.652 53.7785 285.632 53.6104 283.19C53.5062 281.784 52.671 280.435 51.7117 278.902Z" fill="#065A92"/>
<path d="M61.3068 280.212C67.569 281.515 69.9524 284.039 69.1568 288.064C68.9594 289.071 68.622 289.414 67.422 288.896C65.2608 287.962 63.3736 286.943 63.2055 284.5C63.1013 283.094 62.2661 281.746 61.3068 280.212Z" fill="#065A92"/>
<path d="M47.2644 285.234C47.2644 285.234 55.5742 288.65 61.0598 290.121C67.4599 291.837 71.9338 289.519 77.5673 292.931C79.9524 294.376 82.9471 297.478 82.9471 297.478" stroke="#065A92" stroke-linecap="round"/>
<path d="M648.561 283.367C649.749 278.636 652.89 277.226 658.322 279.098C655.349 281.131 654.607 285.982 648.694 283.961L648.561 283.367Z" fill="#065A92"/>
<path d="M639.222 283.232C640.41 278.501 643.551 277.092 648.983 278.963C646.01 280.997 645.268 285.847 639.354 283.827L639.222 283.232Z" fill="#065A92"/>
<path d="M628.499 285.089C629.687 280.359 632.828 278.949 638.26 280.821C635.287 282.854 634.545 287.705 628.631 285.684L628.499 285.089Z" fill="#065A92"/>
<path d="M678.899 287.234C669.577 293.854 662.707 293.727 657.03 287.419C655.609 285.843 655.434 284.947 657.659 284.028C661.669 282.376 665.506 281.199 669.698 284.162C672.12 285.858 675.287 286.508 678.899 287.234Z" fill="#065A92"/>
<path d="M658.969 293.781C652.629 294.629 649.54 293.039 648.949 288.979C648.8 287.964 649.003 287.529 650.308 287.619C652.657 287.783 654.777 288.119 655.749 290.367C656.316 291.659 657.553 292.653 658.969 293.781Z" fill="#065A92"/>
<path d="M650.434 293.703C644.093 294.551 641.004 292.961 640.413 288.901C640.264 287.886 640.468 287.451 641.772 287.541C644.121 287.705 646.241 288.041 647.214 290.289C647.781 291.58 649.018 292.575 650.434 293.703Z" fill="#065A92"/>
<path d="M640.948 295.652C634.607 296.5 631.518 294.91 630.927 290.85C630.778 289.836 630.982 289.4 632.286 289.49C634.636 289.654 636.755 289.99 637.728 292.238C638.295 293.53 639.532 294.524 640.948 295.652Z" fill="#065A92"/>
<path d="M652.517 286.26C652.517 286.26 643.542 285.794 637.878 286.226C631.27 286.73 627.823 290.399 621.373 289.049C618.642 288.478 614.783 286.545 614.783 286.545" stroke="#065A92" stroke-linecap="round"/>
<path d="M487.259 126.864C486 119.865 488.777 116.416 495.953 116.3C493.709 120.512 495.539 127.457 487.736 127.606L487.259 126.864Z" fill="#065A92"/>
<path d="M476.619 131.249C475.36 124.25 478.138 120.801 485.314 120.685C483.069 124.897 484.9 131.841 477.096 131.991L476.619 131.249Z" fill="#065A92"/>
<path d="M465.51 139.015C464.251 132.015 467.028 128.567 474.204 128.45C471.96 132.663 473.79 139.607 465.987 139.757L465.51 139.015Z" fill="#065A92"/>
<path d="M523.714 117.28C516.81 130.82 508.968 134.008 499.072 128.224C496.597 126.781 495.906 125.651 497.918 123.316C501.546 119.113 505.239 115.64 511.613 117.611C515.287 118.728 519.228 118.061 523.714 117.28Z" fill="#065A92"/>
<path d="M504.768 135.908C498.061 140.158 493.69 139.511 490.787 134.292C490.06 132.988 490.051 132.297 491.576 131.782C494.325 130.856 496.908 130.275 499.246 132.849C500.598 134.325 502.545 135.069 504.768 135.908Z" fill="#065A92"/>
<path d="M495.067 139.98C488.36 144.231 483.989 143.583 481.086 138.364C480.359 137.06 480.35 136.37 481.875 135.854C484.624 134.928 487.207 134.347 489.545 136.922C490.897 138.397 492.844 139.142 495.067 139.98Z" fill="#065A92"/>
<path d="M485.406 147.257C478.699 151.508 474.328 150.861 471.425 145.641C470.698 144.338 470.689 143.647 472.214 143.132C474.963 142.206 477.546 141.625 479.884 144.199C481.236 145.674 483.183 146.419 485.406 147.257Z" fill="#065A92"/>
<path d="M493.327 128.857C493.327 128.857 482.915 132.615 476.744 135.97C469.545 139.885 467.664 146.55 459.623 147.872C456.219 148.432 450.789 147.696 450.789 147.696" stroke="#065A92" stroke-linecap="round"/>
<path d="M482.82 195.035C488.667 199.105 492.969 198.031 496.078 191.579C491.303 191.85 485.746 187.286 482.344 194.292L482.82 195.035Z" fill="#065A92"/>
<path d="M474.375 202.838C480.222 206.907 484.524 205.834 487.633 199.382C482.858 199.652 477.301 195.089 473.899 202.095L474.375 202.838Z" fill="#065A92"/>
<path d="M462.656 209.654C468.502 213.724 472.805 212.651 475.913 206.198C471.139 206.469 465.581 201.905 462.179 208.911L462.656 209.654Z" fill="#065A92"/>
<path d="M506.804 166.021C491.585 166.61 485.402 172.381 486.527 183.765C486.805 186.612 487.545 187.711 490.513 186.865C495.859 185.337 500.566 183.445 501.439 176.845C501.959 173.049 504.216 169.759 506.804 166.021Z" fill="#065A92"/>
<path d="M481.915 175.391C475.238 179.688 473.998 183.918 477.536 188.732C478.419 189.937 479.044 190.234 480.151 189.068C482.145 186.965 483.754 184.868 482.389 181.673C481.611 179.831 481.748 177.755 481.915 175.391Z" fill="#065A92"/>
<path d="M474.148 182.473C467.471 186.77 466.231 191 469.769 195.814C470.652 197.019 471.277 197.316 472.384 196.15C474.378 194.047 475.988 191.95 474.622 188.755C473.844 186.913 473.981 184.837 474.148 182.473Z" fill="#065A92"/>
<path d="M463.477 188.18C456.8 192.478 455.561 196.707 459.098 201.522C459.981 202.726 460.606 203.023 461.714 201.857C463.707 199.754 465.317 197.657 463.951 194.462C463.174 192.62 463.31 190.544 463.477 188.18Z" fill="#065A92"/>
<path d="M483.547 188.705C483.547 188.705 475.769 196.565 470.131 200.751C463.554 205.636 456.699 204.55 452.13 211.282C450.195 214.132 448.593 219.358 448.593 219.358" stroke="#065A92" stroke-linecap="round"/>
<path d="M467.696 95.6114C474.424 97.9632 478.279 95.7759 479.534 88.7273C475.008 90.2685 468.425 87.3629 467.037 95.0236L467.696 95.6114Z" fill="#065A92"/>
<path d="M461.665 105.391C468.393 107.742 472.248 105.555 473.503 98.5066C468.977 100.048 462.394 97.1422 461.006 104.803L461.665 105.391Z" fill="#065A92"/>
<path d="M452.214 115.1C458.942 117.451 462.797 115.264 464.052 108.216C459.526 109.757 452.943 106.851 451.555 114.512L452.214 115.1Z" fill="#065A92"/>
<path d="M482.977 61.2336C468.477 65.8822 464.076 73.0987 468.229 83.7626C469.264 86.4295 470.273 87.2894 472.904 85.679C477.641 82.7739 481.665 79.6887 480.727 73.0982C480.205 69.3027 481.491 65.5279 482.977 61.2336Z" fill="#065A92"/>
<path d="M461.529 76.9321C456.256 82.862 456.203 87.2687 460.908 90.9568C462.083 91.8801 462.765 91.9989 463.517 90.5786C464.87 88.0187 465.856 85.5669 463.679 82.8561C462.434 81.2901 462.006 79.2542 461.529 76.9321Z" fill="#065A92"/>
<path d="M455.958 85.8384C450.685 91.7683 450.631 96.175 455.336 99.863C456.511 100.786 457.193 100.905 457.946 99.4848C459.299 96.925 460.284 94.4732 458.108 91.7624C456.862 90.1964 456.435 88.1605 455.958 85.8384Z" fill="#065A92"/>
<path d="M447.218 94.1958C441.945 100.126 441.891 104.532 446.596 108.22C447.771 109.144 448.453 109.263 449.206 107.842C450.559 105.282 451.544 102.831 449.367 100.12C448.122 98.5538 447.694 96.5179 447.218 94.1958Z" fill="#065A92"/>
<path d="M466.69 89.3203C466.69 89.3203 461.317 98.9768 457.016 104.521C451.997 110.989 445.101 111.782 442.515 119.491C441.42 122.755 441.286 128.218 441.286 128.218" stroke="#065A92" stroke-linecap="round"/>
<path d="M580.312 168.692C576.19 160.404 578.185 155.291 586.644 152.972C585.568 158.87 590.346 166.917 581.156 169.467L580.312 168.692Z" fill="#065A92"/>
<path d="M569.355 177.35C565.233 169.062 567.228 163.949 575.688 161.631C574.611 167.528 579.389 175.575 570.199 178.125L569.355 177.35Z" fill="#065A92"/>
<path d="M559.106 190.333C554.985 182.045 556.98 176.932 565.439 174.613C564.363 180.511 569.14 188.558 559.951 191.108L559.106 190.333Z" fill="#065A92"/>
<path d="M619.906 145.775C616.812 164.639 608.718 170.963 594.819 166.797C591.344 165.761 590.101 164.57 591.607 161.068C594.327 154.762 597.398 149.342 605.691 149.852C610.464 150.122 614.883 148.102 619.906 145.775Z" fill="#065A92"/>
<path d="M604.455 174.585C598.105 181.882 592.683 182.405 587.282 176.82C585.931 175.425 585.66 174.573 587.274 173.472C590.183 171.492 593.026 169.99 596.763 172.47C598.919 173.888 601.506 174.22 604.455 174.585Z" fill="#065A92"/>
<path d="M594.491 182.569C588.141 189.867 582.719 190.389 577.318 184.804C575.967 183.41 575.696 182.557 577.31 181.456C580.219 179.476 583.062 177.974 586.799 180.455C588.955 181.872 591.542 182.205 594.491 182.569Z" fill="#065A92"/>
<path d="M585.78 194.511C579.43 201.808 574.009 202.331 568.608 196.745C567.256 195.351 566.985 194.498 568.599 193.398C571.508 191.418 574.351 189.916 578.088 192.396C580.245 193.814 582.832 194.146 585.78 194.511Z" fill="#065A92"/>
<path d="M588.249 169.32C588.249 169.32 577.324 177.129 571.272 183.155C564.213 190.185 564.489 199.01 555.457 203.084C551.634 204.809 544.924 205.543 544.924 205.543" stroke="#065A92" stroke-linecap="round"/>
<path d="M426.938 122.78C434.012 123.66 437.316 120.709 437.049 113.555C432.952 116.016 425.902 114.564 426.169 122.344L426.938 122.78Z" fill="#065A92"/>
<path d="M423.116 133.61C430.191 134.49 433.495 131.539 433.228 124.385C429.131 126.846 422.081 125.394 422.348 133.174L423.116 133.61Z" fill="#065A92"/>
<path d="M415.936 145.092C423.011 145.972 426.315 143.021 426.047 135.867C421.95 138.328 414.9 136.876 415.167 144.657L415.936 145.092Z" fill="#065A92"/>
<path d="M434.586 85.9548C421.399 93.556 418.628 101.537 424.947 111.085C426.524 113.473 427.692 114.101 429.922 111.972C433.936 108.134 437.216 104.269 434.902 98.0257C433.587 94.4261 434.044 90.4654 434.586 85.9548Z" fill="#065A92"/>
<path d="M416.951 105.825C413.054 112.733 413.936 117.051 419.316 119.664C420.66 120.319 421.352 120.291 421.787 118.744C422.567 115.956 423.01 113.352 420.308 111.162C418.759 109.894 417.909 107.994 416.951 105.825Z" fill="#065A92"/>
<path d="M413.393 115.704C409.496 122.612 410.378 126.93 415.758 129.543C417.102 130.197 417.794 130.17 418.229 128.623C419.009 125.835 419.452 123.231 416.75 121.041C415.201 119.773 414.351 117.873 413.393 115.704Z" fill="#065A92"/>
<path d="M406.623 125.714C402.726 132.622 403.607 136.94 408.988 139.552C410.332 140.207 411.024 140.179 411.458 138.632C412.238 135.845 412.681 133.241 409.979 131.05C408.43 129.782 407.581 127.883 406.623 125.714Z" fill="#065A92"/>
<path d="M424.621 116.84C424.621 116.84 421.416 127.411 418.387 133.737C414.852 141.117 408.281 143.346 407.387 151.426C407.008 154.847 408.035 160.216 408.035 160.216" stroke="#065A92" stroke-linecap="round"/>
<path d="M524.781 170.971C522.321 164.667 524.281 160.94 530.959 159.522C529.637 163.864 532.619 170.013 525.362 171.577L524.781 170.971Z" fill="#065A92"/>
<path d="M515.653 177.01C513.194 170.706 515.154 166.98 521.832 165.561C520.509 169.903 523.492 176.052 516.235 177.616L515.653 177.01Z" fill="#065A92"/>
<path d="M506.707 186.284C504.248 179.979 506.208 176.253 512.886 174.834C511.563 179.176 514.546 185.325 507.289 186.89L506.707 186.284Z" fill="#065A92"/>
<path d="M560.21 153.571C556.249 167.472 549.513 171.879 539.214 168.287C536.638 167.392 535.786 166.463 537.235 163.916C539.851 159.329 542.661 155.413 548.974 156.089C552.608 156.461 556.165 155.119 560.21 153.571Z" fill="#065A92"/>
<path d="M542.785 176.216C537.303 181.409 533.105 181.603 529.437 177.26C528.519 176.176 528.384 175.533 529.713 174.773C532.109 173.407 534.414 172.393 537.069 174.37C538.602 175.5 540.556 175.84 542.785 176.216Z" fill="#065A92"/>
<path d="M534.476 181.787C528.995 186.979 524.796 187.173 521.128 182.831C520.21 181.746 520.075 181.103 521.404 180.344C523.8 178.977 526.106 177.964 528.76 179.94C530.293 181.07 532.247 181.41 534.476 181.787Z" fill="#065A92"/>
<path d="M526.795 190.343C521.314 195.536 517.115 195.73 513.447 191.387C512.529 190.303 512.394 189.66 513.723 188.9C516.119 187.534 518.424 186.52 521.079 188.497C522.612 189.627 524.566 189.967 526.795 190.343Z" fill="#065A92"/>
<path d="M530.811 171.725C530.811 171.725 522.37 176.811 517.618 180.912C512.074 185.696 505.01 194.785 505.01 194.785" stroke="#065A92" stroke-linecap="round"/>
<path d="M490.72 166.852C484.314 154.327 484.628 152.465 494.433 145.103C498.12 159.086 498.12 159.086 490.95 166.944L490.72 166.852Z" fill="#065A92"/>
<path d="M431.215 200.37C445.277 199.385 446.715 198.157 447.982 185.981C434.07 190.041 434.07 190.041 431.018 200.221L431.215 200.37Z" fill="#065A92"/>
<path d="M381.204 149.22C373.279 146.46 371.339 141.625 375.369 134.216C378.402 138.948 386.6 141.091 382.243 149.161L381.204 149.22Z" fill="#065A92"/>
<g clip-path="url(#clip0_0_1)">
<path d="M102.446 45.4484C105.383 45.5259 108.265 46.2811 110.869 47.6557C108.475 48.4513 106.154 49.4545 103.933 50.6541C103.439 57.0848 95.3286 59.7705 95.3286 59.7705C91.1628 70.7881 69.2251 77.4293 69.2251 77.4293L69.4254 93.525C68.033 96.6446 65.5265 94.1311 65.5265 94.1311C63.7319 96.3448 61.0264 95.1327 61.0264 95.1327C58.1375 98.3544 54.5275 95.8408 54.5275 95.8408C50.7804 98.3926 47.9255 95.9875 47.9255 95.9875L57.8804 71.694C58.9104 65.7819 61.305 60.1992 64.8718 55.3942C55.1167 55.241 47.8425 46.9412 47.8425 46.9412C49.1128 47.5409 54.5404 47.0369 54.5404 47.0369C47.7314 43.7195 45.1013 33.7609 45.1013 33.7609C45.1013 33.7609 45.098 32.6509 45.5012 33.8566C45.9043 35.0624 51.3168 37.9842 51.3168 37.9842C48.9052 35.3686 47.1628 21.0783 47.1628 21.0783C47.8012 22.4882 55.7898 30.0097 55.7898 30.0097C49.9739 23.6684 49.1107 4.35101 49.1107 4.35101C50.2353 7.11338 56.9565 15.0432 64.2747 23.2091C64.2327 9.13571 70.4083 -0.0253906 70.4083 -0.0253906C68.4692 4.80396 84.8461 45.4037 84.8461 45.4037C95.1866 37.6716 100.293 42.048 102.446 45.4484Z" fill="#FFB35B"/>
</g>
<g clip-path="url(#clip1_0_1)">
<path d="M381.214 168.169C376.875 162.631 369.292 162.126 362.91 164.191C361.973 164.515 361.006 164.751 360.022 164.897C358.895 165.156 357.743 165.306 356.585 165.345C354.862 165.408 352.86 165.345 351.263 164.558C350.885 164.454 350.477 164.332 350.034 164.191C343.648 162.126 336.066 162.622 331.727 168.169C327.025 174.169 326.091 182.292 328.086 189.455C329.192 193.409 331.342 197.005 333.657 200.406C335.856 203.628 338.058 206.995 340.622 209.957C340.738 210.092 340.855 210.227 340.978 210.359C343.17 212.775 346.655 213.634 348.414 213.565C350.574 213.481 351.37 211.651 353.701 212.856C354.102 213.063 354.622 213.358 355.146 213.594C355.534 213.783 355.953 213.902 356.385 213.945H356.592C357.005 213.904 357.408 213.793 357.782 213.616C358.309 213.38 358.826 213.085 359.227 212.878C361.558 211.673 362.354 213.506 364.513 213.587C366.289 213.656 369.774 212.797 371.95 210.381C372.07 210.249 372.19 210.114 372.306 209.979C374.87 207.017 377.072 203.65 379.267 200.428C381.586 197.027 383.736 193.431 384.839 189.471C386.853 182.292 385.919 174.169 381.214 168.169Z" fill="#FFB35B"/>
<path d="M356.493 213.945L356.442 213.768V213.945H356.336C355.905 213.898 355.486 213.778 355.099 213.59L354.993 213.528C354.649 213.372 354.315 213.191 354.029 213.032L353.666 212.842C352.333 212.154 351.549 212.531 350.637 212.945C349.983 213.301 349.257 213.513 348.51 213.568C346.763 213.63 343.213 212.814 340.938 210.321C340.816 210.191 340.697 210.053 340.582 209.919C338.333 207.336 336.373 204.433 334.478 201.622L333.659 200.416C331.558 197.338 329.258 193.63 328.101 189.486C325.946 181.802 327.311 173.845 331.738 168.199C336.332 162.341 344.25 162.279 350.132 164.186C350.576 164.329 350.974 164.447 351.344 164.547C352.988 165.351 355.003 165.382 356.577 165.323C357.714 165.287 358.846 165.14 359.953 164.884C360.926 164.741 361.882 164.507 362.809 164.186C368.688 162.285 376.622 162.338 381.2 168.199C385.627 173.845 386.983 181.802 384.85 189.486C383.693 193.627 381.39 197.338 379.289 200.416L378.47 201.622C376.565 204.426 374.595 207.336 372.366 209.919C372.247 210.053 372.128 210.191 372.009 210.321C369.761 212.814 366.182 213.63 364.46 213.568C363.712 213.513 362.985 213.3 362.33 212.945C361.421 212.521 360.637 212.154 359.304 212.842L358.941 213.032C358.642 213.191 358.299 213.372 357.977 213.528L357.871 213.59C357.473 213.78 357.044 213.899 356.602 213.942L356.493 213.945ZM356.442 213.587H356.545C356.908 213.553 357.264 213.459 357.595 213.309L357.695 213.25C358.064 213.088 358.433 212.892 358.758 212.717L359.124 212.524C360.621 211.752 361.527 212.175 362.484 212.624C363.094 212.955 363.77 213.155 364.466 213.21C366.114 213.278 369.549 212.481 371.727 210.094C371.846 209.963 371.961 209.832 372.077 209.698C374.297 207.134 376.253 204.236 378.161 201.435L378.98 200.229C381.065 197.173 383.349 193.496 384.493 189.402C386.607 181.824 385.267 173.985 380.908 168.423C376.433 162.718 368.684 162.674 362.918 164.535C361.98 164.861 361.012 165.099 360.027 165.245C358.902 165.503 357.754 165.653 356.599 165.691C354.993 165.75 352.905 165.715 351.218 164.89C350.874 164.799 350.473 164.681 350.02 164.535C344.263 162.665 336.528 162.718 332.03 168.423C327.674 173.975 326.334 181.815 328.435 189.393C329.589 193.496 331.873 197.163 333.958 200.22L334.777 201.426C336.679 204.23 338.632 207.125 340.88 209.689C340.996 209.823 341.112 209.954 341.231 210.085C343.405 212.481 346.846 213.269 348.488 213.2C349.184 213.147 349.861 212.947 350.47 212.615C351.433 212.166 352.333 211.742 353.833 212.515L354.199 212.708C354.521 212.883 354.89 213.079 355.26 213.241L355.369 213.3C355.691 213.449 356.038 213.543 356.394 213.577L356.442 213.587Z" fill="#FFB35B"/>
<path d="M354.375 157.794C354.736 154.83 357.213 154.555 357.981 154.593C358.749 154.631 360.552 156.802 359.02 161.145C357.487 165.489 357.217 167.934 358.435 171.766C359.272 174.451 361.504 176.317 362.763 177.191C362.022 177.445 361.265 177.659 360.495 177.832L360.361 177.854C360.26 177.854 360.156 177.883 360.051 177.889C359.488 177.932 358.922 177.899 358.371 177.79C357.812 176.714 357.184 175.666 356.492 174.653C354.137 171.11 354.851 166.331 355.457 162.919C356.063 159.506 354.278 158.437 354.375 157.794Z" fill="#FFB35B"/>
</g>
<path d="M371.855 557.828C369.735 544.949 354.856 529.868 353.415 532.25C351.923 529.868 342.139 545.501 334.974 557.828C327.788 570.19 331.99 582.43 334.84 585.966C338.192 590.191 349.711 603.074 353.415 604C357.055 603.074 367.142 592.567 372.124 585.966C374.605 582.244 374.734 575.316 371.855 557.828Z" fill="#FFB35B"/>
<defs>
<clipPath id="clip0_0_1">
<rect width="65.714" height="97.0213" fill="white" transform="matrix(1 0 0.00298482 0.999996 45 0)"/>
</clipPath>
<clipPath id="clip1_0_1">
<rect width="62.938" height="74.1924" fill="white" transform="translate(325 139.752)"/>
</clipPath>
</defs>
</svg>
