<svg width="1240" height="660" viewBox="0 0 1240 660" fill="none" xmlns="http://www.w3.org/2000/svg">
<g clip-path="url(#clip0_837_4447)">
<path d="M379.788 531.632C386.064 532.412 399.265 531.125 406.318 526.882C397.604 528.154 388.426 520.276 384.555 518.756C376.207 515.464 366.102 517.609 369.456 520.986C365.983 520.315 353.354 528.193 379.788 531.632Z" fill="#FFB35B"/>
<path d="M860.57 427.886C873.846 425.741 876.748 421.802 877.416 419.01C878.495 414.682 873.102 414.12 869.781 416.624C866.189 419.369 867.548 423.339 860.57 427.886Z" fill="#FFB35B"/>
<path d="M775.18 472.88C802.961 473.067 806.553 469.947 807.47 468.13C808.548 465.993 805.776 464.308 802.994 464.558C798.648 464.94 797.483 468.777 775.18 472.88Z" fill="#FFB35B"/>
<path d="M843.141 463.566C854.777 458.738 861.82 453.731 864.301 450.432C867.363 446.361 862.985 447.234 862.359 447.5C862.683 447.008 861.389 445.16 855.349 448.092C848.781 451.282 844.144 460.961 843.141 463.566Z" fill="#FFB35B"/>
<path d="M623.922 120.897C637.209 118.752 640.099 114.821 640.779 112.021C641.857 107.693 636.465 107.131 633.143 109.681C629.541 112.38 630.91 116.35 623.922 120.897Z" fill="#FFB35B"/>
<path d="M934.445 306.232C946.082 301.397 953.135 296.397 955.605 293.098C958.668 289.019 954.289 289.893 953.675 290.158C953.987 289.666 952.693 287.818 946.654 290.751C940.086 293.956 935.448 303.619 934.445 306.232Z" fill="#FFB35B"/>
<path d="M769.023 332.648C780.66 327.813 787.714 322.813 790.183 319.514C793.246 315.435 788.868 316.309 788.253 316.574C788.566 316.082 787.271 314.234 781.232 317.167C774.664 320.356 770.037 330.035 769.023 332.648Z" fill="#FFB35B"/>
<path d="M817.716 494.289C801.333 495.326 790.57 498.789 787.216 501.402C783.064 504.639 790.214 504.6 791.099 504.522C790.667 504.927 789.373 508.024 797.839 507.041C807.06 505.988 816.411 496.691 817.716 494.289Z" fill="#FFB35B"/>
<path d="M710.148 57.223C715.681 61.6218 725.495 63.517 731.039 62.7371C737.973 61.7544 732.117 58.8921 731.438 58.6347C732.106 58.5021 735.676 56.8798 729.626 55.2966C724.535 53.9629 713.039 56.3339 710.148 57.223Z" fill="#FFB35B"/>
<path d="M328.378 241.209C322.252 245.031 320.828 251.098 322.899 254.296C325.541 258.297 329.176 254.46 329.467 254.031C329.79 254.413 332.94 256.371 334.503 252.557C335.819 249.367 330.243 242.808 328.378 241.209Z" fill="#FFB35B"/>
<path d="M434.792 161.469C428.666 165.29 427.242 171.358 429.313 174.556C431.955 178.557 435.579 174.712 435.881 174.291C436.204 174.673 439.354 176.631 440.917 172.817C442.201 169.627 436.625 163.068 434.792 161.469Z" fill="#FFB35B"/>
<path d="M251.977 230.096C250.844 231.712 250.421 233.54 250.764 235.336C251.107 237.131 252.2 238.807 253.896 240.141C257.542 242.637 258.404 239.439 258.437 239.096C258.836 239.322 261.91 240.282 261.349 237.388C260.863 234.923 254.015 230.993 251.977 230.096Z" fill="#FFB35B"/>
<path d="M257.639 359.742C255.159 365.475 257.445 370.825 259.926 372.463C262.406 374.101 263.301 371.566 263.355 371.277C263.614 371.449 265.512 372.057 265.685 369.593C265.857 367.128 260.077 361.536 257.639 359.742Z" fill="#FFB35B"/>
<path d="M799.663 100.533C797.182 106.266 799.469 111.616 801.949 113.254C804.43 114.892 805.325 112.365 805.39 112.068C805.638 112.24 807.547 112.848 807.708 110.384C807.87 107.919 802.046 102.358 799.663 100.533Z" fill="#FFB35B"/>
<path d="M479.775 94.1138C481.608 88.6543 477.618 82.7034 473.099 80.5508C467.448 77.8522 467.707 82.5084 467.825 82.992C467.232 82.758 462.951 82.0873 464.892 86.0025C466.542 89.3016 476.852 93.3104 479.775 94.1138Z" fill="#FFB35B"/>
<path d="M738.652 204.576C737.013 210.036 741.197 215.955 745.781 218.053C751.518 220.674 751.098 216.018 750.968 215.542C751.572 215.768 755.875 216.384 753.805 212.492C752.047 209.209 741.618 205.341 738.652 204.576Z" fill="#FFB35B"/>
<path d="M589.773 443.18C592.448 448.725 597.97 451.822 601.766 452.485C606.468 453.264 605.864 450.8 605.713 450.503C606.296 450.574 610.599 450.418 608.604 447.633C606.436 444.607 593.128 443.157 589.773 443.18Z" fill="#FFB35B"/>
<path d="M518.992 482.246C519.79 487.261 523.673 490.474 526.747 491.434C530.543 492.619 530.683 490.428 530.64 490.155C531.114 490.279 534.824 490.591 533.875 488.01C532.818 485.202 521.85 482.581 518.992 482.246Z" fill="#FFB35B"/>
<path d="M391.648 485.178C404.59 485.865 411.568 483.455 413.477 481.684C415.386 479.914 412.862 479.196 412.528 479.134C412.754 478.931 413.606 477.363 410.554 476.903C406.618 476.318 395.596 482.316 391.648 485.178Z" fill="#FFB35B"/>
<path d="M283.805 470.103C294.719 469.924 300.823 471.608 303.358 473.121C306.528 475.009 304.318 475.945 303.972 476.031C304.393 476.311 307.046 478.932 303.12 479.891C297.329 481.295 285.552 472.295 283.805 470.103Z" fill="#FFB35B"/>
<path d="M231.066 495.123C205.506 497.822 199.682 478.019 205.258 469.893C205.258 469.893 204.179 480.188 218.415 482.91C232.651 485.632 233.6 494.858 231.066 495.123Z" fill="#FFB35B"/>
<path d="M190.851 393.194C173.886 384.864 186.095 373.22 195.737 371.449C195.737 371.449 187.022 375.973 193.116 382.61C199.209 389.247 192.533 394.02 190.851 393.194Z" fill="#FFB35B"/>
<path d="M916.24 111.788C928.977 112.654 918.688 92.6172 918.688 92.6172C918.688 92.6172 908.065 111.234 916.24 111.788Z" fill="#FFB35B"/>
<path d="M917.454 216.742C927.376 221.819 936.22 201.51 936.22 201.51C936.22 201.51 911.091 213.435 917.454 216.742Z" fill="#FFB35B"/>
<path d="M536.415 455.737C536.415 455.737 503.812 431.722 495.961 429.663C488.109 427.604 464.005 419.634 459.821 416.116C459.821 416.116 444.496 419.002 437.399 403.84L430.82 383.164C430.82 383.164 451.57 399.862 456.37 399.309C461.169 398.755 458.268 392.71 458.268 392.71C458.268 392.71 483.321 411.015 492.65 414.907C501.979 418.799 525.684 423.962 532.748 427.324C534.635 428.221 548.116 425.592 555.633 429.219C558.394 430.584 536.415 455.737 536.415 455.737Z" fill="#065A92"/>
<path d="M456.516 399.457C459.417 394.059 440.339 376.94 445.149 357.605L446.001 357.738C442.614 370.162 453.335 387.219 465.317 397.702L456.516 399.457Z" fill="#00090E"/>
<path d="M461.753 397.031C460.901 366.614 495.38 330.004 496.685 314.101C498.109 296.67 486.979 263.32 453.352 243.861L453.707 243.479C487.701 263.133 501.463 296.358 499.64 314.889C498.066 330.971 463.694 370.568 468.558 400.042L461.753 397.031Z" fill="#00090E"/>
<path d="M337.844 425.975V425.195C353.223 424.898 368.645 420.593 375.699 417.801C383.485 414.681 385.491 414.361 398.002 414.79C410.512 415.219 445.455 414.845 440.375 408.652L459.864 416.14C440.02 418.659 414.858 416.92 402.165 416.459C389.471 415.999 383.755 416.28 376.281 419.22C365.485 423.502 350.16 425.764 337.844 425.975Z" fill="#00090E"/>
<path d="M379.21 416.483C358.158 413.613 351.169 401.024 333.773 396.376L334.27 395.869C353.769 401.079 357.36 412.17 383.265 415.204L379.21 416.483Z" fill="#00090E"/>
<path d="M440.369 404.596C424.386 402.256 413.569 392.257 390.241 384.879C372.176 379.17 362.869 379.318 354.349 380.761C336.284 383.81 309.764 374.42 301.74 363.493C298.354 358.892 293.598 352.574 282.953 350.624L283.05 350.312C294.137 352.34 297.879 357.425 301.384 362.175C309.764 373.578 337.309 381.767 355.201 378.749C363.829 377.282 373.535 375.972 391.934 381.775C414.744 388.989 418.044 387.164 421.549 386.454L440.369 404.596Z" fill="#00090E"/>
<path d="M389.374 381.994C389.126 381.737 371.892 359.657 354.28 351.288C337.682 343.403 325.161 344.347 311.141 345.15C297.12 345.954 284.34 343.824 274.148 336.025L274.472 335.791C284.373 343.372 297.638 344.23 311.313 343.442C324.794 342.662 339.354 341.578 356.254 349.604C374.016 358.042 400.709 384.763 400.957 385.028L389.374 381.994Z" fill="#00090E"/>
<path d="M316.16 343.591C305.073 333.451 273.021 327.438 261.891 314.234L262.333 314.023C273.527 326.58 308.492 333.576 320.83 343.427L316.16 343.591Z" fill="#00090E"/>
<path d="M339.01 379.928C327.373 385.606 301.77 383.976 288.914 392.04L289.173 392.282C301.856 384.74 329.94 386.159 342.375 380.957L339.01 379.928Z" fill="#00090E"/>
<path d="M301.999 363.478C295.377 359.766 286.792 359.961 286.695 359.953V359.711C287.094 359.711 296.326 359.711 300.996 362.168L301.999 363.478Z" fill="#00090E"/>
<path d="M359.962 408.761C357.638 405.094 356.179 401.172 355.648 397.156L356.554 397C357.029 400.853 359.962 407.209 364.557 410.906L359.962 408.761Z" fill="#00090E"/>
<path d="M438.966 404.199C419.392 390.402 406.223 381.971 405.35 366.91C404.875 358.861 389.841 350.641 390.456 331.868C390.449 326.738 390.914 321.613 391.847 316.527C394.554 313.781 400.367 310.108 399.45 299.236C401.694 295.804 403.667 294.236 407.075 292.731C413.007 290.111 414.377 284.043 415.434 278.583C420.901 250.358 443.798 233.347 475.02 218.146L475.581 218.755C444.714 233.823 425.086 252.073 420.341 281.305C419.37 287.381 415.509 293.909 412.683 296.124C407.636 300.024 401.338 324.802 401.133 330.651C400.648 344.69 416.62 353.082 418 359.361C419.305 365.265 418.96 373.649 434.437 386.05L438.966 404.199Z" fill="#00090E"/>
<path d="M653.853 486.934C663.322 482.676 692.894 465.096 696.842 452.516C700.789 439.936 677.343 419.268 677.343 419.268C677.343 419.268 656.021 430.85 649.96 431.084C643.899 431.317 637.18 426.162 631.529 425.624C625.877 425.086 589.468 439.951 583.363 439.795C577.259 439.639 558.558 427.964 552.087 428.978C545.616 429.992 536.935 434.96 536.935 434.96C536.935 434.96 530.464 452.04 537.733 456.743C581.228 484.86 600.112 511.12 653.853 486.934Z" fill="#065A92"/>
<path d="M593.451 509.552C592.125 498.633 580.283 484.204 578.978 472.763C577.835 462.709 586.161 457.663 598.056 457.468C609.952 457.273 578.751 448.211 568.29 455.23C552.253 465.985 571.752 485.842 576.735 495.076C581.717 504.311 594.756 520.229 593.451 509.552Z" fill="#065A92"/>
<path d="M563.739 470.15C558.206 459.824 551.304 448.897 554.96 445.762C566.597 435.755 585.158 448.811 589.472 445.871C616.24 434.523 648.454 436.863 661.234 450.668C666.627 459.013 605.595 454.887 629.645 509.326C633.722 505.832 639.503 500.801 641.821 501.815C644.388 502.938 643.277 510.535 643.126 515.121C645.165 503.5 651.291 488.954 656.457 486.31C665.58 481.631 690.785 463.497 694.732 450.917C698.679 438.337 677.304 419.268 677.304 419.268C677.304 419.268 655.982 430.85 649.921 431.084C643.86 431.317 637.141 426.162 631.49 425.624C625.838 425.086 589.429 439.951 583.324 439.795C577.22 439.639 558.519 427.964 552.048 428.978C545.577 429.992 536.896 434.96 536.896 434.96C536.896 434.96 530.425 452.04 537.694 456.743C547.799 463.248 557.193 462.156 563.739 470.15Z" fill="#065A92"/>
<path d="M650.654 442.026C644.064 439.803 629.85 439.951 625.525 446.222C621.2 452.492 624.63 456.743 624.63 456.743C624.63 456.743 608.97 447.337 623.346 435.56L634.962 432.9L649.262 437.674L650.654 442.026Z" fill="#065A92"/>
<path d="M690.165 457.818C701.899 448.459 713.762 429.07 716.922 424.328C716.922 424.328 727.642 423.353 732.302 420.491C736.961 417.628 752.049 421.099 747.94 415.109C743.831 409.119 738.136 408.448 740.39 406.647C742.644 404.845 750.959 403.387 752.113 401.686C753.343 399.861 761.626 390.728 766.867 388.825C772.108 386.922 741.922 391.352 739.765 388.092C738.298 385.862 745.75 355.866 764.214 348.815C782.678 341.764 769.175 339.932 765.195 338.192C761.216 336.453 761.83 326.766 762.607 321.689C763.384 316.612 768.258 295.273 767.999 285.11C767.741 274.948 772.874 257.345 771.968 252.798C771.062 248.251 764.872 239.867 769.121 223.761L767.579 222.201C767.579 222.201 760.752 236.879 763.405 246.145C765.379 253.032 760.526 257.766 762.92 267.601C765.314 277.436 753.213 297.098 748.263 299.305C743.313 301.512 744.37 306.87 744.37 306.87C744.37 306.87 729.681 302.901 732.345 316.775C735.009 330.65 734.609 347.77 734.469 350.039C734.469 350.039 715.941 370.154 712.382 386.61C712.382 386.61 701.004 395.603 693.789 392.429C686.574 389.254 677.827 381.962 679.769 400.774C679.769 400.774 674.851 399.807 677.838 407.349C680.825 414.891 671.141 422.511 671.141 422.511C684.352 420.74 697.175 439.536 690.165 457.818Z" fill="#065A92"/>
<path d="M586.276 441.433C591.409 441.628 622.006 430.974 626.751 431.567C635.013 432.589 639.478 433.907 648.321 430.997C642.724 430.381 635.811 424.345 630.688 423.83C625.037 423.276 589.554 439.928 583.418 439.772C582.043 439.65 580.711 439.343 579.492 438.867C582.285 440.318 584.755 441.363 586.276 441.433Z" fill="#00090E"/>
<path d="M686.331 450.721C683.257 463.154 661.051 482.613 653.491 487.175C645.931 491.738 648.605 491.075 657.805 486.395C667.004 481.716 698.992 458.755 702.929 446.19C706.865 433.625 688.703 441.097 686.331 450.721Z" fill="#00090E"/>
<path d="M540.755 458.209C534.64 453.53 519.886 437.409 527.069 442.104C570.047 470.173 577.305 486.334 540.755 458.209Z" fill="#00090E"/>
<path d="M680.332 390.582C679.502 392.446 678.477 394.95 678.995 400.105C678.995 400.105 674.077 399.77 677.075 407.319C680.073 414.869 671.133 422.512 671.133 422.512C675.447 419.517 680.731 413.816 686.501 408.692C683.805 404.512 680.052 395.067 680.332 390.582Z" fill="#00090E"/>
<path d="M730.934 323.008C734.169 334.317 733.641 347.56 733.479 349.525C733.479 349.525 715.943 370.17 712.384 386.627C712.384 386.627 701.006 395.619 693.791 392.445C691.795 391.571 689.692 390.378 687.719 389.512C701.577 403.114 710.691 386.502 715.759 388.413C716.007 380.489 718.607 375.544 723.136 367.035C727.45 359.002 733.403 352.996 737.965 351.717C736.369 347.232 735.258 337.936 737.642 333.607C739.055 329.512 734.913 327.126 730.934 323.008Z" fill="#00090E"/>
<path d="M737.391 306.592H737.574C737.466 306.551 737.391 306.56 737.391 306.592Z" fill="#00090E"/>
<path d="M480.087 337.195C476.463 314.795 465.635 309.897 452.628 306.247L452.531 305.771C464.179 309.383 477.531 311.707 481.737 333.365L480.087 337.195Z" fill="#00090E"/>
<path d="M398.53 280.696C386.149 266.961 376.96 266.314 366.801 266.969L366.531 266.68C375.731 266.306 385.459 264.699 397.883 277.818L398.53 280.696Z" fill="#00090E"/>
<path d="M586.448 443.328C585.844 442.15 574.725 431.107 571.144 428.821C567.305 426.372 562.02 431.645 563.789 433.064C583.827 449.162 587.052 444.482 586.448 443.328Z" fill="#00090E"/>
<path d="M728.852 421.709L732.799 411.203C738.633 411.289 841.532 442.86 882.288 348.809C887.292 337.266 892.976 322.572 903.922 314.172L904.645 314.71C893.86 322.985 888.651 338.108 884.412 349.737C850.084 443.991 749.159 416.772 728.852 421.709Z" fill="#065A92"/>
<path d="M903.93 314.164C892.983 322.564 887.3 337.258 882.296 348.801C849.758 423.9 778.88 418.027 748.304 412.88C747.42 412.732 744.433 412.271 744.799 412.88C746.363 415.493 760.513 417.598 761.225 418.495C762.562 420.18 757.774 421.451 753.675 420.578C747.301 419.213 732.106 417.458 727.641 418.074V422.247C747.949 417.31 850.06 443.976 884.388 349.713C888.626 338.069 893.835 322.962 904.62 314.687L903.93 314.164Z" fill="#00090E"/>
<path d="M871.188 373.01L871.996 368.767C885.251 361.514 899.11 343.732 924.033 342.039V342.819C897.805 344.441 884.787 365.554 871.188 373.01Z" fill="#00090E"/>
<path d="M575.191 375.98L576.022 376.402C571.201 381.916 549.664 407.427 582.406 443.156C583.485 444.38 578.675 443.655 576.949 442.961C574.728 442.064 572.355 439.716 571.19 438C564.784 428.548 552.274 399.924 575.191 375.98Z" fill="#065A92"/>
<path d="M570.55 437.829C571.691 439.112 572.948 440.339 574.314 441.502C571.658 437.749 569.543 433.808 568.005 429.741C565.632 423.564 565.028 418.487 566.085 416.014C562.335 402.372 565.906 388.209 576.072 376.402L575.241 375.98C552.269 399.924 564.133 428.376 570.55 437.829Z" fill="#00090E"/>
<path d="M751.586 398.466L757.151 390.043C777.437 386.244 797.055 376.963 809.759 364.406C816.004 358.214 821.99 351.304 828.73 348.535C835.093 345.914 842.653 338.489 843.203 328.74H844.185C843.624 338.755 836.193 347.552 829.604 350.258C823.014 352.965 817.74 360.936 811.582 367.074C798.748 379.748 772.088 394.613 751.586 398.466Z" fill="#065A92"/>
<path d="M843.207 328.732C842.657 338.481 835.097 345.891 828.734 348.527C821.993 351.296 816.008 358.206 809.763 364.399C797.091 376.955 779.102 384.731 758.826 388.522L757.155 390.035C763.507 391.088 767.939 388.405 767.098 391.197C766.57 392.882 755.17 396.103 752.398 398.598L755.634 399.378C755.796 398.302 772.415 393.045 787.212 384.95C796.452 379.812 804.665 373.776 811.618 367.011C817.809 360.873 823.072 352.902 829.64 350.196C836.208 347.49 843.66 338.692 844.221 328.678L843.207 328.732Z" fill="#00090E"/>
<path d="M764.583 347.771L764.281 338.646C790.639 338.646 805.825 312.721 824.116 302.77C852.609 287.265 857.646 262.073 851.779 238.644L854.27 238.152C858.11 253.423 862.272 284.605 827.459 304.758C809.729 315.053 806.321 339.738 764.583 347.771Z" fill="#065A92"/>
<path d="M854.322 238.184L851.831 238.675C857.698 262.073 852.661 287.296 824.168 302.801C810.492 310.241 798.37 326.448 782.182 334.24C777.868 336.338 773.694 337.796 768.593 338.295C767.855 338.32 767.119 338.218 766.446 337.997C765.773 337.776 765.182 337.443 764.721 337.024C765.983 338.545 765.541 339.364 761.82 339.574C774.093 343.708 790.325 329.435 796.418 329.194C799.513 329.061 794.024 334.653 788.761 337.773C784.673 340.183 776.401 340.643 770.718 342.811C767.72 343.958 766.749 346.516 764.668 348.045C762.834 349.386 768.216 348.473 769.154 348.045C774.687 345.533 783.174 342.733 788.125 340.12C808.713 329.287 813.89 312.675 827.511 304.79C862.271 284.636 858.108 253.455 854.322 238.184Z" fill="#00090E"/>
<path d="M853.093 241.247C846.978 226.764 825.527 226.078 813.674 214.893C806.923 208.514 807.02 192.276 814.828 176.193L815.464 176.24C807.71 193.742 808.465 207.952 815.001 214.121C826.713 225.181 846.805 224.338 853.912 238.237L853.093 241.247Z" fill="#00090E"/>
<path d="M810.895 210.176C803.777 203.882 800.11 195.849 798.492 188.275L799.161 188.33C800.771 195.034 804.458 201.388 809.946 206.916L810.895 210.176Z" fill="#00090E"/>
<path d="M854.201 241.474L852.831 239.423C855.991 232.708 853.91 221.851 851.828 216.025L852.421 215.939C854.514 221.851 857.415 234.611 854.201 241.474Z" fill="#00090E"/>
<path d="M480.948 427.955L482.641 428.485C478.532 429.889 474.164 434.218 473.809 438.625L473.312 438.554C474.132 431.582 477.702 429.663 480.948 427.955Z" fill="#00090E"/>
<path d="M824.954 351.608L821.578 352.996C830.206 340.798 825.245 327.836 827.779 316.184L828.524 316.316C825.763 329.052 832.902 340.385 824.954 351.608Z" fill="#00090E"/>
<path d="M627.937 102.248C587.311 92.4759 594.331 73.3052 597.017 62.1366L596.542 62.0742C593.328 71.6752 587.095 93.0452 622.243 102.381L627.937 102.248Z" fill="#00090E"/>
<path d="M483.127 347.358L477.843 352.349C477.897 352.162 482.61 331.244 477.4 312.386C474.37 301.467 459.422 291.14 450.492 286.648L450.719 286.359C459.8 290.945 476.333 300.928 480.107 313.22C485.942 332.172 483.181 347.171 483.127 347.358Z" fill="#00090E"/>
<path d="M763.064 245.234C759.947 228.466 747.027 197.9 740.782 193.08C734.538 188.26 719.903 181.717 716.797 173.582L717.196 173.52C720.194 181.319 736.544 188.338 742.821 193.174C749.098 198.009 761.932 223.544 765.081 240.383L763.064 245.234Z" fill="#00090E"/>
<path d="M767.263 236.388L763.133 224.635C767.921 199.576 772.839 187.877 786.676 181.091C797.968 175.538 827.432 156.243 832.07 131.956C834.949 116.856 845.011 101.351 845.13 101.195L846.014 101.515C839.779 111.287 835.668 121.697 833.828 132.377C829.514 156.929 800.254 177.457 788.865 183.072C775.514 189.655 772.03 211.282 767.263 236.388Z" fill="#00090E"/>
<path d="M773.608 200.614C767.59 194.546 758.185 181.591 762.618 162.935C766.403 147.04 781.146 124.804 781.297 124.586L782.214 124.898C782.074 125.116 769.013 145.27 765.271 161.04C760.957 179.399 770.599 190.428 776.509 196.386L773.608 200.614Z" fill="#00090E"/>
<path d="M766.794 227.068L763.731 236.497L759.298 226.928C758.5 209.613 754.445 190.045 747.5 179.352C741.546 170.196 730.427 149.715 729.047 139.934C727.839 131.355 716.881 116.412 701.146 110.586C653.693 92.9904 622.956 111.225 596.749 98.7619C582.934 92.1871 561.461 75.2626 561.234 75.0988L561.903 74.6152C562.119 74.779 584.551 91.9531 598.421 98.2471C621.069 108.456 654.405 90.9314 703.465 108.979C719.524 114.891 731.107 130.669 732.336 139.396C733.717 149.106 745.278 168.846 751.156 177.948C758.188 188.711 765.974 209.637 766.794 227.068Z" fill="#00090E"/>
<path d="M729.81 133.648L726.143 126.161C728.774 110.968 721.322 95.611 712.479 88.2173C704.519 81.5723 704.012 67.7753 708.078 53.9004L708.747 54.0954C705.846 65.4434 704.217 79.5289 715.013 87.9833C725.377 96.118 732.247 119.485 729.81 133.648Z" fill="#00090E"/>
<path d="M701.945 109.339C691.591 100.291 681.108 97.1562 668.285 92.461C654.329 87.3368 638.163 81.035 623.398 67.3706L623.819 67.0977C639.187 80.8712 656.368 86.9703 670.248 92.0554C682.629 96.6336 697.943 102.28 708.426 111.452L701.945 109.339Z" fill="#00090E"/>
<path d="M768.175 149.293C768.887 137.29 764.692 131.355 764.648 131.355L765.155 131.121C765.328 131.347 769.394 136.729 769.469 146.501L768.175 149.293Z" fill="#00090E"/>
<path d="M665.1 90.9712C655.674 83.0081 654.002 77.4394 653.991 77.3926H653.484C653.538 77.611 654.919 82.7741 662.112 89.4971L665.1 90.9712Z" fill="#00090E"/>
<path d="M706.07 68.8828C702.393 60.4673 697.195 57.6362 697.141 57.6362L697.443 57.332C697.647 57.4412 702.576 59.976 706.07 66.6366V68.8828Z" fill="#00090E"/>
<path d="M631.778 111.055C622.945 118.76 622.557 124.711 622.557 124.766L621.953 124.68C621.953 124.454 622.115 118.909 628.726 112.318L631.778 111.055Z" fill="#00090E"/>
<path d="M832.438 135.42L832.901 132.612C839.017 128.258 846.65 125.186 854.989 123.721L855.183 124.111C842.252 126.271 832.535 135.334 832.438 135.42Z" fill="#00090E"/>
<path d="M855.242 237.177V234.994C855.577 234.502 859.092 230.486 863.784 228.957L863.978 229.238C860.926 230.174 856.116 234.557 855.242 237.177Z" fill="#00090E"/>
<path d="M805.928 203.608L804.709 201.44C804.504 201.331 799.672 198.687 795.078 198.117V198.382C797.925 198.718 803.555 201.627 805.928 203.608Z" fill="#00090E"/>
<path d="M811.726 311.84L808.07 315.576C808.07 315.451 814.541 301.295 812.719 287.67L813.107 287.498C815.835 299.415 811.77 311.715 811.726 311.84Z" fill="#00090E"/>
<path d="M766.578 292.193L766.923 296.202C769.789 289.694 775.81 284.155 783.877 280.603L783.715 280.307C772.747 284.245 766.632 292.107 766.578 292.193Z" fill="#00090E"/>
<path d="M772.36 287.372L770.43 289.166C775.357 287.197 781.107 286.59 786.607 287.458L786.682 287.287C781.981 286.405 777.041 286.435 772.36 287.372Z" fill="#00090E"/>
<path d="M763.936 254.539L762.124 258.859C762.251 251.796 758.724 244.953 752.234 239.673L752.493 239.26C761.574 244.906 763.914 254.445 763.936 254.539Z" fill="#00090E"/>
<path d="M855.016 394.612L858.618 389.933C863.072 388.373 879.023 387.039 885.483 388.849L884.954 389.145C867.062 387.195 859.491 391.672 855.016 394.612Z" fill="#00090E"/>
<path d="M562.87 418.276L562.59 412.645C559.743 409.525 546.92 402.178 540.352 401.336L540.61 401.812C557.003 406.936 560.8 413.901 562.87 418.276Z" fill="#00090E"/>
<path d="M673.414 474.369L680.284 469.448C686.528 468.668 706.61 471.437 713.501 475.508L712.714 475.742C691.975 468.348 680.413 471.905 673.414 474.369Z" fill="#00090E"/>
<path d="M481.903 322.032L480.695 319.466C481.42 315.885 483.684 312.559 487.166 309.959L487.457 310.177C481.774 314.639 481.936 321.939 481.903 322.032Z" fill="#00090E"/>
<path d="M404.593 294.104L399.481 300.648C399.988 278.584 395.167 271.892 379.68 261.651C372.4 256.839 370.103 250.147 370.438 243.105C370.772 236.374 375.053 230.002 381.611 226.469L382.215 227.061C375.884 230.47 371.753 236.631 371.43 243.144C371.106 249.968 375.528 255.794 382.581 260.45C398.338 270.847 401.25 273.467 404.593 294.104Z" fill="#00090E"/>
<path d="M396.541 349.915C373.742 330.736 335.65 320.948 316.032 318.062C297.137 315.286 284.756 301.434 280 290.453L280.96 290.234C286.061 301.871 298.884 313.929 316.162 316.463C335.876 319.365 370.172 318.281 397.221 337.865L396.541 349.915Z" fill="#00090E"/>
<path d="M335.829 322.096C316.761 319.132 282.282 326.674 271.648 307.636L272.587 307.355C282.973 325.941 312.275 317.198 331.903 320.24L335.829 322.096Z" fill="#00090E"/>
<path d="M373.222 327.735C372.855 319.366 366.751 284.121 358.307 268.632C342.733 240.032 367.312 210.34 361.132 179.111C358.22 164.417 363.419 124.516 370.612 115.562L372.467 116.163C365.36 125.007 361.542 164.558 364.443 179.174C369.922 206.775 350.606 244.204 364.907 269.599C369.426 277.624 377.126 301.732 382.648 316.457C384.395 321.136 386.272 327.118 388.321 327.883C389.043 328.148 390.478 327.196 390.672 326.027L393.098 330.316L392.02 336.914L373.222 327.735Z" fill="#00090E"/>
<path d="M359.092 268.998C340.607 250.225 339.453 220.392 311.542 206.962C299.053 200.957 266.806 187.339 260.982 169.947C253.983 149.052 260.691 129.882 280.826 113.012L281.365 113.355C261.457 130.092 256.323 148.779 263.247 169.432C268.963 186.473 303.647 200.005 316.093 206.003C344.327 219.581 348.275 248.548 358.714 257.821L359.092 268.998Z" fill="#00090E"/>
<path d="M282.152 191.006C255.19 181.358 246.001 165.681 245.883 165.541L246.584 165.432C246.702 165.572 254.317 178.425 278.733 187.121L282.152 191.006Z" fill="#00090E"/>
<path d="M362.925 199.388C359.938 186.27 342.153 166.904 330.182 158.169C321.177 151.579 297.763 142.649 286.859 129.265L287.679 128.875C300.254 142.758 324.552 151.431 333.515 157.982C345.561 166.803 357.986 176.763 363.443 185.108L362.925 199.388Z" fill="#00090E"/>
<path d="M365.66 131.729L363.61 139.997C364.883 97.8804 329.379 115.437 327.805 66.5428L328.538 66.4336C329.746 112.114 362.704 97.5216 365.66 131.729Z" fill="#00090E"/>
<path d="M364.896 279.917L362.114 271.611C349.538 253.79 319.211 235.399 268.016 236.881L268.382 237.778C323.202 236.07 351.404 259.234 364.896 279.917Z" fill="#00090E"/>
<path d="M421.852 139.71L423.48 142.829C421.722 135.49 429.261 124.361 429.347 124.267L428.851 123.986C428.581 124.376 422.865 131.63 421.852 139.71Z" fill="#00090E"/>
<path d="M424.866 257.002C423.842 245.342 427.854 226.475 437.744 215.806C451.613 200.839 440.375 178.814 440.267 178.564L441.216 178.369C441.324 178.627 452.627 203.148 441.087 216.04C431.943 226.211 428.098 238.402 430.237 250.435L424.866 257.002Z" fill="#00090E"/>
<path d="M436.648 221.047L438.719 217.654C451.521 214.94 469.521 206.532 477.189 195.66C483.013 187.408 511.334 182.401 516.845 165.336C518.16 161.265 517.837 154.636 517.459 146.985C516.758 132.299 515.863 114.118 526.465 104.432L527.23 104.884C516.845 114.384 518.667 132.548 519.379 147.109C519.757 154.823 520.587 161.928 519.239 166.132C513.642 183.462 484.199 188.687 477.178 198.608C469.38 209.722 452.977 217.623 436.648 221.047Z" fill="#00090E"/>
<path d="M444.5 208.608L444.77 205.2C453.505 197.525 463.223 177.419 460.947 159.41L461.756 159.309C463.988 177.473 454.39 199.249 444.5 208.608Z" fill="#00090E"/>
<path d="M344.644 169.402L349.023 173.192C343.943 164.613 338.745 141.995 345.399 126.521L344.773 126.264C338.054 141.87 340.395 160.994 344.644 169.402Z" fill="#00090E"/>
<path d="M312.244 242.238L315.372 242.776C310.12 240.569 299.41 233.089 295.959 225.93H295.625C299.109 233.183 307.402 239.929 312.244 242.238Z" fill="#00090E"/>
<path d="M450.023 232.762L452.698 230.859C464.119 230.593 483.004 227.115 495.978 220.018L496.603 220.205C485.398 227.24 463.44 232.231 450.023 232.762Z" fill="#00090E"/>
<path d="M647.082 101.796L643.534 101.422C629.449 116.155 603.371 119.126 603.102 119.157L603.393 119.937C603.662 119.891 631.401 115.89 647.082 101.796Z" fill="#00090E"/>
<path d="M600.091 99.9402L597.643 98.5363C577.853 104.433 556.326 98.1386 556.1 98.0762L555.852 98.7157C556.067 98.7781 579.481 104.869 600.091 99.9402Z" fill="#00090E"/>
<path d="M512.445 175.289L514.602 170.937C519.229 168.192 526.466 161.781 529.938 143.983C533.357 126.559 556.76 127.69 557.008 127.674V127.916C556.771 127.916 534.037 127.136 530.758 145.387C527.911 161.414 519.434 172.325 512.445 175.289Z" fill="#00090E"/>
<path d="M742.083 193.57C741.082 190.966 740.869 188.237 741.457 185.568L742.04 185.678C741.555 188.665 742.299 191.426 744.865 195.216L742.083 193.57Z" fill="#00090E"/>
<path d="M809.648 193.952C812.69 188.36 819.624 183.696 824.381 181.224L824.143 180.756C818.641 183.499 813.915 186.977 810.22 191.004L809.648 193.952Z" fill="#00090E"/>
<path d="M527.641 155.331L528.536 152.321C532.569 152.453 536.495 142.626 551.669 141.051L551.766 141.449C537.045 142.977 534.316 152.789 527.641 155.331Z" fill="#00090E"/>
<path d="M359.438 215.689L360.613 212.57C373.123 208.92 389.301 199.943 394.251 189.874C398.037 182.184 425.452 175.273 426.897 159.862C427.253 156.126 425.311 150.206 423.047 143.281C418.636 129.757 413.006 112.551 421.72 102.576L422.648 102.974C414.128 112.746 420.685 129.85 425.042 143.25C427.317 150.214 429.873 156.555 429.507 160.369C428.018 176.014 399.59 183.182 394.995 192.401C390.002 202.704 375.378 211.057 359.438 215.689Z" fill="#00090E"/>
<path d="M392.311 194.124L394.231 190.271C392.764 186.372 392.257 178.83 404.39 165.072C416.523 151.314 396.129 141.869 395.967 141.76L395.741 141.916C395.935 142.025 415.488 151.361 402.535 165.649C391.373 177.91 389.173 189.008 392.311 194.124Z" fill="#00090E"/>
<path d="M396.677 173.893L398.478 171.436C395.081 169.736 400.139 161.212 389.085 153.498L388.664 153.732C399.395 161.219 393.399 169.167 396.677 173.893Z" fill="#00090E"/>
<path d="M329.782 248.781L325.997 247.588C323.451 249.725 310.359 246.332 298.711 253.227L299.067 253.492C310.369 246.8 322.632 250.786 329.782 248.781Z" fill="#00090E"/>
<path d="M385.301 263.85L383.144 261.385C385.301 259.904 378.733 251.402 384.945 244.453L385.333 244.703C379.337 251.441 386.411 259.443 385.301 263.85Z" fill="#00090E"/>
<path d="M493.722 288.932L491.414 284.846C496.375 282.404 487.391 263.702 503.213 251.309L503.871 251.901C488.534 263.928 498.079 280.361 493.722 288.932Z" fill="#00090E"/>
<path d="M666.914 463.528C678.918 457.749 681.916 452.796 683.296 443.944C683.48 436.589 688.84 432.9 691.708 430.568C691.708 430.568 685.486 440.263 687.945 444.529C690.403 448.795 693.542 447.087 693.542 447.087L690.166 457.819L666.914 463.528Z" fill="#00090E"/>
<path d="M754.219 416.748C754.219 416.748 770.892 420.351 774.602 422.558C775.229 421.843 775.499 420.995 775.368 420.154C775.236 419.313 774.711 418.529 773.88 417.933C772.413 416.834 765.23 416.334 754.219 416.748Z" fill="#065A92"/>
<path d="M765.89 267.196C763.981 269.949 763.733 262.321 763.603 260.722C763.474 259.123 764.682 254.756 765.523 254.007C771.67 248.274 773.116 256.838 765.89 267.196Z" fill="#065A92"/>
<path d="M759.75 287.138C759.75 288.698 765.24 283.909 765.617 283.239C767.019 280.805 767.041 275.205 766.695 274.722C765.887 273.357 759.739 285.766 759.75 287.138Z" fill="#065A92"/>
<path d="M724.513 371.722C724.243 373.804 734.942 370.263 735.891 369.647C741.521 366.005 739.806 355.304 739.59 354.571C738.997 352.52 725.785 362.082 724.513 371.722Z" fill="#065A92"/>
<path d="M765.219 271.408C765.219 272.188 768.325 270.667 768.573 270.308C769.554 268.881 769.554 260.902 769.371 260.333C768.81 258.632 765.187 270.636 765.219 271.408Z" fill="#065A92"/>
<path d="M756.695 336.492C757.925 338.653 763.231 341.367 771.276 339.331L763.231 337.467C765.01 338.855 759.413 339.019 756.695 336.492Z" fill="#00090E"/>
<path d="M738.191 407.825C734.061 406.109 730.588 404.643 727.406 401.461C732.303 404.23 735.15 405.361 740.003 406L738.191 407.825Z" fill="#00090E"/>
<path d="M642.334 428.969C634.31 433.313 626.156 441.128 626.156 441.128C633.794 436.42 642.662 432.872 652.234 430.692C648.762 430.916 645.284 430.311 642.334 428.969Z" fill="#00090E"/>
<path d="M574.627 465.416C570.076 471.094 576.547 476.967 579.771 495.732L570.453 477.466C573.721 478.386 569.105 469.308 574.627 465.416Z" fill="#00090E"/>
<path d="M487.775 418.206C492.607 416.709 515.255 421.7 530.224 427.129C538.281 430.046 544.676 427.55 557.338 429.703C548.375 424.836 534.959 427.659 533.072 426.762C526.007 423.401 502.195 418.386 492.855 414.486C483.515 410.586 458.268 392.742 458.268 392.742C458.268 392.742 461.158 398.778 456.37 399.34C451.581 399.901 430.82 383.195 430.82 383.195L437.399 403.871C444.496 419.033 459.821 416.147 459.821 416.147C464.005 419.665 486.912 428.751 494.796 430.771C529.556 451.829 524.702 460.018 524.702 460.018C524.702 460.018 538.076 455.971 539.057 455.167C529.966 446.767 478.608 421.084 487.775 418.206Z" fill="#00090E"/>
<path d="M687.903 439.396C688.777 434.319 701.449 415.484 704.285 423.314C706.613 429.517 705.615 436.127 701.492 441.822C700.737 442.812 684.786 457.553 687.903 439.396Z" fill="#065A92"/>
<path d="M557.53 441.363C549.981 441.23 517.702 434.694 527.203 430.35C531.582 428.346 550.833 428.657 557.056 430.295C558.663 430.732 584.288 441.854 557.53 441.363Z" fill="#065A92"/>
<path d="M523.227 429.413C532.081 427.542 538.66 428.938 546.403 428.634L541.226 426.77C532.836 426.965 527.411 427.362 523.227 429.413Z" fill="#00090E"/>
<path d="M568.728 434.342C562.057 431.352 554.57 429.441 546.781 428.742L551.71 427.674C559.54 429.663 565.364 431.433 568.728 434.342Z" fill="#00090E"/>
<path d="M550.629 443.74C549.95 448.248 558.729 457.834 560.67 459.573L551.471 458.918C549.432 455.938 549.109 446.821 550.629 443.74Z" fill="#00090E"/>
<path d="M692.996 131.121L692.586 131.581C707.814 139.232 730.969 154.332 740.039 166.6C739.953 165.485 739.511 162.513 739.478 161.46C729.125 150.495 706.908 138.094 692.996 131.121Z" fill="#00090E"/>
<path d="M724.818 52.6211L725.109 52.9487C718.736 59.1881 709.655 71.2068 707.196 80.6518C707.045 79.825 706.743 77.5944 706.57 76.8067C709.914 68.2821 718.994 58.2912 724.818 52.6211Z" fill="#00090E"/>
<path d="M754.808 292.762C754.128 292.045 757.256 284.783 757.105 281.71C757.029 280.057 762.001 279.121 762.001 279.121C762.001 279.121 757.774 290.165 754.808 292.762Z" fill="#00090E"/>
<path d="M668.248 446.823C662.586 440.95 662.058 432.113 667.655 427.948C671.322 425.219 679.432 421.374 681.179 424.493C686.485 434.016 677.965 456.962 668.248 446.823Z" fill="#065A92"/>
<path d="M677.916 408.98C681.928 422.176 652.14 431.333 644.267 430.131L639.953 434.359C644.267 432.658 654.933 429.351 658.395 436.745C658.19 431.73 674.217 420.07 688.916 408.543L677.916 408.98Z" fill="#00090E"/>
<path d="M662.352 445.496C658.74 441.705 660.055 437.478 662.18 434.779C660.735 440.933 662.902 441.479 662.352 445.496Z" fill="#00090E"/>
<path d="M768.518 250.185C767.03 253.414 762.522 245.428 763.126 241.871C763.719 238.533 765.283 235.414 765.833 235.702C766.383 235.991 769.467 248.134 768.518 250.185Z" fill="#065A92"/>
<path d="M710.886 427.449L714.52 425.515C714.52 425.515 713.442 414.681 716.677 406.438C716.645 406.438 709.246 418.175 710.886 427.449Z" fill="#00090E"/>
<path d="M686.945 388.031C686.945 388.031 692.715 393.935 695.832 395.643C698.414 396.941 701.543 397.545 704.676 397.351C698.237 396.626 690.396 390.808 686.945 388.031Z" fill="#00090E"/>
<path d="M716.273 378.719C716.273 378.719 716.899 385.738 716.004 388.359C715.194 390.407 713.361 392.164 710.859 393.288C715.076 390.114 716.047 382.322 716.273 378.719Z" fill="#00090E"/>
<path d="M662.069 452.281C666.297 460.299 651.058 480.569 642.344 490.194L665.24 475.001C676.133 460.307 662.069 452.281 662.069 452.281Z" fill="#00090E"/>
<path d="M496.014 421.958C493.641 423.3 482.414 424.555 467.132 416.85C461.664 414.089 439.361 401.89 440.17 399.863C440.892 398.03 458.288 401.602 463.897 403.099C472.535 405.408 500.306 419.525 496.014 421.958Z" fill="#065A92"/>
<path d="M446.436 405.104C440.343 401.985 416.691 395.238 415.969 391.619C415.246 388 431.37 389.162 432.437 389.365C436.59 390.145 442.618 398.888 456.315 401.368C459.227 401.899 446.932 405.354 446.436 405.104Z" fill="#065A92"/>
<path d="M447.484 402.444C453.384 402.038 464.266 403.084 469.755 405.002C469.755 405.002 463.23 400.736 457.892 400.432C454.2 400.17 450.503 400.885 447.484 402.444Z" fill="#00090E"/>
<path d="M497.487 428.189C493.583 425.069 485.99 421.895 482.992 416.49C483.461 419.843 485.479 422.983 488.719 425.405L497.487 428.189Z" fill="#00090E"/>
<path d="M617.328 490.724C637.561 487.604 650.621 469.175 646.199 463.302C641.885 457.632 634.142 468.933 633.074 475.905C631.553 485.818 617.328 490.724 617.328 490.724Z" fill="#065A92"/>
<path d="M708.414 397.21C728.452 395.806 743.001 378.765 738.806 373.126C734.761 367.667 724.947 377.299 723.707 383.538C721.884 392.437 708.414 397.21 708.414 397.21Z" fill="#065A92"/>
<path d="M585.781 480.078C588.068 489.437 598.529 502.649 607.211 502.914C615.893 503.18 628.198 491.644 628.198 491.644C628.198 491.644 612.56 501.893 605.011 500.224C595.844 498.126 585.781 480.078 585.781 480.078Z" fill="#065A92"/>
<path d="M431.182 386.915C434.956 389.7 422.058 388.039 420.041 386.354C417.269 384.061 408.997 374.702 411.413 370.755C413.829 366.809 426.512 383.46 431.182 386.915Z" fill="#065A92"/>
<path d="M713.642 406.413C709.813 413.643 702.35 438.678 698.414 435.738C694.477 432.798 693.798 409.22 697.648 403.66C701.498 398.099 719.164 395.977 713.642 406.413Z" fill="#065A92"/>
<path d="M491.608 427.48C483.778 425.717 478.407 427.659 474.6 429.601C470.793 431.543 462.952 434.413 459.749 434.016L459.695 434.507C463.438 434.983 472.637 431.941 476.261 430.108C479.885 428.275 487.046 428.268 494.423 429.937L491.608 427.48Z" fill="#00090E"/>
<path d="M746.935 345.432C743.7 352.802 743.807 361.88 743.872 367.441L748.003 357.404C744.627 353.902 746.935 345.432 746.935 345.432Z" fill="#00090E"/>
<path d="M590.273 450.464C598.568 451.613 606.217 454.492 612.275 458.747C611.616 457.15 610.474 455.678 608.932 454.44C607.389 453.202 605.484 452.227 603.355 451.588C595.871 449.162 590.273 450.464 590.273 450.464Z" fill="#065A92"/>
<path d="M750.023 401.641L755.028 398.467C755.198 396.445 756.139 394.496 757.745 392.836C755.761 394.177 750.789 397.726 750.023 401.641Z" fill="#00090E"/>
<path d="M781.103 342.312C775.171 344.418 762.358 348.013 756.664 348.38C756.664 348.38 764.645 346.571 768.916 343.7C773.186 340.83 781.103 342.312 781.103 342.312Z" fill="#00090E"/>
<path d="M729.133 319.381C733.048 325.23 738.322 326.494 740.856 329.52C741.87 330.721 743.908 336.298 743.908 336.298C743.908 336.298 740.112 330.011 736.973 328.951C734.777 328.061 732.9 326.811 731.495 325.301L729.133 319.381Z" fill="#00090E"/>
<path d="M734.773 391.557C739.206 393.155 751.123 389.934 758.813 389.833C756.643 389.267 754.345 389.003 752.04 389.053C748.751 389.381 741.525 391.993 734.773 391.557Z" fill="#00090E"/>
<path d="M518.593 427.58C522.67 431.48 523.026 435.426 519.035 434.319C515.045 433.211 493.615 424.18 491.329 422.066C486.95 418.089 515.616 424.718 518.593 427.58Z" fill="#065A92"/>
<path d="M688.928 428.657C686.771 429.577 684.171 418.869 685.39 415.031C686.371 411.912 692.228 407.396 695.323 408.909C698.418 410.422 692.163 427.276 688.928 428.657Z" fill="#065A92"/>
<path d="M685.001 410.344C682.844 413.877 682.078 420.483 683.782 423.837C685.777 427.783 683.027 424.656 682.477 423.548C680.519 420.381 679.596 416.93 679.781 413.464C680.245 408.332 685.001 410.344 685.001 410.344Z" fill="#00090E"/>
<path d="M455.673 471.086C451.035 467.186 444.791 466.921 435.559 461.828C427.794 457.546 424.925 454.239 422.833 450.745C418.238 443.125 404.046 435.326 394.792 435.147C390.672 435.076 384.741 434.936 378.615 430.631L378.453 430.771C384.816 435.248 389.572 435.318 393.854 435.388C403.56 435.529 416.146 444.436 420.816 452.032C422.973 455.612 422.703 461.243 430.965 465.556C440.401 470.493 438.115 473.527 438.838 474.829L455.673 471.086Z" fill="#00090E"/>
<path d="M428.322 460.861C424.795 458.99 415.067 460.807 406.752 458.397C398.911 456.127 395.719 454.185 391.578 450.067C387.436 445.949 382.669 443.048 376.867 442.479V442.642C382.497 443.157 386.973 446.589 391.038 450.629C395.104 454.669 399.3 458.99 407.28 461.306C415.66 463.739 432.776 463.201 432.938 463.193L428.322 460.861Z" fill="#00090E"/>
<path d="M392.729 451.922C385.859 451.859 373.736 444.699 365.82 445.518L365.896 445.698C373.618 445.097 386.991 452.764 394.152 453.271L392.729 451.922Z" fill="#00090E"/>
<path d="M417.34 445.317C416.057 439.179 406.048 429.251 405.477 421.592L405.703 421.639C406.523 429.071 417.232 440.014 419.001 446.277L417.34 445.317Z" fill="#00090E"/>
<path d="M366.326 472.677C364.859 472.989 347.862 467.756 336.797 477.949C336.863 477.995 336.936 478.037 337.013 478.074C349.879 467.483 364.546 474.588 373.465 475.43L366.326 472.677Z" fill="#00090E"/>
<path d="M445.217 466.842C444.667 465.47 433.214 458.77 435.878 445.152L436.04 445.199C433.883 460.47 445.358 463.637 450.006 468.87L445.217 466.842Z" fill="#00090E"/>
<path d="M441.133 462.608L440.453 461.344C438.717 460.876 435.568 458.435 433.982 454.793L433.734 454.91C436.387 460.611 438.9 461.68 441.133 462.608Z" fill="#00090E"/>
<path d="M378.408 426.824C373.468 429.304 371.042 433.976 371.645 436.698C372.411 440.106 375.722 437.392 376.024 437.08C376.143 437.416 377.728 439.225 379.669 436.363C381.309 433.961 379.238 428.259 378.408 426.824Z" fill="#FFB35B"/>
<path d="M826.398 495.723L833.139 499.622C834.342 510.34 840.162 520.514 849.78 528.714C854.547 532.613 859.972 536.583 861.643 540.272C863.261 543.766 868.988 548.555 877.573 550.294L877.497 550.778C868.686 549 861.73 544.055 860.058 540.444C858.386 536.833 851.959 533.12 847.246 529.213C837.539 521.148 827.498 506.135 826.398 495.723Z" fill="#065A92"/>
<path d="M877.604 550.303C868.976 548.563 863.292 543.775 861.675 540.281C859.971 536.592 854.546 532.661 849.811 528.722C840.202 520.751 835.381 510.932 834.303 500.645L833.224 499.631C831.606 502.54 833.451 505.09 831.067 504.256C829.654 503.764 827.292 498.952 825.427 497.236L825.211 497.533C826.128 497.759 828.878 506.51 834.313 514.808C837.761 520.005 842.134 524.853 847.32 529.229C852.033 533.129 858.471 536.865 860.132 540.46C861.793 544.056 868.76 549.039 877.571 550.794L877.604 550.303Z" fill="#00090E"/>
<path d="M859.378 537.987L858.516 536.139C868.341 542.168 880.377 541.668 890.45 544.648L890.255 544.991C879.233 541.731 868.405 543.532 859.378 537.987Z" fill="#00090E"/>
<path d="M766.694 466.32C775.322 473.917 788.35 479.181 796.622 479.306C804.894 479.431 823.67 482.527 828.308 486.965C828.308 486.965 842.048 491.793 844.992 496.129C847.936 500.466 877.411 512.508 896.565 507.984C914.09 503.851 921.737 491.699 957.694 489.125C957.791 489.228 957.882 489.335 957.963 489.445C923.689 492.994 915.773 504.966 899.639 510.503C895.605 511.876 885.5 515.674 866.13 512.656C860.425 511.759 837.906 500.77 834.703 501.394C831.23 502.064 833.625 505.793 833.625 505.793C833.625 505.793 827.057 504.646 824.997 502.447C822.937 500.247 815.409 491.2 807.482 488.884C799.555 486.567 774.114 486.068 759.533 480.304C744.951 474.541 766.694 466.32 766.694 466.32Z" fill="#065A92"/>
<path d="M785.7 481.185C786.131 478.97 765.715 471.826 764.27 466.678C765.115 466.154 765.795 465.505 766.265 464.775C774.839 472.372 788.353 479.188 796.625 479.313C804.897 479.438 823.673 482.534 828.311 486.972C828.311 486.972 842.051 491.8 844.995 496.136C847.939 500.473 877.414 512.515 896.568 507.991C914.093 503.858 921.74 491.706 957.697 489.133C957.795 489.236 957.885 489.342 957.966 489.452C923.692 493.001 915.776 504.973 899.642 510.51C895.608 511.883 885.503 515.681 866.133 512.663C860.428 511.766 837.909 500.777 834.706 501.401C831.233 502.072 833.628 505.8 833.628 505.8C833.628 505.8 827.06 504.653 825 502.454C822.94 500.254 814.981 491.66 807.054 489.343C799.127 487.027 777.126 486.801 758.339 480.67C756.054 479.747 753.993 478.562 752.234 477.161C766.287 478.799 785.301 483.244 785.7 481.185Z" fill="#00090E"/>
<path d="M808.174 481.318C812.488 481.778 820.038 483.986 819.93 484.75C819.822 485.514 814.192 486.123 809.932 485.67C805.672 485.218 798.64 482.293 798.791 481.537C798.942 480.78 803.914 480.866 808.174 481.318Z" fill="#065A92"/>
<path d="M879.407 513.513C882.2 515.697 918.34 522.092 923.625 546.215C923.485 546.223 923.344 546.223 923.204 546.215C915.17 519.557 881.995 519.222 863.672 511.945L879.407 513.513Z" fill="#00090E"/>
<path d="M824.969 502.415C831.095 508.888 842.376 525.485 843.497 532.457C844.619 539.43 843.033 543.462 848.059 544.484C848.059 544.484 850.345 530.835 847.304 525.664C844.263 520.493 833.014 507.078 832.205 502.469C831.396 497.86 824.969 502.415 824.969 502.415Z" fill="#00090E"/>
<path d="M846.18 540.773C847.754 546.942 864.147 563.57 885.264 570.09C917.09 579.925 935.37 590.587 939.965 603.362L940.72 603.222C936.028 590.181 919.301 578.771 887.119 568.835C866.358 562.424 849.674 542.933 848.143 536.904L846.18 540.773Z" fill="#00090E"/>
<path d="M925.6 586.539C949.586 591.999 956.316 603.9 959.605 616.442L960.09 616.551C957.103 606.747 954.838 592.022 922.43 584.332L925.6 586.539Z" fill="#00090E"/>
<path d="M806.781 595.843L807.407 596.537C845.887 577.382 842.889 570.519 845.596 534.923L842.22 528.387C839.503 563.694 844.863 577.936 806.781 595.843Z" fill="#00090E"/>
<path d="M887.82 512.858C903.243 517.639 933.775 518.957 945.379 520.221C971.619 523.067 1002.54 545.007 1023.03 574.34L1024.11 574.067C1003.34 544.321 972.816 520.4 946.188 517.514C934.648 516.267 908.258 514.621 893.428 511.033L887.82 512.858Z" fill="#00090E"/>
<path d="M937.094 589.207L938.593 590.041C940.566 589.378 945.797 589.261 949.583 591.468L949.82 591.336C946.229 588.466 939.52 588.403 937.094 589.207Z" fill="#00090E"/>
<path d="M894.508 519.121L897.474 520.985C902.467 520.985 912.756 523.707 919.982 529.05L920.499 528.73C908.765 520.408 901.27 519.714 894.508 519.121Z" fill="#00090E"/>
<path d="M923.791 497.518L920.75 497.954C923.824 495.186 928.504 487.979 928.138 482.582L928.742 482.48C928.817 490.958 926.283 493.86 923.791 497.518Z" fill="#00090E"/>
<path d="M1004.95 551.979L1002.79 550.045C1004.42 553.344 1006.33 559.201 1003.24 567.133L1003.72 567.453C1007.22 558.421 1005.94 555.387 1004.95 551.979Z" fill="#00090E"/>
<path d="M843.072 596.475L843.439 596.303C843.352 596.21 835.091 582.163 840.775 570.082L837.129 575.705C835.986 582.046 840.203 593.16 843.072 596.475Z" fill="#00090E"/>
<path d="M996.156 544.016C1004.19 544.944 1015.44 548.828 1015.57 548.875L1015.82 548.532C1015.36 548.353 1004.58 544.149 996.34 543.205L996.156 544.016Z" fill="#00090E"/>
<path d="M734.091 441.675C729.152 448.64 710.505 472.147 706.848 469.144C703.192 466.141 705.673 443.055 710.397 437.705C715.12 432.355 741.241 431.606 734.091 441.675Z" fill="#00090E"/>
<path d="M485.306 646.25C481.782 647.895 477.633 648.7 473.443 648.551C470.562 648.387 467.701 649.014 465.43 650.306H488.078L485.306 646.25Z" fill="#065A92"/>
<path d="M546.887 475.866C546.887 475.866 500.922 478.541 492.963 480.483C485.003 482.425 459.206 486.918 453.059 486.021C453.059 486.021 442.985 495.177 425.147 486.395L403.211 472.965C403.211 472.965 435.512 477.052 438.941 474.454C442.371 471.857 440.095 467.692 440.095 467.692C440.095 467.692 467.974 471.413 478.619 470.297C489.263 469.182 512.515 462.6 520.885 462.093C523.117 461.952 532.36 455.284 540.901 453.295C604.586 467.271 546.887 475.866 546.887 475.866Z" fill="#065A92"/>
<path d="M264.995 420.967C257.014 420.686 241.754 439.358 214.997 442.29L214.867 441.659C232.198 439.997 250.382 427.082 259.592 415.438L264.995 420.967Z" fill="#00090E"/>
<path d="M260.002 418.113C220.993 428.447 160.782 416.171 139.406 420.382C115.83 424.984 75.5165 443.702 61.8737 473.893L61.2266 473.769C75.0096 443.289 114.202 422.769 139.374 418.05C161.105 413.979 218.028 424.828 254.329 412.045L260.002 418.113Z" fill="#00090E"/>
<path d="M362.814 548.299L362.156 547.714C374.246 540.632 383.154 530.376 386.573 525.049C390.359 519.145 391.685 517.975 402.093 512.711C412.5 507.446 440.325 491.489 431.32 488.86L453.029 486.021C439.009 496.941 417.342 506.807 406.773 512.149C396.204 517.492 391.825 520.253 388.223 525.884C383.025 534.05 372.488 542.629 362.814 548.299Z" fill="#00090E"/>
<path d="M388.419 522.421C369.189 529.589 353.433 522.85 335.648 527.015V526.375C355.547 521.696 367.399 528.793 390.651 519.582L388.419 522.421Z" fill="#00090E"/>
<path d="M428.096 485.631C413.288 490.95 396.539 487.97 371.745 492.595C352.526 496.214 345.15 500.527 339.455 505.495C327.387 516.017 298.376 520.54 282.942 515.541C276.472 513.435 267.38 510.588 257.188 513.849L257.016 513.568C267.628 510.167 274.843 512.499 281.562 514.675C297.675 519.885 326.535 513.958 338.484 503.53C344.287 498.468 351.038 493.071 370.58 489.39C394.835 484.827 396.032 481.887 398.297 479.75L428.096 485.631Z" fill="#00090E"/>
<path d="M197.291 481.63C196.86 481.63 162.424 478.978 142.763 484.64C124.202 489.991 117.796 498.118 110.408 506.954C103.021 515.791 93.077 522.288 78.388 523.848L78.3125 523.52C92.6024 521.96 101.392 514.535 108.618 505.847C115.736 497.267 123.178 487.908 142.051 482.449C161.895 476.732 207.008 476.443 207.44 476.443L197.291 481.63Z" fill="#00090E"/>
<path d="M111.657 503.048C93.7973 503.758 68.1078 519.543 46.7969 518.498V518.116C67.4607 518.732 95.9435 501.784 114.191 500.178L111.657 503.048Z" fill="#00090E"/>
<path d="M326.425 511.727C321.69 521.422 299.775 531.623 296.055 543.704L296.454 543.782C300.466 532.2 324.203 520.728 329.973 511.025L326.425 511.727Z" fill="#00090E"/>
<path d="M283.136 515.456C274.746 515.511 268.037 519.527 267.919 519.558L267.703 519.379C268.027 519.208 275.425 515.019 281.238 514.879L283.136 515.456Z" fill="#00090E"/>
<path d="M479.212 381.565C472.494 377.931 470.293 371.832 470.25 371.77L469.938 371.824C470.045 372.097 472.644 378.61 477.217 381.183L479.212 381.565Z" fill="#00090E"/>
<path d="M366.686 524.987C361.88 523.146 357.555 520.713 353.906 517.796L354.499 517.266C358.004 520.081 365.511 523.755 372.187 524.589L366.686 524.987Z" fill="#00090E"/>
<path d="M426.637 485.95C399.739 483.837 375.948 485.67 363.006 474.111C356.071 467.872 331.32 469.821 316.415 454.511C312.781 450.775 316.415 443.296 312.964 438.546C312.9 435.099 318.756 428.212 309.017 419.828C307.939 416.014 308.316 413.838 309.847 411.054C312.511 406.202 308.596 400.626 304.919 395.681C285.83 370.006 290.402 345.352 303.344 318.125L304.326 318.367C291.524 345.29 290.683 369.491 311.196 395.65C315.434 401.063 317.667 408.129 317.214 411.249C316.318 416.708 331.633 439.63 336.281 444.427C347.368 455.892 367.201 455.393 373.435 459.784C379.28 463.91 385.805 470.703 408.335 473.612L426.637 485.95Z" fill="#00090E"/>
<path d="M476.734 650.306H488.091C488.091 650.306 503.276 642.202 513.586 641.649C523.897 641.095 536.17 650.306 536.17 650.306H554.202C554.202 650.306 529.828 638.053 514.007 639.114C494.173 640.432 476.734 650.306 476.734 650.306Z" fill="#065A92"/>
<path d="M407.44 650.212H462.076C462.076 650.212 467.274 643.434 475.6 642.686C483.926 641.937 501.656 650.212 501.656 650.212H795.609C795.609 650.212 800.807 647.201 806.005 647.201C811.203 647.201 813.296 650.961 819.023 650.212C824.749 649.463 849.716 643.06 858.042 644.191C866.368 645.322 881.974 650.212 881.974 650.212H897.073C897.073 650.212 864.297 639.293 857.535 639.293C850.773 639.293 822.668 647.568 818.505 646.811C814.342 646.055 805.326 640.166 799.092 640.166C792.858 640.166 759.188 647.318 738.913 643.052C725.798 640.299 691.039 630.636 679.596 625.745C668.153 620.855 653.55 610.326 648.87 592.669C644.189 575.011 642.108 566.33 637.945 561.471C637.945 561.471 646.788 523.466 656.678 519.355C666.568 515.245 699.343 499.787 705.07 487.745C710.796 475.703 689.453 454.637 689.453 454.637C689.453 454.637 666.039 465.174 659.795 465.174C653.55 465.174 647.317 459.901 641.59 459.152C635.863 458.404 596.844 471.569 590.599 471.195C584.355 470.82 566.657 458.778 559.895 459.496C553.133 460.213 543.717 464.76 543.717 464.76C543.717 464.76 537.365 472.747 544.235 477.559C585.218 506.26 589.531 552.814 571.812 565.605C560.358 604.368 548.743 605.241 546.144 619.163C543.545 633.085 524.305 643.185 510.123 640.424C491.368 636.789 488.984 630.542 480.637 630.394C466.412 630.144 454.527 640.533 448.023 643.653C442.717 646.242 403.277 647.326 407.44 650.212Z" fill="#065A92"/>
<path d="M576.664 562.032C584.742 548.906 592.723 548.82 592.658 538.634C592.593 528.129 582.272 513.903 582.272 502.859C582.272 493.126 591.331 488.563 603.475 488.82C615.619 489.078 584.904 479.149 573.418 485.56C555.903 495.341 573.418 515.198 577.408 524.19C581.398 533.183 581.226 547.362 576.664 562.032Z" fill="#065A92"/>
<path d="M567.097 499.748C562.642 489.609 556.872 478.768 560.938 475.866C573.945 466.585 591.309 479.93 596.14 477.247C624.709 461.391 665.649 473.526 676.973 487.386C692.406 506.33 642.278 514.231 629.357 539.75C633.919 536.576 640.401 531.99 642.623 533.043C645.093 534.213 643.022 541.427 642.299 545.795C645.815 534.782 653.85 521.087 659.447 518.747C669.337 514.605 697.432 498.047 703.158 485.99C708.885 473.932 689.451 454.512 689.451 454.512C689.451 454.512 666.037 465.049 659.792 465.049C653.548 465.049 647.314 459.776 641.588 459.028C635.861 458.279 596.841 471.444 590.597 471.07C584.352 470.695 566.654 458.653 559.892 459.371C553.13 460.088 543.715 464.635 543.715 464.635C543.715 464.635 537.363 472.622 544.233 477.434C553.458 483.938 561.178 491.472 567.097 499.748Z" fill="#065A92"/>
<path d="M659.117 475.757C652.646 473.355 638.086 472.981 632.888 478.877C627.69 484.773 630.731 489.016 630.731 489.016C630.731 489.016 615.902 479.33 632.025 468.418L644.191 466.32L658.211 471.491L659.117 475.757Z" fill="#065A92"/>
<path d="M669.711 481.373C689.21 483.19 721.112 478.948 729.125 478.066C729.125 478.066 737.753 484.423 744.547 485.678C751.342 486.934 757.554 498.875 762.083 492.526C766.613 486.177 763.474 482.028 767.292 482.387C771.11 482.746 778.703 487.254 781.615 486.95C784.753 486.622 801.901 486.365 807.962 488.603C814.023 490.841 787.331 473.909 789.865 470.478C791.601 468.138 834.342 454.263 856.257 461.898C878.171 469.534 870.978 459.559 870.352 455.885C869.727 452.212 882.453 446.479 889.431 443.781C896.409 441.082 927.178 430.764 940.023 424.142C952.867 417.52 979.312 409.596 984.564 406.071C989.816 402.546 996.201 392.992 1020.35 385.387L1021.23 383.352C1021.23 383.352 997.172 388.328 987.045 396.08C979.495 401.828 969.908 401.657 958.928 409.565C947.95 417.474 914.074 421.966 907.776 420.149C901.478 418.331 895.309 422.442 895.309 422.442C895.309 422.442 889.916 410.251 874.181 420.827C858.446 431.403 836.617 441.924 833.641 443.227C833.641 443.227 795.43 443.742 772.469 451.712C772.469 451.712 753.38 449.919 752.269 443.25C751.644 439.592 752.517 435.763 749.778 435.233C747.545 434.788 736.771 433.47 733.04 442.416C733.04 442.416 729.944 435.552 722.74 442.197C715.536 448.842 699.499 447.29 699.499 447.29C671.253 459.995 696.867 474.658 669.711 481.373Z" fill="#065A92"/>
<path d="M861.171 640.33C854.398 640.33 822.788 648.519 818.636 647.763C814.484 647.006 802.523 641.999 796.646 643.528C773.49 649.549 725.012 647.95 700.391 650.212H795.61C795.61 650.212 800.808 647.201 806.007 647.201C811.205 647.201 813.297 650.961 819.024 650.212C824.751 649.463 849.718 643.06 858.044 644.191C866.37 645.322 881.975 650.212 881.975 650.212H897.074C897.074 650.212 867.933 640.33 861.171 640.33Z" fill="#065A92"/>
<path d="M648.874 592.669C644.193 574.988 642.112 566.331 637.949 561.472C637.949 561.472 640.224 551.7 643.751 541.529C625.201 578.966 589.039 572.945 575.375 562.283C574.401 563.491 573.223 564.607 571.87 565.606C560.416 604.368 548.801 605.242 546.202 619.163C543.603 633.085 527.037 649.643 512.769 646.882C494.014 643.248 487.813 635.558 479.465 635.409C465.24 635.16 454.488 640.619 447.984 643.747C442.678 646.305 403.238 647.389 407.401 650.275H462.08C462.08 650.275 467.278 643.497 475.604 642.749C483.93 642 501.661 650.213 501.661 650.213H532.333C534.436 636.852 551.346 638.514 554.733 624.997C558.691 609.141 589.46 618.415 595.963 622.361C603.998 627.244 603.513 637.422 585.556 634.06C570.986 631.299 561.236 647.046 546.601 650.244H609.153C595.661 637.968 628.846 602.262 677.971 625.06C666.798 619.858 653.339 609.508 648.874 592.669Z" fill="#065A92"/>
<path d="M572.128 568.086L569 576.743C583.139 581.727 613.865 575.331 616.874 570.761C617.704 569.498 583.624 579.005 572.128 568.086Z" fill="#065A92"/>
<path d="M584.769 637.795C571.665 637.795 558.562 650.188 558.508 650.204H610.275C600.882 649.509 595.414 637.795 584.769 637.795Z" fill="#00090E"/>
<path d="M681.894 646.281C668.79 646.281 655.687 650.181 655.633 650.181H707.4C698.007 649.51 692.549 646.281 681.894 646.281Z" fill="#00090E"/>
<path d="M592.724 471.983C597.944 472.358 632.38 461.844 637.169 462.562C645.505 463.856 648.697 467.46 658.08 464.94C652.407 464.16 646.088 457.983 640.889 457.305C635.173 456.525 596.844 471.476 590.599 471.102C589.222 470.935 587.898 470.586 586.695 470.072C588.383 471.145 590.49 471.813 592.724 471.983Z" fill="#065A92"/>
<path d="M694.533 485.491C689.745 497.423 664.552 515.354 656.29 519.449C648.029 523.543 635.734 561.471 635.734 561.471C639.218 566.315 639.498 575.721 643.413 593.23C647.328 610.739 655.999 618.835 664.983 624.217C686.704 637.195 723.415 642.155 738.072 642.888C724.958 640.127 692.56 630.612 681.117 625.73C669.674 620.847 655.115 610.326 650.488 592.669C645.861 575.011 643.726 566.33 639.563 561.471C639.563 561.471 650.876 523.091 660.766 518.95C670.656 514.808 706.418 493.828 712.145 481.794C717.872 469.759 698.243 476.256 694.533 485.491Z" fill="#00090E"/>
<path d="M858.24 642.357C857.162 642.357 836.961 644.019 833.133 647.482C840.682 646.07 854.088 644.081 857.938 644.611C866.264 645.742 881.934 650.211 881.934 650.211H894.488C894.488 650.211 865.002 642.357 858.24 642.357Z" fill="#00090E"/>
<path d="M544.214 619.101C542.381 628.999 531.154 637.601 520.391 640.409C527.336 641.462 549.607 634.045 551.99 618.743C554.147 604.953 563.703 605.999 573.161 567.618C591.56 549.742 583.946 507.306 550.006 478.878C544.333 474.112 526.171 466.485 532.966 471.297C573.495 499.998 587.807 553.408 570.314 566.207C559 604.961 546.781 605.148 544.214 619.101Z" fill="#00090E"/>
<path d="M817.657 648.645C814.357 648.419 810.657 645.526 805.211 645.401C796.087 645.221 788.376 649.597 784.461 650.213H795.634C795.634 650.213 800.832 647.202 806.031 647.202C811.229 647.202 813.321 650.962 819.048 650.213C821.043 649.948 837.156 646.695 842.322 645.619C841.761 645.51 841.642 644.582 840.467 644.761C833.392 645.822 820.213 648.825 817.657 648.645Z" fill="#00090E"/>
<path d="M475.77 638.919C465.212 639.933 463.627 645.072 458.299 647.498C452.054 650.321 412.118 647.966 407.438 650.228H462.764C467.93 643.832 474.552 642.701 475.598 642.701C483.848 642.701 494.719 646.999 501.622 650.228H518.09C495.183 648.044 486.555 637.905 475.77 638.919Z" fill="#00090E"/>
<path d="M921.413 411.975C920.14 412.528 911.048 414.447 908.762 416.654C908.762 416.654 905.526 414.556 903.175 418.393C900.824 422.231 893.156 423.073 893.156 423.073C896.5 422.925 901.633 421.934 906.702 421.295C907.532 418.963 918.587 415.843 921.413 411.975Z" fill="#00090E"/>
<path d="M865.267 423.854C853.263 433.111 836.223 441.121 833.646 442.244C833.646 442.244 795.467 443.742 772.506 451.713C772.506 451.713 753.417 449.919 752.306 443.25C751.994 441.41 751.994 439.296 751.681 437.471C744.563 454.957 771.482 450.535 772.625 455.004C782.633 450.215 790.603 448.819 804.419 446.425C817.458 444.186 829.224 444.335 834.034 446.503C838.542 442.603 849.456 436.059 856.618 434.89C862.797 433.291 862.884 429.063 865.267 423.854Z" fill="#00090E"/>
<path d="M890.688 417.669L890.86 417.762C890.785 417.684 890.731 417.645 890.688 417.669Z" fill="#00090E"/>
<path d="M1020.34 385.434L1021.23 383.398C1021.23 383.398 997.932 386.908 987.794 394.653C980.245 400.401 969.891 401.672 958.912 409.612C947.933 417.552 914.058 422.013 907.76 420.196C901.461 418.378 895.303 422.442 895.303 422.442C894.421 420.617 892.871 418.999 890.817 417.762C891.388 418.417 892.672 422.512 892.553 427.379C894.926 429.219 939.036 418.909 940.621 421.397C942.206 423.885 907.188 434.999 898.01 438.064C894.789 439.152 891.313 439.79 887.764 439.943C886.554 441.197 885.042 442.283 883.3 443.149C860.134 454.622 875.308 459.301 866.907 461.641C855.895 464.652 841.152 454.536 827.639 456.813C822.408 457.702 801.054 468.582 785.815 466.57C786.311 473.356 805.001 484.657 799.62 485.639C786.678 487.979 770.792 480.734 763.911 478.721C765.248 482.504 762.908 491.2 760.309 491.801C756.718 492.674 743.204 480.773 738.642 475.649C735.666 475.064 730.553 474.479 728.375 472.919C724.435 474.041 720.392 474.964 716.274 475.68C699.374 478.721 690.391 491.84 725.873 481.794C725.873 481.794 737.93 485.647 744.703 486.911C751.476 488.174 758.982 500.583 763.512 494.234C768.042 487.886 763.652 483.315 767.47 483.69C771.288 484.064 778.05 488.549 780.962 488.244C784.09 487.917 801.885 486.341 807.924 488.58C813.964 490.818 788.954 474.174 791.154 470.641C793.354 467.108 835.167 456.603 857.082 464.254C878.996 471.905 871.868 459.769 871.253 456.064C870.638 452.36 884.195 446.557 891.216 443.866C898.237 441.176 927.108 430.795 939.985 424.173C952.862 417.552 979.274 409.627 984.526 406.102C989.778 402.577 996.195 393.007 1020.34 385.434Z" fill="#00090E"/>
<path d="M175.792 424.555C147.686 434.343 145.195 443.499 145.098 453.841L144.516 454.059C145.023 444.7 143.243 434.624 170.173 424.672L175.792 424.555Z" fill="#00090E"/>
<path d="M911.406 469.44L924.758 464.386C929.773 466.406 991.106 520.003 1083.78 462.881C1095.47 455.675 1109.96 446.222 1123.88 443.383L1124.03 444.038C1110.31 446.861 1095.9 456.774 1084.72 464.316C996.995 523.201 932.21 472.24 911.406 469.44Z" fill="#00090E"/>
<path d="M1123.88 443.352C1109.96 446.214 1095.47 455.667 1083.78 462.85C1009.43 508.678 956.52 482.8 933.947 468.863C933.289 468.458 931.003 467.093 930.917 467.709C930.604 470.306 941.367 476.584 941.41 477.52C941.41 479.26 936.59 478.706 933.656 476.694C929.051 473.574 916.983 467.132 912.626 466.11L910.016 469.456C930.841 472.271 996.996 523.177 1084.73 464.238C1095.91 456.72 1110.32 446.807 1124.04 443.96L1123.88 443.352Z" fill="#00090E"/>
<path d="M1054.75 480.546L1058.66 477.972C1073.42 478.128 1096.84 471.39 1114.37 479.774L1113.76 480.281C1095.41 471.366 1069.91 480.694 1054.75 480.546Z" fill="#00090E"/>
<path d="M940.073 378.188L939.211 378.242C940.03 383.382 943.277 407.099 898.142 422.222C896.589 422.745 900.806 423.65 902.542 423.673C905.114 423.527 907.596 422.924 909.768 421.918C919.938 417.262 945.261 401.164 940.073 378.188Z" fill="#00090E"/>
<path d="M915.493 419.851C914.145 420.468 902.681 422.23 901.344 422.09C906.38 421.091 913.045 419.688 916.745 417.161C921.964 413.581 925.189 410.258 925.685 408.246C930.751 404.227 934.576 399.474 936.908 394.304C939.24 389.134 940.024 383.664 939.209 378.258L940.072 378.203C945.26 401.164 925.674 415.18 915.493 419.851Z" fill="#00090E"/>
<path d="M846.547 459.488L857.871 451.938C882.978 469.814 929.396 459.629 957.793 463.996C1000.62 470.594 1035.93 454.777 1060.96 432.916L1063.48 434.219C1047.12 448.499 1011.57 474.712 958.149 467.709C929.946 463.981 896.103 480.874 846.547 459.488Z" fill="#065A92"/>
<path d="M1063.49 434.217L1061.88 433.391C1036.85 455.229 1000.62 470.593 957.795 463.995C936.635 460.743 905.413 465.329 880.608 460.618C875.216 459.581 873.458 454.02 873.716 451.742C873.005 453.833 858.165 453.349 854.304 450.962C860.98 462.661 894.305 462.349 900.247 466.218C903.224 468.16 891.166 468.909 882.377 467.848C875.507 467.021 867.062 461.827 858.855 459.69C854.541 458.559 850.292 459.939 846.312 459.737C842.807 459.557 849.246 462.505 850.702 462.802C859.243 464.549 870.88 468.019 878.828 469.275C911.259 474.368 936.592 464.908 958.194 467.715C1011.57 474.711 1047.13 448.498 1063.49 434.217Z" fill="#00090E"/>
<path d="M993.891 465.228C1013.83 456.166 1006.83 438.711 1019.59 425.92C1026.87 418.62 1052.07 413.925 1079.99 415.524L1080.16 416.054C1050.04 414.931 1028.39 419.696 1021.29 426.77C1008.69 439.397 1017.53 455.339 998.841 465.026L993.891 465.228Z" fill="#00090E"/>
<path d="M977.461 487.379C996.086 497.807 1016.36 487.044 1037.34 491.279C1049.32 493.712 1064.08 509.217 1071.59 528.715L1070.97 529.012C1062.07 508.172 1048.41 495.092 1036.81 492.729C1016.08 488.51 998.416 499.998 979.413 490.647L977.461 487.379Z" fill="#00090E"/>
<path d="M1044.13 494.312C1056.38 496.489 1067.06 502.159 1075.5 508.476L1074.83 508.78C1067.33 503.314 1058.13 499.232 1047.99 496.878L1044.13 494.312Z" fill="#00090E"/>
<path d="M976.242 487.783L979.337 488.992C982.476 497.002 994.156 506.151 1001.32 510.588L1000.85 510.978C993.595 506.502 979.424 495.957 976.242 487.783Z" fill="#00090E"/>
<path d="M936.566 399.044C935.584 397.741 939.963 386.089 922.545 378.766C922.506 378.803 922.47 378.842 922.438 378.883C941.085 387.563 932.769 396.922 933.697 403.801L936.566 399.044Z" fill="#00090E"/>
<path d="M756.711 493.797C759.839 495.303 766.676 516.821 803.431 517.726C803.459 517.641 803.477 517.555 803.485 517.468C763.052 515.128 764.907 494.07 762.826 485.959L756.711 493.797Z" fill="#00090E"/>
<path d="M764.094 502.508L766.714 504.146C766.315 507.203 769.626 513.247 777.273 517.163L776.734 517.506C764.881 511.118 764.439 506.595 764.094 502.508Z" fill="#00090E"/>
<path d="M575.171 530.016C571.688 529.002 558.994 508.958 522.735 513.38C522.724 513.466 522.724 513.552 522.735 513.638C562.995 510.081 566.435 530.274 578.816 539.173L575.171 530.016Z" fill="#00090E"/>
<path d="M696.625 504.537L699.763 505.606C700.518 508.624 705.954 513.803 714.776 516.088L714.388 516.525C700.605 512.656 698.48 508.382 696.625 504.537Z" fill="#00090E"/>
<path d="M565.502 522.56L562.482 521.336C562.007 518.286 557.09 512.85 548.516 510.128L548.936 509.707C562.32 514.238 564.024 518.575 565.502 522.56Z" fill="#00090E"/>
<path d="M513.305 459.589L515.127 459.332C511.784 457.242 509.379 452.156 510.813 447.633H510.317C508.279 454.816 510.9 457.335 513.305 459.589Z" fill="#00090E"/>
<path d="M859.719 430.63C864.033 416.919 894.899 391.103 900 384.536C908.768 373.235 913.902 363.049 918.906 359.953C922.142 357.941 926.304 359.953 928.688 338.629C929.626 330.237 925.452 310.201 934.803 295.211L937.176 295.109C929.572 306.808 934.835 329.574 934.07 338.083C932.15 359.477 928.548 360.421 925.55 362.378C921.57 364.983 918.237 375.388 910.72 386.751C902.815 398.692 884.75 414.049 897.778 422.48L859.719 430.63Z" fill="#065A92"/>
<path d="M866.189 424.438C874.439 410.399 904.065 382.86 908.552 385.441C910.709 386.658 902.739 394.223 896.947 403.629C890.8 413.612 886.324 424.017 893.442 427.113L898.759 422.355C885.731 413.901 903.515 399.059 911.421 387.118C918.97 375.754 921.569 364.968 925.549 362.363C928.547 360.405 932.149 359.462 934.069 338.068C934.835 329.559 929.981 306.091 937.585 294.392L934.63 294.158C925.258 309.148 929.626 330.246 928.687 338.614C926.304 359.922 921.138 357.473 917.902 359.485C912.898 362.605 908.045 372.986 899.277 384.287C894.176 390.854 862.253 417.894 857.906 431.605L863.504 429.804C864.255 427.979 865.152 426.187 866.189 424.438Z" fill="#00090E"/>
<path d="M934.391 295.359C938.036 290.469 950.029 283.738 968.902 283.574V284.05C947.893 284.471 937.885 293.347 934.499 297.886L934.391 295.359Z" fill="#00090E"/>
<path d="M938.155 284.651C942.771 273.459 948.811 267.126 957.568 256.308C968.914 242.269 982.179 228.543 983.603 214.441L984.681 214.504C983.247 228.8 970.661 243.205 959.272 257.314C950.558 268.085 942.966 282.147 938.404 293.238L936.883 292.879L938.155 284.651Z" fill="#00090E"/>
<path d="M932.75 297.567C948.043 264.436 918.492 254.913 901.711 248.9L901.959 248.541C917.058 253.104 949.736 263.89 937.657 293.145L932.75 297.567Z" fill="#00090E"/>
<path d="M1077.57 210.277C1060.7 176.373 1091.47 167.857 1108.45 161.921L1108.18 161.555C1092.93 166.031 1059.78 176.631 1073.22 206.549L1077.57 210.277Z" fill="#00090E"/>
<path d="M905.893 257.774L905.602 257.29C905.904 257.189 914.521 254.67 919.881 255.614L923.601 257.797C916.354 254.451 905.957 257.751 905.893 257.774Z" fill="#00090E"/>
<path d="M946.633 287.669C948.596 284.878 951.031 282.274 953.88 279.916L954.247 280.08C951.797 282.039 949.981 284.367 948.93 286.896L946.633 287.669Z" fill="#00090E"/>
<path d="M187.966 419.15L196.389 421.225C196.12 421.225 167.065 424.696 144.158 434.445C130.85 440.115 122.653 453.943 119.935 461.742L119.461 461.672C122.222 453.795 129.394 438.937 144.266 432.292C167.044 422.075 187.697 419.166 187.966 419.15Z" fill="#00090E"/>
<path d="M987.922 395.3C1007.47 382.377 1038.11 353.855 1039.89 346.523C1041.67 339.192 1039.65 325.122 1048.07 317.666L1048.45 317.892C1040.33 325.06 1043.05 340.58 1041.23 347.943C1039.41 355.305 1015.3 380.528 995.601 393.522L987.922 395.3Z" fill="#00090E"/>
<path d="M1002.45 392.384L1014.79 382.018C1051.11 368.884 1070.15 364.54 1089.21 369.321C1104.84 373.221 1152.23 380.357 1188.31 367.488C1210.89 359.432 1239.49 355.953 1239.77 355.914L1240 356.694C1222.3 358.933 1205.15 363.06 1189.12 368.939C1152.88 382.198 1103.99 376.028 1088.24 372.059C1069.72 367.457 1038.68 379.281 1002.45 392.384Z" fill="#00090E"/>
<path d="M1053.84 373.352C1057.46 365.373 1067.69 350.593 1095.66 341.257C1119.61 333.263 1160.29 328.389 1160.7 328.342L1160.96 329.176C1160.56 329.223 1123.89 333.856 1100.12 341.78C1072.58 350.968 1065.08 364.679 1061.52 372.533L1053.84 373.352Z" fill="#00090E"/>
<path d="M1014.25 386.027L999.781 390.137L1009.05 380.989C1031.12 369.188 1053.87 353.691 1062.92 341.992C1070.67 331.978 1089.65 310.967 1101.74 303.495C1112.28 296.959 1124.23 279.551 1120.44 265.052C1108.97 221.197 1062.03 213.085 1059.36 187.059C1057.94 173.309 1064.68 147.236 1064.75 146.971L1065.83 147.088C1065.83 147.353 1059.36 174.19 1061.22 187.831C1064.25 209.942 1112.25 220.339 1124.25 265.559C1128.16 280.339 1115.62 298.714 1104.84 305.374C1092.91 312.768 1075.16 333.577 1067.42 343.552C1058.33 355.274 1036.47 374.156 1014.25 386.027Z" fill="#00090E"/>
<path d="M1110.62 299.79L1117.95 292.31C1140.26 283.872 1155.43 268.484 1158.84 257.502C1161.93 247.62 1180.25 237.864 1202.13 231.109L1202.37 231.694C1184.76 237.513 1164.45 246.029 1161.02 259.062C1157.74 271.557 1131.39 291.936 1110.62 299.79Z" fill="#00090E"/>
<path d="M1122.63 264.723C1127.14 251.644 1123.6 242.464 1120.47 230.656C1117.03 217.779 1113.58 202.579 1120.99 183.268L1121.67 183.369C1114.53 203.171 1119.04 218.895 1122.46 231.725C1125.51 243.143 1129.19 257.283 1124.62 270.542L1122.63 264.723Z" fill="#00090E"/>
<path d="M1117.94 335.954C1134.51 328.451 1139.32 321.705 1139.37 321.643L1140.06 321.83C1139.88 322.095 1135.66 328.412 1122.64 334.972L1117.94 335.954Z" fill="#00090E"/>
<path d="M1120.09 227.498C1123.82 215.721 1130.07 210.785 1130.13 210.738L1129.72 210.418C1129.47 210.605 1123.54 215.098 1119.86 224.535L1120.09 227.498Z" fill="#00090E"/>
<path d="M1180.27 240.008C1188.98 231.764 1188.97 226.289 1188.97 226.242H1189.6C1189.6 226.453 1189.84 231.522 1183.38 238.44L1180.27 240.008Z" fill="#00090E"/>
<path d="M1068.69 218.848C1051.98 218.192 1043.81 221.967 1043.73 222.014L1043.41 221.554C1043.72 221.398 1051.17 217.732 1064.77 217.654L1068.69 218.848Z" fill="#00090E"/>
<path d="M1183.93 370.015L1188.07 368.455C1198.44 369.696 1208.2 372.805 1216.47 377.494L1216.08 377.884C1203.56 370.592 1184.1 370.023 1183.93 370.015Z" fill="#00090E"/>
<path d="M979.16 492.393L981.166 494.428C981.296 495.06 981.673 500.738 978.751 504.676L978.352 504.536C980.239 502.025 980.713 495.325 979.16 492.393Z" fill="#00090E"/>
<path d="M1054.7 497.891L1057.86 499.264C1058.15 499.264 1064.98 499.186 1069.72 497.283L1069.49 497.018C1066.5 498.297 1058.69 498.515 1054.7 497.891Z" fill="#00090E"/>
<path d="M935.741 462.834L927.836 463.326C928.03 463.263 951.422 456.486 967.125 444.607L967.686 444.732C954.938 455.916 935.946 462.772 935.741 462.834Z" fill="#00090E"/>
<path d="M929.881 427.73L924.984 430.507C930.291 429.337 942.165 427.496 957.199 431.762L957.458 431.466C944.483 426.739 930.032 427.714 929.881 427.73Z" fill="#00090E"/>
<path d="M940.178 428.463L936.5 428.338C942.462 430.294 947.314 433.672 950.24 437.908L950.51 437.853C948.217 434.142 944.662 430.912 940.178 428.463Z" fill="#00090E"/>
<path d="M976.483 401.883L969.57 403.442C974.229 401.149 984.443 395.222 987.311 384.514L988.056 384.428C987.279 394.107 976.591 401.812 976.483 401.883Z" fill="#00090E"/>
<path d="M923.508 362.309L921.891 366.63C925.191 363.409 933.236 356.818 949.004 353.722V353.371C934.487 355.22 923.616 362.239 923.508 362.309Z" fill="#00090E"/>
<path d="M877.039 436.729L881.547 432.213C886.443 430.802 903.311 430.084 909.76 432.104L909.167 432.385C890.801 429.827 882.173 433.984 877.039 436.729Z" fill="#00090E"/>
<path d="M1017.06 461.641L1024.98 456.743C1032.27 456.026 1055.84 459.083 1064.01 463.256L1063.08 463.49C1038.64 455.745 1025.18 459.208 1017.06 461.641Z" fill="#00090E"/>
<path d="M927 410.734L930.235 406.943C934.183 405.594 948.246 404.252 953.897 405.563L953.434 405.812C937.742 404.619 930.99 408.324 927 410.734Z" fill="#00090E"/>
<path d="M151.906 519.253L153.761 519.822C162.389 508.123 203.479 454.839 324.162 457.623C328.314 457.717 321.703 452.476 318.273 451.079C313.852 449.278 305.709 448.825 300.306 449.2C270.594 451.251 187.658 465.984 151.906 519.253Z" fill="#00090E"/>
<path d="M299.249 448.584C301.988 448.389 307.629 449.052 312.061 449.364C300.113 450.052 288.289 451.596 276.763 453.973C259.151 457.553 246.047 462.163 241.011 466.086C184.606 481.084 160.2 511.166 153.761 519.823L151.906 519.254C187.658 465.984 269.547 450.628 299.249 448.584Z" fill="#00090E"/>
<path d="M243.357 459.721L229.24 465.313C218.649 465.126 187.815 456.96 179.188 449.761L180.622 449.59C209.622 464.44 230.534 461.78 243.357 459.721Z" fill="#00090E"/>
<path d="M678.227 507.906L685.884 503.422C692.355 502.899 712.522 506.331 719.036 510.511L718.185 510.714C697.941 502.798 685.69 505.793 678.227 507.906Z" fill="#00090E"/>
<path d="M155.218 428.166L152.285 429.843C147.229 430.488 142.021 429.973 137.391 428.369L137.574 428.096C145.544 430.654 155.099 428.181 155.218 428.166Z" fill="#00090E"/>
<path d="M256.52 317.353C255.748 313.014 256.007 308.612 257.286 304.336L257.717 304.43C257.717 304.508 255.636 312.712 258.105 318.874L256.52 317.353Z" fill="#00090E"/>
<path d="M308.997 413.285L310.248 420.937C292.334 402.772 282.811 399.512 261.565 398.272C251.568 397.687 244.051 393.272 238.378 387.353C232.985 381.667 231.076 374.437 233.471 368.479L234.474 368.689C232.166 374.429 233.988 381.418 239.241 386.924C244.719 392.672 253.261 395.402 262.967 395.963C284.515 397.227 289.099 398.03 308.997 413.285Z" fill="#00090E"/>
<path d="M342.926 456.797C308.49 461.016 277.063 476.545 263.269 487.448C249.993 497.962 227.14 498.461 211.609 495.692L211.857 494.959C228.326 497.891 249.324 496.137 261.468 486.536C275.337 475.562 292.291 453.202 329.542 446.502L342.926 456.797Z" fill="#00090E"/>
<path d="M208.749 461.125C188.851 460.564 155.688 472.278 140.805 454.792L141.689 454.402C156.205 471.467 183.89 459.207 204.36 459.784L208.749 461.125Z" fill="#00090E"/>
<path d="M311.271 454.785C304.066 448.218 269.803 422.542 249.959 413.823C213.096 397.631 208.006 361.786 176.158 338.684C161.059 327.765 130.667 291.616 128.812 280.619L130.883 280.252C132.727 291.132 163.939 326.307 178.941 337.187C207.111 357.621 223.072 397.429 256.16 411.584C266.568 416.046 294.748 429.375 311.443 438.742C316.728 441.713 329.529 447.812 329.529 447.812L334.102 453.584L311.271 454.785Z" fill="#00090E"/>
<path d="M250.888 413.745C219.968 406.928 193.728 382.992 159.314 384.888C143.902 385.722 105.702 389.45 85.7828 377.775C61.7325 363.681 50.3869 344.519 52.0693 320.84L52.8242 320.879C51.1634 344.277 63.3826 362.34 87.1632 376.254C106.684 387.695 146.825 382.774 162.193 381.94C196.975 380.052 224.746 402.015 241.149 404.791L250.888 413.745Z" fill="#00090E"/>
<path d="M121.478 385.348C91.0106 389.902 69.786 381.214 69.5703 381.152L70.0448 380.738C70.2605 380.801 87.732 387.882 115.341 383.725L121.478 385.348Z" fill="#00090E"/>
<path d="M195.033 354.735C181.336 345.212 149.963 337.351 132.545 335.627C119.377 334.317 92.253 337.811 71.4922 331.688L71.8265 330.979C94.3992 336.734 122.03 332.609 135.134 333.911C152.724 335.65 171.576 338.169 183.256 342.592L195.033 354.735Z" fill="#00090E"/>
<path d="M138.865 296.709L144.258 304.68C108.452 268.288 94.3885 300 49.75 259.023L50.2677 258.586C91.8325 297.013 106.403 268.998 138.865 296.709Z" fill="#00090E"/>
<path d="M132.18 420.608L123.11 423.034C92.9123 424.266 43.8951 409.393 0.0546875 356.779L1.37044 356.459C48.1012 412.879 98.0998 423.127 132.18 420.608Z" fill="#00090E"/>
<path d="M67.1923 410.025L70.9347 411.967C61.4548 408.785 43.3901 410.719 43.2391 410.75L43.0234 410.345C43.649 410.235 55.7172 408.442 67.1923 410.025Z" fill="#00090E"/>
<path d="M300.791 386.401C288.68 378.305 273.171 362.106 269.979 348.816C265.482 330.098 235.37 319.499 235.047 319.366L235.554 318.711C235.888 318.844 268.512 331.283 272.675 347.194C275.797 359.556 284.895 370.713 298.343 378.672L300.791 386.401Z" fill="#00090E"/>
<path d="M187.116 346.281L183.967 343.216C186.879 333.903 185.336 318.328 175.695 307.783C168.361 299.758 176.029 279.456 157.619 266.798C153.208 263.764 144.796 260.356 135.057 256.409C116.335 248.821 92.9964 239.384 86.0078 227.349L86.9677 227.107C93.8376 238.9 117.575 247.752 136.157 255.278C145.961 259.248 155.268 262.625 159.776 265.73C178.51 278.606 170.561 299.703 179.329 309.343C189.165 320.106 190.88 334.418 187.116 346.281Z" fill="#00090E"/>
<path d="M267.827 339.8L264.667 337.101C263.589 326.596 250.852 306.099 231.234 293.597L231.741 293.082C251.521 305.693 265.951 327.399 267.827 339.8Z" fill="#00090E"/>
<path d="M154.173 338.27L161.076 339.393C149.439 334.573 125.486 318.008 117.494 301.832L116.75 301.918C124.796 318.226 143.399 333.224 154.173 338.27Z" fill="#00090E"/>
<path d="M295.039 341.953L295.643 339.13C304.832 333.593 317.504 321.901 322.271 309.906L322.95 309.773C319.585 320.887 305.651 335.293 295.039 341.953Z" fill="#00090E"/>
<path d="M970.539 242.629L972.146 239.509C1001.65 231.882 1021.49 210.574 1021.76 210.355L1022.66 210.839C1022.4 211.034 1000.11 233.434 970.539 242.629Z" fill="#00090E"/>
<path d="M1092.29 222.787L1090.13 220.15C1060.16 220.767 1037.1 205.332 1036.86 205.215L1036.05 205.932C1036.34 206.088 1061.98 221.89 1092.29 222.787Z" fill="#00090E"/>
<path d="M1060.19 190.061L1060.25 187.449C1037.9 178.277 1030.44 159.582 1030.37 159.371L1029.29 159.644C1029.42 159.855 1038.51 179.673 1060.19 190.061Z" fill="#00090E"/>
<path d="M167.838 274.909L163.524 271.227C162.381 266.86 157.97 258.866 137.5 246.956C117.365 235.257 130.339 221.148 130.447 220.984L130.759 221.094C130.652 221.25 118.432 235.132 139.679 247.19C158.196 257.75 167.568 268.997 167.838 274.909Z" fill="#00090E"/>
<path d="M1040.21 347.717C1043.8 344.223 1050 342.125 1050.28 342.039L1050.56 342.499C1046.25 344.137 1043.2 346.453 1040.07 350.657L1040.21 347.717Z" fill="#00090E"/>
<path d="M1060.1 509.053C1062.42 516.002 1060.3 524.168 1058.19 529.066L1058.85 529.386C1061.39 523.824 1062.54 517.979 1062.24 512.126L1060.1 509.053Z" fill="#00090E"/>
<path d="M150.48 254.608L147.18 252.401C149.337 249.944 138.994 242.105 144.505 231.725L145.055 231.881C139.706 241.957 150.566 249.016 150.48 254.608Z" fill="#00090E"/>
<path d="M212.701 376.222L211.623 371.339C214.255 366.293 216.811 356.591 207.029 339.144C197.182 321.572 222.311 308.968 222.559 308.812L222.775 309.007C222.537 309.156 198.379 321.666 208.97 339.869C218.018 355.413 217.501 369.608 212.701 376.222Z" fill="#00090E"/>
<path d="M213.204 350.367L211.867 347.248C216.073 344.978 212.73 334.098 226.966 323.85L227.365 324.138C213.55 334.082 218.079 344.221 213.204 350.367Z" fill="#00090E"/>
<path d="M631.359 650.211H645.585C645.585 650.211 647.407 639.027 674.79 639.666C680.679 639.799 696.662 646.296 709.442 645.828C697.018 644.44 681.93 638.146 676.677 637.444C649.51 633.809 631.359 650.211 631.359 650.211Z" fill="#065A92"/>
<path d="M391.228 600.389C396.114 601.122 406.381 599.921 411.87 596.092C405.087 597.246 397.926 590.172 394.917 588.807C388.446 585.859 380.551 587.801 383.14 590.827C380.487 590.227 370.672 597.348 391.228 600.389Z" fill="#FFB35B"/>
<path d="M687.547 495.419C691.138 491.184 693.101 487.09 694.277 479.938C695.452 472.786 699.475 468.239 702.732 466.109C702.732 466.109 695.053 475.328 697.005 479.563C698.957 483.798 702.398 482.262 702.398 482.262L697.512 492.549L687.547 495.419Z" fill="#00090E"/>
<path d="M769.125 454.871C769.125 454.871 785.842 459.02 789.357 461.313C790.099 460.671 790.499 459.859 790.485 459.022C790.471 458.185 790.044 457.38 789.282 456.751C787.869 455.628 780.514 454.871 769.125 454.871Z" fill="#065A92"/>
<path d="M903.738 383.336C897.419 384.826 913.865 367.652 918.762 365.64C923.464 363.697 914.998 376.644 913.962 377.814C912.927 378.984 906.898 382.595 903.738 383.336Z" fill="#065A92"/>
<path d="M961.544 411.328C956.626 411.827 966.279 406.75 968.263 405.642C970.248 404.535 976.773 402.561 978.326 402.608C990.21 402.975 980.116 409.448 961.544 411.328Z" fill="#065A92"/>
<path d="M931.48 420.007C929.518 421.005 939.547 421.567 940.669 421.395C944.811 420.764 952.026 417.199 952.435 416.716C953.6 415.265 933.238 419.118 931.48 420.007Z" fill="#065A92"/>
<path d="M799.536 450.324C796.754 451.439 808.692 456.212 810.127 456.446C818.636 457.858 830.844 450.028 831.61 449.427C833.767 447.742 812.478 445.106 799.536 450.324Z" fill="#065A92"/>
<path d="M955.621 413.566C954.597 414.112 958.792 415.126 959.439 415.071C961.984 414.814 972.284 409.698 972.888 409.206C974.7 407.748 956.581 413.044 955.621 413.566Z" fill="#065A92"/>
<path d="M866.48 449.271C864.625 451.44 864.949 456.626 873.221 460.627L869.878 454.177C869.425 456.221 865.219 452.664 866.48 449.271Z" fill="#00090E"/>
<path d="M753.612 446.042C750.031 448.311 746.99 450.206 741.867 451.259C747.055 448.842 749.492 447.274 751.929 444.076L753.612 446.042Z" fill="#00090E"/>
<path d="M652.244 462.748C643.475 466.687 634.125 473.987 634.125 473.987C647.132 467.084 664.743 465.579 664.743 465.579C660.314 465.407 656.016 464.434 652.244 462.748Z" fill="#00090E"/>
<path d="M618.609 573.723C618.609 573.723 634.787 567.827 639.252 560.145L640.503 551.066C635.294 560.925 630.796 566.392 618.609 573.723Z" fill="#00090E"/>
<path d="M641.594 625.94C651.742 623.966 663.832 624.622 675.685 629.566L669.904 624.442C658.116 621.143 648.216 623.584 641.594 625.94Z" fill="#00090E"/>
<path d="M578.708 495.592C573.423 500.888 579.323 506.784 580.423 524.894L573.078 507.033C576.292 508.039 572.647 499.133 578.708 495.592Z" fill="#00090E"/>
<path d="M472.541 477.02C475.259 473.658 502.285 465.485 518.678 463.051C527.5 461.741 530.714 456.882 542.664 452.912C531.577 453.084 522.928 461.367 520.695 461.491C512.337 462.006 489.096 468.745 478.451 469.86C467.806 470.975 434.697 465.711 434.697 465.711C434.697 465.711 440.294 471.677 436.854 474.29C433.413 476.903 403.227 472.995 403.227 472.995L425.087 486.394C442.926 495.177 452.999 486.02 452.999 486.02C459.168 486.917 491.544 491.097 499.514 489.14C507.484 487.182 567.674 501.182 567.674 501.182C567.674 501.182 545.695 474.477 545.878 473.409C531.955 470.858 467.353 483.384 472.541 477.02Z" fill="#00090E"/>
<path d="M697.648 474.572C699.212 469.658 714.785 451.712 716.651 459.48C718.141 465.739 716.208 472.172 711.259 477.419C710.353 478.37 692.051 492.058 697.648 474.572Z" fill="#065A92"/>
<path d="M564.07 471.709C556.435 471.304 524.242 463.777 534.401 459.901C539.082 458.115 558.678 459.121 564.836 460.938C566.432 461.406 591.302 473.152 564.07 471.709Z" fill="#065A92"/>
<path d="M527.539 459.535C544.579 453.974 557.996 460.144 570.139 461.61L540.815 451.744C532.241 451.642 529.696 456.182 527.539 459.535Z" fill="#00090E"/>
<path d="M576.288 465.26C568.739 461.36 551.483 457.695 547.094 457.242L559.69 458.155C567.445 460.37 573.193 462.335 576.288 465.26Z" fill="#00090E"/>
<path d="M541.928 463.863C542.597 470.532 548.658 477.294 551.225 479.914L545.196 477.496C542.297 473.278 541.162 468.541 541.928 463.863Z" fill="#00090E"/>
<path d="M875.469 431.948C888.605 434.795 894.094 425.943 906.939 425.475C897.642 426.816 890.309 423.135 887.354 417.488C884.841 424.203 888.022 432.705 875.469 431.948Z" fill="#00090E"/>
<path d="M1086.94 273.404L1086.02 273.443C1087.02 288.777 1083.93 314.358 1074.32 328.584C1075.73 327.804 1079.36 325.527 1080.73 324.809C1087.67 310.576 1087.87 287.412 1086.94 273.404Z" fill="#00090E"/>
<path d="M1216.41 241.544L1216.17 241.965C1202.94 241.91 1179.79 244.008 1165.16 248.789C1166.17 248.127 1168.96 246.403 1169.9 245.756C1183.95 242.183 1204.33 241.489 1216.41 241.544Z" fill="#00090E"/>
<path d="M920.75 420.304C921.181 419.399 932.71 416.833 936.561 414.774C938.631 413.659 943.387 416.334 943.387 416.334C943.387 416.334 926.196 420.631 920.75 420.304Z" fill="#00090E"/>
<path d="M886.005 398.513C885.563 397.608 892.357 390.401 893.554 387.055C894.212 385.254 900.252 385.207 900.252 385.207C900.252 385.207 890.524 396.29 886.005 398.513Z" fill="#00090E"/>
<path d="M681.874 485.18C678.908 481.685 677.689 471.921 681.399 469.581C683.837 468.084 689.067 466.032 689.876 467.873C692.357 473.496 686.964 491.154 681.874 485.18Z" fill="#065A92"/>
<path d="M697.943 443.843C691.246 454.762 662.094 465.985 654.114 464.659L649.109 468.278C653.704 466.921 665.438 464.277 667.444 470.906C694.266 448.156 718.575 456.634 730.352 438.688L697.943 443.843Z" fill="#00090E"/>
<path d="M670.643 479.578C667.407 475.764 669.327 471.701 671.85 469.15C669.575 475.062 671.732 475.678 670.643 479.578Z" fill="#00090E"/>
<path d="M985.425 402.117C980.173 403.209 987.28 395.097 992.359 393.194C997.126 391.432 1002.28 390.426 1002.34 391.011C1002.39 391.596 988.768 401.423 985.425 402.117Z" fill="#065A92"/>
<path d="M722.825 463.761L726.837 462.006C726.837 462.006 725.823 448.841 735.098 439.958C735.098 439.958 727.128 436.378 724.572 441.408C722.749 444.973 722.674 459.971 722.825 463.761Z" fill="#00090E"/>
<path d="M750.69 435.575C747.467 434.303 743.78 433.78 740.13 434.077C736.481 434.375 733.047 435.478 730.296 437.236C728.516 438.336 729.627 443.53 728.797 446.595C731.288 442.095 746.225 437.345 750.69 435.575Z" fill="#00090E"/>
<path d="M713.525 466.857C713.525 466.857 714.776 473.775 714.075 476.451C713.654 478.057 712.339 479.921 709.211 481.785C713.234 478.268 713.568 470.453 713.525 466.857Z" fill="#00090E"/>
<path d="M665.002 494.553C668.302 502.453 654.217 517.256 644.188 526.163L659.168 515.33C672.153 501.58 665.002 494.553 665.002 494.553Z" fill="#065A92"/>
<path d="M486.87 474.346C486.018 476.475 477.951 482.512 459.488 483.284C452.866 483.565 425.116 483.947 424.135 481.974C423.251 480.203 440.183 475.196 445.899 473.862C454.742 471.78 488.424 470.485 486.87 474.346Z" fill="#065A92"/>
<path d="M433.4 483.298C425.98 483.579 401.466 488.883 397.961 486.34C394.456 483.798 408.433 477.457 409.447 477.137C413.437 475.889 425.333 480.101 438.393 475.897C441.176 475.008 434.004 483.283 433.4 483.298Z" fill="#065A92"/>
<path d="M432.117 480.733C436.561 477.753 446.191 473.674 452.155 472.723C452.155 472.723 443.474 472.278 438.912 474.454C435.714 475.918 433.313 478.136 432.117 480.733Z" fill="#00090E"/>
<path d="M491.026 481.288C486.345 478.948 477.987 477.084 473.641 472.396C474.958 475.535 477.765 478.236 481.568 480.024L491.026 481.288Z" fill="#00090E"/>
<path d="M619.086 521.524C640.03 519.263 655.636 502.026 651.872 496.216C648.216 490.569 638.855 501.199 636.913 507.915C634.131 517.375 619.086 521.524 619.086 521.524Z" fill="#065A92"/>
<path d="M755.562 455.237C771.319 467.396 802.692 466.273 806.78 460.026C810.749 453.974 791.854 453.584 783.193 456.656C770.899 461.032 755.562 455.237 755.562 455.237Z" fill="#065A92"/>
<path d="M588.336 510.113C589.555 519.199 598.603 532.209 607.36 532.794C616.118 533.379 630.009 522.811 630.009 522.811C630.009 522.811 612.893 532.021 605.452 530.111C596.425 527.794 588.336 510.113 588.336 510.113Z" fill="#065A92"/>
<path d="M595.195 565.48C598.927 567.11 612.807 569.38 623.808 560.02C634.808 550.661 625.857 554.491 619.817 559.521C608.978 568.553 595.195 565.48 595.195 565.48Z" fill="#065A92"/>
<path d="M406.47 475.757C411.755 476.272 399.999 480.764 397.001 480.343C392.913 479.774 378.667 476.069 377.459 471.865C376.251 467.662 399.891 475.125 406.47 475.757Z" fill="#065A92"/>
<path d="M523.228 461.811C515.053 462.31 510.728 459.471 507.892 456.89C505.055 454.308 498.725 450.112 495.5 449.995L495.651 449.488C499.415 449.621 506.997 454.215 509.671 456.648C512.346 459.081 519.184 460.275 526.927 459.768L523.228 461.811Z" fill="#00090E"/>
<path d="M848.335 448.475C836.773 450.963 825.46 456.734 818.547 460.259L834.034 456.679C835.986 452.281 848.335 448.475 848.335 448.475Z" fill="#00090E"/>
<path d="M596.383 481.724C601.592 482.551 611.115 485.156 617.823 490.545C617.823 490.545 616.939 485.904 609.594 483.292C602.25 480.679 596.383 481.724 596.383 481.724Z" fill="#065A92"/>
<path d="M736.771 481.091L738.928 476.318C737.694 474.464 737.186 472.4 737.461 470.352C736.652 472.325 734.776 477.41 736.771 481.091Z" fill="#00090E"/>
<path d="M876.367 447.119C880.908 443.219 892.199 435.568 899.145 433.174C899.145 433.174 891.444 437.58 890.29 441.48C889.136 445.38 876.367 447.119 876.367 447.119Z" fill="#00090E"/>
<path d="M876.444 468.932C869.574 466.359 855.952 460.213 851.477 456.703C851.477 456.703 859.403 460.806 866.036 461.812C872.669 462.818 876.444 468.932 876.444 468.932Z" fill="#00090E"/>
<path d="M868.577 420.367C863.95 426.607 866.086 430.904 864.091 434.461C863.293 435.888 857.695 440.747 857.695 440.747C857.695 440.747 862.937 434.289 862.009 431.559C861.082 428.829 862.743 425.655 862.743 425.655L868.577 420.367Z" fill="#00090E"/>
<path d="M774.43 459.465C771.841 464.659 787.372 468.044 791.405 473.075C791.405 473.075 792.592 469.651 790.478 467.436C787.814 465.728 776.436 464.573 774.43 459.465Z" fill="#00090E"/>
<path d="M522.559 463.2C529.116 463.925 532.945 466.561 529.03 467.809C525.115 469.057 501.226 473.612 497.635 473.269C490.797 472.692 517.77 462.67 522.559 463.2Z" fill="#065A92"/>
<path d="M820.945 549.772C838.201 551.885 844.845 547.681 847.907 544.172C852.707 538.712 846.904 535.959 840.984 538.096C834.567 540.413 832.863 546.254 820.945 549.772Z" fill="#FFB35B"/>
<path d="M999.742 519.972C1021.31 515.682 1022.96 512.321 1023.03 510.55C1023.07 510.128 1022.96 509.705 1022.71 509.321C1022.47 508.938 1022.09 508.606 1021.61 508.358C1021.14 508.11 1020.58 507.954 1020 507.905C1019.42 507.856 1018.83 507.916 1018.29 508.078C1015.08 509.123 1015.54 512.734 999.742 519.972Z" fill="#FFB35B"/>
<path d="M1006.12 480.538C1016.47 474.938 1019.86 471.296 1020.3 469.221C1020.81 466.881 1018.28 466.99 1017.93 467.107C1017.93 466.811 1016.33 465.376 1012.44 466.702C1006.91 468.589 1006.05 477.746 1006.12 480.538Z" fill="#FFB35B"/>
<path d="M868.766 574.918C852.082 575.628 840.941 579.348 837.36 582.312C832.928 585.97 840.186 586.141 841.081 586.102C840.617 586.562 839.097 590.15 847.746 589.222C857.172 588.286 867.267 577.687 868.766 574.918Z" fill="#FFB35B"/>
<path d="M103.258 447.156C104.919 451.555 110.926 454.784 115.272 455.182C120.665 455.673 118.022 452.397 117.688 452.062C118.227 452.062 121.614 451.461 118.13 449.153C115.197 447.234 105.76 446.985 103.258 447.156Z" fill="#FFB35B"/>
<path d="M124.617 466.484C128.737 472.771 136.135 476.452 139.716 476.725C143.297 476.998 141.388 474.323 141.118 474.034C141.495 474.034 143.631 473.675 141.118 471.429C138.605 469.183 128.349 466.945 124.617 466.484Z" fill="#FFB35B"/>
<path d="M1208.65 277.414C1199.1 280.721 1193.55 286.617 1193.13 289.511C1192.71 292.404 1196.8 290.829 1197.23 290.618C1197.23 290.922 1197.79 292.615 1201.2 290.618C1204.61 288.622 1207.96 280.386 1208.65 277.414Z" fill="#FFB35B"/>
<path d="M455.771 332.078C451.155 335.198 450.001 340.533 451.543 343.504C453.463 347.217 456.224 343.972 456.45 343.605C456.688 343.964 459.006 345.852 460.214 342.545C461.228 339.76 457.141 333.607 455.771 332.078Z" fill="#FFB35B"/>
<path d="M609.688 504.731C612.416 511.236 618.024 514.87 621.885 515.65C626.663 516.601 626.037 513.661 625.886 513.31C626.48 513.396 630.837 513.201 628.809 509.941C626.609 506.377 613.085 504.7 609.688 504.731Z" fill="#FFB35B"/>
<path d="M537.961 550.615C538.791 556.488 542.739 560.255 545.855 561.378C549.706 562.767 549.857 560.185 549.803 559.873C550.288 560.013 554.052 560.38 553.038 557.354C552.003 554.07 540.862 551.005 537.961 550.615Z" fill="#FFB35B"/>
<path d="M408.703 554.219C421.85 554.999 428.914 552.167 430.855 550.093C432.797 548.018 430.219 547.176 429.885 547.106C430.111 546.872 430.963 545.023 427.879 544.485C423.899 543.807 412.737 550.857 408.703 554.219Z" fill="#FFB35B"/>
<path d="M299.195 536.677C310.261 536.459 316.451 538.416 319.039 540.187C322.275 542.402 320.032 543.501 319.676 543.595C320.107 543.93 322.803 547.003 318.824 548.126C313 549.772 301.061 539.243 299.195 536.677Z" fill="#FFB35B"/>
<path d="M219.246 547.917C193.362 551.115 187.312 527.904 192.974 518.373C192.974 518.373 191.949 530.446 206.369 533.621C220.788 536.795 221.824 547.597 219.246 547.917Z" fill="#FFB35B"/>
<path d="M160.277 394.418C143.021 384.684 155.391 371.02 165.184 368.93C162.667 370.53 161.021 372.725 160.539 375.123C160.056 377.521 160.77 379.965 162.552 382.017C168.754 389.793 161.992 395.385 160.277 394.418Z" fill="#FFB35B"/>
<path d="M756.32 491.527C760.839 487.253 764.743 478.674 763.805 473.939C762.727 468.371 765.207 472.996 765.498 474.556C765.789 476.115 767.752 481.661 764.948 488.368C762.144 495.076 756.32 491.527 756.32 491.527Z" fill="#00090E"/>
<path d="M987.594 339.519C995.144 346.804 1007.72 326.744 1007.72 326.744C1007.72 326.744 981.706 333.857 987.594 339.519Z" fill="#FFB35B"/>
<path d="M225.008 648.082H1088.24C1088.24 648.082 917.709 659.999 627.456 659.999C316.161 659.999 225.008 648.082 225.008 648.082Z" fill="#FFB35B"/>
<path d="M744.46 450.229C748.299 447.328 748.774 442.617 745.797 440.324C742.821 438.031 737.773 440.441 737.773 440.441L742.95 433.913C742.95 433.913 750.802 432.704 752.473 434.88C754.145 437.056 753.476 445.635 753.476 445.635C753.476 445.635 750.133 449.387 744.46 450.229Z" fill="#00090E"/>
</g>
<defs>
<clipPath id="clip0_837_4447">
<rect width="1240" height="660" fill="white"/>
</clipPath>
</defs>
</svg>
